M48
;Layer_Color=9474304
;FILE_FORMAT=4:4
METRIC,TZ
;TYPE=PLATED
T1F00S00C0.3000
T2F00S00C0.5000
T3F00S00C0.6000
T6F00S00C0.7600
T7F00S00C0.9000
T8F00S00C1.0000
T9F00S00C1.6000
T10F00S00C1.7000
T11F00S00C2.3000
T12F00S00C2.7000
T13F00S00C3.2000
T14F00S00C3.4000
;TYPE=NON_PLATED
T15F00S00C0.7100
T16F00S00C3.2000
%
T01
X18000Y-244000
Y-206000
X102000Y-192000
X132000
X179000Y-201000
X201000
X190000Y-182000
X226000Y-131000
Y-90000
X218000Y-75000
X200231Y-91186
X193981
X183000Y-79000
Y-71000
Y-63000
Y-55000
X190000Y-43000
Y-25000
Y-7000
X211000Y5000
X251582Y-113429
X277114Y-115824
X280162Y-127000
X275000Y-132000
X285000Y-108000
X132000Y-260000
X102000
X23000Y-39000
X4000Y-49000
X-9000Y-45000
X-26000
Y-35000
X-107000Y-44000
X-117000
X-164000Y-61000
Y-69000
Y-77000
Y-85000
X-191859Y-76859
X-190000Y-120000
X-202120Y-149483
X-243000Y-150000
X-243000Y-140000
Y-130000
Y-120000
Y-110000
Y-100000
Y-90000
X-243500Y-72500
X-263000Y-90000
Y-100000
Y-110000
Y-120000
Y-130000
X-297000
Y-120000
Y-110000
Y-100000
Y-90000
X-305000Y-46000
X-294000Y-30000
X-290000Y-4000
X-271000Y-20000
X-244000Y-30000
X-240000Y-4000
X-237500Y21500
X-192500Y21500
X-193000Y0
X-221000Y-20000
X-292000Y-145000
X-222000Y-248000
X-157000Y-215000
Y-206000
X-145000Y37000
X-132000Y41000
X-133000Y27000
X-107000Y37000
X-100000Y41000
X-94000Y37000
X-192500Y38500
X-190000Y56000
X-183000Y63000
X-180000Y79000
X-186000Y86000
X-180000Y93000
X-186000Y100000
X-180000Y107000
X-186000Y114000
X-180000Y121000
X-186000Y128000
X-208000Y133000
X-250000Y124000
Y155000
X-260000Y171500
Y188500
X-290000Y133500
X-296000Y128750
X-301000Y124000
X-306000Y118000
X-300000Y99000
X-301000Y88000
X-315000Y85000
X-291000Y79000
X-274500Y38500
X-250513Y51793
X-223000Y51000
X-315000Y39000
X-303852Y27500
X-152908Y197358
Y203608
X-143000Y209000
Y190000
X-99000Y186500
X-86349Y188250
X-73649
X-73626Y211320
X-86326
X-99000Y213000
X-133500Y246000
X-133500Y266000
X-43500
X-43500Y246000
X-49000Y185000
X59000
X81000Y186500
X93651Y188250
X106351
X93674Y211320
X81000Y213000
X133081Y217359
X139000Y241000
X172000Y207000
X186000Y195000
X213000Y180000
X189000Y150000
X182000Y115000
X190687Y93000
Y65000
X214000Y55000
Y85000
X208500Y122750
X189000Y25000
X146000Y37000
X133000
X107000
X95000
X26000
X13000
X19000Y28000
X-13000Y37000
X-25000
X46500Y246000
X46500Y266000
X240000Y220000
X277000Y173000
T02
X-50000Y-40000
X-40000
X-50000Y-30000
Y-20000
Y-10000
Y0
Y10000
Y20000
X50000
Y10000
Y0
Y-10000
Y-20000
Y-30000
Y-40000
X40000
X70000
X80000
X70000Y-30000
Y-20000
Y-10000
Y0
Y10000
Y20000
X170000
Y10000
Y0
Y-10000
Y-20000
Y-30000
Y-40000
X160000
X-70000
X-80000
X-70000Y-30000
Y-20000
Y-10000
Y0
Y10000
Y20000
X-170000
Y10000
Y0
Y-10000
Y-20000
Y-30000
Y-42500
X-156081Y-36081
X-160000Y30000
X-170000
X-80000
X-70000
X-50000
X-40000
X40000
X50000
X70000
X80000
X160000
X170000
T03
X-60000Y-340000
X-50000
X-40000
X-30000
X-20000
X-10000
X0
X10000
X20000
X30000
X40000
X50000
X60000
T06
X-284450Y-476500
X-259050
X-233650
X-208250
X-220950Y-451100
X-246350
X-271750
X-195550
X208250
X233650
X259050
X284450
X271750Y-476500
X246350
X220950
X195550
T07
X270000Y0
Y20000
Y40000
Y60000
Y80000
Y100000
T08
X-232700Y-400000
X-207300
X197300
X222700
X135000Y-580000
X25000
X30000Y-180000
X80000
X85000Y-90000
X135000
X25000
X-25000
X-30000Y-180000
X177300Y-230000
X202700
X-80000Y-180000
X-85000Y-90000
X-135000
T09
X-49600Y-407000
Y-373000
X49600
Y-407000
T10
X55000Y-480000
X105000
T11
X-90000Y290000
X0
X90000
T12
X-116000Y-450000
X-120000Y-390000
X-44000Y-450000
X120000Y-390000
X40000Y-300000
X-40000
T13
X155000Y-155000
X-155000
Y155000
X155000
T14
X-290000Y-390000
X290000
T15
X264693Y-156955
X295307Y-83045
T16
X-297150Y-540000
X-182850
X182850
X297150
M30
