999
"DXF R12 Output" (www.mydxf.blogspot.com)
 0 
SECTION
 2 
HEADER
 9 
$ACADVER
 1 
AC1009
 9 
$EXTMIN
 10 
 0 
 20 
 0 
 9 
$EXTMAX
 10 
 8.5 
 20 
 11 
 0 
ENDSEC
 0 
SECTION
 2 
ENTITIES
0
LINE
8
Layer 1
10
0.793749
20
297.793749
11
-0.793749
21
296.206251
0
LINE
8
Layer 1
10
0.000000
20
298.322915
11
0.000000
21
295.677085
0
LINE
8
Layer 1
10
2.116664
20
295.941668
11
1.058332
21
294.883336
0
LINE
8
Layer 1
10
1.587498
20
296.470834
11
0.529166
21
295.412502
0
LINE
8
Layer 1
10
1.058332
20
297.000000
11
0.000000
21
295.941668
0
LINE
8
0
10
-13.899982
20
-15.499606
11
-14.114342
21
-14.699607
0
LINE
8
0
10
-14.114342
20
-14.699607
11
-14.699981
21
-14.113967
0
LINE
8
0
10
-14.699981
20
-14.113967
11
-15.499980
21
-13.899608
0
LINE
8
0
10
-15.499980
20
-13.899608
11
-16.299979
21
-14.113967
0
LINE
8
0
10
-16.299979
20
-14.113967
11
-16.885619
21
-14.699607
0
LINE
8
0
10
-16.885619
20
-14.699607
11
-17.099978
21
-15.499606
0
LINE
8
0
10
-17.099978
20
-15.499606
11
-16.885619
21
-16.299605
0
LINE
8
0
10
-16.885619
20
-16.299605
11
-16.299979
21
-16.885245
0
LINE
8
0
10
-16.299979
20
-16.885245
11
-15.499980
21
-17.099604
0
LINE
8
0
10
-15.499980
20
-17.099604
11
-14.699981
21
-16.885245
0
LINE
8
0
10
-14.699981
20
-16.885245
11
-14.114342
21
-16.299605
0
LINE
8
0
10
-14.114342
20
-16.299605
11
-13.899982
21
-15.499606
0
LINE
8
0
10
-13.899982
20
-15.499606
11
-13.899982
21
-15.499606
0
LINE
8
0
10
17.099978
20
-15.499606
11
16.885619
21
-14.699607
0
LINE
8
0
10
16.885619
20
-14.699607
11
16.299979
21
-14.113967
0
LINE
8
0
10
16.299979
20
-14.113967
11
15.499980
21
-13.899608
0
LINE
8
0
10
15.499980
20
-13.899608
11
14.699981
21
-14.113967
0
LINE
8
0
10
14.699981
20
-14.113967
11
14.114342
21
-14.699607
0
LINE
8
0
10
14.114342
20
-14.699607
11
13.899982
21
-15.499606
0
LINE
8
0
10
13.899982
20
-15.499606
11
14.114342
21
-16.299605
0
LINE
8
0
10
14.114342
20
-16.299605
11
14.699981
21
-16.885245
0
LINE
8
0
10
14.699981
20
-16.885245
11
15.499980
21
-17.099604
0
LINE
8
0
10
15.499980
20
-17.099604
11
16.299979
21
-16.885245
0
LINE
8
0
10
16.299979
20
-16.885245
11
16.885619
21
-16.299605
0
LINE
8
0
10
16.885619
20
-16.299605
11
17.099978
21
-15.499606
0
LINE
8
0
10
17.099978
20
-15.499606
11
17.099978
21
-15.499606
0
LINE
8
0
10
17.099978
20
15.500355
11
16.885619
21
16.300354
0
LINE
8
0
10
16.885619
20
16.300354
11
16.299979
21
16.885993
0
LINE
8
0
10
16.299979
20
16.885993
11
15.499980
21
17.100353
0
LINE
8
0
10
15.499980
20
17.100353
11
14.699981
21
16.885993
0
LINE
8
0
10
14.699981
20
16.885993
11
14.114342
21
16.300354
0
LINE
8
0
10
14.114342
20
16.300354
11
13.899982
21
15.500355
0
LINE
8
0
10
13.899982
20
15.500355
11
14.114342
21
14.700356
0
LINE
8
0
10
14.114342
20
14.700356
11
14.699981
21
14.114716
0
LINE
8
0
10
14.699981
20
14.114716
11
15.499980
21
13.900357
0
LINE
8
0
10
15.499980
20
13.900357
11
16.299979
21
14.114716
0
LINE
8
0
10
16.299979
20
14.114716
11
16.885619
21
14.700356
0
LINE
8
0
10
16.885619
20
14.700356
11
17.099978
21
15.500355
0
LINE
8
0
10
17.099978
20
15.500355
11
17.099978
21
15.500355
0
LINE
8
0
10
-13.899982
20
15.500355
11
-14.114342
21
16.300354
0
LINE
8
0
10
-14.114342
20
16.300354
11
-14.699981
21
16.885993
0
LINE
8
0
10
-14.699981
20
16.885993
11
-15.499980
21
17.100353
0
LINE
8
0
10
-15.499980
20
17.100353
11
-16.299979
21
16.885993
0
LINE
8
0
10
-16.299979
20
16.885993
11
-16.885619
21
16.300354
0
LINE
8
0
10
-16.885619
20
16.300354
11
-17.099978
21
15.500355
0
LINE
8
0
10
-17.099978
20
15.500355
11
-16.885619
21
14.700356
0
LINE
8
0
10
-16.885619
20
14.700356
11
-16.299979
21
14.114716
0
LINE
8
0
10
-16.299979
20
14.114716
11
-15.499980
21
13.900357
0
LINE
8
0
10
-15.499980
20
13.900357
11
-14.699981
21
14.114716
0
LINE
8
0
10
-14.699981
20
14.114716
11
-14.114342
21
14.700356
0
LINE
8
0
10
-14.114342
20
14.700356
11
-13.899982
21
15.500355
0
LINE
8
0
10
-13.899982
20
15.500355
11
-13.899982
21
15.500355
0
LINE
8
0
10
2.999996
20
0.000374
11
2.896150
21
0.783126
0
LINE
8
0
10
2.896150
20
0.783126
11
2.598073
21
1.500372
0
LINE
8
0
10
2.598073
20
1.500372
11
2.125958
21
2.117138
0
LINE
8
0
10
2.125958
20
2.117138
11
1.499998
21
2.598447
0
LINE
8
0
10
1.499998
20
2.598447
11
0.770192
21
2.899890
0
LINE
8
0
10
0.770192
20
2.899890
11
0.000000
21
3.000370
0
LINE
8
0
10
0.000000
20
3.000370
11
-0.770192
21
2.899890
0
LINE
8
0
10
-0.770192
20
2.899890
11
-1.499998
21
2.598447
0
LINE
8
0
10
-1.499998
20
2.598447
11
-2.125958
21
2.117138
0
LINE
8
0
10
-2.125958
20
2.117138
11
-2.598073
21
1.500372
0
LINE
8
0
10
-2.598073
20
1.500372
11
-2.896150
21
0.783126
0
LINE
8
0
10
-2.896150
20
0.783126
11
-2.999996
21
0.000374
0
LINE
8
0
10
-2.999996
20
0.000374
11
-2.896150
21
-0.782378
0
LINE
8
0
10
-2.896150
20
-0.782378
11
-2.598073
21
-1.499624
0
LINE
8
0
10
-2.598073
20
-1.499624
11
-2.125958
21
-2.116389
0
LINE
8
0
10
-2.125958
20
-2.116389
11
-1.499998
21
-2.597699
0
LINE
8
0
10
-1.499998
20
-2.597699
11
-0.770192
21
-2.899141
0
LINE
8
0
10
-0.770192
20
-2.899141
11
-0.000000
21
-2.999622
0
LINE
8
0
10
-0.000000
20
-2.999622
11
0.770192
21
-2.899141
0
LINE
8
0
10
0.770192
20
-2.899141
11
1.499998
21
-2.597699
0
LINE
8
0
10
1.499998
20
-2.597699
11
2.125958
21
-2.116389
0
LINE
8
0
10
2.125958
20
-2.116389
11
2.598073
21
-1.499624
0
LINE
8
0
10
2.598073
20
-1.499624
11
2.896150
21
-0.782378
0
LINE
8
0
10
2.896150
20
-0.782378
11
2.999996
21
0.000374
0
LINE
8
0
10
2.999996
20
0.000374
11
2.999996
21
0.000374
0
LINE
8
0
10
19.733676
20
-27.686791
11
18.868121
21
-26.784180
0
LINE
8
0
10
18.868121
20
-26.784180
11
17.765859
21
-26.285990
0
LINE
8
0
10
17.765859
20
-26.285990
11
16.557832
21
-26.223971
0
LINE
8
0
10
16.557832
20
-26.223971
11
15.374982
21
-26.629876
0
LINE
8
0
10
15.374982
20
-26.629876
11
14.432033
21
-27.451301
0
LINE
8
0
10
14.432033
20
-27.451301
11
13.881729
21
-28.528493
0
LINE
8
0
10
13.881729
20
-28.528493
11
13.762044
21
-29.732175
0
LINE
8
0
10
13.762044
20
-29.732175
11
14.110951
21
-30.933073
0
LINE
8
0
10
19.733676
20
-27.686791
11
22.604737
21
-25.397163
0
LINE
8
0
10
22.604737
20
-25.397163
11
25.190695
21
-22.834721
0
LINE
8
0
10
25.190695
20
-22.834721
11
27.475931
21
-20.026517
0
LINE
8
0
10
27.475931
20
-20.026517
11
29.444827
21
-16.999604
0
LINE
8
0
10
29.444827
20
-16.999604
11
31.081762
21
-13.781035
0
LINE
8
0
10
31.081762
20
-13.781035
11
32.371120
21
-10.397861
0
LINE
8
0
10
32.371120
20
-10.397861
11
33.297281
21
-6.877134
0
LINE
8
0
10
33.297281
20
-6.877134
11
33.844627
21
-3.245908
0
LINE
8
0
10
33.844627
20
3.246656
11
32.630165
21
2.948369
0
LINE
8
0
10
32.630165
20
2.948369
11
31.647588
21
2.242877
0
LINE
8
0
10
31.647588
20
2.242877
11
30.989865
21
1.227704
0
LINE
8
0
10
30.989865
20
1.227704
11
30.749964
21
0.000374
0
LINE
8
0
10
30.749964
20
0.000374
11
30.989865
21
-1.226956
0
LINE
8
0
10
30.989865
20
-1.226956
11
31.647588
21
-2.242129
0
LINE
8
0
10
31.647588
20
-2.242129
11
32.630165
21
-2.947621
0
LINE
8
0
10
32.630165
20
-2.947621
11
33.844627
21
-3.245908
0
LINE
8
0
10
33.844627
20
3.246656
11
33.297281
21
6.877882
0
LINE
8
0
10
33.297281
20
6.877882
11
32.371120
21
10.398609
0
LINE
8
0
10
32.371120
20
10.398609
11
31.081762
21
13.781783
0
LINE
8
0
10
31.081762
20
13.781783
11
29.444827
21
17.000353
0
LINE
8
0
10
29.444827
20
17.000353
11
27.475931
21
20.027265
0
LINE
8
0
10
27.475931
20
20.027265
11
25.190695
21
22.835469
0
LINE
8
0
10
25.190695
20
22.835469
11
22.604737
21
25.397911
0
LINE
8
0
10
22.604737
20
25.397911
11
19.733676
21
27.687539
0
LINE
8
0
10
14.110951
20
30.933822
11
13.762043
21
29.732923
0
LINE
8
0
10
13.762043
20
29.732923
11
13.881728
21
28.529241
0
LINE
8
0
10
13.881728
20
28.529241
11
14.432032
21
27.452049
0
LINE
8
0
10
14.432032
20
27.452049
11
15.374981
21
26.630623
0
LINE
8
0
10
15.374981
20
26.630623
11
16.557831
21
26.224718
0
LINE
8
0
10
16.557831
20
26.224718
11
17.765859
21
26.286737
0
LINE
8
0
10
17.765859
20
26.286737
11
18.868121
21
26.784928
0
LINE
8
0
10
18.868121
20
26.784928
11
19.733676
21
27.687539
0
LINE
8
0
10
14.110951
20
30.933822
11
10.692544
21
32.275420
0
LINE
8
0
10
10.692544
20
32.275420
11
7.180425
21
33.233704
0
LINE
8
0
10
7.180425
20
33.233704
11
3.605831
21
33.808675
0
LINE
8
0
10
3.605831
20
33.808675
11
-0.000000
21
34.000331
0
LINE
8
0
10
-0.000000
20
34.000331
11
-3.605831
21
33.808675
0
LINE
8
0
10
-3.605831
20
33.808675
11
-7.180425
21
33.233704
0
LINE
8
0
10
-7.180425
20
33.233704
11
-10.692544
21
32.275420
0
LINE
8
0
10
-10.692544
20
32.275420
11
-14.110951
21
30.933822
0
LINE
8
0
10
-19.733676
20
27.687539
11
-18.868121
21
26.784928
0
LINE
8
0
10
-18.868121
20
26.784928
11
-17.765859
21
26.286737
0
LINE
8
0
10
-17.765859
20
26.286737
11
-16.557831
21
26.224718
0
LINE
8
0
10
-16.557831
20
26.224718
11
-15.374981
21
26.630623
0
LINE
8
0
10
-15.374981
20
26.630623
11
-14.432032
21
27.452049
0
LINE
8
0
10
-14.432032
20
27.452049
11
-13.881728
21
28.529241
0
LINE
8
0
10
-13.881728
20
28.529241
11
-13.762043
21
29.732923
0
LINE
8
0
10
-13.762043
20
29.732923
11
-14.110951
21
30.933822
0
LINE
8
0
10
-19.733676
20
27.687539
11
-22.604737
21
25.397911
0
LINE
8
0
10
-22.604737
20
25.397911
11
-25.190695
21
22.835469
0
LINE
8
0
10
-25.190695
20
22.835469
11
-27.475931
21
20.027265
0
LINE
8
0
10
-27.475931
20
20.027265
11
-29.444827
21
17.000353
0
LINE
8
0
10
-29.444827
20
17.000353
11
-31.081762
21
13.781783
0
LINE
8
0
10
-31.081762
20
13.781783
11
-32.371120
21
10.398609
0
LINE
8
0
10
-32.371120
20
10.398609
11
-33.297281
21
6.877882
0
LINE
8
0
10
-33.297281
20
6.877882
11
-33.844627
21
3.246656
0
LINE
8
0
10
-33.844627
20
-3.245908
11
-32.630165
21
-2.947621
0
LINE
8
0
10
-32.630165
20
-2.947621
11
-31.647588
21
-2.242129
0
LINE
8
0
10
-31.647588
20
-2.242129
11
-30.989865
21
-1.226956
0
LINE
8
0
10
-30.989865
20
-1.226956
11
-30.749964
21
0.000374
0
LINE
8
0
10
-30.749964
20
0.000374
11
-30.989865
21
1.227704
0
LINE
8
0
10
-30.989865
20
1.227704
11
-31.647588
21
2.242877
0
LINE
8
0
10
-31.647588
20
2.242877
11
-32.630165
21
2.948369
0
LINE
8
0
10
-32.630165
20
2.948369
11
-33.844627
21
3.246656
0
LINE
8
0
10
-33.844627
20
-3.245908
11
-33.297281
21
-6.877134
0
LINE
8
0
10
-33.297281
20
-6.877134
11
-32.371120
21
-10.397861
0
LINE
8
0
10
-32.371120
20
-10.397861
11
-31.081762
21
-13.781035
0
LINE
8
0
10
-31.081762
20
-13.781035
11
-29.444827
21
-16.999604
0
LINE
8
0
10
-29.444827
20
-16.999604
11
-27.475931
21
-20.026517
0
LINE
8
0
10
-27.475931
20
-20.026517
11
-25.190695
21
-22.834721
0
LINE
8
0
10
-25.190695
20
-22.834721
11
-22.604737
21
-25.397163
0
LINE
8
0
10
-22.604737
20
-25.397163
11
-19.733676
21
-27.686791
0
LINE
8
0
10
-14.110951
20
-30.933073
11
-13.762044
21
-29.732175
0
LINE
8
0
10
-13.762044
20
-29.732175
11
-13.881729
21
-28.528493
0
LINE
8
0
10
-13.881729
20
-28.528493
11
-14.432033
21
-27.451301
0
LINE
8
0
10
-14.432033
20
-27.451301
11
-15.374982
21
-26.629876
0
LINE
8
0
10
-15.374982
20
-26.629876
11
-16.557832
21
-26.223971
0
LINE
8
0
10
-16.557832
20
-26.223971
11
-17.765859
21
-26.285990
0
LINE
8
0
10
-17.765859
20
-26.285990
11
-18.868121
21
-26.784180
0
LINE
8
0
10
-18.868121
20
-26.784180
11
-19.733676
21
-27.686791
0
LINE
8
0
10
-14.110951
20
-30.933073
11
-10.692544
21
-32.274671
0
LINE
8
0
10
-10.692544
20
-32.274671
11
-7.180425
21
-33.232956
0
LINE
8
0
10
-7.180425
20
-33.232956
11
-3.605831
21
-33.807926
0
LINE
8
0
10
-3.605831
20
-33.807926
11
-0.000000
21
-33.999583
0
LINE
8
0
10
-0.000000
20
-33.999583
11
3.605831
21
-33.807926
0
LINE
8
0
10
3.605831
20
-33.807926
11
7.180425
21
-33.232956
0
LINE
8
0
10
7.180425
20
-33.232956
11
10.692544
21
-32.274671
0
LINE
8
0
10
10.692544
20
-32.274671
11
14.110951
21
-30.933073
 0 
ENDSEC
 0 
EOF