%TF.GenerationSoftware,Altium Limited,Altium Designer,23.4.1 (23)*%
G04 Layer_Physical_Order=2*
G04 Layer_Color=36540*
%FSLAX45Y45*%
%MOMM*%
%TF.SameCoordinates,71FFD784-3963-444D-9D63-9DA0FBDCC313*%
%TF.FilePolarity,Positive*%
%TF.FileFunction,Copper,L2,Inr,Signal*%
%TF.Part,Single*%
G01*
G75*
%TA.AperFunction,ComponentPad*%
%ADD46C,2.00000*%
%ADD47R,2.00000X2.00000*%
%ADD48C,3.80000*%
%ADD49R,1.70000X2.00000*%
%ADD50O,1.70000X2.00000*%
%ADD51C,1.50000*%
%ADD52R,1.50000X1.50000*%
%ADD53C,1.60000*%
%ADD54R,1.60000X1.60000*%
%ADD56C,1.26800*%
%ADD57C,3.20000*%
%ADD58C,1.50800*%
%ADD59C,2.60000*%
%ADD60R,2.60000X2.60000*%
%ADD61O,1.20000X2.40000*%
%ADD62R,3.70000X3.70000*%
%ADD63C,3.70000*%
%ADD64C,6.00000*%
%ADD65C,0.71000*%
G04:AMPARAMS|DCode=66|XSize=1.6mm|YSize=1.1mm|CornerRadius=0mm|HoleSize=0mm|Usage=FLASHONLY|Rotation=67.500|XOffset=0mm|YOffset=0mm|HoleType=Round|Shape=Round|*
%AMOVALD66*
21,1,0.50000,1.10000,0.00000,0.00000,67.5*
1,1,1.10000,-0.09567,-0.23097*
1,1,1.10000,0.09567,0.23097*
%
%ADD66OVALD66*%

%ADD67C,2.40000*%
%ADD68O,5.00000X6.00000*%
%TA.AperFunction,ViaPad*%
%ADD69C,0.50000*%
%ADD71C,0.60000*%
G36*
X797556Y-3520451D02*
X798786Y-3520307D01*
X800000Y-3520548D01*
X3183484D01*
X3204050Y-3524639D01*
X3223423Y-3532664D01*
X3240858Y-3544313D01*
X3255687Y-3559142D01*
X3267336Y-3576577D01*
X3275361Y-3595950D01*
X3279452Y-3616516D01*
Y-3627000D01*
Y-6100000D01*
Y-6107825D01*
X3276398Y-6123176D01*
X3270409Y-6137634D01*
X3261714Y-6150647D01*
X3250647Y-6161715D01*
X3237634Y-6170410D01*
X3223175Y-6176399D01*
X3207825Y-6179452D01*
X-3207826D01*
X-3223175Y-6176399D01*
X-3237634Y-6170410D01*
X-3250647Y-6161715D01*
X-3261715Y-6150647D01*
X-3270409Y-6137635D01*
X-3276399Y-6123175D01*
X-3279452Y-6107826D01*
Y-6100000D01*
Y-3627000D01*
Y-3616515D01*
X-3275361Y-3595950D01*
X-3267336Y-3576577D01*
X-3255687Y-3559142D01*
X-3240858Y-3544313D01*
X-3223424Y-3532664D01*
X-3204051Y-3524639D01*
X-3183485Y-3520548D01*
X-800197D01*
X-800000Y-3520588D01*
X780000D01*
X785533Y-3519487D01*
X797556Y-3520451D01*
D02*
G37*
G36*
X357833Y3360436D02*
X713120Y3303349D01*
X842512Y3268068D01*
X842312Y3254959D01*
X803908Y3245739D01*
X758828Y3227066D01*
X717223Y3201571D01*
X680119Y3169881D01*
X648429Y3132777D01*
X622934Y3091172D01*
X604261Y3046091D01*
X592870Y2998644D01*
X589041Y2950000D01*
Y2850000D01*
X592870Y2801356D01*
X604261Y2753909D01*
X622934Y2708828D01*
X648429Y2667223D01*
X680119Y2630119D01*
X717223Y2598429D01*
X758828Y2572934D01*
X803908Y2554261D01*
X851355Y2542870D01*
X900000Y2539042D01*
X948645Y2542870D01*
X996091Y2554261D01*
X1041172Y2572934D01*
X1082777Y2598429D01*
X1119881Y2630119D01*
X1151571Y2667223D01*
X1177066Y2708828D01*
X1195739Y2753909D01*
X1207130Y2801356D01*
X1210958Y2850000D01*
Y2950000D01*
X1207130Y2998644D01*
X1195739Y3046091D01*
X1177066Y3091172D01*
X1151571Y3132777D01*
X1119881Y3169881D01*
X1115097Y3173967D01*
X1121630Y3184857D01*
X1386129Y3081103D01*
X1357013Y2980888D01*
X1356512Y2975102D01*
X1355949Y2969328D01*
X1367538Y2852777D01*
X1369189Y2847352D01*
X1370736Y2841888D01*
X1424021Y2737585D01*
X1427619Y2733031D01*
X1431169Y2728436D01*
X1522521Y2648857D01*
X1527606Y2645944D01*
X1532685Y2642989D01*
X1647278Y2603666D01*
X1653028Y2602889D01*
X1658774Y2602050D01*
X1775746Y2608055D01*
X1781250Y2609446D01*
X1786776Y2610729D01*
X1893507Y2658969D01*
X1898232Y2662348D01*
X1902987Y2665671D01*
X1975218Y2740995D01*
X2246377Y2524751D01*
X2503430Y2270115D01*
X2730630Y1991016D01*
X2926362Y1690207D01*
X3089124Y1370310D01*
X3217325Y1034079D01*
X3309438Y684149D01*
X3361346Y340147D01*
X3259999Y315255D01*
X3254742Y312798D01*
X3249455Y310396D01*
X3154314Y242084D01*
X3150439Y237939D01*
X3146483Y233870D01*
X3082796Y135572D01*
X3080651Y130179D01*
X3078447Y124808D01*
X3055206Y5905D01*
X3055226Y37D01*
X3055206Y-5831D01*
X3078447Y-124734D01*
X3080647Y-130095D01*
X3082796Y-135498D01*
X3146483Y-233796D01*
X3150436Y-237862D01*
X3154314Y-242010D01*
X3249455Y-310322D01*
X3254742Y-312724D01*
X3259999Y-315180D01*
X3361348Y-340073D01*
X3309655Y-683024D01*
X3217654Y-1032981D01*
X3089556Y-1369258D01*
X2926901Y-1689201D01*
X2731264Y-1990070D01*
X2504161Y-2269237D01*
X2247192Y-2523948D01*
X1975216Y-2740919D01*
X1902987Y-2665597D01*
X1898226Y-2662270D01*
X1893507Y-2658895D01*
X1786776Y-2610655D01*
X1781249Y-2609372D01*
X1775746Y-2607981D01*
X1658774Y-2601975D01*
X1653026Y-2602815D01*
X1647278Y-2603591D01*
X1532685Y-2642915D01*
X1527592Y-2645878D01*
X1522522Y-2648783D01*
X1431169Y-2728362D01*
X1427624Y-2732951D01*
X1424021Y-2737510D01*
X1370736Y-2841813D01*
X1369191Y-2847271D01*
X1367538Y-2852702D01*
X1355949Y-2969254D01*
X1356513Y-2975039D01*
X1357013Y-2980814D01*
X1386130Y-3081031D01*
X1063309Y-3207726D01*
X742537Y-3295313D01*
X742507Y-3295328D01*
X742473Y-3295330D01*
X740202Y-3296470D01*
X-740221D01*
X-742542Y-3295312D01*
X-1062228Y-3208085D01*
X-1386130Y-3081028D01*
X-1357014Y-2980814D01*
X-1356513Y-2975029D01*
X-1355949Y-2969254D01*
X-1367538Y-2852702D01*
X-1369191Y-2847271D01*
X-1370737Y-2841813D01*
X-1424022Y-2737510D01*
X-1427620Y-2732957D01*
X-1431169Y-2728362D01*
X-1522522Y-2648783D01*
X-1527607Y-2645869D01*
X-1532686Y-2642915D01*
X-1647278Y-2603591D01*
X-1653029Y-2602815D01*
X-1658775Y-2601975D01*
X-1775747Y-2607981D01*
X-1781251Y-2609372D01*
X-1786776Y-2610655D01*
X-1893508Y-2658895D01*
X-1898232Y-2662274D01*
X-1902987Y-2665597D01*
X-1975219Y-2740921D01*
X-2246377Y-2524676D01*
X-2503431Y-2270041D01*
X-2730631Y-1990942D01*
X-2926363Y-1690132D01*
X-3089125Y-1370236D01*
X-3217326Y-1034004D01*
X-3309438Y-684074D01*
X-3361346Y-340072D01*
X-3260000Y-315180D01*
X-3254743Y-312724D01*
X-3249456Y-310322D01*
X-3154314Y-242010D01*
X-3150439Y-237865D01*
X-3146483Y-233796D01*
X-3082797Y-135498D01*
X-3080652Y-130105D01*
X-3078448Y-124734D01*
X-3055206Y-5831D01*
X-3055226Y37D01*
X-3055206Y5905D01*
X-3078448Y124808D01*
X-3080648Y130169D01*
X-3082797Y135572D01*
X-3146483Y233870D01*
X-3150437Y237937D01*
X-3154314Y242084D01*
X-3249456Y310396D01*
X-3254743Y312798D01*
X-3260000Y315255D01*
X-3361349Y340147D01*
X-3309655Y683098D01*
X-3217655Y1033056D01*
X-3089557Y1369333D01*
X-2926902Y1689276D01*
X-2731264Y1990144D01*
X-2504161Y2269311D01*
X-2247193Y2524023D01*
X-1975217Y2740993D01*
X-1902987Y2665671D01*
X-1898226Y2662344D01*
X-1893508Y2658969D01*
X-1786776Y2610729D01*
X-1781249Y2609446D01*
X-1775747Y2608055D01*
X-1658774Y2602050D01*
X-1653027Y2602889D01*
X-1647278Y2603666D01*
X-1532685Y2642989D01*
X-1527601Y2645947D01*
X-1522522Y2648857D01*
X-1431169Y2728437D01*
X-1427624Y2733025D01*
X-1424022Y2737585D01*
X-1370737Y2841887D01*
X-1369191Y2847346D01*
X-1367538Y2852776D01*
X-1355949Y2969328D01*
X-1356512Y2975103D01*
X-1357014Y2980888D01*
X-1386131Y3081105D01*
X-1121513Y3184958D01*
X-1114978Y3174068D01*
X-1119881Y3169881D01*
X-1151571Y3132777D01*
X-1177066Y3091172D01*
X-1195739Y3046091D01*
X-1207130Y2998644D01*
X-1210958Y2950000D01*
Y2850000D01*
X-1207130Y2801356D01*
X-1195739Y2753909D01*
X-1177066Y2708828D01*
X-1151571Y2667223D01*
X-1119881Y2630119D01*
X-1082777Y2598429D01*
X-1041172Y2572934D01*
X-996091Y2554261D01*
X-948645Y2542870D01*
X-900000Y2539042D01*
X-851355Y2542870D01*
X-803908Y2554261D01*
X-758828Y2572934D01*
X-717223Y2598429D01*
X-680119Y2630119D01*
X-648429Y2667223D01*
X-622934Y2708828D01*
X-604261Y2753909D01*
X-592870Y2801356D01*
X-589041Y2850000D01*
Y2950000D01*
X-592870Y2998644D01*
X-604261Y3046091D01*
X-622934Y3091172D01*
X-648429Y3132777D01*
X-680119Y3169881D01*
X-717223Y3201571D01*
X-758828Y3227066D01*
X-803908Y3245739D01*
X-842344Y3254967D01*
X-842546Y3268076D01*
X-714238Y3303108D01*
X-358970Y3360314D01*
X-565Y3379425D01*
X357833Y3360436D01*
D02*
G37*
%LPC*%
G36*
X510774Y-3580000D02*
X481226D01*
X452247Y-3585765D01*
X424948Y-3597072D01*
X400381Y-3613488D01*
X379487Y-3634381D01*
X363072Y-3658948D01*
X351765Y-3686247D01*
X346000Y-3715227D01*
Y-3744774D01*
X351765Y-3773753D01*
X363072Y-3801052D01*
X379487Y-3825619D01*
X400381Y-3846513D01*
X424948Y-3862928D01*
X452247Y-3874236D01*
X481226Y-3880000D01*
X510774D01*
X539753Y-3874236D01*
X567052Y-3862928D01*
X591619Y-3846513D01*
X612513Y-3825619D01*
X628928Y-3801052D01*
X640235Y-3773753D01*
X646000Y-3744774D01*
Y-3715227D01*
X640235Y-3686247D01*
X628928Y-3658948D01*
X612513Y-3634381D01*
X591619Y-3613488D01*
X567052Y-3597072D01*
X539753Y-3585765D01*
X510774Y-3580000D01*
D02*
G37*
G36*
X-481226D02*
X-510774D01*
X-539753Y-3585765D01*
X-567052Y-3597072D01*
X-591619Y-3613488D01*
X-612513Y-3634381D01*
X-628928Y-3658948D01*
X-640235Y-3686247D01*
X-646000Y-3715227D01*
Y-3744774D01*
X-640235Y-3773753D01*
X-628928Y-3801052D01*
X-612513Y-3825619D01*
X-591619Y-3846513D01*
X-567052Y-3862928D01*
X-539753Y-3874236D01*
X-510774Y-3880000D01*
X-481226D01*
X-452247Y-3874236D01*
X-424948Y-3862928D01*
X-400381Y-3846513D01*
X-379487Y-3825619D01*
X-363072Y-3801052D01*
X-351765Y-3773753D01*
X-346000Y-3744774D01*
Y-3715227D01*
X-351765Y-3686247D01*
X-363072Y-3658948D01*
X-379487Y-3634381D01*
X-400381Y-3613488D01*
X-424948Y-3597072D01*
X-452247Y-3585765D01*
X-481226Y-3580000D01*
D02*
G37*
G36*
X-1968000Y-3895000D02*
X-2178000D01*
Y-4105000D01*
X-1968000D01*
Y-3895000D01*
D02*
G37*
G36*
X-2313177D02*
X-2340824D01*
X-2367529Y-3902156D01*
X-2391471Y-3915979D01*
X-2411021Y-3935529D01*
X-2424844Y-3959471D01*
X-2432000Y-3986176D01*
Y-4013823D01*
X-2424844Y-4040528D01*
X-2411021Y-4064471D01*
X-2391471Y-4084021D01*
X-2367529Y-4097844D01*
X-2340824Y-4105000D01*
X-2313177D01*
X-2286472Y-4097844D01*
X-2262529Y-4084021D01*
X-2242980Y-4064471D01*
X-2229156Y-4040528D01*
X-2222000Y-4013823D01*
Y-3986176D01*
X-2229156Y-3959471D01*
X-2242980Y-3935529D01*
X-2262529Y-3915979D01*
X-2286472Y-3902156D01*
X-2313177Y-3895000D01*
D02*
G37*
G36*
X-1178332Y-3680000D02*
X-1221668D01*
X-1264171Y-3688455D01*
X-1304209Y-3705039D01*
X-1340242Y-3729115D01*
X-1370885Y-3759758D01*
X-1394961Y-3795791D01*
X-1411545Y-3835828D01*
X-1420000Y-3878332D01*
Y-3921668D01*
X-1411545Y-3964172D01*
X-1394961Y-4004209D01*
X-1370885Y-4040242D01*
X-1340242Y-4070885D01*
X-1304209Y-4094961D01*
X-1264171Y-4111545D01*
X-1221668Y-4120000D01*
X-1178332D01*
X-1135828Y-4111545D01*
X-1095791Y-4094961D01*
X-1059758Y-4070885D01*
X-1029115Y-4040242D01*
X-1005039Y-4004209D01*
X-988454Y-3964172D01*
X-980000Y-3921668D01*
Y-3878332D01*
X-988454Y-3835828D01*
X-1005039Y-3795791D01*
X-1029115Y-3759758D01*
X-1059758Y-3729115D01*
X-1095791Y-3705039D01*
X-1135828Y-3688455D01*
X-1178332Y-3680000D01*
D02*
G37*
G36*
X2088000Y-3870000D02*
X1858001D01*
Y-4130000D01*
X2088000D01*
Y-3870000D01*
D02*
G37*
G36*
X2227000Y-3869008D02*
X2196979Y-3872960D01*
X2169004Y-3884547D01*
X2144981Y-3902981D01*
X2126548Y-3927004D01*
X2114960Y-3954979D01*
X2111008Y-3985000D01*
Y-4015000D01*
X2114960Y-4045021D01*
X2126548Y-4072996D01*
X2144981Y-4097019D01*
X2169004Y-4115452D01*
X2196979Y-4127040D01*
X2227000Y-4130992D01*
X2257021Y-4127040D01*
X2284996Y-4115452D01*
X2309019Y-4097019D01*
X2327453Y-4072996D01*
X2339040Y-4045021D01*
X2342993Y-4015000D01*
Y-3985000D01*
X2339040Y-3954979D01*
X2327453Y-3927004D01*
X2309019Y-3902981D01*
X2284996Y-3884547D01*
X2257021Y-3872960D01*
X2227000Y-3869008D01*
D02*
G37*
G36*
X510774Y-3920000D02*
X481226D01*
X452247Y-3925765D01*
X424948Y-3937072D01*
X400381Y-3953487D01*
X379487Y-3974381D01*
X363072Y-3998948D01*
X351765Y-4026247D01*
X346000Y-4055226D01*
Y-4084774D01*
X351765Y-4113753D01*
X363072Y-4141052D01*
X379487Y-4165619D01*
X400381Y-4186513D01*
X424948Y-4202928D01*
X452247Y-4214235D01*
X481226Y-4220000D01*
X510774D01*
X539753Y-4214235D01*
X567052Y-4202928D01*
X591619Y-4186513D01*
X612513Y-4165619D01*
X628928Y-4141052D01*
X640235Y-4113753D01*
X646000Y-4084774D01*
Y-4055226D01*
X640235Y-4026247D01*
X628928Y-3998948D01*
X612513Y-3974381D01*
X591619Y-3953487D01*
X567052Y-3937072D01*
X539753Y-3925765D01*
X510774Y-3920000D01*
D02*
G37*
G36*
X-481226D02*
X-510774D01*
X-539753Y-3925765D01*
X-567052Y-3937072D01*
X-591619Y-3953487D01*
X-612513Y-3974381D01*
X-628928Y-3998948D01*
X-640235Y-4026247D01*
X-646000Y-4055226D01*
Y-4084774D01*
X-640235Y-4113753D01*
X-628928Y-4141052D01*
X-612513Y-4165619D01*
X-591619Y-4186513D01*
X-567052Y-4202928D01*
X-539753Y-4214235D01*
X-510774Y-4220000D01*
X-481226D01*
X-452247Y-4214235D01*
X-424948Y-4202928D01*
X-400381Y-4186513D01*
X-379487Y-4165619D01*
X-363072Y-4141052D01*
X-351765Y-4113753D01*
X-346000Y-4084774D01*
Y-4055226D01*
X-351765Y-4026247D01*
X-363072Y-3998948D01*
X-379487Y-3974381D01*
X-400381Y-3953487D01*
X-424948Y-3937072D01*
X-452247Y-3925765D01*
X-481226Y-3920000D01*
D02*
G37*
G36*
X2348796Y-4417600D02*
X2324204D01*
X2300449Y-4423965D01*
X2279151Y-4436262D01*
X2261762Y-4453651D01*
X2249465Y-4474949D01*
X2243100Y-4498704D01*
Y-4523297D01*
X2249465Y-4547051D01*
X2261762Y-4568349D01*
X2279151Y-4585739D01*
X2300449Y-4598035D01*
X2324204Y-4604400D01*
X2348796D01*
X2372551Y-4598035D01*
X2393849Y-4585739D01*
X2411239Y-4568349D01*
X2423535Y-4547051D01*
X2429900Y-4523297D01*
Y-4498704D01*
X2423535Y-4474949D01*
X2411239Y-4453651D01*
X2393849Y-4436262D01*
X2372551Y-4423965D01*
X2348796Y-4417600D01*
D02*
G37*
G36*
X2094796D02*
X2070204D01*
X2046449Y-4423965D01*
X2025151Y-4436262D01*
X2007762Y-4453651D01*
X1995465Y-4474949D01*
X1989100Y-4498704D01*
Y-4523297D01*
X1995465Y-4547051D01*
X2007762Y-4568349D01*
X2025151Y-4585739D01*
X2046449Y-4598035D01*
X2070204Y-4604400D01*
X2094796D01*
X2118551Y-4598035D01*
X2139849Y-4585739D01*
X2157239Y-4568349D01*
X2169535Y-4547051D01*
X2175900Y-4523297D01*
Y-4498704D01*
X2169535Y-4474949D01*
X2157239Y-4453651D01*
X2139849Y-4436262D01*
X2118551Y-4423965D01*
X2094796Y-4417600D01*
D02*
G37*
G36*
X-2451204D02*
X-2475796D01*
X-2499551Y-4423965D01*
X-2520849Y-4436262D01*
X-2538239Y-4453651D01*
X-2550535Y-4474949D01*
X-2556900Y-4498704D01*
Y-4523297D01*
X-2550535Y-4547051D01*
X-2538239Y-4568349D01*
X-2520849Y-4585739D01*
X-2499551Y-4598035D01*
X-2475796Y-4604400D01*
X-2451204D01*
X-2427449Y-4598035D01*
X-2406151Y-4585739D01*
X-2388762Y-4568349D01*
X-2376465Y-4547051D01*
X-2370100Y-4523297D01*
Y-4498704D01*
X-2376465Y-4474949D01*
X-2388762Y-4453651D01*
X-2406151Y-4436262D01*
X-2427449Y-4423965D01*
X-2451204Y-4417600D01*
D02*
G37*
G36*
X-2705204D02*
X-2729796D01*
X-2753551Y-4423965D01*
X-2774849Y-4436262D01*
X-2792239Y-4453651D01*
X-2804535Y-4474949D01*
X-2810900Y-4498704D01*
Y-4523297D01*
X-2804535Y-4547051D01*
X-2792239Y-4568349D01*
X-2774849Y-4585739D01*
X-2753551Y-4598035D01*
X-2729796Y-4604400D01*
X-2705204D01*
X-2681449Y-4598035D01*
X-2660151Y-4585739D01*
X-2642762Y-4568349D01*
X-2630465Y-4547051D01*
X-2624100Y-4523297D01*
Y-4498704D01*
X-2630465Y-4474949D01*
X-2642762Y-4453651D01*
X-2660151Y-4436262D01*
X-2681449Y-4423965D01*
X-2705204Y-4417600D01*
D02*
G37*
G36*
X-945000Y-4285000D02*
X-1375000D01*
Y-4715000D01*
X-945000D01*
Y-4285000D01*
D02*
G37*
G36*
X2729796Y-4671600D02*
X2705204D01*
X2681449Y-4677965D01*
X2660151Y-4690262D01*
X2642762Y-4707651D01*
X2630465Y-4728949D01*
X2624100Y-4752704D01*
Y-4777297D01*
X2630465Y-4801051D01*
X2642762Y-4822349D01*
X2660151Y-4839739D01*
X2681449Y-4852035D01*
X2705204Y-4858400D01*
X2729796D01*
X2753551Y-4852035D01*
X2774849Y-4839739D01*
X2792239Y-4822349D01*
X2804535Y-4801051D01*
X2810900Y-4777297D01*
Y-4752704D01*
X2804535Y-4728949D01*
X2792239Y-4707651D01*
X2774849Y-4690262D01*
X2753551Y-4677965D01*
X2729796Y-4671600D01*
D02*
G37*
G36*
X2475796D02*
X2451204D01*
X2427449Y-4677965D01*
X2406151Y-4690262D01*
X2388762Y-4707651D01*
X2376465Y-4728949D01*
X2370100Y-4752704D01*
Y-4777297D01*
X2376465Y-4801051D01*
X2388762Y-4822349D01*
X2406151Y-4839739D01*
X2427449Y-4852035D01*
X2451204Y-4858400D01*
X2475796D01*
X2499551Y-4852035D01*
X2520849Y-4839739D01*
X2538239Y-4822349D01*
X2550535Y-4801051D01*
X2556900Y-4777297D01*
Y-4752704D01*
X2550535Y-4728949D01*
X2538239Y-4707651D01*
X2520849Y-4690262D01*
X2499551Y-4677965D01*
X2475796Y-4671600D01*
D02*
G37*
G36*
X2221796D02*
X2197204D01*
X2173449Y-4677965D01*
X2152151Y-4690262D01*
X2134762Y-4707651D01*
X2122465Y-4728949D01*
X2116100Y-4752704D01*
Y-4777297D01*
X2122465Y-4801051D01*
X2134762Y-4822349D01*
X2152151Y-4839739D01*
X2173449Y-4852035D01*
X2197204Y-4858400D01*
X2221796D01*
X2245551Y-4852035D01*
X2266849Y-4839739D01*
X2284239Y-4822349D01*
X2296535Y-4801051D01*
X2302900Y-4777297D01*
Y-4752704D01*
X2296535Y-4728949D01*
X2284239Y-4707651D01*
X2266849Y-4690262D01*
X2245551Y-4677965D01*
X2221796Y-4671600D01*
D02*
G37*
G36*
X1967796D02*
X1943204D01*
X1919449Y-4677965D01*
X1898151Y-4690262D01*
X1880762Y-4707651D01*
X1868465Y-4728949D01*
X1862100Y-4752704D01*
Y-4777297D01*
X1868465Y-4801051D01*
X1880762Y-4822349D01*
X1898151Y-4839739D01*
X1919449Y-4852035D01*
X1943204Y-4858400D01*
X1967796D01*
X1991551Y-4852035D01*
X2012849Y-4839739D01*
X2030239Y-4822349D01*
X2042535Y-4801051D01*
X2048900Y-4777297D01*
Y-4752704D01*
X2042535Y-4728949D01*
X2030239Y-4707651D01*
X2012849Y-4690262D01*
X1991551Y-4677965D01*
X1967796Y-4671600D01*
D02*
G37*
G36*
X-2070204D02*
X-2094796D01*
X-2118551Y-4677965D01*
X-2139849Y-4690262D01*
X-2157239Y-4707651D01*
X-2169535Y-4728949D01*
X-2175900Y-4752704D01*
Y-4777297D01*
X-2169535Y-4801051D01*
X-2157239Y-4822349D01*
X-2139849Y-4839739D01*
X-2118551Y-4852035D01*
X-2094796Y-4858400D01*
X-2070204D01*
X-2046449Y-4852035D01*
X-2025151Y-4839739D01*
X-2007762Y-4822349D01*
X-1995465Y-4801051D01*
X-1989100Y-4777297D01*
Y-4752704D01*
X-1995465Y-4728949D01*
X-2007762Y-4707651D01*
X-2025151Y-4690262D01*
X-2046449Y-4677965D01*
X-2070204Y-4671600D01*
D02*
G37*
G36*
X-2324204D02*
X-2348796D01*
X-2372551Y-4677965D01*
X-2393849Y-4690262D01*
X-2411239Y-4707651D01*
X-2423535Y-4728949D01*
X-2429900Y-4752704D01*
Y-4777297D01*
X-2423535Y-4801051D01*
X-2411239Y-4822349D01*
X-2393849Y-4839739D01*
X-2372551Y-4852035D01*
X-2348796Y-4858400D01*
X-2324204D01*
X-2300449Y-4852035D01*
X-2279151Y-4839739D01*
X-2261762Y-4822349D01*
X-2249465Y-4801051D01*
X-2243100Y-4777297D01*
Y-4752704D01*
X-2249465Y-4728949D01*
X-2261762Y-4707651D01*
X-2279151Y-4690262D01*
X-2300449Y-4677965D01*
X-2324204Y-4671600D01*
D02*
G37*
G36*
X-2578204D02*
X-2602796D01*
X-2626551Y-4677965D01*
X-2647849Y-4690262D01*
X-2665239Y-4707651D01*
X-2677535Y-4728949D01*
X-2683900Y-4752704D01*
Y-4777297D01*
X-2677535Y-4801051D01*
X-2665239Y-4822349D01*
X-2647849Y-4839739D01*
X-2626551Y-4852035D01*
X-2602796Y-4858400D01*
X-2578204D01*
X-2554449Y-4852035D01*
X-2533151Y-4839739D01*
X-2515762Y-4822349D01*
X-2503465Y-4801051D01*
X-2497100Y-4777297D01*
Y-4752704D01*
X-2503465Y-4728949D01*
X-2515762Y-4707651D01*
X-2533151Y-4690262D01*
X-2554449Y-4677965D01*
X-2578204Y-4671600D01*
D02*
G37*
G36*
X-2832204D02*
X-2856796D01*
X-2880551Y-4677965D01*
X-2901849Y-4690262D01*
X-2919239Y-4707651D01*
X-2931535Y-4728949D01*
X-2937900Y-4752704D01*
Y-4777297D01*
X-2931535Y-4801051D01*
X-2919239Y-4822349D01*
X-2901849Y-4839739D01*
X-2880551Y-4852035D01*
X-2856796Y-4858400D01*
X-2832204D01*
X-2808449Y-4852035D01*
X-2787151Y-4839739D01*
X-2769762Y-4822349D01*
X-2757465Y-4801051D01*
X-2751100Y-4777297D01*
Y-4752704D01*
X-2757465Y-4728949D01*
X-2769762Y-4707651D01*
X-2787151Y-4690262D01*
X-2808449Y-4677965D01*
X-2832204Y-4671600D01*
D02*
G37*
G36*
X1210000Y-4640000D02*
X890000D01*
Y-4960000D01*
X1210000D01*
Y-4640000D01*
D02*
G37*
G36*
X-125000Y-4949224D02*
X-148495Y-4952317D01*
X-170388Y-4961386D01*
X-189189Y-4975811D01*
X-203615Y-4994612D01*
X-212683Y-5016505D01*
X-215776Y-5040000D01*
Y-5160000D01*
X-212683Y-5183495D01*
X-203615Y-5205389D01*
X-189189Y-5224189D01*
X-170388Y-5238615D01*
X-148495Y-5247683D01*
X-125000Y-5250777D01*
X-101505Y-5247683D01*
X-79612Y-5238615D01*
X-60811Y-5224189D01*
X-46385Y-5205389D01*
X-37317Y-5183495D01*
X-34224Y-5160000D01*
Y-5040000D01*
X-37317Y-5016505D01*
X-46385Y-4994612D01*
X-60811Y-4975811D01*
X-79612Y-4961386D01*
X-101505Y-4952317D01*
X-125000Y-4949224D01*
D02*
G37*
G36*
X-1475000D02*
X-1498495Y-4952317D01*
X-1520388Y-4961386D01*
X-1539188Y-4975811D01*
X-1553614Y-4994612D01*
X-1562683Y-5016505D01*
X-1565776Y-5040000D01*
Y-5160000D01*
X-1562683Y-5183495D01*
X-1553614Y-5205389D01*
X-1539188Y-5224189D01*
X-1520388Y-5238615D01*
X-1498495Y-5247683D01*
X-1475000Y-5250777D01*
X-1451505Y-5247683D01*
X-1429612Y-5238615D01*
X-1410811Y-5224189D01*
X-1396385Y-5205389D01*
X-1387317Y-5183495D01*
X-1384224Y-5160000D01*
Y-5040000D01*
X-1387317Y-5016505D01*
X-1396385Y-4994612D01*
X-1410811Y-4975811D01*
X-1429612Y-4961386D01*
X-1451505Y-4952317D01*
X-1475000Y-4949224D01*
D02*
G37*
G36*
X2990213Y-5210000D02*
X2952787D01*
X2916079Y-5217302D01*
X2881501Y-5231625D01*
X2850382Y-5252418D01*
X2823918Y-5278882D01*
X2803124Y-5310002D01*
X2788802Y-5344579D01*
X2781500Y-5381287D01*
Y-5418714D01*
X2788802Y-5455421D01*
X2803124Y-5489999D01*
X2823918Y-5521118D01*
X2850382Y-5547583D01*
X2881501Y-5568376D01*
X2916079Y-5582698D01*
X2952787Y-5590000D01*
X2990213D01*
X3026921Y-5582698D01*
X3061499Y-5568376D01*
X3092618Y-5547583D01*
X3119082Y-5521118D01*
X3139876Y-5489999D01*
X3154198Y-5455421D01*
X3161500Y-5418714D01*
Y-5381287D01*
X3154198Y-5344579D01*
X3139876Y-5310002D01*
X3119082Y-5278882D01*
X3092618Y-5252418D01*
X3061499Y-5231625D01*
X3026921Y-5217302D01*
X2990213Y-5210000D01*
D02*
G37*
G36*
X1847213D02*
X1809787D01*
X1773079Y-5217302D01*
X1738501Y-5231625D01*
X1707382Y-5252418D01*
X1680918Y-5278882D01*
X1660124Y-5310002D01*
X1645802Y-5344579D01*
X1638500Y-5381287D01*
Y-5418714D01*
X1645802Y-5455421D01*
X1660124Y-5489999D01*
X1680918Y-5521118D01*
X1707382Y-5547583D01*
X1738501Y-5568376D01*
X1773079Y-5582698D01*
X1809787Y-5590000D01*
X1847213D01*
X1883921Y-5582698D01*
X1918499Y-5568376D01*
X1949618Y-5547583D01*
X1976082Y-5521118D01*
X1996876Y-5489999D01*
X2011198Y-5455421D01*
X2018500Y-5418714D01*
Y-5381287D01*
X2011198Y-5344579D01*
X1996876Y-5310002D01*
X1976082Y-5278882D01*
X1949618Y-5252418D01*
X1918499Y-5231625D01*
X1883921Y-5217302D01*
X1847213Y-5210000D01*
D02*
G37*
G36*
X-1809787D02*
X-1847213D01*
X-1883921Y-5217302D01*
X-1918499Y-5231625D01*
X-1949618Y-5252418D01*
X-1976082Y-5278882D01*
X-1996876Y-5310002D01*
X-2011198Y-5344579D01*
X-2018500Y-5381287D01*
Y-5418714D01*
X-2011198Y-5455421D01*
X-1996876Y-5489999D01*
X-1976082Y-5521118D01*
X-1949618Y-5547583D01*
X-1918499Y-5568376D01*
X-1883921Y-5582698D01*
X-1847213Y-5590000D01*
X-1809787D01*
X-1773079Y-5582698D01*
X-1738501Y-5568376D01*
X-1707382Y-5547583D01*
X-1680918Y-5521118D01*
X-1660124Y-5489999D01*
X-1645802Y-5455421D01*
X-1638500Y-5418714D01*
Y-5381287D01*
X-1645802Y-5344579D01*
X-1660124Y-5310002D01*
X-1680918Y-5278882D01*
X-1707382Y-5252418D01*
X-1738501Y-5231625D01*
X-1773079Y-5217302D01*
X-1809787Y-5210000D01*
D02*
G37*
G36*
X-2952787D02*
X-2990213D01*
X-3026921Y-5217302D01*
X-3061499Y-5231625D01*
X-3092618Y-5252418D01*
X-3119082Y-5278882D01*
X-3139876Y-5310002D01*
X-3154198Y-5344579D01*
X-3161500Y-5381287D01*
Y-5418714D01*
X-3154198Y-5455421D01*
X-3139876Y-5489999D01*
X-3119082Y-5521118D01*
X-3092618Y-5547583D01*
X-3061499Y-5568376D01*
X-3026921Y-5582698D01*
X-2990213Y-5590000D01*
X-2952787D01*
X-2916079Y-5582698D01*
X-2881501Y-5568376D01*
X-2850382Y-5547583D01*
X-2823918Y-5521118D01*
X-2803124Y-5489999D01*
X-2788802Y-5455421D01*
X-2781500Y-5418714D01*
Y-5381287D01*
X-2788802Y-5344579D01*
X-2803124Y-5310002D01*
X-2823918Y-5278882D01*
X-2850382Y-5252418D01*
X-2881501Y-5231625D01*
X-2916079Y-5217302D01*
X-2952787Y-5210000D01*
D02*
G37*
G36*
X1363876Y-5694600D02*
X1336124D01*
X1309317Y-5701783D01*
X1285283Y-5715659D01*
X1265659Y-5735283D01*
X1251783Y-5759317D01*
X1244600Y-5786124D01*
Y-5813876D01*
X1251783Y-5840683D01*
X1265659Y-5864717D01*
X1285283Y-5884341D01*
X1309317Y-5898217D01*
X1336124Y-5905400D01*
X1363876D01*
X1390683Y-5898217D01*
X1414717Y-5884341D01*
X1434341Y-5864717D01*
X1448217Y-5840683D01*
X1455400Y-5813876D01*
Y-5786124D01*
X1448217Y-5759317D01*
X1434341Y-5735283D01*
X1414717Y-5715659D01*
X1390683Y-5701783D01*
X1363876Y-5694600D01*
D02*
G37*
G36*
X263876D02*
X236124D01*
X209317Y-5701783D01*
X185283Y-5715659D01*
X165659Y-5735283D01*
X151783Y-5759317D01*
X144600Y-5786124D01*
Y-5813876D01*
X151783Y-5840683D01*
X165659Y-5864717D01*
X185283Y-5884341D01*
X209317Y-5898217D01*
X236124Y-5905400D01*
X263876D01*
X290683Y-5898217D01*
X314717Y-5884341D01*
X334341Y-5864717D01*
X348217Y-5840683D01*
X355400Y-5813876D01*
Y-5786124D01*
X348217Y-5759317D01*
X334341Y-5735283D01*
X314717Y-5715659D01*
X290683Y-5701783D01*
X263876Y-5694600D01*
D02*
G37*
G36*
X472459Y2697500D02*
X457541D01*
X443758Y2691791D01*
X433209Y2681242D01*
X427500Y2667459D01*
Y2652541D01*
X433209Y2638758D01*
X443758Y2628209D01*
X457541Y2622500D01*
X472459D01*
X486242Y2628209D01*
X496791Y2638758D01*
X502500Y2652541D01*
Y2667459D01*
X496791Y2681242D01*
X486242Y2691791D01*
X472459Y2697500D01*
D02*
G37*
G36*
X-427541D02*
X-442459D01*
X-456242Y2691791D01*
X-466791Y2681242D01*
X-472500Y2667459D01*
Y2652541D01*
X-466791Y2638758D01*
X-456242Y2628209D01*
X-442459Y2622500D01*
X-427541D01*
X-413758Y2628209D01*
X-403209Y2638758D01*
X-397500Y2652541D01*
Y2667459D01*
X-403209Y2681242D01*
X-413758Y2691791D01*
X-427541Y2697500D01*
D02*
G37*
G36*
X-1327541D02*
X-1342459D01*
X-1356242Y2691791D01*
X-1366791Y2681242D01*
X-1372500Y2667459D01*
Y2652541D01*
X-1366791Y2638758D01*
X-1356242Y2628209D01*
X-1342459Y2622500D01*
X-1327541D01*
X-1313758Y2628209D01*
X-1303209Y2638758D01*
X-1297500Y2652541D01*
Y2667459D01*
X-1303209Y2681242D01*
X-1313758Y2691791D01*
X-1327541Y2697500D01*
D02*
G37*
G36*
X0Y3260958D02*
X-48645Y3257130D01*
X-96092Y3245739D01*
X-141172Y3227066D01*
X-182777Y3201571D01*
X-219881Y3169881D01*
X-251571Y3132777D01*
X-277066Y3091172D01*
X-295739Y3046091D01*
X-307130Y2998644D01*
X-310958Y2950000D01*
Y2850000D01*
X-307130Y2801356D01*
X-295739Y2753909D01*
X-277066Y2708828D01*
X-251571Y2667223D01*
X-219881Y2630119D01*
X-182777Y2598429D01*
X-141172Y2572934D01*
X-96092Y2554261D01*
X-48645Y2542870D01*
X0Y2539042D01*
X48645Y2542870D01*
X96092Y2554261D01*
X141172Y2572934D01*
X182777Y2598429D01*
X219881Y2630119D01*
X251571Y2667223D01*
X277066Y2708828D01*
X295739Y2753909D01*
X307130Y2801356D01*
X310958Y2850000D01*
Y2950000D01*
X307130Y2998644D01*
X295739Y3046091D01*
X277066Y3091172D01*
X251571Y3132777D01*
X219881Y3169881D01*
X182777Y3201571D01*
X141172Y3227066D01*
X96092Y3245739D01*
X48645Y3257130D01*
X0Y3260958D01*
D02*
G37*
G36*
X1397459Y2447500D02*
X1382541D01*
X1368758Y2441791D01*
X1358209Y2431242D01*
X1352500Y2417459D01*
Y2402541D01*
X1358209Y2388758D01*
X1368758Y2378209D01*
X1382541Y2372500D01*
X1397459D01*
X1411242Y2378209D01*
X1421791Y2388758D01*
X1427500Y2402541D01*
Y2417459D01*
X1421791Y2431242D01*
X1411242Y2441791D01*
X1397459Y2447500D01*
D02*
G37*
G36*
X2407459Y2237500D02*
X2392541D01*
X2378758Y2231791D01*
X2368209Y2221242D01*
X2362500Y2207459D01*
Y2192541D01*
X2368209Y2178758D01*
X2378758Y2168209D01*
X2392541Y2162500D01*
X2407459D01*
X2421242Y2168209D01*
X2431791Y2178758D01*
X2437500Y2192541D01*
Y2207459D01*
X2431791Y2221242D01*
X2421242Y2231791D01*
X2407459Y2237500D01*
D02*
G37*
G36*
X-728797Y2150703D02*
X-743715D01*
X-757498Y2144993D01*
X-768047Y2134445D01*
X-773756Y2120662D01*
Y2105743D01*
X-768047Y2091961D01*
X-757498Y2081412D01*
X-743715Y2075702D01*
X-728797D01*
X-715014Y2081412D01*
X-704465Y2091961D01*
X-698756Y2105743D01*
Y2120662D01*
X-704465Y2134445D01*
X-715014Y2144993D01*
X-728797Y2150703D01*
D02*
G37*
G36*
X820940Y2185000D02*
X799060D01*
X778845Y2176627D01*
X763373Y2161155D01*
X755000Y2140940D01*
Y2119060D01*
X763373Y2098845D01*
X778845Y2083374D01*
X799060Y2075000D01*
X820940D01*
X841155Y2083374D01*
X856626Y2098845D01*
X865000Y2119060D01*
Y2140940D01*
X856626Y2161155D01*
X841155Y2176627D01*
X820940Y2185000D01*
D02*
G37*
G36*
X-979060D02*
X-1000940D01*
X-1021155Y2176627D01*
X-1036627Y2161155D01*
X-1045000Y2140940D01*
Y2119060D01*
X-1036627Y2098845D01*
X-1021155Y2083374D01*
X-1000940Y2075000D01*
X-979060D01*
X-958845Y2083374D01*
X-943374Y2098845D01*
X-935000Y2119060D01*
Y2140940D01*
X-943374Y2161155D01*
X-958845Y2176627D01*
X-979060Y2185000D01*
D02*
G37*
G36*
X-1422541Y2127500D02*
X-1437459D01*
X-1451242Y2121791D01*
X-1461791Y2111242D01*
X-1467500Y2097459D01*
Y2082541D01*
X-1461791Y2068758D01*
X-1451242Y2058209D01*
X-1437459Y2052500D01*
X-1422541D01*
X-1408758Y2058209D01*
X-1398209Y2068758D01*
X-1392500Y2082541D01*
Y2097459D01*
X-1398209Y2111242D01*
X-1408758Y2121791D01*
X-1422541Y2127500D01*
D02*
G37*
G36*
X1727459Y2107500D02*
X1712541D01*
X1698758Y2101791D01*
X1688209Y2091242D01*
X1682500Y2077459D01*
Y2062541D01*
X1688209Y2048758D01*
X1698758Y2038209D01*
X1712541Y2032500D01*
X1727459D01*
X1741242Y2038209D01*
X1751791Y2048758D01*
X1757500Y2062541D01*
Y2077459D01*
X1751791Y2091242D01*
X1741242Y2101791D01*
X1727459Y2107500D01*
D02*
G37*
G36*
X-1521621Y2073580D02*
X-1536539D01*
X-1550322Y2067871D01*
X-1560871Y2057322D01*
X-1566580Y2043539D01*
Y2028621D01*
X-1560871Y2014838D01*
X-1550863Y2004830D01*
X-1560871Y1994822D01*
X-1566580Y1981039D01*
Y1966121D01*
X-1560871Y1952338D01*
X-1550322Y1941789D01*
X-1536539Y1936080D01*
X-1521621D01*
X-1507838Y1941789D01*
X-1497289Y1952338D01*
X-1491580Y1966121D01*
Y1981039D01*
X-1497289Y1994822D01*
X-1507297Y2004830D01*
X-1497289Y2014838D01*
X-1491580Y2028621D01*
Y2043539D01*
X-1497289Y2057322D01*
X-1507838Y2067871D01*
X-1521621Y2073580D01*
D02*
G37*
G36*
X1867459Y1987500D02*
X1852541D01*
X1838758Y1981791D01*
X1828209Y1971242D01*
X1822500Y1957459D01*
Y1942541D01*
X1828209Y1928758D01*
X1838758Y1918209D01*
X1852541Y1912500D01*
X1867459D01*
X1881242Y1918209D01*
X1891791Y1928758D01*
X1897500Y1942541D01*
Y1957459D01*
X1891791Y1971242D01*
X1881242Y1981791D01*
X1867459Y1987500D01*
D02*
G37*
G36*
X-1422541Y1937500D02*
X-1437459D01*
X-1451242Y1931791D01*
X-1461791Y1921242D01*
X-1467500Y1907459D01*
Y1892541D01*
X-1461791Y1878758D01*
X-1451242Y1868209D01*
X-1437459Y1862500D01*
X-1422541D01*
X-1408758Y1868209D01*
X-1398209Y1878758D01*
X-1392500Y1892541D01*
Y1907459D01*
X-1398209Y1921242D01*
X-1408758Y1931791D01*
X-1422541Y1937500D01*
D02*
G37*
G36*
X1070967Y1920000D02*
X1056049D01*
X1042266Y1914291D01*
X1031717Y1903742D01*
X1026008Y1889959D01*
Y1875041D01*
X1031717Y1861258D01*
X1042266Y1850709D01*
X1056049Y1845000D01*
X1070967D01*
X1084750Y1850709D01*
X1095299Y1861258D01*
X1101008Y1875041D01*
Y1889959D01*
X1095299Y1903742D01*
X1084750Y1914291D01*
X1070967Y1920000D01*
D02*
G37*
G36*
X-729033D02*
X-743951D01*
X-757734Y1914291D01*
X-768283Y1903742D01*
X-773992Y1889959D01*
Y1875041D01*
X-768283Y1861258D01*
X-757734Y1850709D01*
X-743951Y1845000D01*
X-729033D01*
X-715250Y1850709D01*
X-704701Y1861258D01*
X-698992Y1875041D01*
Y1889959D01*
X-704701Y1903742D01*
X-715250Y1914291D01*
X-729033Y1920000D01*
D02*
G37*
G36*
X597459Y1887500D02*
X582541D01*
X568758Y1881791D01*
X558209Y1871242D01*
X552500Y1857459D01*
Y1842541D01*
X558209Y1828758D01*
X568758Y1818209D01*
X582541Y1812500D01*
X597459D01*
X611242Y1818209D01*
X621791Y1828758D01*
X627500Y1842541D01*
Y1857459D01*
X621791Y1871242D01*
X611242Y1881791D01*
X597459Y1887500D01*
D02*
G37*
G36*
X-482541D02*
X-497459D01*
X-511242Y1881791D01*
X-521791Y1871242D01*
X-527500Y1857459D01*
Y1842541D01*
X-521791Y1828758D01*
X-511242Y1818209D01*
X-497459Y1812500D01*
X-482541D01*
X-468758Y1818209D01*
X-458209Y1828758D01*
X-452500Y1842541D01*
Y1857459D01*
X-458209Y1871242D01*
X-468758Y1881791D01*
X-482541Y1887500D01*
D02*
G37*
G36*
X820940Y1920000D02*
X799060D01*
X778845Y1911627D01*
X763373Y1896155D01*
X755000Y1875940D01*
Y1854060D01*
X763373Y1833845D01*
X778845Y1818374D01*
X799060Y1810000D01*
X820940D01*
X841155Y1818374D01*
X856626Y1833845D01*
X865000Y1854060D01*
Y1875940D01*
X856626Y1896155D01*
X841155Y1911627D01*
X820940Y1920000D01*
D02*
G37*
G36*
X-979060D02*
X-1000940D01*
X-1021155Y1911627D01*
X-1036627Y1896155D01*
X-1045000Y1875940D01*
Y1854060D01*
X-1036627Y1833845D01*
X-1021155Y1818374D01*
X-1000940Y1810000D01*
X-979060D01*
X-958845Y1818374D01*
X-943374Y1833845D01*
X-935000Y1854060D01*
Y1875940D01*
X-943374Y1896155D01*
X-958845Y1911627D01*
X-979060Y1920000D01*
D02*
G37*
G36*
X-2592541Y1752500D02*
X-2607459D01*
X-2621242Y1746791D01*
X-2631791Y1736242D01*
X-2637500Y1722459D01*
Y1707541D01*
X-2631791Y1693758D01*
X-2621242Y1683209D01*
X-2607459Y1677500D01*
X-2592541D01*
X-2578758Y1683209D01*
X-2568209Y1693758D01*
X-2562500Y1707541D01*
Y1722459D01*
X-2568209Y1736242D01*
X-2578758Y1746791D01*
X-2592541Y1752500D01*
D02*
G37*
G36*
X1570486Y1758000D02*
X1570000D01*
Y1570000D01*
X1758000D01*
Y1570486D01*
X1750006Y1610671D01*
X1734327Y1648525D01*
X1711564Y1682592D01*
X1682592Y1711564D01*
X1648525Y1734327D01*
X1610671Y1750006D01*
X1570486Y1758000D01*
D02*
G37*
G36*
X-1529514D02*
X-1529999D01*
Y1570000D01*
X-1342000D01*
Y1570486D01*
X-1349993Y1610671D01*
X-1365673Y1648525D01*
X-1388436Y1682592D01*
X-1417408Y1711564D01*
X-1451475Y1734327D01*
X-1489329Y1750006D01*
X-1529514Y1758000D01*
D02*
G37*
G36*
X1530000D02*
X1529514D01*
X1489329Y1750006D01*
X1451475Y1734327D01*
X1417408Y1711564D01*
X1388436Y1682592D01*
X1365673Y1648525D01*
X1349993Y1610671D01*
X1342000Y1570486D01*
Y1570000D01*
X1530000D01*
Y1758000D01*
D02*
G37*
G36*
X-1569999D02*
X-1570486D01*
X-1610671Y1750006D01*
X-1648525Y1734327D01*
X-1682592Y1711564D01*
X-1711564Y1682592D01*
X-1734327Y1648525D01*
X-1750006Y1610671D01*
X-1758000Y1570486D01*
Y1570000D01*
X-1569999D01*
Y1758000D01*
D02*
G37*
G36*
X-2492541Y1587500D02*
X-2507459D01*
X-2521242Y1581791D01*
X-2531791Y1571242D01*
X-2537500Y1557459D01*
Y1542541D01*
X-2531791Y1528758D01*
X-2521242Y1518209D01*
X-2507459Y1512500D01*
X-2492541D01*
X-2478758Y1518209D01*
X-2468209Y1528758D01*
X-2462500Y1542541D01*
Y1557459D01*
X-2468209Y1571242D01*
X-2478758Y1581791D01*
X-2492541Y1587500D01*
D02*
G37*
G36*
X1758000Y1530000D02*
X1570000D01*
Y1342000D01*
X1570486D01*
X1610671Y1349993D01*
X1648525Y1365673D01*
X1682592Y1388436D01*
X1711564Y1417408D01*
X1734327Y1451475D01*
X1750006Y1489329D01*
X1758000Y1529514D01*
Y1530000D01*
D02*
G37*
G36*
X1530000D02*
X1342000D01*
Y1529514D01*
X1349993Y1489329D01*
X1365673Y1451475D01*
X1388436Y1417408D01*
X1417408Y1388436D01*
X1451475Y1365673D01*
X1489329Y1349993D01*
X1529514Y1342000D01*
X1530000D01*
Y1530000D01*
D02*
G37*
G36*
X-1342000D02*
X-1529999D01*
Y1342000D01*
X-1529514D01*
X-1489329Y1349993D01*
X-1451475Y1365673D01*
X-1417408Y1388436D01*
X-1388436Y1417408D01*
X-1365673Y1451475D01*
X-1349993Y1489329D01*
X-1342000Y1529514D01*
Y1530000D01*
D02*
G37*
G36*
X-1569999D02*
X-1758000D01*
Y1529514D01*
X-1750006Y1489329D01*
X-1734327Y1451475D01*
X-1711564Y1417408D01*
X-1682592Y1388436D01*
X-1648525Y1365673D01*
X-1610671Y1349993D01*
X-1570486Y1342000D01*
X-1569999D01*
Y1530000D01*
D02*
G37*
G36*
X-2892541Y1372500D02*
X-2907459D01*
X-2921242Y1366791D01*
X-2931791Y1356242D01*
X-2937500Y1342459D01*
Y1332517D01*
X-2947286Y1324279D01*
X-2949233Y1323630D01*
X-2952541Y1325000D01*
X-2967459D01*
X-2981242Y1319291D01*
X-2991791Y1308742D01*
X-2997500Y1294959D01*
Y1289159D01*
X-3001850Y1279099D01*
X-3009233Y1277500D01*
X-3017459D01*
X-3031242Y1271791D01*
X-3041791Y1261242D01*
X-3047500Y1247459D01*
Y1232541D01*
X-3045809Y1228458D01*
X-3048635Y1223858D01*
X-3055016Y1217500D01*
X-3067459D01*
X-3081242Y1211791D01*
X-3091791Y1201242D01*
X-3097500Y1187459D01*
Y1172541D01*
X-3091791Y1158758D01*
X-3081242Y1148209D01*
X-3067459Y1142500D01*
X-3052541D01*
X-3038758Y1148209D01*
X-3028209Y1158758D01*
X-3022500Y1172541D01*
Y1187459D01*
X-3024191Y1191542D01*
X-3021365Y1196142D01*
X-3014984Y1202500D01*
X-3002541D01*
X-2988758Y1208209D01*
X-2978209Y1218758D01*
X-2972500Y1232541D01*
Y1238341D01*
X-2968150Y1248401D01*
X-2960767Y1250000D01*
X-2952541D01*
X-2938758Y1255709D01*
X-2928209Y1266258D01*
X-2922500Y1280041D01*
Y1289984D01*
X-2912714Y1298221D01*
X-2910767Y1298870D01*
X-2907459Y1297500D01*
X-2892541D01*
X-2878758Y1303209D01*
X-2868209Y1313758D01*
X-2862500Y1327541D01*
Y1342459D01*
X-2868209Y1356242D01*
X-2878758Y1366791D01*
X-2892541Y1372500D01*
D02*
G37*
G36*
X-2072541Y1367500D02*
X-2087459D01*
X-2101242Y1361791D01*
X-2111791Y1351242D01*
X-2117500Y1337459D01*
Y1322541D01*
X-2111791Y1308758D01*
X-2101242Y1298209D01*
X-2087459Y1292500D01*
X-2072541D01*
X-2058758Y1298209D01*
X-2048209Y1308758D01*
X-2042500Y1322541D01*
Y1337459D01*
X-2048209Y1351242D01*
X-2058758Y1361791D01*
X-2072541Y1367500D01*
D02*
G37*
G36*
X-1852541Y1317500D02*
X-1867459D01*
X-1881242Y1311791D01*
X-1891791Y1301242D01*
X-1897500Y1287459D01*
Y1272541D01*
X-1891791Y1258758D01*
X-1881242Y1248209D01*
X-1867459Y1242500D01*
X-1852541D01*
X-1838758Y1248209D01*
X-1828209Y1258758D01*
X-1822500Y1272541D01*
Y1287459D01*
X-1828209Y1301242D01*
X-1838758Y1311791D01*
X-1852541Y1317500D01*
D02*
G37*
G36*
X2092459Y1265000D02*
X2077541D01*
X2063758Y1259291D01*
X2053209Y1248742D01*
X2047500Y1234959D01*
Y1220041D01*
X2053209Y1206258D01*
X2063758Y1195709D01*
X2077541Y1190000D01*
X2092459D01*
X2106242Y1195709D01*
X2116791Y1206258D01*
X2122500Y1220041D01*
Y1234959D01*
X2116791Y1248742D01*
X2106242Y1259291D01*
X2092459Y1265000D01*
D02*
G37*
G36*
X-1792541Y1247500D02*
X-1807459D01*
X-1821242Y1241791D01*
X-1831791Y1231242D01*
X-1837500Y1217459D01*
Y1202541D01*
X-1831791Y1188758D01*
X-1821242Y1178209D01*
X-1807459Y1172500D01*
X-1792541D01*
X-1778758Y1178209D01*
X-1768209Y1188758D01*
X-1762500Y1202541D01*
Y1217459D01*
X-1768209Y1231242D01*
X-1778758Y1241791D01*
X-1792541Y1247500D01*
D02*
G37*
G36*
X-1852541Y1177500D02*
X-1867459D01*
X-1881242Y1171791D01*
X-1891791Y1161242D01*
X-1897500Y1147459D01*
Y1132541D01*
X-1891791Y1118758D01*
X-1881242Y1108209D01*
X-1867459Y1102500D01*
X-1852541D01*
X-1838758Y1108209D01*
X-1828209Y1118758D01*
X-1822500Y1132541D01*
Y1147459D01*
X-1828209Y1161242D01*
X-1838758Y1171791D01*
X-1852541Y1177500D01*
D02*
G37*
G36*
X-1792541Y1107500D02*
X-1807459D01*
X-1821242Y1101791D01*
X-1831791Y1091242D01*
X-1837500Y1077459D01*
Y1062541D01*
X-1831791Y1048758D01*
X-1821242Y1038209D01*
X-1807459Y1032500D01*
X-1792541D01*
X-1778758Y1038209D01*
X-1768209Y1048758D01*
X-1762500Y1062541D01*
Y1077459D01*
X-1768209Y1091242D01*
X-1778758Y1101791D01*
X-1792541Y1107500D01*
D02*
G37*
G36*
X-1852541Y1037500D02*
X-1867459D01*
X-1881242Y1031791D01*
X-1891791Y1021242D01*
X-1897500Y1007459D01*
Y992541D01*
X-1891791Y978758D01*
X-1881242Y968209D01*
X-1867459Y962500D01*
X-1852541D01*
X-1838758Y968209D01*
X-1828209Y978758D01*
X-1822500Y992541D01*
Y1007459D01*
X-1828209Y1021242D01*
X-1838758Y1031791D01*
X-1852541Y1037500D01*
D02*
G37*
G36*
X-2992541Y1027500D02*
X-3007459D01*
X-3021242Y1021791D01*
X-3031791Y1011242D01*
X-3037500Y997459D01*
Y982541D01*
X-3031791Y968758D01*
X-3021242Y958209D01*
X-3007459Y952500D01*
X-2992541D01*
X-2978758Y958209D01*
X-2968209Y968758D01*
X-2962500Y982541D01*
Y997459D01*
X-2968209Y1011242D01*
X-2978758Y1021791D01*
X-2992541Y1027500D01*
D02*
G37*
G36*
X2712178Y1092500D02*
X2687822D01*
X2664296Y1086196D01*
X2643204Y1074018D01*
X2625982Y1056796D01*
X2613804Y1035704D01*
X2607500Y1012178D01*
Y987822D01*
X2613804Y964297D01*
X2625982Y943204D01*
X2643204Y925982D01*
X2664296Y913804D01*
X2687822Y907500D01*
X2712178D01*
X2735703Y913804D01*
X2756796Y925982D01*
X2774018Y943204D01*
X2786196Y964297D01*
X2792500Y987822D01*
Y1012178D01*
X2786196Y1035704D01*
X2774018Y1056796D01*
X2756796Y1074018D01*
X2735703Y1086196D01*
X2712178Y1092500D01*
D02*
G37*
G36*
X1914329Y967500D02*
X1899411D01*
X1885628Y961791D01*
X1875079Y951242D01*
X1869370Y937459D01*
Y922541D01*
X1875079Y908758D01*
X1885628Y898209D01*
X1899411Y892500D01*
X1914329D01*
X1928112Y898209D01*
X1938661Y908758D01*
X1944370Y922541D01*
Y937459D01*
X1938661Y951242D01*
X1928112Y961791D01*
X1914329Y967500D01*
D02*
G37*
G36*
X-1792541D02*
X-1807459D01*
X-1821242Y961791D01*
X-1831791Y951242D01*
X-1837500Y937459D01*
Y922541D01*
X-1831791Y908758D01*
X-1821242Y898209D01*
X-1807459Y892500D01*
X-1792541D01*
X-1778758Y898209D01*
X-1768209Y908758D01*
X-1762500Y922541D01*
Y937459D01*
X-1768209Y951242D01*
X-1778758Y961791D01*
X-1792541Y967500D01*
D02*
G37*
G36*
X-3002541Y917500D02*
X-3017459D01*
X-3031242Y911791D01*
X-3041791Y901242D01*
X-3047500Y887459D01*
Y872541D01*
X-3041791Y858758D01*
X-3031242Y848209D01*
X-3017459Y842500D01*
X-3002541D01*
X-2988758Y848209D01*
X-2978209Y858758D01*
X-2972500Y872541D01*
Y887459D01*
X-2978209Y901242D01*
X-2988758Y911791D01*
X-3002541Y917500D01*
D02*
G37*
G36*
X-1852541Y897500D02*
X-1867459D01*
X-1881242Y891791D01*
X-1891791Y881242D01*
X-1897500Y867459D01*
Y852541D01*
X-1891791Y838758D01*
X-1881242Y828209D01*
X-1867459Y822500D01*
X-1852541D01*
X-1838758Y828209D01*
X-1828209Y838758D01*
X-1822500Y852541D01*
Y867459D01*
X-1828209Y881242D01*
X-1838758Y891791D01*
X-1852541Y897500D01*
D02*
G37*
G36*
X-1792541Y827500D02*
X-1807459D01*
X-1821242Y821791D01*
X-1831791Y811242D01*
X-1837500Y797459D01*
Y782541D01*
X-1831791Y768758D01*
X-1821242Y758209D01*
X-1807459Y752500D01*
X-1792541D01*
X-1778758Y758209D01*
X-1768209Y768758D01*
X-1762500Y782541D01*
Y797459D01*
X-1768209Y811242D01*
X-1778758Y821791D01*
X-1792541Y827500D01*
D02*
G37*
G36*
X-2902541D02*
X-2917459D01*
X-2931242Y821791D01*
X-2941791Y811242D01*
X-2947500Y797459D01*
Y782541D01*
X-2941791Y768758D01*
X-2931242Y758209D01*
X-2917459Y752500D01*
X-2902541D01*
X-2888758Y758209D01*
X-2878209Y768758D01*
X-2872500Y782541D01*
Y797459D01*
X-2878209Y811242D01*
X-2888758Y821791D01*
X-2902541Y827500D01*
D02*
G37*
G36*
X2712178Y892500D02*
X2687822D01*
X2664296Y886196D01*
X2643204Y874018D01*
X2625982Y856796D01*
X2613804Y835703D01*
X2607500Y812178D01*
Y787822D01*
X2613804Y764296D01*
X2625982Y743204D01*
X2643204Y725982D01*
X2664296Y713804D01*
X2680653Y709421D01*
Y696273D01*
X2662173Y691321D01*
X2639827Y678419D01*
X2621581Y660173D01*
X2608679Y637827D01*
X2603902Y620000D01*
X2700000D01*
X2796098D01*
X2791321Y637827D01*
X2778419Y660173D01*
X2760173Y678419D01*
X2737826Y691321D01*
X2719347Y696273D01*
Y709421D01*
X2735703Y713804D01*
X2756796Y725982D01*
X2774018Y743204D01*
X2786196Y764296D01*
X2792500Y787822D01*
Y812178D01*
X2786196Y835703D01*
X2774018Y856796D01*
X2756796Y874018D01*
X2735703Y886196D01*
X2712178Y892500D01*
D02*
G37*
G36*
X1914329Y687500D02*
X1899411D01*
X1885628Y681791D01*
X1875079Y671242D01*
X1869370Y657459D01*
Y642541D01*
X1875079Y628758D01*
X1885628Y618209D01*
X1899411Y612500D01*
X1914329D01*
X1928112Y618209D01*
X1938661Y628758D01*
X1944370Y642541D01*
Y657459D01*
X1938661Y671242D01*
X1928112Y681791D01*
X1914329Y687500D01*
D02*
G37*
G36*
X-1822541Y667500D02*
X-1837459D01*
X-1851242Y661791D01*
X-1861791Y651242D01*
X-1867500Y637459D01*
Y622541D01*
X-1861791Y608758D01*
X-1851242Y598209D01*
X-1837459Y592500D01*
X-1822541D01*
X-1808758Y598209D01*
X-1798209Y608758D01*
X-1792500Y622541D01*
Y637459D01*
X-1798209Y651242D01*
X-1808758Y661791D01*
X-1822541Y667500D01*
D02*
G37*
G36*
X-1892541Y597500D02*
X-1907459D01*
X-1921242Y591791D01*
X-1931791Y581242D01*
X-1937500Y567459D01*
Y552541D01*
X-1931791Y538758D01*
X-1921242Y528209D01*
X-1907459Y522500D01*
X-1892541D01*
X-1878758Y528209D01*
X-1868209Y538758D01*
X-1862500Y552541D01*
Y567459D01*
X-1868209Y581242D01*
X-1878758Y591791D01*
X-1892541Y597500D01*
D02*
G37*
G36*
X-2497666Y555429D02*
X-2512584D01*
X-2526367Y549720D01*
X-2536916Y539171D01*
X-2542625Y525388D01*
Y510470D01*
X-2536916Y496687D01*
X-2526367Y486138D01*
X-2512584Y480429D01*
X-2497666D01*
X-2483883Y486138D01*
X-2473334Y496687D01*
X-2467625Y510470D01*
Y525388D01*
X-2473334Y539171D01*
X-2483883Y549720D01*
X-2497666Y555429D01*
D02*
G37*
G36*
X-2222541Y547500D02*
X-2237459D01*
X-2251242Y541791D01*
X-2261791Y531242D01*
X-2267500Y517459D01*
Y502541D01*
X-2261791Y488758D01*
X-2251242Y478209D01*
X-2237459Y472500D01*
X-2222541D01*
X-2208758Y478209D01*
X-2198209Y488758D01*
X-2192500Y502541D01*
Y517459D01*
X-2198209Y531242D01*
X-2208758Y541791D01*
X-2222541Y547500D01*
D02*
G37*
G36*
X-1312541Y447500D02*
X-1327459D01*
X-1341242Y441791D01*
X-1351791Y431242D01*
X-1357500Y417459D01*
Y402541D01*
X-1351791Y388758D01*
X-1341242Y378209D01*
X-1327459Y372500D01*
X-1312541D01*
X-1298758Y378209D01*
X-1288209Y388758D01*
X-1282500Y402541D01*
Y417459D01*
X-1288209Y431242D01*
X-1298758Y441791D01*
X-1312541Y447500D01*
D02*
G37*
G36*
X-3142541Y427500D02*
X-3157459D01*
X-3171242Y421791D01*
X-3181791Y411242D01*
X-3187500Y397459D01*
Y382541D01*
X-3181791Y368758D01*
X-3171242Y358209D01*
X-3157459Y352500D01*
X-3142541D01*
X-3128758Y358209D01*
X-3118209Y368758D01*
X-3112500Y382541D01*
Y397459D01*
X-3118209Y411242D01*
X-3128758Y421791D01*
X-3142541Y427500D01*
D02*
G37*
G36*
X1467459Y407500D02*
X1452541D01*
X1438758Y401791D01*
X1428209Y391242D01*
X1422500Y377459D01*
Y362541D01*
X1428209Y348758D01*
X1438758Y338209D01*
X1452541Y332500D01*
X1467459D01*
X1481242Y338209D01*
X1491791Y348758D01*
X1497500Y362541D01*
Y377459D01*
X1491791Y391242D01*
X1481242Y401791D01*
X1467459Y407500D01*
D02*
G37*
G36*
X1337459D02*
X1322541D01*
X1308758Y401791D01*
X1298209Y391242D01*
X1292500Y377459D01*
Y362541D01*
X1298209Y348758D01*
X1308758Y338209D01*
X1322541Y332500D01*
X1337459D01*
X1351242Y338209D01*
X1361791Y348758D01*
X1367500Y362541D01*
Y377459D01*
X1361791Y391242D01*
X1351242Y401791D01*
X1337459Y407500D01*
D02*
G37*
G36*
X1077459D02*
X1062541D01*
X1048758Y401791D01*
X1038209Y391242D01*
X1032500Y377459D01*
Y362541D01*
X1038209Y348758D01*
X1048758Y338209D01*
X1062541Y332500D01*
X1077459D01*
X1091242Y338209D01*
X1101791Y348758D01*
X1107500Y362541D01*
Y377459D01*
X1101791Y391242D01*
X1091242Y401791D01*
X1077459Y407500D01*
D02*
G37*
G36*
X957459D02*
X942541D01*
X928758Y401791D01*
X918209Y391242D01*
X912500Y377459D01*
Y362541D01*
X918209Y348758D01*
X928758Y338209D01*
X942541Y332500D01*
X957459D01*
X971242Y338209D01*
X981791Y348758D01*
X987500Y362541D01*
Y377459D01*
X981791Y391242D01*
X971242Y401791D01*
X957459Y407500D01*
D02*
G37*
G36*
X267459D02*
X252541D01*
X238758Y401791D01*
X228209Y391242D01*
X222500Y377459D01*
Y362541D01*
X228209Y348758D01*
X238758Y338209D01*
X252541Y332500D01*
X267459D01*
X281242Y338209D01*
X291791Y348758D01*
X297500Y362541D01*
Y377459D01*
X291791Y391242D01*
X281242Y401791D01*
X267459Y407500D01*
D02*
G37*
G36*
X137459D02*
X122541D01*
X108758Y401791D01*
X98209Y391242D01*
X92500Y377459D01*
Y362541D01*
X98209Y348758D01*
X108758Y338209D01*
X122541Y332500D01*
X137459D01*
X151242Y338209D01*
X161791Y348758D01*
X167500Y362541D01*
Y377459D01*
X161791Y391242D01*
X151242Y401791D01*
X137459Y407500D01*
D02*
G37*
G36*
X-122541D02*
X-137459D01*
X-151242Y401791D01*
X-161791Y391242D01*
X-167500Y377459D01*
Y362541D01*
X-161791Y348758D01*
X-151242Y338209D01*
X-137459Y332500D01*
X-122541D01*
X-108758Y338209D01*
X-98209Y348758D01*
X-92500Y362541D01*
Y377459D01*
X-98209Y391242D01*
X-108758Y401791D01*
X-122541Y407500D01*
D02*
G37*
G36*
X-242541D02*
X-257459D01*
X-271242Y401791D01*
X-281791Y391242D01*
X-287500Y377459D01*
Y362541D01*
X-281791Y348758D01*
X-271242Y338209D01*
X-257459Y332500D01*
X-242541D01*
X-228758Y338209D01*
X-218209Y348758D01*
X-212500Y362541D01*
Y377459D01*
X-218209Y391242D01*
X-228758Y401791D01*
X-242541Y407500D01*
D02*
G37*
G36*
X-932541D02*
X-947459D01*
X-961242Y401791D01*
X-971791Y391242D01*
X-977500Y377459D01*
Y362541D01*
X-971791Y348758D01*
X-961242Y338209D01*
X-947459Y332500D01*
X-932541D01*
X-918758Y338209D01*
X-908209Y348758D01*
X-902500Y362541D01*
Y377459D01*
X-908209Y391242D01*
X-918758Y401791D01*
X-932541Y407500D01*
D02*
G37*
G36*
X-1062541D02*
X-1077459D01*
X-1091242Y401791D01*
X-1101791Y391242D01*
X-1107500Y377459D01*
Y362541D01*
X-1101791Y348758D01*
X-1091242Y338209D01*
X-1077459Y332500D01*
X-1062541D01*
X-1048758Y338209D01*
X-1038209Y348758D01*
X-1032500Y362541D01*
Y377459D01*
X-1038209Y391242D01*
X-1048758Y401791D01*
X-1062541Y407500D01*
D02*
G37*
G36*
X-1442541D02*
X-1457459D01*
X-1471242Y401791D01*
X-1481791Y391242D01*
X-1487500Y377459D01*
Y362541D01*
X-1481791Y348758D01*
X-1471242Y338209D01*
X-1457459Y332500D01*
X-1442541D01*
X-1428758Y338209D01*
X-1418209Y348758D01*
X-1412500Y362541D01*
Y377459D01*
X-1418209Y391242D01*
X-1428758Y401791D01*
X-1442541Y407500D01*
D02*
G37*
G36*
X2796098Y580000D02*
X2700000D01*
X2603902D01*
X2608679Y562174D01*
X2621581Y539827D01*
X2639827Y521581D01*
X2662173Y508679D01*
X2680654Y503727D01*
Y490579D01*
X2664296Y486196D01*
X2643204Y474018D01*
X2625982Y456796D01*
X2613804Y435703D01*
X2607500Y412178D01*
Y387822D01*
X2613804Y364296D01*
X2625982Y343204D01*
X2643204Y325982D01*
X2664296Y313804D01*
X2687822Y307500D01*
X2712178D01*
X2735703Y313804D01*
X2756796Y325982D01*
X2774018Y343204D01*
X2786196Y364296D01*
X2792500Y387822D01*
Y412178D01*
X2786196Y435703D01*
X2774018Y456796D01*
X2756796Y474018D01*
X2735703Y486196D01*
X2719346Y490579D01*
Y503727D01*
X2737826Y508679D01*
X2760173Y521581D01*
X2778419Y539827D01*
X2791321Y562174D01*
X2796098Y580000D01*
D02*
G37*
G36*
X1707459Y337500D02*
X1692540D01*
X1678758Y331791D01*
X1668209Y321242D01*
X1662500Y307459D01*
Y292541D01*
X1668209Y278758D01*
X1678758Y268209D01*
X1692540Y262500D01*
X1707459D01*
X1721242Y268209D01*
X1731791Y278758D01*
X1737500Y292541D01*
Y307459D01*
X1731791Y321242D01*
X1721242Y331791D01*
X1707459Y337500D01*
D02*
G37*
G36*
X1607459D02*
X1592541D01*
X1578758Y331791D01*
X1568209Y321242D01*
X1562500Y307459D01*
Y292541D01*
X1568209Y278758D01*
X1578758Y268209D01*
X1592541Y262500D01*
X1607459D01*
X1621242Y268209D01*
X1631791Y278758D01*
X1637500Y292541D01*
Y307459D01*
X1631791Y321242D01*
X1621242Y331791D01*
X1607459Y337500D01*
D02*
G37*
G36*
X507459D02*
X492541D01*
X478758Y331791D01*
X468209Y321242D01*
X462500Y307459D01*
Y292541D01*
X468209Y278758D01*
X478758Y268209D01*
X492541Y262500D01*
X507459D01*
X521242Y268209D01*
X531791Y278758D01*
X537500Y292541D01*
Y307459D01*
X531791Y321242D01*
X521242Y331791D01*
X507459Y337500D01*
D02*
G37*
G36*
X407459D02*
X392541D01*
X378758Y331791D01*
X368209Y321242D01*
X362500Y307459D01*
Y292541D01*
X368209Y278758D01*
X378758Y268209D01*
X392541Y262500D01*
X407459D01*
X421242Y268209D01*
X431791Y278758D01*
X437500Y292541D01*
Y307459D01*
X431791Y321242D01*
X421242Y331791D01*
X407459Y337500D01*
D02*
G37*
G36*
X-692541D02*
X-707459D01*
X-721242Y331791D01*
X-731791Y321242D01*
X-737500Y307459D01*
Y292541D01*
X-731791Y278758D01*
X-721242Y268209D01*
X-707459Y262500D01*
X-692541D01*
X-678758Y268209D01*
X-668209Y278758D01*
X-662500Y292541D01*
Y307459D01*
X-668209Y321242D01*
X-678758Y331791D01*
X-692541Y337500D01*
D02*
G37*
G36*
X-792541D02*
X-807459D01*
X-821242Y331791D01*
X-831791Y321242D01*
X-837500Y307459D01*
Y292541D01*
X-831791Y278758D01*
X-821242Y268209D01*
X-807459Y262500D01*
X-792541D01*
X-778758Y268209D01*
X-768209Y278758D01*
X-762500Y292541D01*
Y307459D01*
X-768209Y321242D01*
X-778758Y331791D01*
X-792541Y337500D01*
D02*
G37*
G36*
X197459Y317500D02*
X182541D01*
X168758Y311791D01*
X158209Y301242D01*
X152500Y287459D01*
Y272541D01*
X158209Y258758D01*
X168758Y248209D01*
X182541Y242500D01*
X197459D01*
X211242Y248209D01*
X221791Y258758D01*
X227500Y272541D01*
Y287459D01*
X221791Y301242D01*
X211242Y311791D01*
X197459Y317500D01*
D02*
G37*
G36*
X-1322541Y307500D02*
X-1337459D01*
X-1351242Y301791D01*
X-1361791Y291242D01*
X-1367500Y277459D01*
Y262541D01*
X-1361791Y248758D01*
X-1351242Y238209D01*
X-1337459Y232500D01*
X-1322541D01*
X-1308758Y238209D01*
X-1298209Y248758D01*
X-1292500Y262541D01*
Y277459D01*
X-1298209Y291242D01*
X-1308758Y301791D01*
X-1322541Y307500D01*
D02*
G37*
G36*
X-1917541Y252500D02*
X-1932459D01*
X-1946242Y246791D01*
X-1956791Y236242D01*
X-1962500Y222459D01*
Y207541D01*
X-1956791Y193758D01*
X-1946242Y183209D01*
X-1932459Y177500D01*
X-1917541D01*
X-1903758Y183209D01*
X-1893209Y193758D01*
X-1887500Y207541D01*
Y222459D01*
X-1893209Y236242D01*
X-1903758Y246791D01*
X-1917541Y252500D01*
D02*
G37*
G36*
X1707459Y237500D02*
X1692540D01*
X1678758Y231791D01*
X1668209Y221242D01*
X1662500Y207459D01*
Y192541D01*
X1668209Y178758D01*
X1678758Y168209D01*
X1692540Y162500D01*
X1707459D01*
X1721242Y168209D01*
X1731791Y178758D01*
X1737500Y192541D01*
Y207459D01*
X1731791Y221242D01*
X1721242Y231791D01*
X1707459Y237500D01*
D02*
G37*
G36*
X507459D02*
X492541D01*
X478758Y231791D01*
X468209Y221242D01*
X462500Y207459D01*
Y192541D01*
X468209Y178758D01*
X478758Y168209D01*
X492541Y162500D01*
X507459D01*
X521242Y168209D01*
X531791Y178758D01*
X537500Y192541D01*
Y207459D01*
X531791Y221242D01*
X521242Y231791D01*
X507459Y237500D01*
D02*
G37*
G36*
X-692541D02*
X-707459D01*
X-721242Y231791D01*
X-731791Y221242D01*
X-737500Y207459D01*
Y192541D01*
X-731791Y178758D01*
X-721242Y168209D01*
X-707459Y162500D01*
X-692541D01*
X-678758Y168209D01*
X-668209Y178758D01*
X-662500Y192541D01*
Y207459D01*
X-668209Y221242D01*
X-678758Y231791D01*
X-692541Y237500D01*
D02*
G37*
G36*
X2712178Y292500D02*
X2687822D01*
X2664296Y286196D01*
X2643204Y274019D01*
X2625982Y256796D01*
X2613804Y235704D01*
X2607500Y212178D01*
Y187822D01*
X2613804Y164297D01*
X2625982Y143204D01*
X2643204Y125982D01*
X2664296Y113804D01*
X2687822Y107500D01*
X2712178D01*
X2735703Y113804D01*
X2756796Y125982D01*
X2774018Y143204D01*
X2786196Y164297D01*
X2792500Y187822D01*
Y212178D01*
X2786196Y235704D01*
X2774018Y256796D01*
X2756796Y274019D01*
X2735703Y286196D01*
X2712178Y292500D01*
D02*
G37*
G36*
X1707459Y137500D02*
X1692540D01*
X1678758Y131791D01*
X1668209Y121242D01*
X1662500Y107459D01*
Y92541D01*
X1668209Y78758D01*
X1678758Y68209D01*
X1692540Y62500D01*
X1707459D01*
X1721242Y68209D01*
X1731791Y78758D01*
X1737500Y92541D01*
Y107459D01*
X1731791Y121242D01*
X1721242Y131791D01*
X1707459Y137500D01*
D02*
G37*
G36*
X507459D02*
X492541D01*
X478758Y131791D01*
X468209Y121242D01*
X462500Y107459D01*
Y92541D01*
X468209Y78758D01*
X478758Y68209D01*
X492541Y62500D01*
X507459D01*
X521242Y68209D01*
X531791Y78758D01*
X537500Y92541D01*
Y107459D01*
X531791Y121242D01*
X521242Y131791D01*
X507459Y137500D01*
D02*
G37*
G36*
X-692541D02*
X-707459D01*
X-721242Y131791D01*
X-731791Y121242D01*
X-737500Y107459D01*
Y92541D01*
X-731791Y78758D01*
X-721242Y68209D01*
X-707459Y62500D01*
X-692541D01*
X-678758Y68209D01*
X-668209Y78758D01*
X-662500Y92541D01*
Y107459D01*
X-668209Y121242D01*
X-678758Y131791D01*
X-692541Y137500D01*
D02*
G37*
G36*
X2117459Y87500D02*
X2102541D01*
X2088758Y81791D01*
X2078209Y71242D01*
X2072500Y57459D01*
Y42541D01*
X2078209Y28758D01*
X2088758Y18209D01*
X2102541Y12500D01*
X2117459D01*
X2131242Y18209D01*
X2141791Y28758D01*
X2147500Y42541D01*
Y57459D01*
X2141791Y71242D01*
X2131242Y81791D01*
X2117459Y87500D01*
D02*
G37*
G36*
X1707459Y37500D02*
X1692540D01*
X1678758Y31791D01*
X1668209Y21242D01*
X1662500Y7459D01*
Y-7459D01*
X1668209Y-21242D01*
X1678758Y-31791D01*
X1692540Y-37500D01*
X1707459D01*
X1721242Y-31791D01*
X1731791Y-21242D01*
X1737500Y-7459D01*
Y7459D01*
X1731791Y21242D01*
X1721242Y31791D01*
X1707459Y37500D01*
D02*
G37*
G36*
X507459D02*
X492541D01*
X478758Y31791D01*
X468209Y21242D01*
X462500Y7459D01*
Y-7459D01*
X468209Y-21242D01*
X478758Y-31791D01*
X492541Y-37500D01*
X507459D01*
X521242Y-31791D01*
X531791Y-21242D01*
X537500Y-7459D01*
Y7459D01*
X531791Y21242D01*
X521242Y31791D01*
X507459Y37500D01*
D02*
G37*
G36*
X-692541D02*
X-707459D01*
X-721242Y31791D01*
X-731791Y21242D01*
X-737500Y7459D01*
Y-7459D01*
X-731791Y-21242D01*
X-721242Y-31791D01*
X-707459Y-37500D01*
X-692541D01*
X-678758Y-31791D01*
X-668209Y-21242D01*
X-662500Y-7459D01*
Y7459D01*
X-668209Y21242D01*
X-678758Y31791D01*
X-692541Y37500D01*
D02*
G37*
G36*
X2792500Y92500D02*
X2607500D01*
Y-92500D01*
X2792500D01*
Y92500D01*
D02*
G37*
G36*
X1707459Y-62500D02*
X1692540D01*
X1678758Y-68209D01*
X1668209Y-78758D01*
X1662500Y-92541D01*
Y-107459D01*
X1668209Y-121242D01*
X1678758Y-131791D01*
X1692540Y-137500D01*
X1707459D01*
X1721242Y-131791D01*
X1731791Y-121242D01*
X1737500Y-107459D01*
Y-92541D01*
X1731791Y-78758D01*
X1721242Y-68209D01*
X1707459Y-62500D01*
D02*
G37*
G36*
X507459D02*
X492541D01*
X478758Y-68209D01*
X468209Y-78758D01*
X462500Y-92541D01*
Y-107459D01*
X468209Y-121242D01*
X478758Y-131791D01*
X492541Y-137500D01*
X507459D01*
X521242Y-131791D01*
X531791Y-121242D01*
X537500Y-107459D01*
Y-92541D01*
X531791Y-78758D01*
X521242Y-68209D01*
X507459Y-62500D01*
D02*
G37*
G36*
X-692541D02*
X-707459D01*
X-721242Y-68209D01*
X-731791Y-78758D01*
X-737500Y-92541D01*
Y-107459D01*
X-731791Y-121242D01*
X-721242Y-131791D01*
X-707459Y-137500D01*
X-692541D01*
X-678758Y-131791D01*
X-668209Y-121242D01*
X-662500Y-107459D01*
Y-92541D01*
X-668209Y-78758D01*
X-678758Y-68209D01*
X-692541Y-62500D01*
D02*
G37*
G36*
X1707459Y-162500D02*
X1692540D01*
X1678758Y-168209D01*
X1668209Y-178758D01*
X1662500Y-192541D01*
Y-207459D01*
X1668209Y-221242D01*
X1678758Y-231791D01*
X1692540Y-237500D01*
X1707459D01*
X1721242Y-231791D01*
X1731791Y-221242D01*
X1737500Y-207459D01*
Y-192541D01*
X1731791Y-178758D01*
X1721242Y-168209D01*
X1707459Y-162500D01*
D02*
G37*
G36*
X507459D02*
X492541D01*
X478758Y-168209D01*
X468209Y-178758D01*
X462500Y-192541D01*
Y-207459D01*
X468209Y-221242D01*
X478758Y-231791D01*
X492541Y-237500D01*
X507459D01*
X521242Y-231791D01*
X531791Y-221242D01*
X537500Y-207459D01*
Y-192541D01*
X531791Y-178758D01*
X521242Y-168209D01*
X507459Y-162500D01*
D02*
G37*
G36*
X-692541D02*
X-707459D01*
X-721242Y-168209D01*
X-731791Y-178758D01*
X-737500Y-192541D01*
Y-207459D01*
X-731791Y-221242D01*
X-721242Y-231791D01*
X-707459Y-237500D01*
X-692541D01*
X-678758Y-231791D01*
X-668209Y-221242D01*
X-662500Y-207459D01*
Y-192541D01*
X-668209Y-178758D01*
X-678758Y-168209D01*
X-692541Y-162500D01*
D02*
G37*
G36*
X-2202541D02*
X-2217459D01*
X-2231242Y-168209D01*
X-2241791Y-178758D01*
X-2247500Y-192541D01*
Y-207459D01*
X-2241791Y-221242D01*
X-2231242Y-231791D01*
X-2217459Y-237500D01*
X-2202541D01*
X-2188758Y-231791D01*
X-2178209Y-221242D01*
X-2172500Y-207459D01*
Y-192541D01*
X-2178209Y-178758D01*
X-2188758Y-168209D01*
X-2202541Y-162500D01*
D02*
G37*
G36*
X-2702541D02*
X-2717459D01*
X-2731242Y-168209D01*
X-2741791Y-178758D01*
X-2747500Y-192541D01*
Y-207459D01*
X-2741791Y-221242D01*
X-2731242Y-231791D01*
X-2717459Y-237500D01*
X-2702541D01*
X-2688758Y-231791D01*
X-2678209Y-221242D01*
X-2672500Y-207459D01*
Y-192541D01*
X-2678209Y-178758D01*
X-2688758Y-168209D01*
X-2702541Y-162500D01*
D02*
G37*
G36*
X1907459Y-212500D02*
X1892541D01*
X1878758Y-218209D01*
X1868209Y-228758D01*
X1862500Y-242541D01*
Y-257459D01*
X1868209Y-271242D01*
X1878758Y-281791D01*
X1892541Y-287500D01*
X1907459D01*
X1921242Y-281791D01*
X1931791Y-271242D01*
X1937500Y-257459D01*
Y-242541D01*
X1931791Y-228758D01*
X1921242Y-218209D01*
X1907459Y-212500D01*
D02*
G37*
G36*
X1707459Y-262500D02*
X1692540D01*
X1678758Y-268209D01*
X1668209Y-278758D01*
X1662500Y-292541D01*
Y-307459D01*
X1668209Y-321242D01*
X1678758Y-331791D01*
X1692540Y-337500D01*
X1707459D01*
X1721242Y-331791D01*
X1731791Y-321242D01*
X1737500Y-307459D01*
Y-292541D01*
X1731791Y-278758D01*
X1721242Y-268209D01*
X1707459Y-262500D01*
D02*
G37*
G36*
X507459D02*
X492541D01*
X478758Y-268209D01*
X468209Y-278758D01*
X462500Y-292541D01*
Y-307459D01*
X468209Y-321242D01*
X478758Y-331791D01*
X492541Y-337500D01*
X507459D01*
X521242Y-331791D01*
X531791Y-321242D01*
X537500Y-307459D01*
Y-292541D01*
X531791Y-278758D01*
X521242Y-268209D01*
X507459Y-262500D01*
D02*
G37*
G36*
X-692541D02*
X-707459D01*
X-721242Y-268209D01*
X-731791Y-278758D01*
X-737500Y-292541D01*
Y-307459D01*
X-731791Y-321242D01*
X-721242Y-331791D01*
X-707459Y-337500D01*
X-692541D01*
X-678758Y-331791D01*
X-668209Y-321242D01*
X-662500Y-307459D01*
Y-292541D01*
X-668209Y-278758D01*
X-678758Y-268209D01*
X-692541Y-262500D01*
D02*
G37*
G36*
X-2432541D02*
X-2447459D01*
X-2461242Y-268209D01*
X-2471791Y-278758D01*
X-2477500Y-292541D01*
Y-307459D01*
X-2471791Y-321242D01*
X-2461242Y-331791D01*
X-2447459Y-337500D01*
X-2432541D01*
X-2418758Y-331791D01*
X-2408209Y-321242D01*
X-2402500Y-307459D01*
Y-292541D01*
X-2408209Y-278758D01*
X-2418758Y-268209D01*
X-2432541Y-262500D01*
D02*
G37*
G36*
X-2932541D02*
X-2947459D01*
X-2961242Y-268209D01*
X-2971791Y-278758D01*
X-2977500Y-292541D01*
Y-307459D01*
X-2971791Y-321242D01*
X-2961242Y-331791D01*
X-2947459Y-337500D01*
X-2932541D01*
X-2918758Y-331791D01*
X-2908209Y-321242D01*
X-2902500Y-307459D01*
Y-292541D01*
X-2908209Y-278758D01*
X-2918758Y-268209D01*
X-2932541Y-262500D01*
D02*
G37*
G36*
X-252541Y-312500D02*
X-267459D01*
X-281242Y-318209D01*
X-291791Y-328758D01*
X-297500Y-342541D01*
Y-357459D01*
X-291791Y-371242D01*
X-281242Y-381791D01*
X-267459Y-387500D01*
X-252541D01*
X-238758Y-381791D01*
X-228209Y-371242D01*
X-222500Y-357459D01*
Y-342541D01*
X-228209Y-328758D01*
X-238758Y-318209D01*
X-252541Y-312500D01*
D02*
G37*
G36*
X1707459Y-362500D02*
X1692540D01*
X1678758Y-368209D01*
X1668209Y-378758D01*
X1662500Y-392541D01*
Y-407459D01*
X1668209Y-421242D01*
X1678758Y-431791D01*
X1692540Y-437500D01*
X1707459D01*
X1721242Y-431791D01*
X1731791Y-421242D01*
X1737500Y-407459D01*
Y-392541D01*
X1731791Y-378758D01*
X1721242Y-368209D01*
X1707459Y-362500D01*
D02*
G37*
G36*
X1607459D02*
X1592541D01*
X1578758Y-368209D01*
X1568209Y-378758D01*
X1562500Y-392541D01*
Y-407459D01*
X1568209Y-421242D01*
X1578758Y-431791D01*
X1592541Y-437500D01*
X1607459D01*
X1621242Y-431791D01*
X1631791Y-421242D01*
X1637500Y-407459D01*
Y-392541D01*
X1631791Y-378758D01*
X1621242Y-368209D01*
X1607459Y-362500D01*
D02*
G37*
G36*
X507459D02*
X492541D01*
X478758Y-368209D01*
X468209Y-378758D01*
X462500Y-392541D01*
Y-407459D01*
X468209Y-421242D01*
X478758Y-431791D01*
X492541Y-437500D01*
X507459D01*
X521242Y-431791D01*
X531791Y-421242D01*
X537500Y-407459D01*
Y-392541D01*
X531791Y-378758D01*
X521242Y-368209D01*
X507459Y-362500D01*
D02*
G37*
G36*
X407459D02*
X392541D01*
X378758Y-368209D01*
X368209Y-378758D01*
X362500Y-392541D01*
Y-407459D01*
X368209Y-421242D01*
X378758Y-431791D01*
X392541Y-437500D01*
X407459D01*
X421242Y-431791D01*
X431791Y-421242D01*
X437500Y-407459D01*
Y-392541D01*
X431791Y-378758D01*
X421242Y-368209D01*
X407459Y-362500D01*
D02*
G37*
G36*
X-692541D02*
X-707459D01*
X-721242Y-368209D01*
X-731791Y-378758D01*
X-737500Y-392541D01*
Y-407459D01*
X-731791Y-421242D01*
X-721242Y-431791D01*
X-707459Y-437500D01*
X-692541D01*
X-678758Y-431791D01*
X-668209Y-421242D01*
X-662500Y-407459D01*
Y-392541D01*
X-668209Y-378758D01*
X-678758Y-368209D01*
X-692541Y-362500D01*
D02*
G37*
G36*
X-792541D02*
X-807459D01*
X-821242Y-368209D01*
X-831791Y-378758D01*
X-837500Y-392541D01*
Y-407459D01*
X-831791Y-421242D01*
X-821242Y-431791D01*
X-807459Y-437500D01*
X-792541D01*
X-778758Y-431791D01*
X-768209Y-421242D01*
X-762500Y-407459D01*
Y-392541D01*
X-768209Y-378758D01*
X-778758Y-368209D01*
X-792541Y-362500D01*
D02*
G37*
G36*
X1907459Y-392500D02*
X1892541D01*
X1878758Y-398209D01*
X1868209Y-408758D01*
X1862500Y-422541D01*
Y-437459D01*
X1868209Y-451242D01*
X1878758Y-461791D01*
X1892541Y-467500D01*
X1907459D01*
X1921242Y-461791D01*
X1931791Y-451242D01*
X1937500Y-437459D01*
Y-422541D01*
X1931791Y-408758D01*
X1921242Y-398209D01*
X1907459Y-392500D01*
D02*
G37*
G36*
X-1062541Y-402500D02*
X-1077459D01*
X-1091242Y-408209D01*
X-1101791Y-418758D01*
X-1107500Y-432541D01*
Y-447459D01*
X-1101791Y-461242D01*
X-1091242Y-471791D01*
X-1077459Y-477500D01*
X-1062541D01*
X-1048758Y-471791D01*
X-1038209Y-461242D01*
X-1032500Y-447459D01*
Y-432541D01*
X-1038209Y-418758D01*
X-1048758Y-408209D01*
X-1062541Y-402500D01*
D02*
G37*
G36*
X-1162541D02*
X-1177459D01*
X-1191242Y-408209D01*
X-1201791Y-418758D01*
X-1207500Y-432541D01*
Y-447459D01*
X-1201791Y-461242D01*
X-1191242Y-471791D01*
X-1177459Y-477500D01*
X-1162541D01*
X-1148758Y-471791D01*
X-1138209Y-461242D01*
X-1132500Y-447459D01*
Y-432541D01*
X-1138209Y-418758D01*
X-1148758Y-408209D01*
X-1162541Y-402500D01*
D02*
G37*
G36*
X-82541Y-412500D02*
X-97459D01*
X-111242Y-418209D01*
X-121791Y-428758D01*
X-127500Y-442541D01*
Y-457459D01*
X-121791Y-471242D01*
X-111242Y-481791D01*
X-97459Y-487500D01*
X-82541D01*
X-68758Y-481791D01*
X-58209Y-471242D01*
X-52500Y-457459D01*
Y-442541D01*
X-58209Y-428758D01*
X-68758Y-418209D01*
X-82541Y-412500D01*
D02*
G37*
G36*
X-252541D02*
X-267459D01*
X-281242Y-418209D01*
X-291791Y-428758D01*
X-297500Y-442541D01*
Y-457459D01*
X-291791Y-471242D01*
X-281242Y-481791D01*
X-267459Y-487500D01*
X-252541D01*
X-238758Y-481791D01*
X-228209Y-471242D01*
X-222500Y-457459D01*
Y-442541D01*
X-228209Y-428758D01*
X-238758Y-418209D01*
X-252541Y-412500D01*
D02*
G37*
G36*
X-3042541Y-422500D02*
X-3057459D01*
X-3071242Y-428209D01*
X-3081791Y-438758D01*
X-3087500Y-452541D01*
Y-467459D01*
X-3081791Y-481242D01*
X-3071242Y-491791D01*
X-3057459Y-497500D01*
X-3042541D01*
X-3028758Y-491791D01*
X-3018209Y-481242D01*
X-3012500Y-467459D01*
Y-452541D01*
X-3018209Y-438758D01*
X-3028758Y-428209D01*
X-3042541Y-422500D01*
D02*
G37*
G36*
X47459Y-452500D02*
X32541D01*
X18758Y-458209D01*
X8209Y-468758D01*
X2500Y-482541D01*
Y-497459D01*
X8209Y-511242D01*
X18758Y-521791D01*
X32541Y-527500D01*
X47459D01*
X61242Y-521791D01*
X71791Y-511242D01*
X77500Y-497459D01*
Y-482541D01*
X71791Y-468758D01*
X61242Y-458209D01*
X47459Y-452500D01*
D02*
G37*
G36*
X2839115Y-679628D02*
X2820915Y-679628D01*
X2802349Y-684602D01*
X2785703Y-694213D01*
X2772111Y-707804D01*
X2762500Y-724451D01*
X2760587Y-729070D01*
X2810135Y-749593D01*
X2839115Y-679628D01*
D02*
G37*
G36*
X2876070Y-694935D02*
X2847090Y-764900D01*
X2896637Y-785424D01*
X2898551Y-780804D01*
X2903526Y-762238D01*
X2903525Y-743017D01*
X2898551Y-724450D01*
X2888940Y-707805D01*
X2876070Y-694935D01*
D02*
G37*
G36*
X1837459Y-512500D02*
X1822541D01*
X1808758Y-518209D01*
X1798209Y-528758D01*
X1792500Y-542541D01*
Y-557459D01*
X1798209Y-571242D01*
X1808758Y-581791D01*
X1811983Y-583127D01*
Y-596873D01*
X1808758Y-598209D01*
X1798209Y-608758D01*
X1792500Y-622541D01*
Y-637459D01*
X1798209Y-651242D01*
X1808758Y-661791D01*
X1811983Y-663127D01*
Y-676873D01*
X1808758Y-678209D01*
X1798209Y-688758D01*
X1792500Y-702541D01*
Y-717459D01*
X1798209Y-731242D01*
X1808758Y-741791D01*
X1811983Y-743127D01*
Y-756873D01*
X1808758Y-758209D01*
X1798209Y-768758D01*
X1792500Y-782541D01*
Y-797459D01*
X1798209Y-811242D01*
X1808758Y-821791D01*
X1822541Y-827500D01*
X1837459D01*
X1851242Y-821791D01*
X1861791Y-811242D01*
X1867500Y-797459D01*
Y-782541D01*
X1861791Y-768758D01*
X1851242Y-758209D01*
X1848017Y-756873D01*
Y-743127D01*
X1851242Y-741791D01*
X1861791Y-731242D01*
X1867500Y-717459D01*
Y-702541D01*
X1861791Y-688758D01*
X1851242Y-678209D01*
X1848017Y-676873D01*
Y-663127D01*
X1851242Y-661791D01*
X1861791Y-651242D01*
X1867500Y-637459D01*
Y-622541D01*
X1861791Y-608758D01*
X1851242Y-598209D01*
X1848017Y-596873D01*
Y-583127D01*
X1851242Y-581791D01*
X1861791Y-571242D01*
X1867500Y-557459D01*
Y-542541D01*
X1861791Y-528758D01*
X1851242Y-518209D01*
X1837459Y-512500D01*
D02*
G37*
G36*
X2745280Y-766025D02*
X2743366Y-770644D01*
X2738392Y-789211D01*
X2738392Y-808432D01*
X2743366Y-826998D01*
X2752977Y-843644D01*
X2765846Y-856514D01*
X2794827Y-786548D01*
X2745280Y-766025D01*
D02*
G37*
G36*
X3103345Y-789075D02*
X3085144D01*
X3066578Y-794050D01*
X3049932Y-803661D01*
X3036341Y-817252D01*
X3026730Y-833898D01*
X3024817Y-838518D01*
X3074364Y-859041D01*
X3103345Y-789075D01*
D02*
G37*
G36*
X2831782Y-801855D02*
X2802802Y-871821D01*
X2821002Y-871821D01*
X2839568Y-866846D01*
X2856215Y-857236D01*
X2869806Y-843644D01*
X2879417Y-826998D01*
X2881330Y-822379D01*
X2831782Y-801855D01*
D02*
G37*
G36*
X2962621Y-782448D02*
X2943525D01*
X2925883Y-789756D01*
X2912381Y-803258D01*
X2905073Y-820900D01*
Y-839996D01*
X2912381Y-857638D01*
X2925883Y-871141D01*
X2943525Y-878448D01*
X2962621D01*
X2980263Y-871141D01*
X2993766Y-857638D01*
X3001073Y-839996D01*
Y-820900D01*
X2993766Y-803258D01*
X2980263Y-789756D01*
X2962621Y-782448D01*
D02*
G37*
G36*
X270000Y-783196D02*
Y-880000D01*
X366804D01*
X359959Y-854454D01*
X344423Y-827546D01*
X322454Y-805576D01*
X295546Y-790041D01*
X270000Y-783196D01*
D02*
G37*
G36*
X230000D02*
X204454Y-790041D01*
X177546Y-805576D01*
X155577Y-827546D01*
X140041Y-854454D01*
X133196Y-880000D01*
X230000D01*
Y-783196D01*
D02*
G37*
G36*
X-830000D02*
Y-880000D01*
X-733196D01*
X-740041Y-854454D01*
X-755577Y-827546D01*
X-777546Y-805576D01*
X-804454Y-790041D01*
X-830000Y-783196D01*
D02*
G37*
G36*
X-870000D02*
X-895546Y-790041D01*
X-922454Y-805576D01*
X-944424Y-827546D01*
X-959959Y-854454D01*
X-966804Y-880000D01*
X-870000D01*
Y-783196D01*
D02*
G37*
G36*
X1370001Y-783197D02*
Y-880001D01*
X1466804D01*
X1459959Y-854454D01*
X1444424Y-827546D01*
X1422454Y-805576D01*
X1395546Y-790041D01*
X1370001Y-783197D01*
D02*
G37*
G36*
X1330001Y-783196D02*
X1304454Y-790041D01*
X1277546Y-805576D01*
X1255577Y-827546D01*
X1240041Y-854454D01*
X1233196Y-880001D01*
X1330001D01*
Y-783196D01*
D02*
G37*
G36*
X-1632541Y-572500D02*
X-1647459D01*
X-1661242Y-578209D01*
X-1671791Y-588758D01*
X-1677500Y-602541D01*
Y-617459D01*
X-1671791Y-631242D01*
X-1661242Y-641791D01*
X-1658017Y-643127D01*
Y-656873D01*
X-1661242Y-658209D01*
X-1671791Y-668758D01*
X-1677500Y-682541D01*
Y-697459D01*
X-1671791Y-711242D01*
X-1661242Y-721791D01*
X-1658017Y-723127D01*
Y-736873D01*
X-1661242Y-738209D01*
X-1671791Y-748758D01*
X-1677500Y-762541D01*
Y-777459D01*
X-1671791Y-791242D01*
X-1661242Y-801791D01*
X-1658017Y-803127D01*
Y-816873D01*
X-1661242Y-818209D01*
X-1671791Y-828758D01*
X-1677500Y-842541D01*
Y-857459D01*
X-1671791Y-871242D01*
X-1661242Y-881791D01*
X-1647459Y-887500D01*
X-1632541D01*
X-1618758Y-881791D01*
X-1608209Y-871242D01*
X-1602500Y-857459D01*
Y-842541D01*
X-1608209Y-828758D01*
X-1618758Y-818209D01*
X-1621983Y-816873D01*
Y-803127D01*
X-1618758Y-801791D01*
X-1608209Y-791242D01*
X-1602500Y-777459D01*
Y-762541D01*
X-1608209Y-748758D01*
X-1618758Y-738209D01*
X-1621983Y-736873D01*
Y-723127D01*
X-1618758Y-721791D01*
X-1608209Y-711242D01*
X-1602500Y-697459D01*
Y-682541D01*
X-1608209Y-668758D01*
X-1618758Y-658209D01*
X-1621983Y-656873D01*
Y-643127D01*
X-1618758Y-641791D01*
X-1608209Y-631242D01*
X-1602500Y-617459D01*
Y-602541D01*
X-1608209Y-588758D01*
X-1618758Y-578209D01*
X-1632541Y-572500D01*
D02*
G37*
G36*
X2009771Y-874360D02*
X1994852D01*
X1981069Y-880069D01*
X1971062Y-890077D01*
X1961053Y-880069D01*
X1947271Y-874360D01*
X1932352D01*
X1918569Y-880069D01*
X1908021Y-890618D01*
X1902311Y-904401D01*
Y-919319D01*
X1908021Y-933102D01*
X1918569Y-943651D01*
X1932352Y-949360D01*
X1947271D01*
X1961053Y-943651D01*
X1971062Y-933643D01*
X1981069Y-943651D01*
X1994852Y-949360D01*
X2009771D01*
X2023553Y-943651D01*
X2034102Y-933102D01*
X2039812Y-919319D01*
Y-904401D01*
X2034102Y-890618D01*
X2023553Y-880069D01*
X2009771Y-874360D01*
D02*
G37*
G36*
X3140300Y-804382D02*
X3111319Y-874348D01*
X3160867Y-894871D01*
X3162780Y-890252D01*
X3167755Y-871685D01*
X3167755Y-852464D01*
X3162780Y-833898D01*
X3153170Y-817252D01*
X3140300Y-804382D01*
D02*
G37*
G36*
X2267459Y-862500D02*
X2252541D01*
X2238758Y-868209D01*
X2228209Y-878758D01*
X2222500Y-892541D01*
Y-907459D01*
X2228209Y-921242D01*
X2238758Y-931791D01*
X2252541Y-937500D01*
X2267459D01*
X2281242Y-931791D01*
X2291791Y-921242D01*
X2297500Y-907459D01*
Y-892541D01*
X2291791Y-878758D01*
X2281242Y-868209D01*
X2267459Y-862500D01*
D02*
G37*
G36*
X-2422541D02*
X-2437459D01*
X-2451242Y-868209D01*
X-2461791Y-878758D01*
X-2467500Y-892541D01*
Y-907459D01*
X-2461791Y-921242D01*
X-2451242Y-931791D01*
X-2437459Y-937500D01*
X-2422541D01*
X-2408758Y-931791D01*
X-2398209Y-921242D01*
X-2392500Y-907459D01*
Y-892541D01*
X-2398209Y-878758D01*
X-2408758Y-868209D01*
X-2422541Y-862500D01*
D02*
G37*
G36*
X-2622541D02*
X-2637459D01*
X-2651242Y-868209D01*
X-2661791Y-878758D01*
X-2667500Y-892541D01*
Y-907459D01*
X-2661791Y-921242D01*
X-2651242Y-931791D01*
X-2637459Y-937500D01*
X-2622541D01*
X-2608758Y-931791D01*
X-2598209Y-921242D01*
X-2592500Y-907459D01*
Y-892541D01*
X-2598209Y-878758D01*
X-2608758Y-868209D01*
X-2622541Y-862500D01*
D02*
G37*
G36*
X3009509Y-875473D02*
X3007596Y-880092D01*
X3002621Y-898658D01*
X3002621Y-917879D01*
X3007596Y-936446D01*
X3017207Y-953092D01*
X3030076Y-965961D01*
X3059057Y-895996D01*
X3009509Y-875473D01*
D02*
G37*
G36*
X3096012Y-911303D02*
X3067031Y-981269D01*
X3085232D01*
X3103798Y-976294D01*
X3120444Y-966683D01*
X3134036Y-953092D01*
X3143646Y-936445D01*
X3145559Y-931826D01*
X3096012Y-911303D01*
D02*
G37*
G36*
X962500Y-787500D02*
X737500D01*
Y-1012500D01*
X962500D01*
Y-787500D01*
D02*
G37*
G36*
X-137500D02*
X-362500D01*
Y-1012500D01*
X-137500D01*
Y-787500D01*
D02*
G37*
G36*
X-1237500D02*
X-1462500D01*
Y-1012500D01*
X-1237500D01*
Y-787500D01*
D02*
G37*
G36*
X1466804Y-920000D02*
X1370001D01*
Y-1016803D01*
X1395546Y-1009959D01*
X1422454Y-994423D01*
X1444424Y-972454D01*
X1459959Y-945546D01*
X1466804Y-920000D01*
D02*
G37*
G36*
X230000Y-920000D02*
X133196D01*
X140041Y-945546D01*
X155577Y-972454D01*
X177546Y-994423D01*
X204454Y-1009959D01*
X230000Y-1016804D01*
Y-920000D01*
D02*
G37*
G36*
X-733196Y-920000D02*
X-830000D01*
Y-1016804D01*
X-804454Y-1009959D01*
X-777546Y-994423D01*
X-755577Y-972454D01*
X-740041Y-945546D01*
X-733196Y-920000D01*
D02*
G37*
G36*
X-870000D02*
X-966804D01*
X-959959Y-945546D01*
X-944424Y-972454D01*
X-922454Y-994423D01*
X-895546Y-1009959D01*
X-870000Y-1016804D01*
Y-920000D01*
D02*
G37*
G36*
X366804Y-920000D02*
X270000D01*
Y-1016804D01*
X295546Y-1009959D01*
X322454Y-994423D01*
X344423Y-972454D01*
X359959Y-945546D01*
X366804Y-920000D01*
D02*
G37*
G36*
X1330001Y-920000D02*
X1233197D01*
X1240041Y-945546D01*
X1255577Y-972454D01*
X1277546Y-994423D01*
X1304454Y-1009959D01*
X1330001Y-1016804D01*
Y-920000D01*
D02*
G37*
G36*
X-2422541Y-962500D02*
X-2437459D01*
X-2451242Y-968209D01*
X-2461791Y-978758D01*
X-2467500Y-992541D01*
Y-1007459D01*
X-2461791Y-1021242D01*
X-2451242Y-1031791D01*
X-2437459Y-1037500D01*
X-2422541D01*
X-2408758Y-1031791D01*
X-2398209Y-1021242D01*
X-2392500Y-1007459D01*
Y-992541D01*
X-2398209Y-978758D01*
X-2408758Y-968209D01*
X-2422541Y-962500D01*
D02*
G37*
G36*
X-2622541D02*
X-2637459D01*
X-2651242Y-968209D01*
X-2661791Y-978758D01*
X-2667500Y-992541D01*
Y-1007459D01*
X-2661791Y-1021242D01*
X-2651242Y-1031791D01*
X-2637459Y-1037500D01*
X-2622541D01*
X-2608758Y-1031791D01*
X-2598209Y-1021242D01*
X-2592500Y-1007459D01*
Y-992541D01*
X-2598209Y-978758D01*
X-2608758Y-968209D01*
X-2622541Y-962500D01*
D02*
G37*
G36*
X2857459Y-1042500D02*
X2842541D01*
X2828758Y-1048209D01*
X2818209Y-1058758D01*
X2812500Y-1072541D01*
Y-1087459D01*
X2818209Y-1101242D01*
X2828758Y-1111791D01*
X2842541Y-1117500D01*
X2857459D01*
X2871242Y-1111791D01*
X2881791Y-1101242D01*
X2887500Y-1087459D01*
Y-1072541D01*
X2881791Y-1058758D01*
X2871242Y-1048209D01*
X2857459Y-1042500D01*
D02*
G37*
G36*
X-2422541Y-1062500D02*
X-2437459D01*
X-2451242Y-1068209D01*
X-2461791Y-1078758D01*
X-2467500Y-1092541D01*
Y-1107459D01*
X-2461791Y-1121242D01*
X-2451242Y-1131791D01*
X-2437459Y-1137500D01*
X-2422541D01*
X-2408758Y-1131791D01*
X-2398209Y-1121242D01*
X-2392500Y-1107459D01*
Y-1092541D01*
X-2398209Y-1078758D01*
X-2408758Y-1068209D01*
X-2422541Y-1062500D01*
D02*
G37*
G36*
X-2622541D02*
X-2637459D01*
X-2651242Y-1068209D01*
X-2661791Y-1078758D01*
X-2667500Y-1092541D01*
Y-1107459D01*
X-2661791Y-1121242D01*
X-2651242Y-1131791D01*
X-2637459Y-1137500D01*
X-2622541D01*
X-2608758Y-1131791D01*
X-2598209Y-1121242D01*
X-2592500Y-1107459D01*
Y-1092541D01*
X-2598209Y-1078758D01*
X-2608758Y-1068209D01*
X-2622541Y-1062500D01*
D02*
G37*
G36*
X2523277Y-1096792D02*
X2508359D01*
X2494576Y-1102501D01*
X2484027Y-1113050D01*
X2478318Y-1126833D01*
Y-1141751D01*
X2484027Y-1155534D01*
X2494576Y-1166083D01*
X2508359Y-1171792D01*
X2523277D01*
X2537060Y-1166083D01*
X2547609Y-1155534D01*
X2553318Y-1141751D01*
Y-1126833D01*
X2547609Y-1113050D01*
X2537060Y-1102501D01*
X2523277Y-1096792D01*
D02*
G37*
G36*
X2778599Y-1120740D02*
X2763681D01*
X2749898Y-1126449D01*
X2739349Y-1136998D01*
X2733640Y-1150781D01*
Y-1165699D01*
X2739349Y-1179482D01*
X2749898Y-1190031D01*
X2763681Y-1195740D01*
X2778599D01*
X2792382Y-1190031D01*
X2802931Y-1179482D01*
X2808640Y-1165699D01*
Y-1150781D01*
X2802931Y-1136998D01*
X2792382Y-1126449D01*
X2778599Y-1120740D01*
D02*
G37*
G36*
X-1892541Y-1162500D02*
X-1907459D01*
X-1921242Y-1168209D01*
X-1931791Y-1178758D01*
X-1937500Y-1192541D01*
Y-1207459D01*
X-1931791Y-1221242D01*
X-1921242Y-1231791D01*
X-1907459Y-1237500D01*
X-1892541D01*
X-1878758Y-1231791D01*
X-1868209Y-1221242D01*
X-1862500Y-1207459D01*
Y-1192541D01*
X-1868209Y-1178758D01*
X-1878758Y-1168209D01*
X-1892541Y-1162500D01*
D02*
G37*
G36*
X-2422541D02*
X-2437459D01*
X-2451242Y-1168209D01*
X-2461791Y-1178758D01*
X-2467500Y-1192541D01*
Y-1207459D01*
X-2461791Y-1221242D01*
X-2451242Y-1231791D01*
X-2437459Y-1237500D01*
X-2422541D01*
X-2408758Y-1231791D01*
X-2398209Y-1221242D01*
X-2392500Y-1207459D01*
Y-1192541D01*
X-2398209Y-1178758D01*
X-2408758Y-1168209D01*
X-2422541Y-1162500D01*
D02*
G37*
G36*
X-2622541D02*
X-2637459D01*
X-2651242Y-1168209D01*
X-2661791Y-1178758D01*
X-2667500Y-1192541D01*
Y-1207459D01*
X-2661791Y-1221242D01*
X-2651242Y-1231791D01*
X-2637459Y-1237500D01*
X-2622541D01*
X-2608758Y-1231791D01*
X-2598209Y-1221242D01*
X-2592500Y-1207459D01*
Y-1192541D01*
X-2598209Y-1178758D01*
X-2608758Y-1168209D01*
X-2622541Y-1162500D01*
D02*
G37*
G36*
X-2422541Y-1262500D02*
X-2437459D01*
X-2451242Y-1268209D01*
X-2461791Y-1278758D01*
X-2467500Y-1292541D01*
Y-1307459D01*
X-2461791Y-1321242D01*
X-2451242Y-1331791D01*
X-2437459Y-1337500D01*
X-2422541D01*
X-2408758Y-1331791D01*
X-2398209Y-1321242D01*
X-2392500Y-1307459D01*
Y-1292541D01*
X-2398209Y-1278758D01*
X-2408758Y-1268209D01*
X-2422541Y-1262500D01*
D02*
G37*
G36*
X-2622541D02*
X-2637459D01*
X-2651242Y-1268209D01*
X-2661791Y-1278758D01*
X-2667500Y-1292541D01*
Y-1307459D01*
X-2661791Y-1321242D01*
X-2651242Y-1331791D01*
X-2637459Y-1337500D01*
X-2622541D01*
X-2608758Y-1331791D01*
X-2598209Y-1321242D01*
X-2592500Y-1307459D01*
Y-1292541D01*
X-2598209Y-1278758D01*
X-2608758Y-1268209D01*
X-2622541Y-1262500D01*
D02*
G37*
G36*
X2809079Y-1232500D02*
X2794161D01*
X2780378Y-1238209D01*
X2769829Y-1248758D01*
X2764120Y-1262541D01*
Y-1271512D01*
X2759235Y-1279571D01*
X2752461Y-1282500D01*
X2742541D01*
X2728758Y-1288209D01*
X2718209Y-1298758D01*
X2712500Y-1312541D01*
Y-1327459D01*
X2718209Y-1341242D01*
X2728758Y-1351791D01*
X2742541Y-1357500D01*
X2757459D01*
X2771242Y-1351791D01*
X2781791Y-1341242D01*
X2787500Y-1327459D01*
Y-1318488D01*
X2792386Y-1310428D01*
X2799159Y-1307500D01*
X2809079D01*
X2822862Y-1301791D01*
X2833411Y-1291242D01*
X2839120Y-1277459D01*
Y-1262541D01*
X2833411Y-1248758D01*
X2822862Y-1238209D01*
X2809079Y-1232500D01*
D02*
G37*
G36*
X-2422541Y-1362500D02*
X-2437459D01*
X-2451242Y-1368209D01*
X-2461791Y-1378758D01*
X-2467500Y-1392541D01*
Y-1407459D01*
X-2461791Y-1421242D01*
X-2451242Y-1431791D01*
X-2437459Y-1437500D01*
X-2422541D01*
X-2408758Y-1431791D01*
X-2398209Y-1421242D01*
X-2392500Y-1407459D01*
Y-1392541D01*
X-2398209Y-1378758D01*
X-2408758Y-1368209D01*
X-2422541Y-1362500D01*
D02*
G37*
G36*
X2532969Y-1418731D02*
X2514768D01*
X2496202Y-1423706D01*
X2479556Y-1433317D01*
X2465964Y-1446908D01*
X2456354Y-1463554D01*
X2454440Y-1468174D01*
X2503988Y-1488697D01*
X2532969Y-1418731D01*
D02*
G37*
G36*
X2569924Y-1434039D02*
X2540943Y-1504004D01*
X2590491Y-1524527D01*
X2592404Y-1519908D01*
X2597379Y-1501342D01*
X2597379Y-1482120D01*
X2592404Y-1463554D01*
X2582793Y-1446908D01*
X2569924Y-1434039D01*
D02*
G37*
G36*
X-1529514Y-1342000D02*
X-1529999D01*
Y-1529999D01*
X-1342000D01*
Y-1529514D01*
X-1349993Y-1489329D01*
X-1365673Y-1451475D01*
X-1388436Y-1417408D01*
X-1417408Y-1388436D01*
X-1451475Y-1365673D01*
X-1489329Y-1349993D01*
X-1529514Y-1342000D01*
D02*
G37*
G36*
X1570486D02*
X1570000D01*
Y-1529999D01*
X1758000D01*
Y-1529514D01*
X1750006Y-1489329D01*
X1734327Y-1451475D01*
X1711564Y-1417408D01*
X1682592Y-1388436D01*
X1648525Y-1365673D01*
X1610671Y-1349993D01*
X1570486Y-1342000D01*
D02*
G37*
G36*
X-1569999D02*
X-1570486D01*
X-1610671Y-1349993D01*
X-1648525Y-1365673D01*
X-1682592Y-1388436D01*
X-1711564Y-1417408D01*
X-1734327Y-1451475D01*
X-1750006Y-1489329D01*
X-1758000Y-1529514D01*
Y-1529999D01*
X-1569999D01*
Y-1342000D01*
D02*
G37*
G36*
X1530000D02*
X1529514D01*
X1489329Y-1349993D01*
X1451475Y-1365673D01*
X1417408Y-1388436D01*
X1388436Y-1417408D01*
X1365673Y-1451475D01*
X1349993Y-1489329D01*
X1342000Y-1529514D01*
Y-1529999D01*
X1530000D01*
Y-1342000D01*
D02*
G37*
G36*
X-2013746Y-1457334D02*
X-2028664D01*
X-2042447Y-1463043D01*
X-2052996Y-1473592D01*
X-2058705Y-1487375D01*
Y-1502293D01*
X-2052996Y-1516076D01*
X-2042447Y-1526625D01*
X-2028664Y-1532334D01*
X-2013746D01*
X-1999963Y-1526625D01*
X-1989414Y-1516076D01*
X-1983705Y-1502293D01*
Y-1487375D01*
X-1989414Y-1473592D01*
X-1999963Y-1463043D01*
X-2013746Y-1457334D01*
D02*
G37*
G36*
X-2422541Y-1462500D02*
X-2437459D01*
X-2451242Y-1468209D01*
X-2461791Y-1478758D01*
X-2467500Y-1492541D01*
Y-1507459D01*
X-2461791Y-1521242D01*
X-2451242Y-1531791D01*
X-2437459Y-1537500D01*
X-2422541D01*
X-2408758Y-1531791D01*
X-2398209Y-1521242D01*
X-2392500Y-1507459D01*
Y-1492541D01*
X-2398209Y-1478758D01*
X-2408758Y-1468209D01*
X-2422541Y-1462500D01*
D02*
G37*
G36*
X2439133Y-1505129D02*
X2437220Y-1509748D01*
X2432245Y-1528314D01*
X2432245Y-1547536D01*
X2437220Y-1566102D01*
X2446830Y-1582748D01*
X2459700Y-1595618D01*
X2488681Y-1525652D01*
X2439133Y-1505129D01*
D02*
G37*
G36*
X2797198Y-1528179D02*
X2778998Y-1528179D01*
X2760432Y-1533153D01*
X2743785Y-1542764D01*
X2730194Y-1556355D01*
X2720583Y-1573002D01*
X2718670Y-1577621D01*
X2768217Y-1598144D01*
X2797198Y-1528179D01*
D02*
G37*
G36*
X2525636Y-1540959D02*
X2496655Y-1610925D01*
X2514856D01*
X2533422Y-1605950D01*
X2550068Y-1596339D01*
X2563659Y-1582748D01*
X2573270Y-1566102D01*
X2575183Y-1561483D01*
X2525636Y-1540959D01*
D02*
G37*
G36*
X2656474Y-1521551D02*
X2637379D01*
X2619737Y-1528859D01*
X2606234Y-1542362D01*
X2598926Y-1560004D01*
Y-1579099D01*
X2606234Y-1596742D01*
X2619737Y-1610244D01*
X2637379Y-1617552D01*
X2656474D01*
X2674117Y-1610244D01*
X2687619Y-1596742D01*
X2694927Y-1579099D01*
Y-1560004D01*
X2687619Y-1542362D01*
X2674117Y-1528859D01*
X2656474Y-1521551D01*
D02*
G37*
G36*
X2834153Y-1543486D02*
X2805172Y-1613451D01*
X2854720Y-1633975D01*
X2856634Y-1629355D01*
X2861608Y-1610789D01*
X2861608Y-1591568D01*
X2856634Y-1573001D01*
X2847023Y-1556356D01*
X2834153Y-1543486D01*
D02*
G37*
G36*
X2703363Y-1614576D02*
X2701449Y-1619195D01*
X2696474Y-1637762D01*
X2696475Y-1656983D01*
X2701449Y-1675549D01*
X2711060Y-1692195D01*
X2723929Y-1705065D01*
X2752910Y-1635099D01*
X2703363Y-1614576D01*
D02*
G37*
G36*
X2789865Y-1650406D02*
X2760884Y-1720372D01*
X2779085Y-1720372D01*
X2797651Y-1715397D01*
X2814297Y-1705787D01*
X2827889Y-1692195D01*
X2837500Y-1675549D01*
X2839413Y-1670930D01*
X2789865Y-1650406D01*
D02*
G37*
G36*
X1758000Y-1569999D02*
X1570000D01*
Y-1758000D01*
X1570486D01*
X1610671Y-1750006D01*
X1648525Y-1734327D01*
X1682592Y-1711564D01*
X1711564Y-1682592D01*
X1734327Y-1648525D01*
X1750006Y-1610671D01*
X1758000Y-1570486D01*
Y-1569999D01*
D02*
G37*
G36*
X1530000D02*
X1342000D01*
Y-1570486D01*
X1349993Y-1610671D01*
X1365673Y-1648525D01*
X1388436Y-1682592D01*
X1417408Y-1711564D01*
X1451475Y-1734327D01*
X1489329Y-1750006D01*
X1529514Y-1758000D01*
X1530000D01*
Y-1569999D01*
D02*
G37*
G36*
X-1342000D02*
X-1529999D01*
Y-1758000D01*
X-1529514D01*
X-1489329Y-1750006D01*
X-1451475Y-1734327D01*
X-1417408Y-1711564D01*
X-1388436Y-1682592D01*
X-1365673Y-1648525D01*
X-1349993Y-1610671D01*
X-1342000Y-1570486D01*
Y-1569999D01*
D02*
G37*
G36*
X-1569999D02*
X-1758000D01*
Y-1570486D01*
X-1750006Y-1610671D01*
X-1734327Y-1648525D01*
X-1711564Y-1682592D01*
X-1682592Y-1711564D01*
X-1648525Y-1734327D01*
X-1610671Y-1750006D01*
X-1570486Y-1758000D01*
X-1569999D01*
Y-1569999D01*
D02*
G37*
G36*
X820000Y-1683197D02*
Y-1780000D01*
X916804D01*
X909959Y-1754454D01*
X894423Y-1727546D01*
X872454Y-1705576D01*
X845546Y-1690041D01*
X820000Y-1683197D01*
D02*
G37*
G36*
X-279999D02*
Y-1780000D01*
X-183196D01*
X-190041Y-1754454D01*
X-205576Y-1727546D01*
X-227546Y-1705576D01*
X-254454Y-1690041D01*
X-279999Y-1683197D01*
D02*
G37*
G36*
X780000Y-1683196D02*
X754454Y-1690041D01*
X727546Y-1705576D01*
X705576Y-1727546D01*
X690041Y-1754454D01*
X683196Y-1780000D01*
X780000D01*
Y-1683196D01*
D02*
G37*
G36*
X-319999D02*
X-345546Y-1690041D01*
X-372454Y-1705576D01*
X-394423Y-1727546D01*
X-409959Y-1754454D01*
X-416804Y-1780000D01*
X-319999D01*
Y-1683196D01*
D02*
G37*
G36*
X412500Y-1687500D02*
X187500D01*
Y-1912500D01*
X412500D01*
Y-1687500D01*
D02*
G37*
G36*
X-687500D02*
X-912500D01*
Y-1912500D01*
X-687500D01*
Y-1687500D01*
D02*
G37*
G36*
X-183196Y-1820000D02*
X-279999D01*
Y-1916803D01*
X-254454Y-1909959D01*
X-227546Y-1894423D01*
X-205576Y-1872454D01*
X-190041Y-1845546D01*
X-183196Y-1820000D01*
D02*
G37*
G36*
X916804D02*
X820000D01*
Y-1916803D01*
X845546Y-1909959D01*
X872454Y-1894423D01*
X894423Y-1872454D01*
X909959Y-1845546D01*
X916804Y-1820000D01*
D02*
G37*
G36*
X780000D02*
X683196D01*
X690041Y-1845546D01*
X705576Y-1872454D01*
X727546Y-1894423D01*
X754454Y-1909959D01*
X780000Y-1916804D01*
Y-1820000D01*
D02*
G37*
G36*
X-319999D02*
X-416804D01*
X-409959Y-1845546D01*
X-394423Y-1872454D01*
X-372454Y-1894423D01*
X-345546Y-1909959D01*
X-319999Y-1916804D01*
Y-1820000D01*
D02*
G37*
G36*
X1027459Y-1882500D02*
X1012541D01*
X998758Y-1888209D01*
X988209Y-1898758D01*
X982500Y-1912541D01*
Y-1927459D01*
X988209Y-1941242D01*
X998758Y-1951791D01*
X1012541Y-1957500D01*
X1027459D01*
X1041242Y-1951791D01*
X1051791Y-1941242D01*
X1057500Y-1927459D01*
Y-1912541D01*
X1051791Y-1898758D01*
X1041242Y-1888209D01*
X1027459Y-1882500D01*
D02*
G37*
G36*
X2017460Y-1972500D02*
X2002541D01*
X1988759Y-1978209D01*
X1978210Y-1988758D01*
X1972500Y-2002541D01*
Y-2017459D01*
X1978210Y-2031242D01*
X1988759Y-2041791D01*
X2002541Y-2047500D01*
X2017460D01*
X2031243Y-2041791D01*
X2041791Y-2031242D01*
X2047501Y-2017459D01*
Y-2002541D01*
X2041791Y-1988758D01*
X2031243Y-1978209D01*
X2017460Y-1972500D01*
D02*
G37*
G36*
X1797459D02*
X1782541D01*
X1768758Y-1978209D01*
X1758209Y-1988758D01*
X1752500Y-2002541D01*
Y-2017459D01*
X1758209Y-2031242D01*
X1768758Y-2041791D01*
X1782541Y-2047500D01*
X1797459D01*
X1811242Y-2041791D01*
X1821791Y-2031242D01*
X1827500Y-2017459D01*
Y-2002541D01*
X1821791Y-1988758D01*
X1811242Y-1978209D01*
X1797459Y-1972500D01*
D02*
G37*
G36*
X187459Y-2022500D02*
X172541D01*
X158758Y-2028209D01*
X148209Y-2038758D01*
X142500Y-2052541D01*
Y-2067459D01*
X148209Y-2081242D01*
X158758Y-2091791D01*
X172541Y-2097500D01*
X187459D01*
X201242Y-2091791D01*
X211791Y-2081242D01*
X217500Y-2067459D01*
Y-2052541D01*
X211791Y-2038758D01*
X201242Y-2028209D01*
X187459Y-2022500D01*
D02*
G37*
G36*
X-1562541D02*
X-1577459D01*
X-1591242Y-2028209D01*
X-1601791Y-2038758D01*
X-1607500Y-2052541D01*
Y-2067459D01*
X-1601791Y-2081242D01*
X-1591242Y-2091791D01*
X-1577459Y-2097500D01*
X-1562541D01*
X-1548758Y-2091791D01*
X-1538209Y-2081242D01*
X-1532500Y-2067459D01*
Y-2052541D01*
X-1538209Y-2038758D01*
X-1548758Y-2028209D01*
X-1562541Y-2022500D01*
D02*
G37*
G36*
Y-2112500D02*
X-1577459D01*
X-1591242Y-2118209D01*
X-1601791Y-2128758D01*
X-1607500Y-2142541D01*
Y-2157459D01*
X-1601791Y-2171242D01*
X-1591242Y-2181791D01*
X-1577459Y-2187500D01*
X-1562541D01*
X-1548758Y-2181791D01*
X-1538209Y-2171242D01*
X-1532500Y-2157459D01*
Y-2142541D01*
X-1538209Y-2128758D01*
X-1548758Y-2118209D01*
X-1562541Y-2112500D01*
D02*
G37*
G36*
X1870500Y-2187500D02*
X1675500D01*
Y-2412500D01*
X1870500D01*
Y-2187500D01*
D02*
G37*
G36*
X2027000Y-2186659D02*
X2001548Y-2190009D01*
X1977830Y-2199834D01*
X1957462Y-2215462D01*
X1941834Y-2235829D01*
X1932010Y-2259547D01*
X1928659Y-2285000D01*
Y-2315000D01*
X1932010Y-2340453D01*
X1941834Y-2364171D01*
X1957462Y-2384538D01*
X1977830Y-2400166D01*
X2001548Y-2409991D01*
X2027000Y-2413341D01*
X2052453Y-2409991D01*
X2076171Y-2400166D01*
X2096538Y-2384538D01*
X2112166Y-2364171D01*
X2121991Y-2340453D01*
X2125341Y-2315000D01*
Y-2285000D01*
X2121991Y-2259547D01*
X2112166Y-2235829D01*
X2096538Y-2215462D01*
X2076171Y-2199834D01*
X2052453Y-2190009D01*
X2027000Y-2186659D01*
D02*
G37*
G36*
X187459Y-2402500D02*
X172541D01*
X158758Y-2408209D01*
X148209Y-2418758D01*
X142500Y-2432541D01*
Y-2447459D01*
X148209Y-2461242D01*
X158758Y-2471791D01*
X172541Y-2477500D01*
X187459D01*
X201242Y-2471791D01*
X211791Y-2461242D01*
X217500Y-2447459D01*
Y-2432541D01*
X211791Y-2418758D01*
X201242Y-2408209D01*
X187459Y-2402500D01*
D02*
G37*
G36*
X-2212541Y-2442500D02*
X-2227459D01*
X-2241242Y-2448209D01*
X-2251791Y-2458758D01*
X-2257500Y-2472541D01*
Y-2487459D01*
X-2251791Y-2501242D01*
X-2241242Y-2511791D01*
X-2227459Y-2517500D01*
X-2212541D01*
X-2198758Y-2511791D01*
X-2188209Y-2501242D01*
X-2182500Y-2487459D01*
Y-2472541D01*
X-2188209Y-2458758D01*
X-2198758Y-2448209D01*
X-2212541Y-2442500D01*
D02*
G37*
G36*
X1327459Y-2562500D02*
X1312541D01*
X1298758Y-2568209D01*
X1288209Y-2578758D01*
X1282500Y-2592541D01*
Y-2607459D01*
X1288209Y-2621242D01*
X1298758Y-2631791D01*
X1312541Y-2637500D01*
X1327459D01*
X1341242Y-2631791D01*
X1351791Y-2621242D01*
X1357500Y-2607459D01*
Y-2592541D01*
X1351791Y-2578758D01*
X1341242Y-2568209D01*
X1327459Y-2562500D01*
D02*
G37*
G36*
X420486Y-2792000D02*
X420000D01*
Y-2980001D01*
X608000D01*
Y-2979514D01*
X600006Y-2939329D01*
X584327Y-2901475D01*
X561564Y-2867408D01*
X532592Y-2838436D01*
X498525Y-2815673D01*
X460671Y-2799994D01*
X420486Y-2792000D01*
D02*
G37*
G36*
X380000D02*
X379514D01*
X339329Y-2799994D01*
X301475Y-2815673D01*
X267408Y-2838436D01*
X238436Y-2867408D01*
X215673Y-2901475D01*
X199994Y-2939329D01*
X192000Y-2979514D01*
Y-2980001D01*
X380000D01*
Y-2792000D01*
D02*
G37*
G36*
X-380055Y-2797500D02*
X-419945D01*
X-459067Y-2805282D01*
X-495920Y-2820547D01*
X-529086Y-2842708D01*
X-557292Y-2870914D01*
X-579453Y-2904080D01*
X-594718Y-2940933D01*
X-602500Y-2980056D01*
Y-3019945D01*
X-594718Y-3059067D01*
X-579453Y-3095920D01*
X-557292Y-3129086D01*
X-529086Y-3157292D01*
X-495920Y-3179453D01*
X-459067Y-3194718D01*
X-419945Y-3202500D01*
X-380055D01*
X-340933Y-3194718D01*
X-304080Y-3179453D01*
X-270914Y-3157292D01*
X-242708Y-3129086D01*
X-220547Y-3095920D01*
X-205282Y-3059067D01*
X-197500Y-3019945D01*
Y-2980056D01*
X-205282Y-2940933D01*
X-220547Y-2904080D01*
X-242708Y-2870914D01*
X-270914Y-2842708D01*
X-304080Y-2820547D01*
X-340933Y-2805282D01*
X-380055Y-2797500D01*
D02*
G37*
G36*
X608000Y-3020001D02*
X420000D01*
Y-3208000D01*
X420486D01*
X460671Y-3200007D01*
X498525Y-3184327D01*
X532592Y-3161564D01*
X561564Y-3132592D01*
X584327Y-3098525D01*
X600006Y-3060671D01*
X608000Y-3020486D01*
Y-3020001D01*
D02*
G37*
G36*
X380000D02*
X192000D01*
Y-3020486D01*
X199994Y-3060671D01*
X215673Y-3098525D01*
X238436Y-3132592D01*
X267408Y-3161564D01*
X301475Y-3184327D01*
X339329Y-3200007D01*
X379514Y-3208000D01*
X380000D01*
Y-3020001D01*
D02*
G37*
%LPD*%
D46*
X-850000Y-900000D02*
D03*
X250000D02*
D03*
X1350000D02*
D03*
X-300000Y-1800000D02*
D03*
X800000D02*
D03*
D47*
X-1350000Y-900000D02*
D03*
X-250000D02*
D03*
X850000D02*
D03*
X-800000Y-1800000D02*
D03*
X300000D02*
D03*
D48*
X400000Y-3000000D02*
D03*
X-400000D02*
D03*
X-1200000Y-3900000D02*
D03*
X1200000D02*
D03*
X1550000Y1550000D02*
D03*
Y-1550000D02*
D03*
X-1550000D02*
D03*
Y1550000D02*
D03*
D49*
X1773000Y-2300000D02*
D03*
X1973000Y-4000000D02*
D03*
D50*
X2027000Y-2300000D02*
D03*
X2227000Y-4000000D02*
D03*
D51*
X-2327000D02*
D03*
D52*
X-2073000D02*
D03*
D53*
X2700000Y1000000D02*
D03*
Y800000D02*
D03*
Y200000D02*
D03*
Y400000D02*
D03*
Y600000D02*
D03*
D54*
Y0D02*
D03*
D56*
X1955500Y-4765000D02*
D03*
X2082500Y-4511000D02*
D03*
X2209500Y-4765000D02*
D03*
X2336500Y-4511000D02*
D03*
X2463500Y-4765000D02*
D03*
X2590500Y-4511000D02*
D03*
X2717500Y-4765000D02*
D03*
X2844500Y-4511000D02*
D03*
X-2844500Y-4765000D02*
D03*
X-2717500Y-4511000D02*
D03*
X-2590500Y-4765000D02*
D03*
X-2463500Y-4511000D02*
D03*
X-2336500Y-4765000D02*
D03*
X-2209500Y-4511000D02*
D03*
X-2082500Y-4765000D02*
D03*
X-1955500Y-4511000D02*
D03*
D57*
X1828500Y-5400000D02*
D03*
X2971500D02*
D03*
X-2971500D02*
D03*
X-1828500D02*
D03*
D58*
X1350000Y-5800000D02*
D03*
X250000D02*
D03*
D59*
X550000Y-4800000D02*
D03*
D60*
X1050000D02*
D03*
D61*
X-1475000Y-5100000D02*
D03*
X-125000D02*
D03*
D62*
X-1160000Y-4500000D02*
D03*
D63*
X-440000D02*
D03*
D64*
X-2900000Y-3900000D02*
D03*
X2900000D02*
D03*
D65*
X2646927Y-1569552D02*
D03*
X2953073Y-830448D02*
D03*
D66*
X2514812Y-1514828D02*
D03*
X2820959Y-775724D02*
D03*
X2779041Y-1624275D02*
D03*
X3085188Y-885172D02*
D03*
D67*
X-496000Y-3730000D02*
D03*
Y-4070000D02*
D03*
X496000Y-3730000D02*
D03*
Y-4070000D02*
D03*
D68*
X-900000Y2900000D02*
D03*
X0D02*
D03*
X900000D02*
D03*
D69*
X2771140Y-1158240D02*
D03*
X2801620Y-1270000D02*
D03*
X2515818Y-1134292D02*
D03*
X2002311Y-911860D02*
D03*
X1939811D02*
D03*
X2110000Y50000D02*
D03*
X1906870Y930000D02*
D03*
Y650000D02*
D03*
X1890000Y1500000D02*
D03*
X-1529080Y2036080D02*
D03*
Y1973580D02*
D03*
X-260000Y-350000D02*
D03*
X1900000Y-250000D02*
D03*
Y-430000D02*
D03*
Y-70000D02*
D03*
X-1930000Y0D02*
D03*
X1830000Y-790000D02*
D03*
X-2900000Y1335000D02*
D03*
X-2960000Y1287500D02*
D03*
X-2220000Y-2480000D02*
D03*
X1830000Y-710000D02*
D03*
Y-630000D02*
D03*
Y-550000D02*
D03*
X-1640000Y-850000D02*
D03*
Y-770000D02*
D03*
X-1918587Y-768587D02*
D03*
X-1640000Y-690000D02*
D03*
Y-610000D02*
D03*
X-1925000Y385000D02*
D03*
X-1900000Y560000D02*
D03*
X-1830000Y630000D02*
D03*
X-2375000Y215000D02*
D03*
X-1570000Y-2150000D02*
D03*
X40000Y-490000D02*
D03*
X1900000Y-1820000D02*
D03*
X-3038521Y275000D02*
D03*
X-2940000Y-300000D02*
D03*
X-3150000Y850000D02*
D03*
X-1570000Y-2060000D02*
D03*
X180000Y-2440000D02*
D03*
Y-2060000D02*
D03*
X-3000000Y990000D02*
D03*
X-3010000Y880000D02*
D03*
X-2500000Y1240000D02*
D03*
X-3060000Y1180000D02*
D03*
X-3010000Y1240000D02*
D03*
X-2505125Y517929D02*
D03*
X-1170000Y-440000D02*
D03*
X-1070000D02*
D03*
X-90000Y-450000D02*
D03*
X-260000D02*
D03*
X-1320000Y410000D02*
D03*
X-1330000Y270000D02*
D03*
X-1000000Y410000D02*
D03*
X-2910000Y790000D02*
D03*
X-2600000Y1885000D02*
D03*
X-2500000Y1550000D02*
D03*
X-2600000Y1715000D02*
D03*
X1820000Y1150000D02*
D03*
X1063508Y1882500D02*
D03*
X810000Y1865000D02*
D03*
X936508Y1882500D02*
D03*
X590000Y1850000D02*
D03*
X-490000D02*
D03*
X-863492Y1882500D02*
D03*
X-990000Y1865000D02*
D03*
X-736492Y1882500D02*
D03*
X-1430000Y1900000D02*
D03*
X1720000Y2070000D02*
D03*
X-863256Y2113203D02*
D03*
X-736256D02*
D03*
X-990000Y2130000D02*
D03*
X1390000Y2410000D02*
D03*
X1330810Y2173592D02*
D03*
X810000Y2130000D02*
D03*
X-1430000Y2090000D02*
D03*
X-2080000Y1330000D02*
D03*
X-3050000Y-460000D02*
D03*
X1890000Y250000D02*
D03*
X2140000Y550000D02*
D03*
X2770000Y1730000D02*
D03*
X2130000Y1800000D02*
D03*
X2180000Y-750000D02*
D03*
X-3150000Y390000D02*
D03*
X230000Y-390000D02*
D03*
X190000Y280000D02*
D03*
X2400000Y2200000D02*
D03*
X2085000Y1227500D02*
D03*
X2140000Y850000D02*
D03*
X1860000Y1950000D02*
D03*
X-2230000Y510000D02*
D03*
X-1925000Y215000D02*
D03*
X2260000Y-1310000D02*
D03*
Y-900000D02*
D03*
X2750000Y-1320000D02*
D03*
X2850000Y-1080000D02*
D03*
X-2745000Y385000D02*
D03*
X-2440000Y-300000D02*
D03*
X-2400000Y-40000D02*
D03*
X-2210000Y-200000D02*
D03*
X-2900000Y-40000D02*
D03*
X-2710000Y-200000D02*
D03*
X1020000Y-1920000D02*
D03*
X1320000D02*
D03*
X1020000Y-2600000D02*
D03*
X1320000D02*
D03*
X2010001Y-2010000D02*
D03*
X1790000D02*
D03*
X-2435000Y-725000D02*
D03*
X936744Y2113203D02*
D03*
X-1860000Y1280000D02*
D03*
X-1800000Y1210000D02*
D03*
X-1860000Y1140000D02*
D03*
X-1800000Y1070000D02*
D03*
X-1860000Y1000000D02*
D03*
X-1800000Y930000D02*
D03*
Y790000D02*
D03*
X-1860000Y860000D02*
D03*
X1460000Y370000D02*
D03*
X260000D02*
D03*
X-940000D02*
D03*
X1330000D02*
D03*
X130000D02*
D03*
X-1070000D02*
D03*
X1070000D02*
D03*
X-130000D02*
D03*
X950000D02*
D03*
X-250000D02*
D03*
X-1450000D02*
D03*
X465000Y2460000D02*
D03*
X465000Y2660000D02*
D03*
X-435000Y2460000D02*
D03*
X-435000Y2660000D02*
D03*
X-1335000Y2460000D02*
D03*
X-1335000Y2660000D02*
D03*
X-2920000Y-1450000D02*
D03*
X-2970000Y-900000D02*
D03*
Y-1000000D02*
D03*
Y-1100000D02*
D03*
Y-1200000D02*
D03*
Y-1300000D02*
D03*
X-2630000D02*
D03*
Y-1200000D02*
D03*
Y-1100000D02*
D03*
Y-1000000D02*
D03*
Y-900000D02*
D03*
X-2430000D02*
D03*
Y-1000000D02*
D03*
Y-1100000D02*
D03*
Y-1200000D02*
D03*
Y-1300000D02*
D03*
X-1900000Y-1200000D02*
D03*
X-2021205Y-1494834D02*
D03*
X-2430000Y-1400000D02*
D03*
X-2430000Y-1500000D02*
D03*
D71*
X-600000Y-3400000D02*
D03*
X-500000D02*
D03*
X-400000D02*
D03*
X-300000D02*
D03*
X-200000D02*
D03*
X-100000D02*
D03*
X0D02*
D03*
X100000D02*
D03*
X200000D02*
D03*
X300000D02*
D03*
X400000D02*
D03*
X500000D02*
D03*
X600000D02*
D03*
%TF.MD5,ecc8499f72f2842eb62fd2869cd86b06*%
M02*
