%TF.GenerationSoftware,Altium Limited,Altium Designer,23.4.1 (23)*%
G04 Layer_Physical_Order=1*
G04 Layer_Color=255*
%FSLAX45Y45*%
%MOMM*%
%TF.SameCoordinates,71FFD784-3963-444D-9D63-9DA0FBDCC313*%
%TF.FilePolarity,Positive*%
%TF.FileFunction,Copper,L1,Top,Signal*%
%TF.Part,Single*%
G01*
G75*
%TA.AperFunction,Conductor*%
%ADD10C,0.12700*%
%ADD11C,0.18162*%
%TA.AperFunction,SMDPad,CuDef*%
G04:AMPARAMS|DCode=12|XSize=0.5mm|YSize=0.6mm|CornerRadius=0.0375mm|HoleSize=0mm|Usage=FLASHONLY|Rotation=90.000|XOffset=0mm|YOffset=0mm|HoleType=Round|Shape=RoundedRectangle|*
%AMROUNDEDRECTD12*
21,1,0.50000,0.52500,0,0,90.0*
21,1,0.42500,0.60000,0,0,90.0*
1,1,0.07500,0.26250,0.21250*
1,1,0.07500,0.26250,-0.21250*
1,1,0.07500,-0.26250,-0.21250*
1,1,0.07500,-0.26250,0.21250*
%
%ADD12ROUNDEDRECTD12*%
%ADD13R,0.30000X0.75000*%
%ADD14R,1.60000X0.45000*%
G04:AMPARAMS|DCode=15|XSize=0.9mm|YSize=0.8mm|CornerRadius=0.06mm|HoleSize=0mm|Usage=FLASHONLY|Rotation=180.000|XOffset=0mm|YOffset=0mm|HoleType=Round|Shape=RoundedRectangle|*
%AMROUNDEDRECTD15*
21,1,0.90000,0.68000,0,0,180.0*
21,1,0.78000,0.80000,0,0,180.0*
1,1,0.12000,-0.39000,0.34000*
1,1,0.12000,0.39000,0.34000*
1,1,0.12000,0.39000,-0.34000*
1,1,0.12000,-0.39000,-0.34000*
%
%ADD15ROUNDEDRECTD15*%
G04:AMPARAMS|DCode=16|XSize=3.67mm|YSize=0.79mm|CornerRadius=0.09875mm|HoleSize=0mm|Usage=FLASHONLY|Rotation=90.000|XOffset=0mm|YOffset=0mm|HoleType=Round|Shape=RoundedRectangle|*
%AMROUNDEDRECTD16*
21,1,3.67000,0.59250,0,0,90.0*
21,1,3.47250,0.79000,0,0,90.0*
1,1,0.19750,0.29625,1.73625*
1,1,0.19750,0.29625,-1.73625*
1,1,0.19750,-0.29625,-1.73625*
1,1,0.19750,-0.29625,1.73625*
%
%ADD16ROUNDEDRECTD16*%
G04:AMPARAMS|DCode=17|XSize=10.37mm|YSize=8.04mm|CornerRadius=0.402mm|HoleSize=0mm|Usage=FLASHONLY|Rotation=0.000|XOffset=0mm|YOffset=0mm|HoleType=Round|Shape=RoundedRectangle|*
%AMROUNDEDRECTD17*
21,1,10.37000,7.23600,0,0,0.0*
21,1,9.56600,8.04000,0,0,0.0*
1,1,0.80400,4.78300,-3.61800*
1,1,0.80400,-4.78300,-3.61800*
1,1,0.80400,-4.78300,3.61800*
1,1,0.80400,4.78300,3.61800*
%
%ADD17ROUNDEDRECTD17*%
G04:AMPARAMS|DCode=18|XSize=0.9mm|YSize=0.8mm|CornerRadius=0.06mm|HoleSize=0mm|Usage=FLASHONLY|Rotation=270.000|XOffset=0mm|YOffset=0mm|HoleType=Round|Shape=RoundedRectangle|*
%AMROUNDEDRECTD18*
21,1,0.90000,0.68000,0,0,270.0*
21,1,0.78000,0.80000,0,0,270.0*
1,1,0.12000,-0.34000,-0.39000*
1,1,0.12000,-0.34000,0.39000*
1,1,0.12000,0.34000,0.39000*
1,1,0.12000,0.34000,-0.39000*
%
%ADD18ROUNDEDRECTD18*%
G04:AMPARAMS|DCode=19|XSize=0.6mm|YSize=1.1mm|CornerRadius=0.045mm|HoleSize=0mm|Usage=FLASHONLY|Rotation=90.000|XOffset=0mm|YOffset=0mm|HoleType=Round|Shape=RoundedRectangle|*
%AMROUNDEDRECTD19*
21,1,0.60000,1.01000,0,0,90.0*
21,1,0.51000,1.10000,0,0,90.0*
1,1,0.09000,0.50500,0.25500*
1,1,0.09000,0.50500,-0.25500*
1,1,0.09000,-0.50500,-0.25500*
1,1,0.09000,-0.50500,0.25500*
%
%ADD19ROUNDEDRECTD19*%
G04:AMPARAMS|DCode=20|XSize=0.9mm|YSize=1.4mm|CornerRadius=0.0675mm|HoleSize=0mm|Usage=FLASHONLY|Rotation=180.000|XOffset=0mm|YOffset=0mm|HoleType=Round|Shape=RoundedRectangle|*
%AMROUNDEDRECTD20*
21,1,0.90000,1.26500,0,0,180.0*
21,1,0.76500,1.40000,0,0,180.0*
1,1,0.13500,-0.38250,0.63250*
1,1,0.13500,0.38250,0.63250*
1,1,0.13500,0.38250,-0.63250*
1,1,0.13500,-0.38250,-0.63250*
%
%ADD20ROUNDEDRECTD20*%
G04:AMPARAMS|DCode=21|XSize=0.6mm|YSize=1.05mm|CornerRadius=0.045mm|HoleSize=0mm|Usage=FLASHONLY|Rotation=180.000|XOffset=0mm|YOffset=0mm|HoleType=Round|Shape=RoundedRectangle|*
%AMROUNDEDRECTD21*
21,1,0.60000,0.96000,0,0,180.0*
21,1,0.51000,1.05000,0,0,180.0*
1,1,0.09000,-0.25500,0.48000*
1,1,0.09000,0.25500,0.48000*
1,1,0.09000,0.25500,-0.48000*
1,1,0.09000,-0.25500,-0.48000*
%
%ADD21ROUNDEDRECTD21*%
G04:AMPARAMS|DCode=22|XSize=0.6mm|YSize=1.1mm|CornerRadius=0.045mm|HoleSize=0mm|Usage=FLASHONLY|Rotation=180.000|XOffset=0mm|YOffset=0mm|HoleType=Round|Shape=RoundedRectangle|*
%AMROUNDEDRECTD22*
21,1,0.60000,1.01000,0,0,180.0*
21,1,0.51000,1.10000,0,0,180.0*
1,1,0.09000,-0.25500,0.50500*
1,1,0.09000,0.25500,0.50500*
1,1,0.09000,0.25500,-0.50500*
1,1,0.09000,-0.25500,-0.50500*
%
%ADD22ROUNDEDRECTD22*%
G04:AMPARAMS|DCode=23|XSize=2.7mm|YSize=6.2mm|CornerRadius=0.0675mm|HoleSize=0mm|Usage=FLASHONLY|Rotation=90.000|XOffset=0mm|YOffset=0mm|HoleType=Round|Shape=RoundedRectangle|*
%AMROUNDEDRECTD23*
21,1,2.70000,6.06500,0,0,90.0*
21,1,2.56500,6.20000,0,0,90.0*
1,1,0.13500,3.03250,1.28250*
1,1,0.13500,3.03250,-1.28250*
1,1,0.13500,-3.03250,-1.28250*
1,1,0.13500,-3.03250,1.28250*
%
%ADD23ROUNDEDRECTD23*%
G04:AMPARAMS|DCode=24|XSize=0.81mm|YSize=0.22mm|CornerRadius=0.0275mm|HoleSize=0mm|Usage=FLASHONLY|Rotation=135.000|XOffset=0mm|YOffset=0mm|HoleType=Round|Shape=RoundedRectangle|*
%AMROUNDEDRECTD24*
21,1,0.81000,0.16500,0,0,135.0*
21,1,0.75500,0.22000,0,0,135.0*
1,1,0.05500,-0.20860,0.32527*
1,1,0.05500,0.32527,-0.20860*
1,1,0.05500,0.20860,-0.32527*
1,1,0.05500,-0.32527,0.20860*
%
%ADD24ROUNDEDRECTD24*%
G04:AMPARAMS|DCode=25|XSize=0.22mm|YSize=0.81mm|CornerRadius=0.0275mm|HoleSize=0mm|Usage=FLASHONLY|Rotation=135.000|XOffset=0mm|YOffset=0mm|HoleType=Round|Shape=RoundedRectangle|*
%AMROUNDEDRECTD25*
21,1,0.22000,0.75500,0,0,135.0*
21,1,0.16500,0.81000,0,0,135.0*
1,1,0.05500,0.20860,0.32527*
1,1,0.05500,0.32527,0.20860*
1,1,0.05500,-0.20860,-0.32527*
1,1,0.05500,-0.32527,-0.20860*
%
%ADD25ROUNDEDRECTD25*%
%ADD26P,5.65685X4X180.0*%
%ADD27R,0.80000X0.90000*%
G04:AMPARAMS|DCode=28|XSize=0.8mm|YSize=1.5mm|CornerRadius=0mm|HoleSize=0mm|Usage=FLASHONLY|Rotation=259.000|XOffset=0mm|YOffset=0mm|HoleType=Round|Shape=Round|*
%AMOVALD28*
21,1,0.70000,0.80000,0.00000,0.00000,349.0*
1,1,0.80000,-0.34357,0.06678*
1,1,0.80000,0.34357,-0.06678*
%
%ADD28OVALD28*%

G04:AMPARAMS|DCode=29|XSize=0.8mm|YSize=1.5mm|CornerRadius=0mm|HoleSize=0mm|Usage=FLASHONLY|Rotation=259.000|XOffset=0mm|YOffset=0mm|HoleType=Round|Shape=Rectangle|*
%AMROTATEDRECTD29*
4,1,4,-0.65990,0.53576,0.81255,0.24954,0.65990,-0.53576,-0.81255,-0.24954,-0.65990,0.53576,0.0*
%
%ADD29ROTATEDRECTD29*%

G04:AMPARAMS|DCode=30|XSize=0.8mm|YSize=1.5mm|CornerRadius=0mm|HoleSize=0mm|Usage=FLASHONLY|Rotation=307.000|XOffset=0mm|YOffset=0mm|HoleType=Round|Shape=Round|*
%AMOVALD30*
21,1,0.70000,0.80000,0.00000,0.00000,37.0*
1,1,0.80000,-0.27952,-0.21063*
1,1,0.80000,0.27952,0.21063*
%
%ADD30OVALD30*%

G04:AMPARAMS|DCode=31|XSize=0.8mm|YSize=1.5mm|CornerRadius=0mm|HoleSize=0mm|Usage=FLASHONLY|Rotation=307.000|XOffset=0mm|YOffset=0mm|HoleType=Round|Shape=Rectangle|*
%AMROTATEDRECTD31*
4,1,4,-0.83970,-0.13191,0.35825,0.77082,0.83970,0.13191,-0.35825,-0.77082,-0.83970,-0.13191,0.0*
%
%ADD31ROTATEDRECTD31*%

G04:AMPARAMS|DCode=32|XSize=0.3mm|YSize=1.15mm|CornerRadius=0mm|HoleSize=0mm|Usage=FLASHONLY|Rotation=67.500|XOffset=0mm|YOffset=0mm|HoleType=Round|Shape=Rectangle|*
%AMROTATEDRECTD32*
4,1,4,0.47383,-0.35863,-0.58863,0.08146,-0.47383,0.35863,0.58863,-0.08146,0.47383,-0.35863,0.0*
%
%ADD32ROTATEDRECTD32*%

G04:AMPARAMS|DCode=33|XSize=0.8mm|YSize=0.9mm|CornerRadius=0.06mm|HoleSize=0mm|Usage=FLASHONLY|Rotation=180.000|XOffset=0mm|YOffset=0mm|HoleType=Round|Shape=RoundedRectangle|*
%AMROUNDEDRECTD33*
21,1,0.80000,0.78000,0,0,180.0*
21,1,0.68000,0.90000,0,0,180.0*
1,1,0.12000,-0.34000,0.39000*
1,1,0.12000,0.34000,0.39000*
1,1,0.12000,0.34000,-0.39000*
1,1,0.12000,-0.34000,-0.39000*
%
%ADD33ROUNDEDRECTD33*%
%ADD34R,1.10000X3.40000*%
G04:AMPARAMS|DCode=35|XSize=0.31mm|YSize=0.25mm|CornerRadius=0.03125mm|HoleSize=0mm|Usage=FLASHONLY|Rotation=270.000|XOffset=0mm|YOffset=0mm|HoleType=Round|Shape=RoundedRectangle|*
%AMROUNDEDRECTD35*
21,1,0.31000,0.18750,0,0,270.0*
21,1,0.24750,0.25000,0,0,270.0*
1,1,0.06250,-0.09375,-0.12375*
1,1,0.06250,-0.09375,0.12375*
1,1,0.06250,0.09375,0.12375*
1,1,0.06250,0.09375,-0.12375*
%
%ADD35ROUNDEDRECTD35*%
%ADD36R,0.94000X0.30000*%
G04:AMPARAMS|DCode=37|XSize=0.5mm|YSize=0.6mm|CornerRadius=0.0375mm|HoleSize=0mm|Usage=FLASHONLY|Rotation=45.000|XOffset=0mm|YOffset=0mm|HoleType=Round|Shape=RoundedRectangle|*
%AMROUNDEDRECTD37*
21,1,0.50000,0.52500,0,0,45.0*
21,1,0.42500,0.60000,0,0,45.0*
1,1,0.07500,0.33587,-0.03535*
1,1,0.07500,0.03535,-0.33587*
1,1,0.07500,-0.33587,0.03535*
1,1,0.07500,-0.03535,0.33587*
%
%ADD37ROUNDEDRECTD37*%
%ADD38C,1.20000*%
%ADD39R,0.71120X0.99060*%
%TA.AperFunction,Conductor*%
%ADD40C,0.40000*%
%ADD41C,0.20000*%
%ADD42C,0.50000*%
%ADD43C,1.00000*%
%ADD44C,0.80000*%
%ADD45C,0.25000*%
%TA.AperFunction,ComponentPad*%
%ADD46C,2.00000*%
%ADD47R,2.00000X2.00000*%
%ADD48C,3.80000*%
%ADD49R,1.70000X2.00000*%
%ADD50O,1.70000X2.00000*%
%ADD51C,1.50000*%
%ADD52R,1.50000X1.50000*%
%ADD53C,1.60000*%
%ADD54R,1.60000X1.60000*%
%ADD55R,1.26800X1.26800*%
%ADD56C,1.26800*%
%ADD57C,3.20000*%
%ADD58C,1.50800*%
%ADD59C,2.60000*%
%ADD60R,2.60000X2.60000*%
%ADD61O,1.20000X2.40000*%
%ADD62R,3.70000X3.70000*%
%ADD63C,3.70000*%
%ADD64C,6.00000*%
%ADD65C,0.71000*%
G04:AMPARAMS|DCode=66|XSize=1.6mm|YSize=1.1mm|CornerRadius=0mm|HoleSize=0mm|Usage=FLASHONLY|Rotation=67.500|XOffset=0mm|YOffset=0mm|HoleType=Round|Shape=Round|*
%AMOVALD66*
21,1,0.50000,1.10000,0.00000,0.00000,67.5*
1,1,1.10000,-0.09567,-0.23097*
1,1,1.10000,0.09567,0.23097*
%
%ADD66OVALD66*%

%ADD67C,2.40000*%
%ADD68O,5.00000X6.00000*%
%TA.AperFunction,ViaPad*%
%ADD69C,0.50000*%
%ADD70C,0.80000*%
%ADD71C,0.60000*%
G36*
X-1280588Y3104775D02*
X-1280588Y2678892D01*
X-1300588Y2674914D01*
X-1303209Y2681242D01*
X-1313758Y2691791D01*
X-1327541Y2697500D01*
X-1342459D01*
X-1356242Y2691791D01*
X-1366791Y2681242D01*
X-1372500Y2667459D01*
Y2652541D01*
X-1366791Y2638758D01*
X-1356242Y2628209D01*
X-1342459Y2622500D01*
X-1327541D01*
X-1313758Y2628209D01*
X-1303209Y2638758D01*
X-1300588Y2645086D01*
X-1280588Y2641108D01*
Y2290000D01*
X-1278260Y2278294D01*
X-1271629Y2268371D01*
X-1271628Y2268370D01*
X-1251630Y2248372D01*
X-1251629Y2248371D01*
X-1241706Y2241741D01*
X-1233599Y2240128D01*
X-1233530Y2240000D01*
Y1928913D01*
X-1309502Y1852941D01*
X-1397335D01*
X-1404026Y1872941D01*
X-1398209Y1878758D01*
X-1392500Y1892541D01*
Y1907459D01*
X-1398209Y1921242D01*
X-1408758Y1931791D01*
X-1422541Y1937500D01*
X-1437459D01*
X-1451242Y1931791D01*
X-1460092Y1922941D01*
X-1501080D01*
X-1506227Y1937297D01*
X-1506686Y1942941D01*
X-1497289Y1952338D01*
X-1491580Y1966121D01*
Y1981039D01*
X-1497289Y1994822D01*
X-1507297Y2004830D01*
X-1497289Y2014838D01*
X-1491580Y2028621D01*
Y2043539D01*
X-1493038Y2047059D01*
X-1480894Y2067059D01*
X-1460092D01*
X-1451242Y2058209D01*
X-1437459Y2052500D01*
X-1422541D01*
X-1408758Y2058209D01*
X-1398209Y2068758D01*
X-1392500Y2082541D01*
Y2097459D01*
X-1398209Y2111242D01*
X-1408758Y2121791D01*
X-1422541Y2127500D01*
X-1437459D01*
X-1451242Y2121791D01*
X-1460092Y2112941D01*
X-1800000D01*
X-1808779Y2111194D01*
X-1816222Y2106221D01*
X-2366222Y1556221D01*
X-2371195Y1548779D01*
X-2372941Y1540000D01*
Y1483428D01*
X-2391279Y1466618D01*
X-2403964Y1467891D01*
X-2407718Y1471645D01*
X-2419390Y1476480D01*
X-2431062Y1471645D01*
X-2484448Y1418258D01*
X-2489283Y1406586D01*
X-2484448Y1394914D01*
X-2472781Y1383247D01*
X-2461110Y1378412D01*
X-2460999Y1378302D01*
X-2456164Y1366630D01*
X-2444497Y1354963D01*
X-2432825Y1350128D01*
X-2432715Y1350017D01*
X-2427880Y1338346D01*
X-2416213Y1326679D01*
X-2404431Y1321733D01*
X-2399596Y1310061D01*
X-2387929Y1298394D01*
X-2376257Y1293560D01*
X-2376146Y1293449D01*
X-2371311Y1281777D01*
X-2359644Y1270110D01*
X-2347862Y1265165D01*
X-2343027Y1253493D01*
X-2331360Y1241826D01*
X-2319688Y1236991D01*
X-2319578Y1236880D01*
X-2314743Y1225209D01*
X-2303076Y1213542D01*
X-2291404Y1208707D01*
X-2291293Y1208596D01*
X-2286458Y1196924D01*
X-2274791Y1185257D01*
X-2263009Y1180312D01*
X-2258174Y1168640D01*
X-2246507Y1156973D01*
X-2234836Y1152138D01*
X-2229890Y1140356D01*
X-2218223Y1128689D01*
X-2206441Y1123743D01*
X-2201606Y1112071D01*
X-2189939Y1100404D01*
X-2178267Y1095570D01*
X-2178156Y1095459D01*
X-2173322Y1083787D01*
X-2161655Y1072120D01*
X-2149983Y1067285D01*
X-2149872Y1067175D01*
X-2145037Y1055503D01*
X-2133370Y1043836D01*
X-2121698Y1039001D01*
X-2121588Y1038890D01*
X-2116753Y1027219D01*
X-2105086Y1015552D01*
X-2093414Y1010717D01*
X-2081742Y1015552D01*
X-2071270Y1026023D01*
X-2029025Y983778D01*
X-2021583Y978806D01*
X-2012804Y977059D01*
X-1905686D01*
X-1902721Y972941D01*
X-1912966Y952941D01*
X-2039670D01*
X-2048449Y951194D01*
X-2048472Y951179D01*
X-2081742Y984448D01*
X-2093414Y989283D01*
X-2105086Y984448D01*
X-2116753Y972781D01*
X-2121588Y961110D01*
X-2121698Y960999D01*
X-2133370Y956164D01*
X-2145037Y944497D01*
X-2149872Y932825D01*
X-2149983Y932715D01*
X-2161655Y927880D01*
X-2173322Y916213D01*
X-2178156Y904541D01*
X-2178267Y904430D01*
X-2189939Y899596D01*
X-2201606Y887929D01*
X-2206441Y876257D01*
X-2218223Y871311D01*
X-2229890Y859644D01*
X-2234836Y847862D01*
X-2246507Y843027D01*
X-2258174Y831360D01*
X-2263009Y819688D01*
X-2274792Y814743D01*
X-2286458Y803076D01*
X-2291404Y791293D01*
X-2303076Y786458D01*
X-2314743Y774791D01*
X-2319688Y763009D01*
X-2331360Y758174D01*
X-2343027Y746507D01*
X-2347862Y734835D01*
X-2359645Y729890D01*
X-2371311Y718223D01*
X-2376257Y706441D01*
X-2387929Y701606D01*
X-2399596Y689939D01*
X-2404541Y678156D01*
X-2416213Y673321D01*
X-2427880Y661655D01*
X-2432825Y649872D01*
X-2444497Y645037D01*
X-2456164Y633370D01*
X-2461110Y621588D01*
X-2472781Y616753D01*
X-2484448Y605086D01*
X-2489283Y593414D01*
X-2484448Y581742D01*
X-2431062Y528355D01*
X-2419390Y523520D01*
X-2407718Y528355D01*
X-2396051Y540022D01*
X-2395789Y540647D01*
X-2372738Y545876D01*
X-2372738D01*
X-2333137Y506274D01*
Y442862D01*
X-2334000D01*
X-2341218Y441427D01*
X-2347338Y437338D01*
X-2351427Y431218D01*
X-2352862Y424000D01*
Y346000D01*
X-2351427Y338782D01*
X-2347338Y332662D01*
X-2341218Y328573D01*
X-2336812Y327697D01*
X-2332272Y325618D01*
X-2320000Y314831D01*
X-2320000Y307137D01*
X-2320000Y290776D01*
X-2334000Y278470D01*
X-2343364Y276608D01*
X-2351303Y271303D01*
X-2356607Y263364D01*
X-2358470Y254000D01*
Y235000D01*
X-2300000D01*
Y215000D01*
X-2280000D01*
Y151530D01*
X-2266000D01*
X-2248128Y138384D01*
X-2247038Y136462D01*
Y134097D01*
X-2245292Y125318D01*
X-2240319Y117876D01*
X-2229473Y107030D01*
X-2237758Y87030D01*
X-2240560D01*
Y-37030D01*
X-2232941D01*
Y-169908D01*
X-2241791Y-178758D01*
X-2247500Y-192541D01*
Y-207459D01*
X-2241791Y-221242D01*
X-2231242Y-231791D01*
X-2217459Y-237500D01*
X-2202541D01*
X-2188758Y-231791D01*
X-2178209Y-221242D01*
X-2172500Y-207459D01*
Y-192541D01*
X-2178209Y-178758D01*
X-2187059Y-169908D01*
Y-37030D01*
X-2144440D01*
Y87030D01*
X-2169559D01*
Y102500D01*
X-2171306Y111279D01*
X-2176278Y118721D01*
X-2189461Y131904D01*
X-2185683Y155809D01*
X-2184000Y157137D01*
X-2116000D01*
X-2108782Y158573D01*
X-2102662Y162662D01*
X-2098573Y168781D01*
X-2097138Y176000D01*
Y181863D01*
X-2052863D01*
Y176000D01*
X-2051427Y168781D01*
X-2047338Y162662D01*
X-2041218Y158573D01*
X-2034000Y157137D01*
X-1966000D01*
X-1958782Y158573D01*
X-1952662Y162662D01*
X-1948574Y168781D01*
X-1932459Y177500D01*
X-1917541D01*
X-1901426Y168781D01*
X-1897338Y162662D01*
X-1891218Y158573D01*
X-1884000Y157137D01*
X-1816000D01*
X-1808782Y158573D01*
X-1802662Y162662D01*
X-1798573Y168781D01*
X-1797138Y176000D01*
Y254000D01*
X-1798573Y261218D01*
X-1802662Y267338D01*
X-1808782Y271426D01*
X-1813188Y272303D01*
X-1817728Y274381D01*
X-1830000Y285169D01*
X-1830000Y292863D01*
X-1830000Y309223D01*
X-1816000Y321529D01*
X-1806636Y323392D01*
X-1798697Y328697D01*
X-1793393Y336636D01*
X-1791530Y346000D01*
Y365000D01*
X-1850000D01*
X-1908470D01*
Y346000D01*
X-1906608Y336636D01*
X-1901303Y328697D01*
X-1893364Y323392D01*
X-1884000Y321529D01*
X-1870000Y309223D01*
X-1870000Y301529D01*
X-1870000Y285169D01*
X-1882272Y274381D01*
X-1886812Y272303D01*
X-1891218Y271426D01*
X-1897338Y267338D01*
X-1901426Y261218D01*
X-1917541Y252500D01*
X-1932459D01*
X-1948574Y261218D01*
X-1952662Y267338D01*
X-1958782Y271426D01*
X-1963188Y272303D01*
X-1967728Y274381D01*
X-1980000Y285169D01*
X-1980000Y292863D01*
X-1980000Y309223D01*
X-1966000Y321529D01*
X-1956636Y323392D01*
X-1948697Y328697D01*
X-1943393Y336636D01*
X-1941530Y346000D01*
Y365000D01*
X-2000000D01*
Y384999D01*
X-2020000D01*
Y448470D01*
X-2034000D01*
X-2043364Y446607D01*
X-2060610Y451089D01*
X-2261348Y651826D01*
X-2258655Y677418D01*
X-2254629Y681444D01*
X-2249684Y693226D01*
X-2238012Y698061D01*
X-2226345Y709728D01*
X-2221400Y721510D01*
X-2209728Y726345D01*
X-2205974Y730099D01*
X-2180270Y732679D01*
X-1991369Y543778D01*
X-1983926Y538805D01*
X-1975147Y537059D01*
X-1930092D01*
X-1921242Y528209D01*
X-1907459Y522500D01*
X-1892541D01*
X-1878758Y528209D01*
X-1868209Y538758D01*
X-1862500Y552541D01*
Y567459D01*
X-1864722Y572824D01*
X-1857924Y593865D01*
X-1855510Y596827D01*
X-1852417Y597829D01*
X-1849454Y597468D01*
X-1837459Y592500D01*
X-1822541D01*
X-1808758Y598209D01*
X-1802941Y604026D01*
X-1782941Y597334D01*
Y457990D01*
X-1781195Y449211D01*
X-1798361Y440799D01*
X-1798697Y441303D01*
X-1806636Y446607D01*
X-1816000Y448470D01*
X-1830000D01*
Y405000D01*
X-1791530D01*
Y424000D01*
X-1793393Y433364D01*
X-1776226Y441776D01*
X-1776221Y441768D01*
X-1748232Y413778D01*
X-1740789Y408805D01*
X-1732010Y407059D01*
X-1494258D01*
X-1489533Y401064D01*
X-1483524Y387059D01*
X-1487500Y377459D01*
Y362541D01*
X-1481791Y348758D01*
X-1474941Y341908D01*
Y89438D01*
X-1483625D01*
X-1492355Y87702D01*
X-1499756Y82757D01*
X-1504702Y75355D01*
X-1506438Y66625D01*
Y-280625D01*
X-1504702Y-289355D01*
X-1499756Y-296757D01*
X-1492355Y-301702D01*
X-1483625Y-303439D01*
X-1424375D01*
X-1415645Y-301702D01*
X-1408243Y-296757D01*
X-1403298Y-289355D01*
X-1401561Y-280625D01*
Y66625D01*
X-1403298Y75355D01*
X-1408243Y82757D01*
X-1415645Y87702D01*
X-1424375Y89438D01*
X-1429059D01*
Y338084D01*
X-1428758Y338209D01*
X-1418209Y348758D01*
X-1412500Y362541D01*
Y377459D01*
X-1416476Y387059D01*
X-1410467Y401064D01*
X-1405742Y407059D01*
X-1357500D01*
Y402541D01*
X-1351791Y388758D01*
X-1341242Y378209D01*
X-1327459Y372500D01*
X-1312541D01*
X-1298758Y378209D01*
X-1290604Y386363D01*
X-1279318Y384452D01*
X-1270604Y380232D01*
Y101779D01*
X-1286582Y89991D01*
X-1290546Y90910D01*
X-1305559Y100439D01*
Y241408D01*
X-1298209Y248758D01*
X-1292500Y262541D01*
Y277459D01*
X-1298209Y291242D01*
X-1308758Y301791D01*
X-1322541Y307500D01*
X-1337459D01*
X-1351242Y301791D01*
X-1361791Y291242D01*
X-1367500Y277459D01*
Y262541D01*
X-1361791Y248758D01*
X-1351441Y238408D01*
Y89438D01*
X-1356625D01*
X-1365355Y87702D01*
X-1372756Y82757D01*
X-1377702Y75355D01*
X-1379438Y66625D01*
Y-280625D01*
X-1377702Y-289355D01*
X-1372756Y-296757D01*
X-1365355Y-301702D01*
X-1356625Y-303439D01*
X-1297375D01*
X-1288645Y-301702D01*
X-1286624Y-300352D01*
X-1277093Y-298308D01*
X-1261996Y-303951D01*
X-1258373Y-309373D01*
X-1245183Y-318187D01*
X-1229625Y-321281D01*
X-1170375D01*
X-1154816Y-318187D01*
X-1141627Y-309373D01*
X-1138003Y-303951D01*
X-1122907Y-298308D01*
X-1113376Y-300352D01*
X-1111355Y-301702D01*
X-1102625Y-303439D01*
X-1043375D01*
X-1034645Y-301702D01*
X-1027243Y-296757D01*
X-1022298Y-289355D01*
X-1020561Y-280625D01*
Y66625D01*
X-1022298Y75355D01*
X-1027243Y82757D01*
X-1034645Y87702D01*
X-1043375Y89438D01*
X-1050059D01*
Y337670D01*
X-1048758Y338209D01*
X-1038209Y348758D01*
X-1032500Y362541D01*
Y377459D01*
X-1038209Y391242D01*
X-1048758Y401791D01*
X-1062541Y407500D01*
X-1077459D01*
X-1091242Y401791D01*
X-1101791Y391242D01*
X-1107500Y377459D01*
Y362541D01*
X-1101791Y348758D01*
X-1095941Y342908D01*
Y101405D01*
X-1106467Y93533D01*
X-1112710Y91700D01*
X-1129396Y103640D01*
Y439412D01*
X-600001Y439412D01*
X-600000Y439412D01*
X-588295Y441741D01*
X-578371Y448371D01*
X-562754Y463988D01*
X-550001Y466634D01*
X-537246Y463988D01*
X-521629Y448371D01*
X-511705Y441741D01*
X-500000Y439412D01*
X-499999Y439412D01*
X-70604D01*
Y103640D01*
X-87290Y91700D01*
X-93533Y93533D01*
X-104059Y101405D01*
Y342908D01*
X-98209Y348758D01*
X-92500Y362541D01*
Y377459D01*
X-98209Y391242D01*
X-108758Y401791D01*
X-122541Y407500D01*
X-137459D01*
X-151242Y401791D01*
X-161791Y391242D01*
X-167500Y377459D01*
Y362541D01*
X-161791Y348758D01*
X-151242Y338209D01*
X-149941Y337670D01*
Y89438D01*
X-156625D01*
X-165355Y87702D01*
X-172757Y82757D01*
X-177702Y75355D01*
X-179439Y66625D01*
Y-280625D01*
X-177702Y-289355D01*
X-172757Y-296757D01*
X-165355Y-301702D01*
X-156625Y-303439D01*
X-97375D01*
X-88645Y-301702D01*
X-86624Y-300352D01*
X-77093Y-298308D01*
X-61997Y-303951D01*
X-58373Y-309373D01*
X-45184Y-318187D01*
X-29625Y-321281D01*
X29625D01*
X45184Y-318187D01*
X58373Y-309373D01*
X61997Y-303951D01*
X77093Y-298308D01*
X86624Y-300352D01*
X88645Y-301702D01*
X97375Y-303439D01*
X156625D01*
X165355Y-301702D01*
X172757Y-296757D01*
X177702Y-289355D01*
X179439Y-280625D01*
Y66625D01*
X177702Y75355D01*
X172757Y82757D01*
X165355Y87702D01*
X156625Y89438D01*
X149941D01*
Y238742D01*
X168758Y248209D01*
X182541Y242500D01*
X197459D01*
X211242Y248209D01*
X231059Y239742D01*
Y89438D01*
X224375D01*
X215645Y87702D01*
X208243Y82757D01*
X203298Y75355D01*
X201561Y66625D01*
Y-280625D01*
X203298Y-289355D01*
X208243Y-296757D01*
X215645Y-301702D01*
X224375Y-303439D01*
X276470D01*
X291743Y-314649D01*
X296470Y-321176D01*
Y-476002D01*
X256002Y-516470D01*
X91273D01*
X77500Y-497459D01*
Y-482541D01*
X71791Y-468758D01*
X61242Y-458209D01*
X47459Y-452500D01*
X32541D01*
X18758Y-458209D01*
X8209Y-468758D01*
X2500Y-482541D01*
Y-497459D01*
X-11274Y-516470D01*
X-564396D01*
X-606470Y-474396D01*
Y-440001D01*
X-606470Y-440000D01*
Y340000D01*
X-610433Y349567D01*
X-630433Y369567D01*
X-640000Y373530D01*
X-870000D01*
X-879567Y369567D01*
X-882500Y366635D01*
X-902500Y374919D01*
Y377459D01*
X-908209Y391242D01*
X-918758Y401791D01*
X-932541Y407500D01*
X-947459D01*
X-961242Y401791D01*
X-971791Y391242D01*
X-977500Y377459D01*
Y362541D01*
X-971791Y348758D01*
X-968941Y345908D01*
Y89438D01*
X-975625D01*
X-984355Y87702D01*
X-991756Y82757D01*
X-996702Y75355D01*
X-998438Y66625D01*
Y-280625D01*
X-996702Y-289355D01*
X-991756Y-296757D01*
X-984355Y-301702D01*
X-975625Y-303439D01*
X-916375D01*
X-903530Y-321176D01*
Y-464396D01*
X-945604Y-506470D01*
X-1430000D01*
X-1439567Y-510433D01*
X-1489567Y-560433D01*
X-1493530Y-570000D01*
Y-1333395D01*
X-1508990Y-1346082D01*
X-1529514Y-1342000D01*
X-1529999D01*
Y-1549999D01*
Y-1758000D01*
X-1529514D01*
X-1508990Y-1753917D01*
X-1493530Y-1766605D01*
Y-2316276D01*
X-2141693D01*
X-2256909Y-2201059D01*
X-2256471Y-2200001D01*
X-2256470Y-1570000D01*
X-2260433Y-1560433D01*
X-2266903Y-1553963D01*
Y-1526037D01*
X-2260433Y-1519567D01*
X-2256470Y-1510000D01*
Y-879999D01*
X-2260433Y-870432D01*
X-2273003Y-857862D01*
X-2272218Y-850022D01*
X-2266136Y-836895D01*
X-2263782Y-836427D01*
X-2257662Y-832338D01*
X-2253574Y-826218D01*
X-2253331Y-825000D01*
X-2206669D01*
X-2206427Y-826218D01*
X-2202338Y-832338D01*
X-2199500Y-834234D01*
X-2199120Y-834854D01*
X-2196081Y-849102D01*
X-2195997Y-856863D01*
X-2209567Y-870433D01*
X-2213530Y-880000D01*
Y-1610000D01*
X-2209567Y-1619567D01*
X-2189567Y-1639567D01*
X-2183791Y-1641960D01*
X-2179572Y-1644122D01*
X-2168441Y-1659500D01*
D01*
D01*
D01*
Y-1664999D01*
X-2095000D01*
X-2021560D01*
Y-1659500D01*
D01*
D01*
X-2005888Y-1643530D01*
X-1840000D01*
X-1830433Y-1639567D01*
X-1810433Y-1619567D01*
X-1806470Y-1610000D01*
X-1806470Y-880000D01*
X-1810433Y-870433D01*
X-1822949Y-857916D01*
X-1816636Y-836607D01*
X-1808697Y-831303D01*
X-1803393Y-823364D01*
X-1801530Y-814000D01*
Y-799999D01*
X-1865001D01*
Y-779999D01*
X-1885001D01*
Y-721530D01*
X-1904000D01*
X-1913364Y-723393D01*
X-1921303Y-728697D01*
X-1926608Y-736636D01*
X-1930006Y-746472D01*
X-1970006D01*
X-1978573Y-738781D01*
X-1982662Y-732662D01*
X-1988782Y-728573D01*
X-1996000Y-727137D01*
X-2074000D01*
X-2081218Y-728573D01*
X-2083866Y-730342D01*
X-2091414Y-731659D01*
X-2107663Y-727662D01*
X-2113782Y-723573D01*
X-2121000Y-722137D01*
X-2189000D01*
X-2196218Y-723573D01*
X-2202338Y-727662D01*
X-2206427Y-733782D01*
X-2206669Y-735000D01*
X-2253331D01*
X-2253574Y-733782D01*
X-2257662Y-727662D01*
X-2263782Y-723573D01*
X-2271000Y-722137D01*
X-2339000D01*
X-2346219Y-723573D01*
X-2352338Y-727662D01*
X-2354752Y-731275D01*
X-2359273Y-732575D01*
X-2365070Y-733026D01*
X-2376470Y-732030D01*
X-2378697Y-728697D01*
X-2386636Y-723393D01*
X-2396000Y-721530D01*
X-2414999D01*
Y-779999D01*
X-2454999D01*
Y-721530D01*
X-2474000D01*
X-2483364Y-723393D01*
X-2491303Y-728697D01*
X-2496608Y-736636D01*
X-2500001Y-746468D01*
X-2540001D01*
X-2548574Y-738781D01*
X-2552662Y-732662D01*
X-2558782Y-728573D01*
X-2566000Y-727137D01*
X-2644000D01*
X-2651218Y-728573D01*
X-2653865Y-730342D01*
X-2661414Y-731659D01*
X-2677662Y-727662D01*
X-2683782Y-723573D01*
X-2691000Y-722137D01*
X-2759000D01*
X-2766218Y-723573D01*
X-2772338Y-727662D01*
X-2776427Y-733782D01*
X-2776669Y-735000D01*
X-2823331D01*
X-2823573Y-733782D01*
X-2827662Y-727662D01*
X-2833782Y-723573D01*
X-2841000Y-722137D01*
X-2909000D01*
X-2916218Y-723573D01*
X-2922338Y-727662D01*
X-2926427Y-733782D01*
X-2927863Y-741000D01*
Y-819000D01*
X-2926427Y-826218D01*
X-2922338Y-832338D01*
X-2916218Y-836427D01*
X-2909000Y-837862D01*
X-2849581D01*
X-2833898Y-853545D01*
X-2843750Y-871977D01*
X-2846000Y-871530D01*
X-2865000D01*
Y-910000D01*
X-2821530D01*
Y-896000D01*
X-2821977Y-893750D01*
X-2803545Y-883898D01*
X-2783530Y-903913D01*
Y-1334396D01*
X-2804107Y-1354973D01*
X-2806693Y-1354126D01*
X-2823392Y-1343364D01*
X-2821530Y-1334000D01*
Y-1320000D01*
X-2948470D01*
Y-1334000D01*
X-2946607Y-1343364D01*
X-2941303Y-1351303D01*
X-2933364Y-1356607D01*
X-2924000Y-1358470D01*
X-2877523D01*
X-2876613Y-1359451D01*
X-2868664Y-1378470D01*
X-2869274Y-1379383D01*
X-2869397Y-1380000D01*
X-2840000D01*
Y-1420000D01*
X-2869397D01*
X-2869274Y-1420617D01*
X-2865000Y-1427014D01*
Y-1461087D01*
X-2866179Y-1461234D01*
X-2874276Y-1465830D01*
X-2875429Y-1467311D01*
X-2877163Y-1468029D01*
X-2879567Y-1470433D01*
X-2883530Y-1480000D01*
Y-1530000D01*
X-2898424Y-1540572D01*
X-2900402Y-1541530D01*
X-2924000D01*
X-2933364Y-1543393D01*
X-2941303Y-1548697D01*
X-2946607Y-1556636D01*
X-2948470Y-1566000D01*
Y-1602578D01*
X-2968470Y-1607374D01*
X-3089125Y-1370236D01*
X-3217326Y-1034004D01*
X-3309438Y-684074D01*
X-3361346Y-340072D01*
X-3260000Y-315180D01*
X-3254743Y-312724D01*
X-3249456Y-310322D01*
X-3154314Y-242010D01*
X-3150439Y-237865D01*
X-3146483Y-233796D01*
X-3082797Y-135498D01*
X-3080652Y-130105D01*
X-3078448Y-124734D01*
X-3055206Y-5831D01*
X-3055226Y37D01*
X-3055206Y5905D01*
X-3078448Y124808D01*
X-3080648Y130169D01*
X-3082797Y135572D01*
X-3146483Y233870D01*
X-3150437Y237937D01*
X-3154314Y242084D01*
X-3249456Y310396D01*
X-3254743Y312798D01*
X-3260000Y315255D01*
X-3254407Y334073D01*
X-3173455Y316902D01*
X-3172807Y316764D01*
X-3172806Y316765D01*
X-3172697Y316785D01*
X-3172604Y316723D01*
X-3167629Y317726D01*
X-3162626Y318655D01*
X-3162562Y318749D01*
X-3162452Y318771D01*
X-3159663Y322970D01*
X-3156764Y327192D01*
X-3156785Y327304D01*
X-3156724Y327395D01*
X-3156722Y327396D01*
X-3156596Y328042D01*
X-3151800Y352500D01*
X-3142541D01*
X-3128758Y358209D01*
X-3118209Y368758D01*
X-3112500Y382541D01*
Y397459D01*
X-3118209Y411242D01*
X-3128758Y421791D01*
X-3137504Y425413D01*
X-3116860Y530697D01*
X-3070498Y577059D01*
X-2871716D01*
X-2862937Y578806D01*
X-2855494Y583779D01*
X-2755762Y683510D01*
X-2745370Y681443D01*
X-2733704Y669777D01*
X-2722032Y664942D01*
X-2721921Y664831D01*
X-2717087Y653159D01*
X-2705420Y641492D01*
X-2703353Y631101D01*
X-2791512Y542941D01*
X-2823873D01*
X-2832652Y541194D01*
X-2840095Y536222D01*
X-2899445Y476872D01*
X-2904418Y469429D01*
X-2906164Y460650D01*
Y457500D01*
X-2962500D01*
Y418137D01*
X-3005000D01*
X-3006601Y417818D01*
X-3036250D01*
X-3042590Y416557D01*
X-3047966Y412966D01*
X-3051557Y407590D01*
X-3052818Y401250D01*
Y358750D01*
X-3051557Y352410D01*
X-3047966Y347034D01*
X-3042590Y343443D01*
X-3040364Y343000D01*
X-3040363Y322608D01*
X-3044736Y321738D01*
X-3051931Y316931D01*
X-3056738Y309736D01*
X-3058426Y301250D01*
Y258750D01*
X-3056738Y250264D01*
X-3051931Y243069D01*
X-3044736Y238262D01*
X-3036250Y236574D01*
X-3030000D01*
Y280000D01*
X-2990000D01*
Y236574D01*
X-2983750D01*
X-2968018Y220911D01*
X-2968000Y220867D01*
Y197000D01*
X-2930000D01*
Y260000D01*
X-2890000D01*
Y197000D01*
X-2852000D01*
Y202500D01*
X-2747500D01*
Y241863D01*
X-2705000D01*
X-2703399Y242182D01*
X-2673750D01*
X-2667410Y243443D01*
X-2662291Y246863D01*
X-2637709D01*
X-2632590Y243443D01*
X-2626250Y242182D01*
X-2573750D01*
X-2567410Y243443D01*
X-2562034Y247035D01*
X-2558443Y252410D01*
X-2557182Y258750D01*
Y290782D01*
X-2556470Y292500D01*
Y307500D01*
X-2556885Y309380D01*
X-2556733Y310153D01*
X-2558742Y327495D01*
X-2557978Y331360D01*
X-2556470Y335000D01*
Y377500D01*
X-2557182Y379218D01*
Y401250D01*
X-2558443Y407590D01*
X-2562034Y412966D01*
X-2567410Y416557D01*
X-2573750Y417818D01*
X-2580344D01*
Y423284D01*
X-2582090Y432063D01*
X-2587063Y439506D01*
X-2647059Y499502D01*
Y555814D01*
X-2627059Y563132D01*
X-2620567Y556639D01*
X-2608895Y551805D01*
X-2608784Y551694D01*
X-2603949Y540022D01*
X-2592282Y528355D01*
X-2580610Y523520D01*
X-2568938Y528355D01*
X-2565676Y531617D01*
X-2541279Y507220D01*
X-2536916Y496687D01*
X-2526367Y486138D01*
X-2515834Y481775D01*
X-2495104Y461046D01*
X-2494270Y456830D01*
X-2497338Y437337D01*
X-2501427Y431218D01*
X-2502862Y424000D01*
Y346000D01*
X-2501427Y338782D01*
X-2497338Y332662D01*
X-2491218Y328573D01*
X-2486812Y327697D01*
X-2482272Y325618D01*
X-2470000Y314831D01*
X-2470000Y307137D01*
X-2470000Y290776D01*
X-2484000Y278470D01*
X-2493364Y276608D01*
X-2501303Y271303D01*
X-2506607Y263364D01*
X-2508470Y254000D01*
Y235000D01*
X-2450000D01*
X-2391530D01*
Y254000D01*
X-2393392Y263364D01*
X-2398697Y271303D01*
X-2406636Y276608D01*
X-2416000Y278470D01*
X-2430000Y290776D01*
X-2430000Y298470D01*
X-2430000Y314831D01*
X-2417728Y325618D01*
X-2413188Y327697D01*
X-2408782Y328573D01*
X-2402662Y332662D01*
X-2398573Y338782D01*
X-2397137Y346000D01*
Y424000D01*
X-2398573Y431218D01*
X-2402662Y437338D01*
X-2408782Y441427D01*
X-2416000Y442862D01*
X-2417363D01*
Y463303D01*
X-2419885Y475984D01*
X-2427069Y486735D01*
X-2468971Y528637D01*
X-2473334Y539171D01*
X-2483883Y549720D01*
X-2494417Y554083D01*
X-2518814Y578480D01*
X-2515552Y581742D01*
X-2510717Y593414D01*
X-2515552Y605086D01*
X-2527219Y616753D01*
X-2538891Y621588D01*
X-2539001Y621698D01*
X-2543836Y633370D01*
X-2555503Y645037D01*
X-2567175Y649872D01*
X-2572120Y661655D01*
X-2583787Y673321D01*
X-2595459Y678156D01*
X-2600405Y689939D01*
X-2612071Y701606D01*
X-2623743Y706441D01*
X-2628689Y718223D01*
X-2640356Y729890D01*
X-2652028Y734725D01*
X-2652138Y734835D01*
X-2656973Y746507D01*
X-2668640Y758174D01*
X-2680312Y763009D01*
X-2685258Y774792D01*
X-2696925Y786458D01*
X-2708596Y791293D01*
X-2713542Y803076D01*
X-2725209Y814743D01*
X-2736991Y819688D01*
X-2741826Y831360D01*
X-2753493Y843027D01*
X-2765165Y847862D01*
X-2765275Y847972D01*
X-2770110Y859644D01*
X-2781777Y871311D01*
X-2793560Y876257D01*
X-2798394Y887929D01*
X-2810061Y899596D01*
X-2821733Y904430D01*
X-2821844Y904541D01*
X-2826679Y916213D01*
X-2838346Y927880D01*
X-2850017Y932715D01*
X-2850128Y932825D01*
X-2854963Y944497D01*
X-2866630Y956164D01*
X-2878302Y960999D01*
X-2878412Y961110D01*
X-2883247Y972781D01*
X-2894914Y984448D01*
X-2906586Y989283D01*
X-2918258Y984448D01*
X-2971645Y931062D01*
X-2973461Y926678D01*
X-2988553Y911586D01*
X-2988758Y911791D01*
X-3002541Y917500D01*
X-3017459D01*
X-3031242Y911791D01*
X-3041791Y901242D01*
X-3047500Y887459D01*
Y872541D01*
X-3041791Y858758D01*
X-3031242Y848209D01*
X-3017459Y842500D01*
X-3002541D01*
X-2988758Y848209D01*
X-2978209Y858758D01*
X-2976048Y863974D01*
X-2973176Y864546D01*
X-2965734Y869519D01*
X-2953752Y881500D01*
X-2943360Y879433D01*
X-2931694Y867767D01*
X-2920022Y862932D01*
X-2919911Y862821D01*
X-2915076Y851149D01*
X-2911427Y847500D01*
X-2915275Y834742D01*
X-2919052Y826840D01*
X-2931242Y821791D01*
X-2941791Y811242D01*
X-2947500Y797459D01*
Y782541D01*
X-2941791Y768758D01*
X-2931242Y758209D01*
X-2917459Y752500D01*
X-2902541D01*
X-2888758Y758209D01*
X-2878209Y768758D01*
X-2873011Y781308D01*
X-2866319Y784405D01*
X-2852500Y788573D01*
X-2846841Y782914D01*
X-2835169Y778079D01*
X-2830223Y766296D01*
X-2824745Y760818D01*
X-2823889Y736838D01*
X-2875452Y685275D01*
X-3070813D01*
X-3083522Y700718D01*
X-3056817Y836917D01*
X-3056722Y837397D01*
X-3056723Y837398D01*
X-3056764Y837600D01*
X-3056654Y837776D01*
X-3057781Y842643D01*
X-3058770Y847548D01*
X-3058944Y847664D01*
X-3058990Y847864D01*
X-3063205Y850494D01*
X-3067396Y853278D01*
X-3067600Y853237D01*
X-3067774Y853345D01*
X-3067775Y853347D01*
X-3068251Y853425D01*
X-3241986Y882381D01*
X-3252851Y899173D01*
X-3217655Y1033056D01*
X-3089557Y1369333D01*
X-2926902Y1689276D01*
X-2778470Y1917547D01*
X-2758470Y1911616D01*
Y1905000D01*
X-2720000D01*
Y1948470D01*
X-2734000D01*
X-2734582Y1948354D01*
X-2746753Y1966325D01*
X-2731264Y1990144D01*
X-2504161Y2269311D01*
X-2247193Y2524023D01*
X-1975217Y2740993D01*
X-1902987Y2665671D01*
X-1898226Y2662344D01*
X-1893508Y2658969D01*
X-1786776Y2610729D01*
X-1781249Y2609446D01*
X-1775747Y2608055D01*
X-1658774Y2602050D01*
X-1653027Y2602889D01*
X-1647278Y2603666D01*
X-1532685Y2642989D01*
X-1527601Y2645947D01*
X-1522522Y2648857D01*
X-1431169Y2728437D01*
X-1427624Y2733025D01*
X-1424022Y2737585D01*
X-1370737Y2841887D01*
X-1369191Y2847346D01*
X-1367538Y2852776D01*
X-1355949Y2969328D01*
X-1356512Y2975103D01*
X-1357014Y2980888D01*
X-1386131Y3081105D01*
X-1297112Y3116042D01*
X-1280588Y3104775D01*
D02*
G37*
G36*
X-550000Y3319762D02*
Y2290000D01*
X-569412Y2270588D01*
X-866668D01*
Y2383388D01*
X-859966Y2393418D01*
X-856668Y2410000D01*
X-859966Y2426583D01*
X-869359Y2440641D01*
X-883417Y2450034D01*
X-900000Y2453332D01*
X-916582Y2450034D01*
X-930641Y2440641D01*
X-940640Y2430641D01*
X-950034Y2416583D01*
X-953332Y2400000D01*
Y2270588D01*
X-1220000D01*
X-1222955Y2270000D01*
X-1230000D01*
X-1250000Y2290000D01*
X-1250000Y3134532D01*
X-1063311Y3207800D01*
X-714238Y3303108D01*
X-559668Y3327997D01*
X-550000Y3319762D01*
D02*
G37*
G36*
X713120Y3303349D02*
X1062231Y3208158D01*
X1250000Y3134502D01*
Y2290000D01*
X1230000Y2270000D01*
X1222955D01*
X1220000Y2270588D01*
X933332D01*
Y2383388D01*
X940034Y2393418D01*
X943332Y2410000D01*
X940034Y2426583D01*
X930641Y2440641D01*
X916583Y2450034D01*
X900000Y2453332D01*
X883418Y2450034D01*
X869359Y2440641D01*
X859359Y2430641D01*
X849966Y2416583D01*
X846668Y2400000D01*
Y2270588D01*
X569412D01*
X550000Y2290000D01*
X550000Y3208158D01*
Y3319768D01*
X559666Y3328006D01*
X713120Y3303349D01*
D02*
G37*
G36*
X1386129Y3081103D02*
X1357013Y2980888D01*
X1356512Y2975102D01*
X1355949Y2969328D01*
X1367538Y2852777D01*
X1369189Y2847352D01*
X1370736Y2841888D01*
X1424021Y2737585D01*
X1427619Y2733031D01*
X1431169Y2728436D01*
X1522521Y2648857D01*
X1527606Y2645944D01*
X1532685Y2642989D01*
X1647278Y2603666D01*
X1653028Y2602889D01*
X1658774Y2602050D01*
X1775746Y2608055D01*
X1781250Y2609446D01*
X1786776Y2610729D01*
X1893507Y2658969D01*
X1898232Y2662348D01*
X1902987Y2665671D01*
X1975218Y2740995D01*
X2246377Y2524751D01*
X2464527Y2308652D01*
X2462925Y2288716D01*
X2389402Y2236199D01*
X2389062Y2236059D01*
X2385368Y2235324D01*
X2382237Y2233232D01*
X2378758Y2231791D01*
X2376096Y2229128D01*
X2372964Y2227036D01*
X2370872Y2223904D01*
X2368209Y2221242D01*
X2368103Y2220987D01*
X2312627Y2181360D01*
X2312135Y2181010D01*
X2312135Y2181008D01*
X2312059Y2180887D01*
X2311919Y2180852D01*
X2309330Y2176513D01*
X2306654Y2172224D01*
X2306687Y2172083D01*
X2306613Y2171959D01*
X2307850Y2167061D01*
X2308990Y2162136D01*
X2309113Y2162059D01*
X2309148Y2161920D01*
X2309148Y2161918D01*
X2309505Y2161440D01*
X2417780Y2016042D01*
X2380252Y1978515D01*
X2142862D01*
Y1984000D01*
X2141427Y1991218D01*
X2137338Y1997338D01*
X2131218Y2001427D01*
X2124000Y2002862D01*
X2046000D01*
X2038782Y2001427D01*
X2032662Y1997338D01*
X2028573Y1991219D01*
X2020002Y1983529D01*
X1980003D01*
X1971427Y1991219D01*
X1967338Y1997338D01*
X1961218Y2001427D01*
X1954000Y2002862D01*
X1876000D01*
X1868782Y2001427D01*
X1862662Y1997338D01*
X1858573Y1991218D01*
X1857834Y1987500D01*
X1852541D01*
X1838758Y1981791D01*
X1828209Y1971242D01*
X1822500Y1957459D01*
Y1942541D01*
X1828209Y1928758D01*
X1838758Y1918209D01*
X1852541Y1912500D01*
X1857834D01*
X1858573Y1908782D01*
X1862662Y1902662D01*
X1868782Y1898573D01*
X1876000Y1897137D01*
X1954000D01*
X1961218Y1898573D01*
X1967338Y1902662D01*
X1971426Y1908781D01*
X1978719Y1907471D01*
X1985469Y1885937D01*
X1983779Y1884246D01*
X1978806Y1876804D01*
X1977059Y1868025D01*
Y1864896D01*
X1971148Y1859869D01*
X1957059Y1852254D01*
X1954000Y1852862D01*
X1876000D01*
X1868782Y1851427D01*
X1862662Y1847338D01*
X1858573Y1841218D01*
X1857138Y1834000D01*
Y1822941D01*
X1829502D01*
X1792941Y1859502D01*
Y2028076D01*
X1791195Y2036855D01*
X1786221Y2044297D01*
X1757500Y2073018D01*
Y2077459D01*
X1751791Y2091242D01*
X1741242Y2101791D01*
X1727459Y2107500D01*
X1712541D01*
X1698758Y2101791D01*
X1688209Y2091242D01*
X1682500Y2077459D01*
Y2062541D01*
X1688209Y2048758D01*
X1698758Y2038209D01*
X1712541Y2032500D01*
X1727459D01*
X1731471Y2034162D01*
X1747059Y2018573D01*
Y1850000D01*
X1748805Y1841221D01*
X1753779Y1833778D01*
X1803778Y1783778D01*
X1811221Y1778805D01*
X1820000Y1777059D01*
X1857138D01*
Y1766000D01*
X1858573Y1758782D01*
X1862662Y1752662D01*
X1868782Y1748573D01*
X1876000Y1747137D01*
X1892059D01*
Y1702862D01*
X1876000D01*
X1868782Y1701427D01*
X1862662Y1697338D01*
X1858573Y1691218D01*
X1857138Y1684000D01*
Y1616000D01*
X1858573Y1608782D01*
X1862662Y1602662D01*
X1868782Y1598573D01*
X1876000Y1597138D01*
X1944412D01*
X1946951Y1594734D01*
X1954695Y1577426D01*
X1953806Y1576094D01*
X1952059Y1567315D01*
Y1557500D01*
X1944999D01*
Y1502000D01*
X1924999D01*
Y1482000D01*
X1892000D01*
Y1446500D01*
X1892263D01*
X1907500Y1435000D01*
X1907500Y1426500D01*
Y1368000D01*
X1907500Y1365000D01*
X1900257Y1348000D01*
X1897500D01*
Y1248000D01*
X1897500D01*
X1896126Y1228569D01*
X1893779Y1226222D01*
X1888805Y1218779D01*
X1887059Y1210000D01*
Y1202862D01*
X1876000D01*
X1868782Y1201427D01*
X1862663Y1197338D01*
X1858574Y1191218D01*
X1857138Y1184000D01*
Y1129581D01*
X1812941Y1085384D01*
X1792941Y1093668D01*
Y1220498D01*
X1826221Y1253778D01*
X1831194Y1261221D01*
X1832941Y1270000D01*
Y1700000D01*
X1831194Y1708779D01*
X1826222Y1716221D01*
X1586221Y1956221D01*
X1578779Y1961194D01*
X1570000Y1962941D01*
X1233530D01*
Y2240000D01*
X1241705Y2241741D01*
X1251629Y2248371D01*
X1251629Y2248372D01*
X1271628Y2268371D01*
X1271629Y2268371D01*
X1278259Y2278294D01*
X1280588Y2290000D01*
X1280588Y2290001D01*
Y3104754D01*
X1297112Y3116021D01*
X1386129Y3081103D01*
D02*
G37*
G36*
X2454609Y1966586D02*
X2493694Y1914100D01*
X2213779Y1634184D01*
X2208806Y1626741D01*
X2207059Y1617962D01*
Y819502D01*
X2183188Y795631D01*
X2163258D01*
X2160121Y797705D01*
X2148397Y815632D01*
X2148470Y816000D01*
Y830001D01*
X2084999D01*
Y850001D01*
X2064999D01*
Y908470D01*
X2046000D01*
X2036636Y906608D01*
X2028697Y901303D01*
X2023392Y893364D01*
X2019998Y883530D01*
X1979999D01*
X1971427Y891219D01*
X1967338Y897338D01*
X1961218Y901427D01*
X1957573Y902152D01*
X1949726Y911597D01*
X1944370Y922541D01*
Y937459D01*
X1961219Y948573D01*
X1967338Y952662D01*
X1971427Y958781D01*
X1980012Y966470D01*
X2020012D01*
X2028573Y958781D01*
X2032662Y952662D01*
X2038782Y948573D01*
X2046000Y947138D01*
X2124000D01*
X2131218Y948573D01*
X2137338Y952662D01*
X2141427Y958782D01*
X2142862Y966000D01*
Y1034000D01*
X2141427Y1041218D01*
X2137338Y1047338D01*
X2131218Y1051427D01*
X2124000Y1052863D01*
X2059580D01*
X2046223Y1066220D01*
X2046222Y1066222D01*
X2031202Y1081241D01*
X2032418Y1084023D01*
X2042992Y1097736D01*
X2046000Y1097138D01*
X2124000D01*
X2131218Y1098573D01*
X2137338Y1102662D01*
X2141427Y1108782D01*
X2142863Y1116000D01*
Y1184000D01*
X2141427Y1191218D01*
X2137338Y1197338D01*
X2131219Y1201427D01*
X2122500Y1220041D01*
Y1234959D01*
X2116791Y1248742D01*
X2106242Y1259291D01*
X2102990Y1260638D01*
Y1295500D01*
X2102500Y1297961D01*
Y1348000D01*
X2099743D01*
X2092500Y1365000D01*
X2092500Y1368000D01*
Y1432000D01*
X2092500Y1435000D01*
X2099743Y1452000D01*
X2102500D01*
Y1552000D01*
X2097941D01*
Y1597138D01*
X2124000D01*
X2131218Y1598573D01*
X2137338Y1602662D01*
X2141427Y1608782D01*
X2142862Y1616000D01*
Y1684000D01*
X2141427Y1691218D01*
X2137338Y1697338D01*
X2131218Y1701427D01*
X2124000Y1702862D01*
X2046000D01*
X2044947Y1702653D01*
X2027838Y1714385D01*
X2026823Y1729503D01*
X2026978Y1730582D01*
X2044077Y1741912D01*
X2046000Y1741530D01*
X2064999D01*
Y1800000D01*
Y1858470D01*
X2051173D01*
X2043682Y1871187D01*
X2042437Y1878019D01*
X2061556Y1897137D01*
X2124000D01*
X2131218Y1898573D01*
X2137338Y1902662D01*
X2141427Y1908782D01*
X2142862Y1916000D01*
Y1932633D01*
X2389754D01*
X2398533Y1934380D01*
X2405976Y1939353D01*
X2434661Y1968038D01*
X2454609Y1966586D01*
D02*
G37*
G36*
X2859417Y1793091D02*
X2926362Y1690207D01*
X3089124Y1370310D01*
X3217325Y1034079D01*
X3309438Y684149D01*
X3361346Y340147D01*
X3259999Y315255D01*
X3254742Y312798D01*
X3249455Y310396D01*
X3154314Y242084D01*
X3150439Y237939D01*
X3146483Y233870D01*
X3082796Y135572D01*
X3080651Y130179D01*
X3078447Y124808D01*
X3055206Y5905D01*
X3055226Y37D01*
X3055206Y-5831D01*
X3078447Y-124734D01*
X3080647Y-130095D01*
X3082796Y-135498D01*
X3146483Y-233796D01*
X3150436Y-237862D01*
X3154314Y-242010D01*
X3249455Y-310322D01*
X3254742Y-312724D01*
X3259999Y-315180D01*
X3361348Y-340073D01*
X3309655Y-683024D01*
X3217654Y-1032981D01*
X3089556Y-1369258D01*
X2926901Y-1689201D01*
X2731264Y-1990070D01*
X2504161Y-2269237D01*
X2247192Y-2523948D01*
X1975216Y-2740919D01*
X1902987Y-2665597D01*
X1898226Y-2662270D01*
X1893507Y-2658895D01*
X1786776Y-2610655D01*
X1781249Y-2609372D01*
X1775746Y-2607981D01*
X1658774Y-2601975D01*
X1653026Y-2602815D01*
X1647278Y-2603591D01*
X1532685Y-2642915D01*
X1527592Y-2645878D01*
X1522522Y-2648783D01*
X1431169Y-2728362D01*
X1427624Y-2732951D01*
X1424021Y-2737510D01*
X1370736Y-2841813D01*
X1369191Y-2847271D01*
X1367538Y-2852702D01*
X1355949Y-2969254D01*
X1356513Y-2975039D01*
X1357013Y-2980814D01*
X1386130Y-3081031D01*
X1063309Y-3207726D01*
X742537Y-3295313D01*
X742507Y-3295328D01*
X742473Y-3295330D01*
X740202Y-3296470D01*
X-101204D01*
X-108858Y-3277992D01*
X-90433Y-3259567D01*
X-86470Y-3250000D01*
Y-2157596D01*
X75882Y-1983530D01*
X840000D01*
X849568Y-1979567D01*
X1327068Y-1502066D01*
X1345500Y-1511918D01*
X1342000Y-1529514D01*
Y-1529999D01*
X1530000D01*
Y-1342000D01*
X1529514D01*
X1511918Y-1345500D01*
X1502066Y-1327068D01*
X1789567Y-1039567D01*
X1793530Y-1029999D01*
Y-834847D01*
X1798768Y-830356D01*
X1813530Y-823768D01*
X1822541Y-827500D01*
X1837459D01*
X1851242Y-821791D01*
X1860092Y-812941D01*
X1878925D01*
X1887704Y-811194D01*
X1895146Y-806221D01*
X2586825Y-114543D01*
X2591798Y-107100D01*
X2592366Y-104247D01*
X2604756Y-94630D01*
X2611226Y-92500D01*
X2613545Y-92500D01*
X2792500D01*
Y92500D01*
X2733470D01*
X2730837Y112500D01*
X2735703Y113804D01*
X2756796Y125982D01*
X2774018Y143204D01*
X2786196Y164297D01*
X2792500Y187822D01*
Y212178D01*
X2786196Y235704D01*
X2774018Y256796D01*
X2756796Y274019D01*
X2735703Y286196D01*
X2722824Y289647D01*
Y310353D01*
X2735703Y313804D01*
X2756796Y325982D01*
X2774018Y343204D01*
X2786196Y364296D01*
X2792500Y387822D01*
Y412178D01*
X2786196Y435703D01*
X2774018Y456796D01*
X2756796Y474018D01*
X2735703Y486196D01*
X2733449Y486800D01*
Y507506D01*
X2737826Y508679D01*
X2760173Y521581D01*
X2778419Y539827D01*
X2791321Y562174D01*
X2796098Y580000D01*
X2700000D01*
X2603902D01*
X2608679Y562174D01*
X2621581Y539827D01*
X2639827Y521581D01*
X2662173Y508679D01*
X2666551Y507506D01*
Y486800D01*
X2664296Y486196D01*
X2643204Y474018D01*
X2625982Y456796D01*
X2613804Y435703D01*
X2607500Y412178D01*
Y387822D01*
X2613392Y365835D01*
X2492428Y244871D01*
X2472428Y253155D01*
Y569250D01*
X2636181Y733004D01*
X2643204Y725982D01*
X2664296Y713804D01*
X2666551Y713200D01*
Y692494D01*
X2662173Y691321D01*
X2639827Y678419D01*
X2621581Y660173D01*
X2608679Y637827D01*
X2603902Y620000D01*
X2700000D01*
X2796098D01*
X2791321Y637827D01*
X2778419Y660173D01*
X2760173Y678419D01*
X2737826Y691321D01*
X2733449Y692494D01*
Y713200D01*
X2735703Y713804D01*
X2756796Y725982D01*
X2774018Y743204D01*
X2786196Y764296D01*
X2792500Y787822D01*
Y812178D01*
X2786196Y835703D01*
X2774018Y856796D01*
X2756796Y874018D01*
X2735703Y886196D01*
X2722824Y889647D01*
Y910353D01*
X2735703Y913804D01*
X2756796Y925982D01*
X2774018Y943204D01*
X2786196Y964297D01*
X2792500Y987822D01*
Y1012178D01*
X2786196Y1035704D01*
X2774018Y1056796D01*
X2756796Y1074018D01*
X2735703Y1086196D01*
X2712178Y1092500D01*
X2687822D01*
X2664296Y1086196D01*
X2643204Y1074018D01*
X2625982Y1056796D01*
X2613804Y1035704D01*
X2607500Y1012178D01*
Y987822D01*
X2613804Y964297D01*
X2620410Y952854D01*
X2383779Y716222D01*
X2378806Y708779D01*
X2377059Y700000D01*
Y-34331D01*
X1958725Y-452665D01*
X1934121Y-452071D01*
X1932745Y-450362D01*
X1933232Y-447764D01*
X1933941Y-446703D01*
X1935315Y-444645D01*
X1935325Y-444632D01*
X1935435Y-444074D01*
X1936059Y-440938D01*
X1937500Y-437459D01*
Y-433693D01*
X1937596Y-433212D01*
X1937966Y-432965D01*
X1941557Y-427590D01*
X1942818Y-421250D01*
Y-389218D01*
X1943530Y-387500D01*
Y-372500D01*
X1943114Y-370620D01*
X1943267Y-369847D01*
X1941258Y-352505D01*
X1942022Y-348640D01*
X1943530Y-345000D01*
Y-302500D01*
X1942818Y-300781D01*
Y-278750D01*
X1941557Y-272410D01*
X1938235Y-267437D01*
Y-232563D01*
X1941557Y-227590D01*
X1942818Y-221250D01*
Y-189218D01*
X1943530Y-187500D01*
Y-172500D01*
X1942997Y-171213D01*
X1943267Y-169847D01*
X1941075Y-166573D01*
X1939567Y-162933D01*
X1938280Y-162400D01*
X1937505Y-161243D01*
X1936768Y-156052D01*
X1939515Y-138545D01*
X1941931Y-136931D01*
X1946738Y-129736D01*
X1948426Y-121250D01*
Y-120000D01*
X1930000D01*
Y-145000D01*
X1900000Y-125000D01*
X1870000Y-145000D01*
Y-120000D01*
X1851574D01*
Y-121250D01*
X1853262Y-129736D01*
X1858069Y-136931D01*
X1860485Y-138545D01*
X1863231Y-156052D01*
X1862495Y-161243D01*
X1861720Y-162400D01*
X1860433Y-162933D01*
X1858925Y-166573D01*
X1856733Y-169846D01*
X1857003Y-171213D01*
X1856470Y-172500D01*
Y-187500D01*
X1857182Y-189218D01*
Y-221250D01*
X1858443Y-227590D01*
X1861765Y-232563D01*
Y-267437D01*
X1858443Y-272410D01*
X1857182Y-278750D01*
Y-300781D01*
X1856470Y-302500D01*
Y-345000D01*
X1859466Y-358559D01*
X1856733Y-369846D01*
X1857003Y-371213D01*
X1856470Y-372500D01*
Y-387500D01*
X1857182Y-389218D01*
Y-421250D01*
X1858443Y-427590D01*
X1862034Y-432965D01*
X1862404Y-433212D01*
X1862500Y-433693D01*
Y-437459D01*
X1863941Y-440938D01*
X1864676Y-444632D01*
X1866768Y-447763D01*
X1868209Y-451242D01*
X1870872Y-453904D01*
X1872964Y-457036D01*
X1876096Y-459128D01*
X1878758Y-461791D01*
X1882237Y-463232D01*
X1885368Y-465324D01*
X1889062Y-466059D01*
X1892541Y-467500D01*
X1896307D01*
X1900000Y-468235D01*
X1903693Y-467500D01*
X1907459D01*
X1910938Y-466059D01*
X1914073Y-465435D01*
X1914632Y-465324D01*
X1914645Y-465315D01*
X1916703Y-463940D01*
X1917764Y-463232D01*
X1920362Y-462745D01*
X1922071Y-464121D01*
X1922666Y-488725D01*
X1884332Y-527059D01*
X1860092D01*
X1851242Y-518209D01*
X1837459Y-512500D01*
X1822541D01*
X1813530Y-516232D01*
X1798768Y-509643D01*
X1793530Y-505152D01*
Y340000D01*
X1789567Y349567D01*
X1769567Y369567D01*
X1760000Y373530D01*
X1530000D01*
X1520433Y369567D01*
X1517500Y366634D01*
X1497500Y374919D01*
Y377459D01*
X1491791Y391242D01*
X1481242Y401791D01*
X1467459Y407500D01*
X1452541D01*
X1438758Y401791D01*
X1428209Y391242D01*
X1422500Y377459D01*
Y362541D01*
X1428209Y348758D01*
X1431059Y345908D01*
Y89438D01*
X1424375D01*
X1415645Y87702D01*
X1408243Y82757D01*
X1403298Y75355D01*
X1401561Y66625D01*
Y-280625D01*
X1403298Y-289355D01*
X1408243Y-296757D01*
X1415645Y-301702D01*
X1424375Y-303439D01*
X1483625D01*
X1496470Y-321176D01*
Y-440001D01*
Y-484396D01*
X1454396Y-526470D01*
X635604D01*
X593530Y-484396D01*
Y340000D01*
X589567Y349567D01*
X569567Y369567D01*
X560000Y373530D01*
X330000D01*
X320433Y369567D01*
X317500Y366634D01*
X297500Y374919D01*
Y377459D01*
X291791Y391242D01*
X281242Y401791D01*
X267459Y407500D01*
X252541D01*
X238758Y401791D01*
X228209Y391242D01*
X222500Y377459D01*
Y362541D01*
X228209Y348758D01*
X231059Y345908D01*
Y320258D01*
X211242Y311791D01*
X197459Y317500D01*
X182541D01*
X171526Y312938D01*
X162546Y317188D01*
X153639Y322803D01*
X152621Y339589D01*
X161791Y348758D01*
X167500Y362541D01*
Y377459D01*
X161791Y391242D01*
X151242Y401791D01*
X137459Y407500D01*
X122541D01*
X108758Y401791D01*
X98209Y391242D01*
X92500Y377459D01*
Y362541D01*
X98209Y348758D01*
X104059Y342908D01*
Y101405D01*
X93533Y93533D01*
X87290Y91700D01*
X70604Y103640D01*
Y439412D01*
X500000D01*
X511705Y441741D01*
X521629Y448371D01*
X537246Y463988D01*
X550001Y466634D01*
X562754Y463988D01*
X578371Y448371D01*
X588295Y441741D01*
X600000Y439412D01*
X600001Y439412D01*
X1129396Y439412D01*
Y103640D01*
X1112710Y91700D01*
X1106467Y93533D01*
X1095941Y101405D01*
Y342908D01*
X1101791Y348758D01*
X1107500Y362541D01*
Y377459D01*
X1101791Y391242D01*
X1091242Y401791D01*
X1077459Y407500D01*
X1062541D01*
X1048758Y401791D01*
X1038209Y391242D01*
X1032500Y377459D01*
Y362541D01*
X1038209Y348758D01*
X1048758Y338209D01*
X1050059Y337670D01*
Y89438D01*
X1043375D01*
X1034645Y87702D01*
X1027243Y82757D01*
X1022298Y75355D01*
X1020561Y66625D01*
Y-280625D01*
X1022298Y-289355D01*
X1027243Y-296757D01*
X1034645Y-301702D01*
X1043375Y-303439D01*
X1102625D01*
X1111355Y-301702D01*
X1113376Y-300352D01*
X1122907Y-298308D01*
X1138003Y-303951D01*
X1141627Y-309373D01*
X1154816Y-318187D01*
X1170375Y-321281D01*
X1229625D01*
X1245183Y-318187D01*
X1258373Y-309373D01*
X1261996Y-303951D01*
X1277093Y-298308D01*
X1286624Y-300352D01*
X1288645Y-301702D01*
X1297375Y-303439D01*
X1356625D01*
X1365355Y-301702D01*
X1372756Y-296757D01*
X1377702Y-289355D01*
X1379438Y-280625D01*
Y66625D01*
X1377702Y75355D01*
X1372756Y82757D01*
X1365355Y87702D01*
X1356625Y89438D01*
X1349941D01*
Y337670D01*
X1351242Y338209D01*
X1361791Y348758D01*
X1367500Y362541D01*
Y377459D01*
X1361791Y391242D01*
X1351242Y401791D01*
X1337459Y407500D01*
X1322541D01*
X1308758Y401791D01*
X1298209Y391242D01*
X1292500Y377459D01*
Y362541D01*
X1298209Y348758D01*
X1304059Y342908D01*
Y101405D01*
X1293533Y93533D01*
X1287290Y91700D01*
X1270604Y103640D01*
Y439412D01*
X1699999Y439412D01*
X1700000Y439412D01*
X1711705Y441740D01*
X1721629Y448371D01*
X1721629Y448371D01*
X1741628Y468371D01*
X1741629Y468371D01*
X1748259Y478295D01*
X1750588Y490001D01*
X1750588Y490002D01*
Y578685D01*
X1770588Y586969D01*
X1823779Y533778D01*
X1831221Y528805D01*
X1840000Y527059D01*
X1857138D01*
Y516000D01*
X1858573Y508782D01*
X1862662Y502662D01*
X1868782Y498573D01*
X1876000Y497137D01*
X1892059D01*
Y452862D01*
X1876000D01*
X1868782Y451427D01*
X1862662Y447338D01*
X1858573Y441218D01*
X1857138Y434000D01*
Y366000D01*
X1858573Y358782D01*
X1862662Y352662D01*
X1868782Y348573D01*
X1876000Y347137D01*
X1944412D01*
X1946951Y344734D01*
X1954695Y327426D01*
X1953806Y326094D01*
X1952059Y317315D01*
Y307500D01*
X1944999D01*
Y252000D01*
X1924999D01*
Y232000D01*
X1892000D01*
Y196500D01*
X1892263D01*
X1907500Y185000D01*
X1907500Y176500D01*
Y118000D01*
X1907500Y115000D01*
X1900257Y98000D01*
X1897500D01*
Y-2000D01*
X2102500D01*
Y12473D01*
X2102541Y12500D01*
X2117459D01*
X2131242Y18209D01*
X2141791Y28758D01*
X2147500Y42541D01*
Y57459D01*
X2141791Y71242D01*
X2131242Y81791D01*
X2117459Y87500D01*
X2102541D01*
X2102500Y87527D01*
Y98000D01*
X2099743D01*
X2092500Y115000D01*
X2092500Y118000D01*
Y182000D01*
X2092500Y185000D01*
X2099743Y202000D01*
X2102500D01*
Y302000D01*
X2097941D01*
Y347137D01*
X2124000D01*
X2131218Y348573D01*
X2137338Y352662D01*
X2141427Y358782D01*
X2142862Y366000D01*
Y434000D01*
X2141427Y441218D01*
X2137338Y447338D01*
X2131218Y451427D01*
X2124000Y452862D01*
X2046000D01*
X2044947Y452653D01*
X2027838Y464385D01*
X2026823Y479503D01*
X2026978Y480581D01*
X2044077Y491912D01*
X2046000Y491530D01*
X2064999D01*
Y550000D01*
Y608470D01*
X2051173D01*
X2043682Y621187D01*
X2042437Y628019D01*
X2061556Y647138D01*
X2124000D01*
X2131218Y648574D01*
X2137338Y652662D01*
X2141427Y658782D01*
X2142862Y666000D01*
Y677059D01*
X2250000D01*
X2258779Y678806D01*
X2266222Y683779D01*
X2316222Y733779D01*
X2321194Y741221D01*
X2322941Y750000D01*
Y1500604D01*
X2586490Y1764153D01*
X2606438Y1762702D01*
X2658772Y1692425D01*
X2659148Y1691918D01*
X2659150Y1691918D01*
X2659259Y1691853D01*
X2659293Y1691726D01*
X2663719Y1689191D01*
X2668041Y1686612D01*
X2668167Y1686644D01*
X2668279Y1686579D01*
X2673143Y1687900D01*
X2678082Y1689148D01*
X2678148Y1689260D01*
X2678271Y1689293D01*
X2678273Y1689293D01*
X2684346Y1693986D01*
X2704893Y1686811D01*
X2727930Y1688119D01*
X2748713Y1698144D01*
X2804617Y1740271D01*
X2819981Y1757485D01*
X2827589Y1779269D01*
X2827007Y1789511D01*
X2834567Y1796401D01*
X2859417Y1793091D01*
D02*
G37*
G36*
X-2125199Y1632374D02*
X-2132270Y1625303D01*
X-2155251Y1602322D01*
X-2162322Y1637678D01*
X-2197678Y1644749D01*
X-2167626Y1674801D01*
X-2125199Y1632374D01*
D02*
G37*
G36*
X-2181768Y1618232D02*
X-2174697Y1582877D01*
X-2185303Y1572270D01*
X-2227730Y1614697D01*
X-2217123Y1625303D01*
X-2181768Y1618232D01*
D02*
G37*
G36*
X-2065199Y1572374D02*
X-2072270Y1565303D01*
X-2095251Y1542322D01*
X-2102322Y1577678D01*
X-2137678Y1584749D01*
X-2107626Y1614801D01*
X-2065199Y1572374D01*
D02*
G37*
G36*
X-2121768Y1558232D02*
X-2114697Y1522877D01*
X-2125303Y1512270D01*
X-2167730Y1554697D01*
X-2157123Y1565303D01*
X-2121768Y1558232D01*
D02*
G37*
G36*
X-1233530Y1837895D02*
Y1770000D01*
X-1229568Y1760433D01*
X-1228449Y1754809D01*
X-1241629Y1741629D01*
X-1248259Y1731705D01*
X-1250588Y1720000D01*
X-1250588Y1719999D01*
Y1472670D01*
X-1392670Y1330588D01*
X-1485113D01*
X-1489328Y1349993D01*
X-1451475Y1365673D01*
X-1417408Y1388436D01*
X-1388436Y1417408D01*
X-1365673Y1451475D01*
X-1349993Y1489329D01*
X-1342000Y1529514D01*
Y1530000D01*
X-1549999D01*
X-1758000D01*
Y1529514D01*
X-1750006Y1489329D01*
X-1734327Y1451475D01*
X-1711564Y1417408D01*
X-1682592Y1388436D01*
X-1648525Y1365673D01*
X-1610671Y1349993D01*
X-1614887Y1330588D01*
X-1700000D01*
X-1711705Y1328259D01*
X-1721629Y1321629D01*
X-1721630Y1321628D01*
X-1741628Y1301629D01*
X-1741629Y1301628D01*
X-1748260Y1291705D01*
X-1750588Y1279999D01*
X-1750588Y1279998D01*
Y1239753D01*
X-1759379Y1235507D01*
X-1770588Y1233621D01*
X-1778758Y1241791D01*
X-1792541Y1247500D01*
X-1807459D01*
X-1813993Y1244794D01*
X-1823538Y1254170D01*
X-1827312Y1260925D01*
X-1822500Y1272541D01*
Y1287459D01*
X-1828209Y1301242D01*
X-1838758Y1311791D01*
X-1852541Y1317500D01*
X-1867459D01*
X-1881242Y1311791D01*
X-1890092Y1302941D01*
X-2028971D01*
X-2042500Y1322541D01*
Y1337459D01*
X-2048209Y1351242D01*
X-2058758Y1361791D01*
X-2072541Y1367500D01*
X-2087459D01*
X-2101242Y1361791D01*
X-2111791Y1351242D01*
X-2117500Y1337459D01*
Y1330091D01*
X-2180270Y1267321D01*
X-2205974Y1269901D01*
X-2209728Y1273655D01*
X-2221400Y1278490D01*
X-2221510Y1278600D01*
X-2226345Y1290272D01*
X-2230099Y1294026D01*
X-2232679Y1319730D01*
X-2199432Y1352978D01*
X-2154082D01*
X-2145303Y1354724D01*
X-2137860Y1359697D01*
X-1690498Y1807059D01*
X-1300000D01*
X-1291221Y1808805D01*
X-1283778Y1813778D01*
X-1252008Y1845549D01*
X-1233530Y1837895D01*
D02*
G37*
G36*
X1787059Y1690498D02*
Y1279502D01*
X1770588Y1263031D01*
X1750588Y1271315D01*
Y1279998D01*
X1750588Y1280000D01*
X1748259Y1291705D01*
X1741629Y1301629D01*
X1741628Y1301629D01*
X1721629Y1321629D01*
X1711705Y1328259D01*
X1700000Y1330588D01*
X1699999Y1330588D01*
X1614887D01*
X1610671Y1349993D01*
X1648525Y1365673D01*
X1682592Y1388436D01*
X1711564Y1417408D01*
X1734327Y1451475D01*
X1750006Y1489329D01*
X1758000Y1529514D01*
Y1530000D01*
X1550000D01*
X1342000D01*
Y1529514D01*
X1349993Y1489329D01*
X1365673Y1451475D01*
X1388436Y1417408D01*
X1417408Y1388436D01*
X1451475Y1365673D01*
X1489328Y1349993D01*
X1485113Y1330588D01*
X1432669D01*
X1250588Y1512670D01*
Y1720000D01*
X1248259Y1731705D01*
X1241629Y1741629D01*
X1225266Y1757992D01*
X1226538Y1773319D01*
X1229517Y1780412D01*
X1229567Y1780433D01*
X1233530Y1790000D01*
Y1917059D01*
X1560498D01*
X1787059Y1690498D01*
D02*
G37*
G36*
X350000Y3360851D02*
Y1890000D01*
X520000Y1720000D01*
X520000Y490000D01*
X500000Y470000D01*
X-500000D01*
X-520000Y490000D01*
X-520000Y1720000D01*
X-350000Y1890000D01*
Y3360792D01*
X-565Y3379425D01*
X350000Y3360851D01*
D02*
G37*
G36*
X-580000Y1720000D02*
X-580001Y489999D01*
X-600000Y470000D01*
X-1342775Y470000D01*
X-1346716Y470784D01*
X-1346717Y470783D01*
X-1700783D01*
X-1719217Y489217D01*
Y659999D01*
X-1719216Y660000D01*
X-1720000Y663941D01*
X-1720000Y1279999D01*
X-1700000Y1300000D01*
X-1380000D01*
X-1220000Y1460000D01*
Y1720000D01*
X-1200588Y1739412D01*
X-599412D01*
X-580000Y1720000D01*
D02*
G37*
G36*
X1220000D02*
Y1500000D01*
X1419999Y1300000D01*
X1700000D01*
X1720000Y1280000D01*
Y490000D01*
X1700000Y470000D01*
X600000Y470000D01*
X580001Y489999D01*
X580000Y1720000D01*
X600000Y1740000D01*
X1200000D01*
X1220000Y1720000D01*
D02*
G37*
G36*
X-2570000Y367500D02*
Y335000D01*
X-2600000Y355000D01*
X-2630000Y335000D01*
Y377500D01*
X-2570000D01*
Y367500D01*
D02*
G37*
G36*
Y307500D02*
Y292500D01*
X-2630000D01*
Y307500D01*
X-2600000Y327500D01*
X-2570000Y307500D01*
D02*
G37*
G36*
X1930000Y-172500D02*
Y-187500D01*
X1870000D01*
Y-172500D01*
X1900000Y-152500D01*
X1930000Y-172500D01*
D02*
G37*
G36*
Y-312500D02*
Y-345000D01*
X1900000Y-325000D01*
X1870000Y-345000D01*
Y-302500D01*
X1930000D01*
Y-312500D01*
D02*
G37*
G36*
Y-372500D02*
Y-387500D01*
X1870000D01*
Y-372500D01*
X1900000Y-352500D01*
X1930000Y-372500D01*
D02*
G37*
G36*
X1780000Y340000D02*
Y-1029999D01*
X840000Y-1970000D01*
X70000D01*
X-100000Y-2152266D01*
Y-3250000D01*
X-146470Y-3296470D01*
X-740221D01*
X-742542Y-3295312D01*
X-1062228Y-3208085D01*
X-1386130Y-3081028D01*
X-1357014Y-2980814D01*
X-1356513Y-2975029D01*
X-1355949Y-2969254D01*
X-1367538Y-2852702D01*
X-1369191Y-2847271D01*
X-1370737Y-2841813D01*
X-1424022Y-2737510D01*
X-1427620Y-2732957D01*
X-1431169Y-2728362D01*
X-1480000Y-2685824D01*
Y-1740190D01*
X-1454080Y-1729453D01*
X-1420914Y-1707292D01*
X-1392708Y-1679086D01*
X-1370547Y-1645920D01*
X-1355282Y-1609067D01*
X-1347500Y-1569945D01*
Y-1530055D01*
X-1355282Y-1490933D01*
X-1370547Y-1454080D01*
X-1392708Y-1420914D01*
X-1420914Y-1392708D01*
X-1454080Y-1370547D01*
X-1480000Y-1359810D01*
Y-570000D01*
X-1430000Y-520000D01*
X-940000D01*
X-890000Y-470000D01*
Y340000D01*
X-870000Y360000D01*
X-640000D01*
X-620000Y340000D01*
D01*
X-620000Y340000D01*
Y-440000D01*
X-620000Y-440000D01*
Y-480000D01*
X-570000Y-530000D01*
X261606D01*
X310000Y-481606D01*
X310000Y-60131D01*
X310000Y340000D01*
X310000Y340000D01*
D01*
X330000Y360000D01*
X560000D01*
X580000Y340000D01*
Y-490000D01*
X630000Y-540000D01*
X1460000D01*
X1510000Y-490000D01*
Y-440001D01*
X1510000Y340000D01*
X1510000Y340000D01*
D01*
X1530000Y360000D01*
X1760000D01*
X1780000Y340000D01*
D02*
G37*
G36*
X-2590000Y-880000D02*
X-2590000D01*
Y-1400000D01*
X-2590000D01*
X-2610000Y-1420000D01*
X-2740500D01*
Y-1418000D01*
X-2810077D01*
X-2814694Y-1412375D01*
Y-1387625D01*
X-2815180Y-1385180D01*
X-2770000Y-1340000D01*
Y-880000D01*
X-2750000Y-860000D01*
X-2610000D01*
X-2590000Y-880000D01*
D02*
G37*
G36*
X-2289999Y-860001D02*
X-2270000Y-879999D01*
Y-1510000D01*
X-2290000Y-1530000D01*
X-2450001Y-1529999D01*
X-2549999D01*
X-2570000Y-1550000D01*
Y-1650000D01*
X-2590000Y-1670000D01*
X-2760000D01*
X-2780000Y-1650000D01*
X-2780000Y-1620000D01*
X-2780000Y-1620000D01*
X-2780000D01*
Y-1580000D01*
X-2780001D01*
Y-1560000D01*
X-2790000Y-1550000D01*
X-2836647D01*
X-2838781Y-1548573D01*
X-2846000Y-1547138D01*
X-2852863D01*
X-2870000Y-1530000D01*
Y-1480000D01*
X-2867596Y-1477596D01*
X-2859500Y-1473000D01*
X-2829923D01*
X-2825306Y-1478625D01*
Y-1503375D01*
X-2824093Y-1509471D01*
X-2820640Y-1514640D01*
X-2815471Y-1518093D01*
X-2809375Y-1519306D01*
X-2790625D01*
X-2784529Y-1518093D01*
X-2779360Y-1514640D01*
X-2775907Y-1509471D01*
X-2774694Y-1503375D01*
Y-1478625D01*
X-2770077Y-1473000D01*
X-2740500D01*
Y-1470000D01*
X-2640174D01*
X-2469717Y-1299913D01*
Y-879718D01*
X-2449999Y-860000D01*
X-2289999Y-860001D01*
D02*
G37*
G36*
X-1820000Y-880000D02*
X-1820000Y-1610000D01*
X-1830000Y-1620000D01*
X-1840000Y-1630000D01*
X-2180000D01*
X-2200000Y-1610000D01*
Y-880000D01*
X-2180000Y-860000D01*
X-1840000D01*
X-1820000Y-880000D01*
D02*
G37*
G36*
X-2531783Y-1548331D02*
X-2522251Y-1566911D01*
X-2523530Y-1569999D01*
Y-2200000D01*
X-2519567Y-2209567D01*
X-2499567Y-2229568D01*
X-2490000Y-2233531D01*
X-2390653Y-2233530D01*
X-2388874Y-2242475D01*
X-2375060Y-2263149D01*
X-2216050Y-2422159D01*
X-2218493Y-2434283D01*
X-2223195Y-2442401D01*
X-2223693Y-2442500D01*
X-2227459D01*
X-2230938Y-2443941D01*
X-2234632Y-2444676D01*
X-2237763Y-2446768D01*
X-2241242Y-2448209D01*
X-2243904Y-2450872D01*
X-2247036Y-2452964D01*
X-2249128Y-2456096D01*
X-2251791Y-2458758D01*
X-2253232Y-2462237D01*
X-2255324Y-2465368D01*
X-2256059Y-2469062D01*
X-2257500Y-2472541D01*
Y-2476307D01*
X-2258234Y-2480000D01*
X-2257500Y-2483693D01*
Y-2485506D01*
X-2262590Y-2489701D01*
X-2275808Y-2495522D01*
X-2503431Y-2270041D01*
X-2730631Y-1990942D01*
X-2926363Y-1690132D01*
X-2933009Y-1677070D01*
X-2928356Y-1667464D01*
X-2920033Y-1658470D01*
X-2905000D01*
Y-1600000D01*
X-2865000D01*
Y-1658470D01*
X-2846000D01*
X-2836636Y-1656608D01*
X-2828697Y-1651303D01*
X-2823392Y-1643364D01*
X-2821530Y-1634000D01*
X-2820000Y-1620000D01*
X-2793531D01*
X-2793530Y-1620001D01*
X-2793530Y-1650000D01*
X-2789567Y-1659567D01*
X-2769567Y-1679567D01*
X-2760000Y-1683530D01*
X-2590000D01*
X-2580433Y-1679567D01*
X-2560433Y-1659567D01*
X-2556470Y-1650000D01*
Y-1562505D01*
X-2539888Y-1547351D01*
X-2531783Y-1548331D01*
D02*
G37*
G36*
X-2270000Y-1570000D02*
X-2270001Y-2200001D01*
X-2290000Y-2220000D01*
X-2490000Y-2220001D01*
X-2510000Y-2200000D01*
Y-1570000D01*
X-2490000Y-1550000D01*
X-2290000Y-1550000D01*
X-2270000Y-1570000D01*
D02*
G37*
G36*
X-250000Y-3600000D02*
Y-4200000D01*
X-300000Y-4250000D01*
X-1450000D01*
X-1500000Y-4200000D01*
X-1500000D01*
Y-3600000D01*
X-1450000Y-3550000D01*
X-300000D01*
X-250000Y-3600000D01*
D02*
G37*
G36*
X3204050Y-3524639D02*
X3223423Y-3532664D01*
X3240858Y-3544313D01*
X3255687Y-3559142D01*
X3267336Y-3576577D01*
X3275361Y-3595950D01*
X3279452Y-3616516D01*
Y-3627000D01*
Y-6100000D01*
Y-6107825D01*
X3276398Y-6123176D01*
X3270409Y-6137634D01*
X3261714Y-6150647D01*
X3250647Y-6161715D01*
X3237634Y-6170410D01*
X3223175Y-6176399D01*
X3207825Y-6179452D01*
X-3207826D01*
X-3223175Y-6176399D01*
X-3237634Y-6170410D01*
X-3250647Y-6161715D01*
X-3261715Y-6150647D01*
X-3270409Y-6137635D01*
X-3276399Y-6123175D01*
X-3279452Y-6107826D01*
Y-6100000D01*
Y-3627000D01*
Y-3616515D01*
X-3275361Y-3595950D01*
X-3267336Y-3576577D01*
X-3255687Y-3559142D01*
X-3240858Y-3544313D01*
X-3223424Y-3532664D01*
X-3204051Y-3524639D01*
X-3183485Y-3520548D01*
X-1481767D01*
X-1476506Y-3533248D01*
X-1521629Y-3578371D01*
X-1528259Y-3588295D01*
X-1530588Y-3600000D01*
X-1530588Y-3600001D01*
Y-4200000D01*
X-1528259Y-4211705D01*
X-1521629Y-4221629D01*
X-1521628Y-4221629D01*
X-1476743Y-4266514D01*
X-1475841Y-4268606D01*
X-1475841Y-4281395D01*
X-1476743Y-4283486D01*
X-1521628Y-4328371D01*
X-1521629Y-4328371D01*
X-1528259Y-4338294D01*
X-1530588Y-4350000D01*
X-1530588Y-4350001D01*
Y-4459310D01*
X-1596577D01*
X-1649310Y-4406577D01*
Y-4090000D01*
X-1652059Y-4069116D01*
X-1660120Y-4049655D01*
X-1672944Y-4032943D01*
X-1762944Y-3942943D01*
X-1779655Y-3930120D01*
X-1799116Y-3922059D01*
X-1820000Y-3919310D01*
X-1968000D01*
Y-3895000D01*
X-2178000D01*
Y-4105000D01*
X-1968000D01*
Y-4080690D01*
X-1853423D01*
X-1810690Y-4123423D01*
Y-4440000D01*
X-1807941Y-4460884D01*
X-1799880Y-4480345D01*
X-1787057Y-4497057D01*
X-1687057Y-4597057D01*
X-1670345Y-4609880D01*
X-1650884Y-4617941D01*
X-1630000Y-4620690D01*
X-1530588D01*
Y-4939705D01*
X-1530390Y-4940701D01*
X-1530522Y-4941706D01*
X-1529232Y-4946521D01*
X-1528259Y-4951411D01*
X-1527696Y-4952255D01*
X-1527433Y-4953234D01*
X-1529064Y-4968043D01*
X-1539188Y-4975811D01*
X-1553614Y-4994612D01*
X-1562683Y-5016505D01*
X-1565776Y-5040000D01*
Y-5160000D01*
X-1562683Y-5183495D01*
X-1553614Y-5205389D01*
X-1539188Y-5224189D01*
X-1529064Y-5231958D01*
X-1527433Y-5246766D01*
X-1527696Y-5247746D01*
X-1528259Y-5248590D01*
X-1529232Y-5253477D01*
X-1530522Y-5258294D01*
X-1530390Y-5259301D01*
X-1530588Y-5260295D01*
Y-5549999D01*
X-1530588Y-5550000D01*
X-1528259Y-5561706D01*
X-1521629Y-5571629D01*
X-1521628Y-5571630D01*
X-1471629Y-5621629D01*
X-1461706Y-5628259D01*
X-1450000Y-5630588D01*
X-1449999Y-5630588D01*
X1199999D01*
X1200000Y-5630588D01*
X1211705Y-5628259D01*
X1221629Y-5621629D01*
X1271629Y-5571629D01*
X1278259Y-5561705D01*
X1280588Y-5550000D01*
X1280588Y-5549999D01*
Y-4550001D01*
X1280588Y-4550000D01*
X1278259Y-4538295D01*
X1271629Y-4528371D01*
X1271628Y-4528371D01*
X880588Y-4137330D01*
X880588Y-3600001D01*
X880588Y-3600000D01*
X878259Y-3588295D01*
X871629Y-3578371D01*
X826506Y-3533248D01*
X831767Y-3520548D01*
X3183484D01*
X3204050Y-3524639D01*
D02*
G37*
G36*
X-363875Y-4283618D02*
X-359400Y-4293288D01*
X-362595Y-4303820D01*
X-362744Y-4305331D01*
X-363325Y-4306733D01*
Y-4311226D01*
X-363765Y-4315698D01*
X-363325Y-4317150D01*
Y-4318668D01*
X-361606Y-4322817D01*
X-360301Y-4327119D01*
X-359338Y-4328293D01*
X-358757Y-4329694D01*
X-355581Y-4332870D01*
X-352730Y-4336344D01*
X-351391Y-4337060D01*
X-350318Y-4338133D01*
X-322444Y-4356758D01*
X-296757Y-4382445D01*
X-276576Y-4412649D01*
X-262674Y-4446209D01*
X-255588Y-4481837D01*
Y-4518164D01*
X-262674Y-4553791D01*
X-276576Y-4587352D01*
X-296758Y-4617556D01*
X-322444Y-4643243D01*
X-352648Y-4663424D01*
X-386209Y-4677326D01*
X-421836Y-4684412D01*
X-458163D01*
X-493791Y-4677326D01*
X-527351Y-4663424D01*
X-557556Y-4643242D01*
X-583243Y-4617556D01*
X-603424Y-4587352D01*
X-617325Y-4553791D01*
X-624412Y-4518164D01*
Y-4481837D01*
X-617325Y-4446209D01*
X-603424Y-4412649D01*
X-583242Y-4382444D01*
X-557555Y-4356757D01*
X-529681Y-4338133D01*
X-528608Y-4337060D01*
X-527270Y-4336344D01*
X-524419Y-4332870D01*
X-521243Y-4329694D01*
X-520662Y-4328292D01*
X-519699Y-4327119D01*
X-518394Y-4322819D01*
X-516675Y-4318668D01*
Y-4317149D01*
X-516235Y-4315698D01*
X-516675Y-4311227D01*
Y-4306733D01*
X-517256Y-4305330D01*
X-517405Y-4303820D01*
X-520600Y-4293288D01*
X-516125Y-4283618D01*
X-512144Y-4280588D01*
X-367856D01*
X-363875Y-4283618D01*
D02*
G37*
G36*
X850000Y-3600000D02*
X850000Y-4150000D01*
X1250000Y-4550000D01*
Y-5550000D01*
X1200000Y-5600000D01*
X-1450000D01*
X-1500000Y-5550000D01*
Y-5260295D01*
X-1487300Y-5249157D01*
X-1475000Y-5250777D01*
X-1451505Y-5247683D01*
X-1429612Y-5238615D01*
X-1410811Y-5224189D01*
X-1396385Y-5205389D01*
X-1387317Y-5183495D01*
X-1384224Y-5160000D01*
Y-5040000D01*
X-1387317Y-5016505D01*
X-1396385Y-4994612D01*
X-1410811Y-4975811D01*
X-1429612Y-4961386D01*
X-1451505Y-4952317D01*
X-1475000Y-4949224D01*
X-1487300Y-4950843D01*
X-1500000Y-4939705D01*
Y-4350000D01*
X-1450000Y-4300000D01*
X-550528D01*
X-546675Y-4312700D01*
X-577054Y-4332999D01*
X-607001Y-4362946D01*
X-630530Y-4398160D01*
X-646738Y-4437287D01*
X-655000Y-4478824D01*
Y-4521176D01*
X-646738Y-4562713D01*
X-630530Y-4601841D01*
X-607001Y-4637054D01*
X-577054Y-4667002D01*
X-541840Y-4690531D01*
X-502713Y-4706738D01*
X-461176Y-4715000D01*
X-418824D01*
X-377287Y-4706738D01*
X-338159Y-4690531D01*
X-302946Y-4667002D01*
X-272998Y-4637054D01*
X-249469Y-4601841D01*
X-233262Y-4562713D01*
X-225000Y-4521176D01*
Y-4478824D01*
X-233262Y-4437287D01*
X-249469Y-4398160D01*
X-272998Y-4362946D01*
X-302946Y-4332999D01*
X-333325Y-4312700D01*
X-329472Y-4300000D01*
X-300000D01*
X-200000Y-4200000D01*
Y-3600000D01*
X-150000Y-3550000D01*
X800000D01*
X850000Y-3600000D01*
D02*
G37*
%LPC*%
G36*
X-2666000Y1948470D02*
X-2680000D01*
Y1905000D01*
X-2641530D01*
Y1924000D01*
X-2643392Y1933364D01*
X-2648697Y1941303D01*
X-2656636Y1946607D01*
X-2666000Y1948470D01*
D02*
G37*
G36*
X-2466000D02*
X-2480000D01*
Y1904999D01*
X-2441530D01*
Y1924000D01*
X-2443393Y1933364D01*
X-2448697Y1941303D01*
X-2456636Y1946607D01*
X-2466000Y1948470D01*
D02*
G37*
G36*
X-2520000D02*
X-2534000D01*
X-2543364Y1946607D01*
X-2551303Y1941303D01*
X-2556608Y1933364D01*
X-2558470Y1924000D01*
Y1904999D01*
X-2520000D01*
Y1948470D01*
D02*
G37*
G36*
X-2641530Y1865000D02*
X-2700000D01*
X-2758470D01*
Y1846000D01*
X-2756607Y1836636D01*
X-2751303Y1828697D01*
X-2743364Y1823392D01*
X-2734000Y1821530D01*
X-2720000Y1809223D01*
X-2720000Y1801530D01*
X-2720000Y1785169D01*
X-2732272Y1774382D01*
X-2736812Y1772303D01*
X-2741218Y1771426D01*
X-2747338Y1767338D01*
X-2751427Y1761218D01*
X-2752862Y1754000D01*
Y1676000D01*
X-2751427Y1668782D01*
X-2747338Y1662662D01*
X-2741218Y1658573D01*
X-2734000Y1657137D01*
X-2666000D01*
X-2658782Y1658573D01*
X-2652662Y1662662D01*
X-2648573Y1668782D01*
X-2647137Y1676000D01*
Y1681863D01*
X-2617992D01*
X-2607459Y1677500D01*
X-2592541D01*
X-2582007Y1681863D01*
X-2552863D01*
Y1676000D01*
X-2551427Y1668782D01*
X-2547338Y1662662D01*
X-2541218Y1658573D01*
X-2534000Y1657137D01*
X-2533137D01*
Y1567993D01*
X-2537500Y1557459D01*
Y1542541D01*
X-2533137Y1532007D01*
Y1503725D01*
X-2567078Y1469784D01*
X-2568938Y1471645D01*
X-2580610Y1476480D01*
X-2592282Y1471645D01*
X-2603949Y1459978D01*
X-2608784Y1448306D01*
X-2608895Y1448195D01*
X-2620567Y1443361D01*
X-2632233Y1431694D01*
X-2637068Y1420022D01*
X-2637179Y1419911D01*
X-2648851Y1415076D01*
X-2660518Y1403409D01*
X-2665353Y1391737D01*
X-2665463Y1391627D01*
X-2677135Y1386792D01*
X-2688802Y1375125D01*
X-2693637Y1363453D01*
X-2693747Y1363343D01*
X-2705420Y1358508D01*
X-2717087Y1346841D01*
X-2721921Y1335169D01*
X-2733704Y1330223D01*
X-2745371Y1318556D01*
X-2750206Y1306885D01*
X-2750316Y1306774D01*
X-2761988Y1301939D01*
X-2773655Y1290272D01*
X-2778490Y1278600D01*
X-2778600Y1278490D01*
X-2790272Y1273655D01*
X-2801939Y1261988D01*
X-2806774Y1250316D01*
X-2818557Y1245371D01*
X-2824035Y1239892D01*
X-2848015Y1239036D01*
X-2877059Y1268081D01*
Y1304908D01*
X-2868209Y1313758D01*
X-2862500Y1327541D01*
Y1342459D01*
X-2868209Y1356242D01*
X-2878758Y1366791D01*
X-2892541Y1372500D01*
X-2907459D01*
X-2921242Y1366791D01*
X-2931791Y1356242D01*
X-2937500Y1342459D01*
Y1340418D01*
X-2952008Y1325546D01*
X-2955978Y1325000D01*
X-2967459D01*
X-2981242Y1319291D01*
X-2991791Y1308742D01*
X-2997500Y1294959D01*
X-3001986Y1279424D01*
X-3015978Y1277500D01*
X-3017459D01*
X-3031242Y1271791D01*
X-3041791Y1261242D01*
X-3047500Y1247459D01*
Y1235978D01*
X-3048778Y1231295D01*
X-3062918Y1217500D01*
X-3067459D01*
X-3081242Y1211791D01*
X-3091791Y1201242D01*
X-3097500Y1187459D01*
Y1172541D01*
X-3091791Y1158758D01*
X-3081242Y1148209D01*
X-3067459Y1142500D01*
X-3052541D01*
X-3038758Y1148209D01*
X-3029908Y1157059D01*
X-3000629D01*
X-2957911Y1114341D01*
X-2959978Y1103949D01*
X-2971645Y1092282D01*
X-2976480Y1080610D01*
X-2971645Y1068938D01*
X-2962575Y1059868D01*
X-2994943Y1027500D01*
X-3007459D01*
X-3021242Y1021791D01*
X-3031791Y1011242D01*
X-3037500Y997459D01*
Y982541D01*
X-3031791Y968758D01*
X-3021242Y958209D01*
X-3007459Y952500D01*
X-2992541D01*
X-2978758Y958209D01*
X-2968209Y968758D01*
X-2962500Y982541D01*
Y995057D01*
X-2930132Y1027425D01*
X-2918258Y1015552D01*
X-2906586Y1010717D01*
X-2894914Y1015552D01*
X-2883247Y1027219D01*
X-2878412Y1038890D01*
X-2878302Y1039001D01*
X-2866630Y1043836D01*
X-2854963Y1055503D01*
X-2850128Y1067175D01*
X-2850017Y1067285D01*
X-2838346Y1072120D01*
X-2826679Y1083787D01*
X-2821844Y1095459D01*
X-2821733Y1095570D01*
X-2810061Y1100404D01*
X-2798394Y1112071D01*
X-2793560Y1123743D01*
X-2781777Y1128689D01*
X-2770110Y1140356D01*
X-2765275Y1152028D01*
X-2765165Y1152138D01*
X-2753493Y1156973D01*
X-2741826Y1168640D01*
X-2736991Y1180312D01*
X-2725208Y1185257D01*
X-2713542Y1196924D01*
X-2708707Y1208596D01*
X-2708596Y1208707D01*
X-2696925Y1213542D01*
X-2685258Y1225209D01*
X-2680423Y1236880D01*
X-2680312Y1236991D01*
X-2668640Y1241826D01*
X-2656973Y1253493D01*
X-2652138Y1265165D01*
X-2640356Y1270110D01*
X-2628689Y1281777D01*
X-2623854Y1293449D01*
X-2623744Y1293560D01*
X-2612071Y1298394D01*
X-2600405Y1310061D01*
X-2595570Y1321733D01*
X-2595459Y1321844D01*
X-2583787Y1326679D01*
X-2572120Y1338346D01*
X-2567285Y1350017D01*
X-2567175Y1350128D01*
X-2555503Y1354963D01*
X-2543836Y1366630D01*
X-2539001Y1378302D01*
X-2538891Y1378412D01*
X-2527219Y1383247D01*
X-2515552Y1394914D01*
X-2510717Y1406586D01*
X-2515552Y1418258D01*
X-2520215Y1422922D01*
X-2476569Y1466569D01*
X-2469386Y1477319D01*
X-2466863Y1490000D01*
Y1532007D01*
X-2462500Y1542541D01*
Y1557459D01*
X-2466863Y1567993D01*
Y1657137D01*
X-2466000D01*
X-2458782Y1658573D01*
X-2452662Y1662662D01*
X-2448573Y1668782D01*
X-2447138Y1676000D01*
Y1754000D01*
X-2448573Y1761218D01*
X-2452662Y1767338D01*
X-2458782Y1771426D01*
X-2463188Y1772303D01*
X-2467728Y1774382D01*
X-2480000Y1785169D01*
X-2480000Y1792863D01*
X-2480000Y1809223D01*
X-2466000Y1821530D01*
X-2456636Y1823392D01*
X-2448697Y1828697D01*
X-2443393Y1836636D01*
X-2441530Y1846000D01*
Y1865000D01*
X-2500000D01*
X-2558470D01*
Y1846000D01*
X-2556608Y1836636D01*
X-2551303Y1828697D01*
X-2543364Y1823392D01*
X-2534000Y1821530D01*
X-2520000Y1809223D01*
X-2520000Y1801530D01*
X-2520000Y1785169D01*
X-2532272Y1774382D01*
X-2536812Y1772303D01*
X-2541218Y1771426D01*
X-2547338Y1767338D01*
X-2551427Y1761218D01*
X-2552863Y1754000D01*
Y1748137D01*
X-2582007D01*
X-2592541Y1752500D01*
X-2607459D01*
X-2617992Y1748137D01*
X-2647137D01*
Y1754000D01*
X-2648573Y1761218D01*
X-2652662Y1767338D01*
X-2658782Y1771426D01*
X-2663188Y1772303D01*
X-2667728Y1774382D01*
X-2680000Y1785169D01*
X-2680000Y1792863D01*
X-2680000Y1809223D01*
X-2666000Y1821530D01*
X-2656636Y1823392D01*
X-2648697Y1828697D01*
X-2643392Y1836636D01*
X-2641530Y1846000D01*
Y1865000D01*
D02*
G37*
G36*
X-2500000Y1308298D02*
X-2640008Y1168291D01*
X-2500001Y1028284D01*
X-2359993Y1168292D01*
X-2500000Y1308298D01*
D02*
G37*
G36*
X-2668292Y1140007D02*
X-2808298Y1000000D01*
X-2668292Y859993D01*
X-2528285Y1000000D01*
X-2668292Y1140007D01*
D02*
G37*
G36*
X-2331709Y1140007D02*
X-2471716Y1000000D01*
X-2331709Y859992D01*
X-2191702Y1000000D01*
X-2331709Y1140007D01*
D02*
G37*
G36*
X-2500001Y971716D02*
X-2640007Y831709D01*
X-2500000Y691702D01*
X-2359994Y831708D01*
X-2500001Y971716D01*
D02*
G37*
G36*
X-1870000Y448470D02*
X-1884000D01*
X-1893364Y446607D01*
X-1901303Y441303D01*
X-1906608Y433364D01*
X-1908470Y424000D01*
Y405000D01*
X-1870000D01*
Y448470D01*
D02*
G37*
G36*
X-1966000D02*
X-1980000D01*
Y404999D01*
X-1941530D01*
Y424000D01*
X-1943393Y433364D01*
X-1948697Y441303D01*
X-1956636Y446607D01*
X-1966000Y448470D01*
D02*
G37*
G36*
X-2320000Y195000D02*
X-2358470D01*
Y176000D01*
X-2356607Y166636D01*
X-2351303Y158697D01*
X-2343364Y153393D01*
X-2334000Y151530D01*
X-2320000D01*
Y195000D01*
D02*
G37*
G36*
X-2391530Y195000D02*
X-2430000D01*
Y151530D01*
X-2416000D01*
X-2406636Y153393D01*
X-2398697Y158697D01*
X-2393392Y166636D01*
X-2391530Y176000D01*
Y195000D01*
D02*
G37*
G36*
X-2470000D02*
X-2508470D01*
Y176000D01*
X-2506607Y166636D01*
X-2501303Y158697D01*
X-2493364Y153393D01*
X-2484000Y151530D01*
X-2470000D01*
Y195000D01*
D02*
G37*
G36*
X-2353940Y92530D02*
X-2387500D01*
Y45000D01*
X-2353940D01*
Y92530D01*
D02*
G37*
G36*
X-2853940D02*
X-2887500D01*
Y45000D01*
X-2853940D01*
Y92530D01*
D02*
G37*
G36*
X-2427500D02*
X-2461060D01*
Y45000D01*
X-2427500D01*
Y92530D01*
D02*
G37*
G36*
X-2927500D02*
X-2961060D01*
Y45000D01*
X-2927500D01*
Y92530D01*
D02*
G37*
G36*
X-2353940Y5000D02*
X-2387500D01*
Y-42530D01*
X-2353940D01*
Y5000D01*
D02*
G37*
G36*
X-2427500D02*
X-2461060D01*
Y-42530D01*
X-2427500D01*
Y5000D01*
D02*
G37*
G36*
X-2853940D02*
X-2887500D01*
Y-42530D01*
X-2853940D01*
Y5000D01*
D02*
G37*
G36*
X-2927500D02*
X-2961060D01*
Y-42530D01*
X-2927500D01*
Y5000D01*
D02*
G37*
G36*
X-2644440Y87030D02*
X-2740560D01*
Y-37030D01*
X-2732941D01*
Y-169908D01*
X-2741791Y-178758D01*
X-2747500Y-192541D01*
Y-207459D01*
X-2741791Y-221242D01*
X-2731242Y-231791D01*
X-2717459Y-237500D01*
X-2702541D01*
X-2688758Y-231791D01*
X-2678209Y-221242D01*
X-2672500Y-207459D01*
Y-192541D01*
X-2678209Y-178758D01*
X-2687059Y-169908D01*
Y-37030D01*
X-2644440D01*
Y87030D01*
D02*
G37*
G36*
X-2432541Y-262500D02*
X-2447459D01*
X-2461242Y-268209D01*
X-2471791Y-278758D01*
X-2477500Y-292541D01*
Y-307459D01*
X-2471791Y-321242D01*
X-2461242Y-331791D01*
X-2447459Y-337500D01*
X-2432541D01*
X-2418758Y-331791D01*
X-2408209Y-321242D01*
X-2402500Y-307459D01*
Y-292541D01*
X-2408209Y-278758D01*
X-2418758Y-268209D01*
X-2432541Y-262500D01*
D02*
G37*
G36*
X-2932541D02*
X-2947459D01*
X-2961242Y-268209D01*
X-2971791Y-278758D01*
X-2977500Y-292541D01*
Y-307459D01*
X-2971791Y-321242D01*
X-2961242Y-331791D01*
X-2947459Y-337500D01*
X-2932541D01*
X-2918758Y-331791D01*
X-2908209Y-321242D01*
X-2902500Y-307459D01*
Y-292541D01*
X-2908209Y-278758D01*
X-2918758Y-268209D01*
X-2932541Y-262500D01*
D02*
G37*
G36*
X-242541Y407500D02*
X-257459D01*
X-271242Y401791D01*
X-281791Y391242D01*
X-287500Y377459D01*
Y362541D01*
X-281791Y348758D01*
X-274941Y341908D01*
Y89438D01*
X-283625D01*
X-292355Y87702D01*
X-299757Y82757D01*
X-304702Y75355D01*
X-306439Y66625D01*
Y-280625D01*
X-304702Y-289355D01*
X-299757Y-296757D01*
X-292355Y-301702D01*
X-291113Y-301949D01*
X-290232Y-303401D01*
X-285730Y-322697D01*
X-291791Y-328758D01*
X-297500Y-342541D01*
Y-357459D01*
X-291791Y-371242D01*
X-281242Y-381791D01*
X-267459Y-387500D01*
X-252541D01*
X-238758Y-381791D01*
X-228209Y-371242D01*
X-222500Y-357459D01*
Y-342541D01*
X-228209Y-328758D01*
X-233529Y-323439D01*
X-226133Y-303439D01*
X-224375D01*
X-215645Y-301702D01*
X-208243Y-296757D01*
X-203298Y-289355D01*
X-201561Y-280625D01*
Y66625D01*
X-203298Y75355D01*
X-208243Y82757D01*
X-215645Y87702D01*
X-224375Y89438D01*
X-229059D01*
Y338084D01*
X-228758Y338209D01*
X-218209Y348758D01*
X-212500Y362541D01*
Y377459D01*
X-218209Y391242D01*
X-228758Y401791D01*
X-242541Y407500D01*
D02*
G37*
G36*
X-1062541Y-402500D02*
X-1077459D01*
X-1091242Y-408209D01*
X-1101791Y-418758D01*
X-1107500Y-432541D01*
Y-447459D01*
X-1101791Y-461242D01*
X-1091242Y-471791D01*
X-1077459Y-477500D01*
X-1062541D01*
X-1048758Y-471791D01*
X-1038209Y-461242D01*
X-1032500Y-447459D01*
Y-432541D01*
X-1038209Y-418758D01*
X-1048758Y-408209D01*
X-1062541Y-402500D01*
D02*
G37*
G36*
X-1162541D02*
X-1177459D01*
X-1191242Y-408209D01*
X-1201791Y-418758D01*
X-1207500Y-432541D01*
Y-447459D01*
X-1201791Y-461242D01*
X-1191242Y-471791D01*
X-1177459Y-477500D01*
X-1162541D01*
X-1148758Y-471791D01*
X-1138209Y-461242D01*
X-1132500Y-447459D01*
Y-432541D01*
X-1138209Y-418758D01*
X-1148758Y-408209D01*
X-1162541Y-402500D01*
D02*
G37*
G36*
X-2144440Y-362970D02*
X-2240560D01*
Y-487030D01*
X-2144440D01*
Y-362970D01*
D02*
G37*
G36*
X-2359440D02*
X-2455560D01*
Y-487030D01*
X-2359440D01*
Y-362970D01*
D02*
G37*
G36*
X-2644440D02*
X-2740560D01*
Y-487030D01*
X-2644440D01*
Y-362970D01*
D02*
G37*
G36*
X-2859440D02*
X-2955560D01*
Y-487030D01*
X-2859440D01*
Y-362970D01*
D02*
G37*
G36*
X-82541Y-412500D02*
X-97459D01*
X-111242Y-418209D01*
X-121791Y-428758D01*
X-127500Y-442541D01*
Y-457459D01*
X-121791Y-471242D01*
X-111242Y-481791D01*
X-97459Y-487500D01*
X-82541D01*
X-68758Y-481791D01*
X-58209Y-471242D01*
X-52500Y-457459D01*
Y-442541D01*
X-58209Y-428758D01*
X-68758Y-418209D01*
X-82541Y-412500D01*
D02*
G37*
G36*
X-252541D02*
X-267459D01*
X-281242Y-418209D01*
X-291791Y-428758D01*
X-297500Y-442541D01*
Y-457459D01*
X-291791Y-471242D01*
X-281242Y-481791D01*
X-267459Y-487500D01*
X-252541D01*
X-238758Y-481791D01*
X-228209Y-471242D01*
X-222500Y-457459D01*
Y-442541D01*
X-228209Y-428758D01*
X-238758Y-418209D01*
X-252541Y-412500D01*
D02*
G37*
G36*
X-3160455Y-387500D02*
X-3179545D01*
X-3197984Y-392441D01*
X-3214516Y-401986D01*
X-3228014Y-415484D01*
X-3237559Y-432016D01*
X-3242500Y-450455D01*
Y-469545D01*
X-3237559Y-487984D01*
X-3228014Y-504516D01*
X-3214516Y-518014D01*
X-3197984Y-527559D01*
X-3179545Y-532500D01*
X-3160455D01*
X-3142016Y-527559D01*
X-3125484Y-518014D01*
X-3111986Y-504516D01*
X-3105416Y-493137D01*
X-3067993D01*
X-3057459Y-497500D01*
X-3042541D01*
X-3028758Y-491791D01*
X-3018209Y-481242D01*
X-3012500Y-467459D01*
Y-452541D01*
X-3018209Y-438758D01*
X-3028758Y-428209D01*
X-3042541Y-422500D01*
X-3057459D01*
X-3067993Y-426863D01*
X-3105416D01*
X-3111986Y-415484D01*
X-3125484Y-401986D01*
X-3142016Y-392441D01*
X-3160455Y-387500D01*
D02*
G37*
G36*
X-1826000Y-721530D02*
X-1845001D01*
Y-759999D01*
X-1801530D01*
Y-746000D01*
X-1803393Y-736636D01*
X-1808697Y-728697D01*
X-1816636Y-723393D01*
X-1826000Y-721530D01*
D02*
G37*
G36*
X-1632541Y-572500D02*
X-1647459D01*
X-1661242Y-578209D01*
X-1671791Y-588758D01*
X-1677500Y-602541D01*
Y-617459D01*
X-1671791Y-631242D01*
X-1664940Y-638093D01*
X-1662751Y-650000D01*
X-1664940Y-661907D01*
X-1671791Y-668758D01*
X-1677500Y-682541D01*
Y-697459D01*
X-1671791Y-711242D01*
X-1664940Y-718093D01*
X-1662751Y-730000D01*
X-1664940Y-741907D01*
X-1671791Y-748758D01*
X-1677500Y-762541D01*
Y-777459D01*
X-1671791Y-791242D01*
X-1664940Y-798093D01*
X-1662751Y-810000D01*
X-1664940Y-821907D01*
X-1671791Y-828758D01*
X-1677500Y-842541D01*
Y-857459D01*
X-1671791Y-871242D01*
X-1661242Y-881791D01*
X-1647459Y-887500D01*
X-1632541D01*
X-1618758Y-881791D01*
X-1608209Y-871242D01*
X-1602500Y-857459D01*
Y-842541D01*
X-1608209Y-828758D01*
X-1615060Y-821907D01*
X-1617249Y-810000D01*
X-1615060Y-798093D01*
X-1608209Y-791242D01*
X-1602500Y-777459D01*
Y-762541D01*
X-1608209Y-748758D01*
X-1615060Y-741907D01*
X-1617249Y-730000D01*
X-1615060Y-718093D01*
X-1608209Y-711242D01*
X-1602500Y-697459D01*
Y-682541D01*
X-1608209Y-668758D01*
X-1615060Y-661907D01*
X-1617249Y-650000D01*
X-1615060Y-638093D01*
X-1608209Y-631242D01*
X-1602500Y-617459D01*
Y-602541D01*
X-1608209Y-588758D01*
X-1618758Y-578209D01*
X-1632541Y-572500D01*
D02*
G37*
G36*
X-2905000Y-871530D02*
X-2924000D01*
X-2933364Y-873392D01*
X-2941303Y-878697D01*
X-2946607Y-886636D01*
X-2948470Y-896000D01*
Y-910000D01*
X-2905000D01*
Y-871530D01*
D02*
G37*
G36*
X-2821530Y-950000D02*
X-2948470D01*
Y-964000D01*
X-2946607Y-973364D01*
X-2944352Y-976739D01*
X-2941303Y-981360D01*
Y-998640D01*
X-2944352Y-1003261D01*
X-2946607Y-1006636D01*
X-2948470Y-1016000D01*
Y-1030000D01*
X-2821530D01*
Y-1016000D01*
X-2823392Y-1006636D01*
X-2825647Y-1003261D01*
X-2828697Y-998640D01*
Y-981360D01*
X-2825647Y-976739D01*
X-2823392Y-973364D01*
X-2821530Y-964000D01*
Y-950000D01*
D02*
G37*
G36*
Y-1070000D02*
X-2948470D01*
Y-1084000D01*
X-2946607Y-1093364D01*
X-2944352Y-1096739D01*
X-2941303Y-1101360D01*
Y-1118640D01*
X-2944352Y-1123261D01*
X-2946607Y-1126636D01*
X-2948470Y-1136000D01*
Y-1150000D01*
X-2821530D01*
Y-1136000D01*
X-2823392Y-1126636D01*
X-2825647Y-1123261D01*
X-2828697Y-1118640D01*
Y-1101360D01*
X-2825647Y-1096739D01*
X-2823392Y-1093364D01*
X-2821530Y-1084000D01*
Y-1070000D01*
D02*
G37*
G36*
Y-1190000D02*
X-2948470D01*
Y-1204000D01*
X-2946607Y-1213364D01*
X-2941303Y-1221303D01*
X-2937433Y-1223889D01*
X-2935734Y-1232035D01*
Y-1237965D01*
X-2937433Y-1246111D01*
X-2941303Y-1248697D01*
X-2946607Y-1256636D01*
X-2948470Y-1266000D01*
Y-1280000D01*
X-2821530D01*
Y-1266000D01*
X-2823392Y-1256636D01*
X-2828697Y-1248697D01*
X-2832567Y-1246111D01*
X-2834266Y-1237965D01*
Y-1232035D01*
X-2832567Y-1223889D01*
X-2828697Y-1221303D01*
X-2823392Y-1213364D01*
X-2821530Y-1204000D01*
Y-1190000D01*
D02*
G37*
G36*
X-1569999Y-1342000D02*
X-1570486D01*
X-1610671Y-1349993D01*
X-1648525Y-1365673D01*
X-1682592Y-1388436D01*
X-1711564Y-1417408D01*
X-1734327Y-1451475D01*
X-1750006Y-1489329D01*
X-1758000Y-1529514D01*
Y-1529999D01*
X-1569999D01*
Y-1342000D01*
D02*
G37*
G36*
X-2021560Y-1704999D02*
X-2075000D01*
Y-1733441D01*
X-2044500D01*
X-2035721Y-1731694D01*
X-2028279Y-1726721D01*
X-2023306Y-1719279D01*
X-2021560Y-1710500D01*
Y-1704999D01*
D02*
G37*
G36*
X-2115000D02*
X-2168441D01*
Y-1710500D01*
X-2166694Y-1719279D01*
X-2161722Y-1726721D01*
X-2154279Y-1731694D01*
X-2145500Y-1733441D01*
X-2115000D01*
Y-1704999D01*
D02*
G37*
G36*
X-1569999Y-1569999D02*
X-1758000D01*
Y-1570486D01*
X-1750006Y-1610671D01*
X-1734327Y-1648525D01*
X-1711564Y-1682592D01*
X-1682592Y-1711564D01*
X-1648525Y-1734327D01*
X-1610671Y-1750006D01*
X-1570486Y-1758000D01*
X-1569999D01*
Y-1569999D01*
D02*
G37*
G36*
X-2086750Y-1801516D02*
X-2105000D01*
Y-1870000D01*
X-2061515D01*
Y-1826750D01*
X-2063436Y-1817093D01*
X-2068906Y-1808907D01*
X-2077093Y-1803437D01*
X-2086750Y-1801516D01*
D02*
G37*
G36*
X-2145000D02*
X-2163250D01*
X-2172907Y-1803437D01*
X-2181094Y-1808907D01*
X-2186564Y-1817093D01*
X-2188485Y-1826750D01*
Y-1870000D01*
X-2145000D01*
Y-1801516D01*
D02*
G37*
G36*
X-2061515Y-1910000D02*
X-2105000D01*
Y-1978485D01*
X-2086750D01*
X-2077093Y-1976564D01*
X-2068906Y-1971094D01*
X-2063436Y-1962907D01*
X-2061515Y-1953250D01*
Y-1910000D01*
D02*
G37*
G36*
X-2145000D02*
X-2188485D01*
Y-1953250D01*
X-2187300Y-1959206D01*
X-2186564Y-1962907D01*
D01*
X-2181094Y-1971094D01*
X-2172907Y-1976564D01*
X-2163250Y-1978485D01*
X-2145000D01*
Y-1910000D01*
D02*
G37*
G36*
X-2086750Y-2001515D02*
X-2105000D01*
Y-2070000D01*
X-2061515D01*
Y-2026750D01*
X-2063436Y-2017093D01*
X-2068906Y-2008907D01*
X-2077093Y-2003436D01*
X-2086750Y-2001515D01*
D02*
G37*
G36*
X-2145000D02*
X-2163250D01*
X-2172907Y-2003436D01*
X-2181094Y-2008907D01*
X-2186564Y-2017093D01*
X-2188485Y-2026750D01*
Y-2070000D01*
X-2145000D01*
D01*
Y-2001515D01*
D02*
G37*
G36*
X-2061515Y-2110000D02*
X-2105000D01*
Y-2178485D01*
X-2086750D01*
X-2077093Y-2176564D01*
X-2068906Y-2171094D01*
X-2063436Y-2162907D01*
X-2061515Y-2153250D01*
Y-2110000D01*
D02*
G37*
G36*
X-2145000D02*
X-2188485D01*
Y-2153250D01*
X-2187300Y-2159205D01*
X-2186564Y-2162907D01*
D01*
X-2181094Y-2171094D01*
X-2172907Y-2176564D01*
X-2163250Y-2178485D01*
X-2145000D01*
Y-2110000D01*
D02*
G37*
G36*
X-1562541Y-2022500D02*
X-1577459D01*
X-1591242Y-2028209D01*
X-1601791Y-2038758D01*
X-1607500Y-2052541D01*
Y-2067459D01*
X-1601791Y-2081242D01*
X-1591242Y-2091791D01*
X-1585484Y-2094176D01*
Y-2115824D01*
X-1591242Y-2118209D01*
X-1601791Y-2128758D01*
X-1607500Y-2142541D01*
Y-2157459D01*
X-1601791Y-2171242D01*
X-1591242Y-2181791D01*
X-1577459Y-2187500D01*
X-1562541D01*
X-1548758Y-2181791D01*
X-1538209Y-2171242D01*
X-1532500Y-2157459D01*
Y-2142541D01*
X-1538209Y-2128758D01*
X-1548758Y-2118209D01*
X-1554516Y-2115824D01*
Y-2094176D01*
X-1548758Y-2091791D01*
X-1538209Y-2081242D01*
X-1532500Y-2067459D01*
Y-2052541D01*
X-1538209Y-2038758D01*
X-1548758Y-2028209D01*
X-1562541Y-2022500D01*
D02*
G37*
G36*
X1397459Y2447500D02*
X1382541D01*
X1368758Y2441791D01*
X1358209Y2431242D01*
X1352500Y2417459D01*
Y2402541D01*
X1358209Y2388758D01*
X1368758Y2378209D01*
X1382541Y2372500D01*
X1397459D01*
X1411242Y2378209D01*
X1421791Y2388758D01*
X1427500Y2402541D01*
Y2417459D01*
X1421791Y2431242D01*
X1411242Y2441791D01*
X1397459Y2447500D01*
D02*
G37*
G36*
X1904999Y1557500D02*
X1892000D01*
Y1522000D01*
X1904999D01*
Y1557500D01*
D02*
G37*
G36*
X2124000Y1858470D02*
X2104999D01*
Y1820000D01*
X2148470D01*
Y1834000D01*
X2146607Y1843364D01*
X2141303Y1851303D01*
X2133364Y1856607D01*
X2124000Y1858470D01*
D02*
G37*
G36*
X2148470Y1780001D02*
X2104999D01*
Y1741530D01*
X2124000D01*
X2133364Y1743392D01*
X2141303Y1748697D01*
X2146607Y1756636D01*
X2148470Y1766000D01*
Y1780001D01*
D02*
G37*
G36*
X2124000Y908470D02*
X2104999D01*
Y870001D01*
X2148470D01*
Y884000D01*
X2146607Y893364D01*
X2141303Y901303D01*
X2133364Y906608D01*
X2124000Y908470D01*
D02*
G37*
G36*
Y608470D02*
X2104999D01*
Y570000D01*
X2148470D01*
Y584000D01*
X2146607Y593364D01*
X2141303Y601303D01*
X2133364Y606607D01*
X2124000Y608470D01*
D02*
G37*
G36*
X2148470Y530000D02*
X2104999D01*
Y491530D01*
X2124000D01*
X2133364Y493392D01*
X2141303Y498697D01*
X2146607Y506636D01*
X2148470Y516000D01*
Y530000D01*
D02*
G37*
G36*
X1904999Y307500D02*
X1892000D01*
Y272000D01*
X1904999D01*
Y307500D01*
D02*
G37*
G36*
X1926250Y-56574D02*
X1920000D01*
Y-80000D01*
X1948426D01*
Y-78750D01*
X1946738Y-70264D01*
X1941931Y-63069D01*
X1934736Y-58262D01*
X1926250Y-56574D01*
D02*
G37*
G36*
X1880000D02*
X1873750D01*
X1865264Y-58262D01*
X1858069Y-63069D01*
X1853262Y-70264D01*
X1851574Y-78750D01*
Y-80000D01*
X1880000D01*
Y-56574D01*
D02*
G37*
G36*
X957459Y407500D02*
X942541D01*
X928758Y401791D01*
X918209Y391242D01*
X912500Y377459D01*
Y362541D01*
X918209Y348758D01*
X925059Y341908D01*
Y89438D01*
X916375D01*
X907645Y87702D01*
X900243Y82757D01*
X895298Y75355D01*
X893561Y66625D01*
Y-280625D01*
X895298Y-289355D01*
X900243Y-296757D01*
X907645Y-301702D01*
X916375Y-303439D01*
X975625D01*
X984355Y-301702D01*
X991756Y-296757D01*
X996702Y-289355D01*
X998438Y-280625D01*
Y66625D01*
X996702Y75355D01*
X991756Y82757D01*
X984355Y87702D01*
X975625Y89438D01*
X970941D01*
Y338084D01*
X971242Y338209D01*
X981791Y348758D01*
X987500Y362541D01*
Y377459D01*
X981791Y391242D01*
X971242Y401791D01*
X957459Y407500D01*
D02*
G37*
G36*
X2839115Y-679628D02*
X2820915Y-679628D01*
X2802349Y-684602D01*
X2785703Y-694213D01*
X2772111Y-707804D01*
X2762500Y-724451D01*
X2760587Y-729070D01*
X2810135Y-749593D01*
X2839115Y-679628D01*
D02*
G37*
G36*
X2155000Y-741530D02*
X2136000D01*
X2126636Y-743392D01*
X2118697Y-748697D01*
X2113393Y-756636D01*
X2111530Y-766000D01*
Y-780000D01*
X2155000D01*
Y-741530D01*
D02*
G37*
G36*
X2876070Y-694935D02*
X2847090Y-764900D01*
X2896637Y-785424D01*
X2898551Y-780804D01*
X2903526Y-762238D01*
X2903525Y-743017D01*
X2898551Y-724450D01*
X2888940Y-707805D01*
X2876070Y-694935D01*
D02*
G37*
G36*
X2745280Y-766025D02*
X2743366Y-770644D01*
X2738392Y-789211D01*
X2738392Y-808432D01*
X2741714Y-820833D01*
X2729779Y-833950D01*
X2725906Y-835932D01*
X2710917Y-829724D01*
X2705942Y-841735D01*
X2775695Y-870627D01*
X2845448Y-899520D01*
X2850423Y-887509D01*
X2845598Y-885511D01*
X2844260Y-881370D01*
X2845096Y-863655D01*
X2856215Y-857236D01*
X2869806Y-843644D01*
X2879417Y-826998D01*
X2881330Y-822379D01*
X2813305Y-794202D01*
X2745280Y-766025D01*
D02*
G37*
G36*
X2155000Y-820000D02*
X2111530D01*
Y-834000D01*
X2113393Y-843364D01*
X2118697Y-851303D01*
X2126636Y-856607D01*
X2136000Y-858470D01*
X2155000D01*
Y-820000D01*
D02*
G37*
G36*
X3103345Y-789075D02*
X3085144D01*
X3066578Y-794050D01*
X3049932Y-803661D01*
X3036341Y-817252D01*
X3026730Y-833898D01*
X3024817Y-838518D01*
X3074364Y-859041D01*
X3103345Y-789075D01*
D02*
G37*
G36*
X2962621Y-782448D02*
X2943525D01*
X2925883Y-789756D01*
X2912381Y-803258D01*
X2905073Y-820900D01*
Y-839996D01*
X2912381Y-857638D01*
X2925883Y-871141D01*
X2943525Y-878448D01*
X2962621D01*
X2980263Y-871141D01*
X2993766Y-857638D01*
X3001073Y-839996D01*
Y-820900D01*
X2993766Y-803258D01*
X2980263Y-789756D01*
X2962621Y-782448D01*
D02*
G37*
G36*
X3140300Y-804382D02*
X3111319Y-874348D01*
X3160867Y-894871D01*
X3162780Y-890252D01*
X3167755Y-871685D01*
X3167755Y-852464D01*
X3162780Y-833898D01*
X3153170Y-817252D01*
X3140300Y-804382D01*
D02*
G37*
G36*
X2214000Y-741530D02*
X2195000D01*
Y-800000D01*
Y-858470D01*
X2214000D01*
X2216887Y-857896D01*
X2222619Y-857592D01*
X2222920Y-857823D01*
X2228209Y-878758D01*
X2222500Y-892541D01*
Y-895793D01*
X2203487Y-902005D01*
X2200865Y-900980D01*
X2197133Y-898486D01*
X2190500Y-897167D01*
X2139500D01*
X2132867Y-898486D01*
X2127244Y-902244D01*
X2123486Y-907867D01*
X2122167Y-914500D01*
Y-1015500D01*
X2123486Y-1022133D01*
X2127243Y-1027756D01*
X2127844Y-1029979D01*
X2118249Y-1048777D01*
X2079300D01*
X2010622Y-980099D01*
Y-955910D01*
X2010622Y-955909D01*
Y-949007D01*
X2023553Y-943651D01*
X2034102Y-933102D01*
X2039812Y-919319D01*
Y-904401D01*
X2034102Y-890618D01*
X2023553Y-880069D01*
X2009771Y-874360D01*
X1994852D01*
X1981069Y-880069D01*
X1971062Y-890077D01*
X1961053Y-880069D01*
X1947271Y-874360D01*
X1932352D01*
X1918569Y-880069D01*
X1908021Y-890618D01*
X1902311Y-904401D01*
Y-919319D01*
X1908021Y-933102D01*
X1918569Y-943651D01*
X1931501Y-949007D01*
Y-972761D01*
X1931501Y-972762D01*
Y-1004911D01*
X1932964Y-1012266D01*
X1937130Y-1018501D01*
X2040897Y-1122268D01*
X2040898Y-1122269D01*
X2047133Y-1126435D01*
X2054488Y-1127898D01*
X2054489Y-1127898D01*
X2132924D01*
X2145781Y-1140754D01*
Y-1167167D01*
X2139500D01*
X2132867Y-1168486D01*
X2127244Y-1172244D01*
X2123486Y-1177867D01*
X2122167Y-1184500D01*
Y-1285500D01*
X2123486Y-1292133D01*
X2127244Y-1297756D01*
X2132867Y-1301514D01*
X2139500Y-1302833D01*
X2190500D01*
X2195952Y-1301749D01*
X2197134Y-1301514D01*
X2215107Y-1301691D01*
X2221079Y-1303593D01*
X2225721Y-1306694D01*
X2234500Y-1308441D01*
X2240001D01*
Y-1235000D01*
X2280001D01*
Y-1308441D01*
X2285500D01*
X2294279Y-1306694D01*
X2298921Y-1303593D01*
X2304893Y-1301691D01*
X2312564Y-1301615D01*
X2332059Y-1317682D01*
Y-1337138D01*
X2306000D01*
X2298782Y-1338573D01*
X2292662Y-1342662D01*
X2288574Y-1348781D01*
X2280032Y-1356475D01*
X2240032D01*
X2236608Y-1346636D01*
X2231303Y-1338697D01*
X2223364Y-1333393D01*
X2214000Y-1331530D01*
X2195000D01*
Y-1390000D01*
Y-1448470D01*
X2214000D01*
X2223364Y-1446607D01*
X2231303Y-1441303D01*
X2236608Y-1433364D01*
X2240032Y-1423535D01*
X2280032D01*
X2288574Y-1431219D01*
X2292662Y-1437338D01*
X2298782Y-1441427D01*
X2306000Y-1442862D01*
X2384000D01*
X2391218Y-1441427D01*
X2397338Y-1437338D01*
X2401427Y-1431218D01*
X2402863Y-1424000D01*
Y-1356000D01*
X2401427Y-1348782D01*
X2397338Y-1342662D01*
X2391218Y-1338573D01*
X2384000Y-1337138D01*
X2377941D01*
Y-1302833D01*
X2380500D01*
X2387133Y-1301514D01*
X2392756Y-1297756D01*
X2396514Y-1292133D01*
X2397833Y-1285500D01*
Y-1212941D01*
X2540137D01*
X2551249Y-1229570D01*
X2539773Y-1257275D01*
X2669116Y-1310851D01*
X2669116Y-1310851D01*
X2674393Y-1308666D01*
X2712500Y-1324452D01*
Y-1327459D01*
X2718209Y-1341242D01*
X2728758Y-1351791D01*
X2742541Y-1357500D01*
X2757459D01*
X2771242Y-1351791D01*
X2773367Y-1349666D01*
X2815709Y-1367206D01*
X2814165Y-1370932D01*
X2943509Y-1424508D01*
X2962643Y-1378314D01*
X2962643D01*
X2981777Y-1332120D01*
X2981777D01*
X2993840Y-1302997D01*
X3000911Y-1285926D01*
X3007982Y-1268855D01*
X3019400Y-1241290D01*
X3037877Y-1239276D01*
X3053383Y-1242360D01*
X3068023D01*
X3083531Y-1239275D01*
X3086164Y-1237515D01*
X3093468Y-1232635D01*
X3096677Y-1230491D01*
X3105072Y-1217928D01*
X3105071Y-1217927D01*
X3104942Y-1217660D01*
X3127504Y-1165016D01*
X3127744Y-1165119D01*
X3128024Y-1164700D01*
X3131095Y-1149254D01*
X3131108Y-1149193D01*
X3130587Y-1146573D01*
X3128951Y-1138353D01*
X3128751Y-1136673D01*
X3128735Y-1136625D01*
X3128700Y-1136563D01*
X3128691Y-1136491D01*
X3123394Y-1120601D01*
X3123226Y-1120306D01*
X3122727Y-1117795D01*
X3116483Y-1108452D01*
X3113942Y-1104649D01*
X3101983Y-1096657D01*
X3101749Y-1096664D01*
X2764018Y-944929D01*
X2763696Y-944855D01*
X2763421Y-944671D01*
X2759525Y-943896D01*
X2755650Y-943005D01*
X2755324Y-943060D01*
X2755000Y-942996D01*
X2397833D01*
Y-914500D01*
X2396514Y-907867D01*
X2392756Y-902244D01*
X2387133Y-898486D01*
X2380500Y-897167D01*
X2377004D01*
Y-852862D01*
X2384000D01*
X2391218Y-851427D01*
X2397338Y-847338D01*
X2401427Y-841218D01*
X2402863Y-834000D01*
Y-766000D01*
X2401427Y-758782D01*
X2397338Y-752662D01*
X2391218Y-748573D01*
X2384000Y-747137D01*
X2306000D01*
X2298782Y-748573D01*
X2292662Y-752662D01*
X2288574Y-758781D01*
X2280004Y-766470D01*
X2240005D01*
X2236608Y-756636D01*
X2231303Y-748697D01*
X2223364Y-743392D01*
X2214000Y-741530D01*
D02*
G37*
G36*
X2690635Y-878690D02*
X2685660Y-890700D01*
X2736936Y-911939D01*
X2741910Y-899929D01*
X2690635Y-878690D01*
D02*
G37*
G36*
X3009509Y-875473D02*
X3007596Y-880092D01*
X3002621Y-898658D01*
X3002621Y-917879D01*
X3005944Y-930280D01*
X2994008Y-943398D01*
X2990135Y-945380D01*
X2985310Y-943381D01*
X2980335Y-955392D01*
X3050088Y-984284D01*
X3119841Y-1013177D01*
X3124815Y-1001166D01*
X3109827Y-994958D01*
X3108490Y-990817D01*
X3109326Y-973102D01*
X3120444Y-966683D01*
X3134036Y-953092D01*
X3143646Y-936445D01*
X3145559Y-931826D01*
X3077534Y-903650D01*
X3009509Y-875473D01*
D02*
G37*
G36*
X2778865Y-915236D02*
X2773891Y-927246D01*
X2825166Y-948485D01*
X2830141Y-936475D01*
X2778865Y-915236D01*
D02*
G37*
G36*
X2965028Y-992347D02*
X2960053Y-1004357D01*
X3011328Y-1025596D01*
X3016303Y-1013585D01*
X2965028Y-992347D01*
D02*
G37*
G36*
X3053258Y-1028893D02*
X3048283Y-1040903D01*
X3099558Y-1062142D01*
X3104533Y-1050132D01*
X3053258Y-1028893D01*
D02*
G37*
G36*
X2155000Y-1331530D02*
X2136000D01*
X2126636Y-1333393D01*
X2118697Y-1338697D01*
X2113393Y-1346636D01*
X2111530Y-1356000D01*
Y-1370000D01*
X2155000D01*
Y-1331530D01*
D02*
G37*
G36*
X2500442Y-1337858D02*
X2495467Y-1349868D01*
X2546742Y-1371106D01*
X2551717Y-1359097D01*
X2500442Y-1337858D01*
D02*
G37*
G36*
X2588672Y-1374404D02*
X2583697Y-1386414D01*
X2634973Y-1407653D01*
X2639947Y-1395643D01*
X2588672Y-1374404D01*
D02*
G37*
G36*
X2155000Y-1410000D02*
X2111530D01*
Y-1424000D01*
X2113393Y-1433364D01*
X2118697Y-1441303D01*
X2126636Y-1446607D01*
X2136000Y-1448470D01*
X2155000D01*
Y-1410000D01*
D02*
G37*
G36*
X2480160Y-1386823D02*
X2475185Y-1398834D01*
X2490173Y-1405042D01*
X2491510Y-1409183D01*
X2490674Y-1426898D01*
X2479556Y-1433317D01*
X2465964Y-1446908D01*
X2456354Y-1463554D01*
X2454440Y-1468174D01*
X2522466Y-1496351D01*
X2590491Y-1524527D01*
X2592404Y-1519908D01*
X2597379Y-1501342D01*
X2597379Y-1482120D01*
X2594056Y-1469720D01*
X2605991Y-1456602D01*
X2609865Y-1454620D01*
X2614690Y-1456619D01*
X2619665Y-1444608D01*
X2549912Y-1415715D01*
X2480160Y-1386823D01*
D02*
G37*
G36*
X2774834Y-1451514D02*
X2769859Y-1463525D01*
X2821135Y-1484764D01*
X2826110Y-1472754D01*
X2774834Y-1451514D01*
D02*
G37*
G36*
X2863065Y-1488061D02*
X2858090Y-1500071D01*
X2909365Y-1521310D01*
X2914340Y-1509300D01*
X2863065Y-1488061D01*
D02*
G37*
G36*
X1570486Y-1342000D02*
X1570000D01*
Y-1529999D01*
X1758000D01*
Y-1529514D01*
X1750006Y-1489329D01*
X1734327Y-1451475D01*
X1711564Y-1417408D01*
X1682592Y-1388436D01*
X1648525Y-1365673D01*
X1610671Y-1349993D01*
X1570486Y-1342000D01*
D02*
G37*
G36*
X2754552Y-1500480D02*
X2749577Y-1512490D01*
X2754402Y-1514489D01*
X2755740Y-1518630D01*
X2754904Y-1536345D01*
X2743785Y-1542764D01*
X2730194Y-1556355D01*
X2720583Y-1573002D01*
X2718670Y-1577621D01*
X2786695Y-1605798D01*
X2854720Y-1633975D01*
X2856634Y-1629355D01*
X2861608Y-1610789D01*
X2861608Y-1591568D01*
X2858286Y-1579167D01*
X2870221Y-1566049D01*
X2874094Y-1564067D01*
X2889083Y-1570276D01*
X2894057Y-1558265D01*
X2824305Y-1529373D01*
X2754552Y-1500480D01*
D02*
G37*
G36*
X2439133Y-1505129D02*
X2437220Y-1509748D01*
X2432245Y-1528314D01*
X2432245Y-1547536D01*
X2437220Y-1566102D01*
X2446830Y-1582748D01*
X2459700Y-1595618D01*
X2488681Y-1525652D01*
X2439133Y-1505129D01*
D02*
G37*
G36*
X2525636Y-1540959D02*
X2496655Y-1610925D01*
X2514856D01*
X2533422Y-1605950D01*
X2550068Y-1596339D01*
X2563659Y-1582748D01*
X2573270Y-1566102D01*
X2575183Y-1561483D01*
X2525636Y-1540959D01*
D02*
G37*
G36*
X2656474Y-1521551D02*
X2637379D01*
X2619737Y-1528859D01*
X2606234Y-1542362D01*
X2598926Y-1560004D01*
Y-1579099D01*
X2606234Y-1596742D01*
X2619737Y-1610244D01*
X2637379Y-1617552D01*
X2656474D01*
X2674117Y-1610244D01*
X2687619Y-1596742D01*
X2694927Y-1579099D01*
Y-1560004D01*
X2687619Y-1542362D01*
X2674117Y-1528859D01*
X2656474Y-1521551D01*
D02*
G37*
G36*
X2703363Y-1614576D02*
X2701449Y-1619195D01*
X2696474Y-1637762D01*
X2696475Y-1656983D01*
X2701449Y-1675549D01*
X2711060Y-1692195D01*
X2723929Y-1705065D01*
X2752910Y-1635099D01*
X2703363Y-1614576D01*
D02*
G37*
G36*
X2789865Y-1650406D02*
X2760884Y-1720372D01*
X2779085Y-1720372D01*
X2797651Y-1715397D01*
X2814297Y-1705787D01*
X2827889Y-1692195D01*
X2837500Y-1675549D01*
X2839413Y-1670930D01*
X2789865Y-1650406D01*
D02*
G37*
G36*
X1758000Y-1569999D02*
X1570000D01*
Y-1758000D01*
X1570486D01*
X1610671Y-1750006D01*
X1648525Y-1734327D01*
X1682592Y-1711564D01*
X1711564Y-1682592D01*
X1734327Y-1648525D01*
X1750006Y-1610671D01*
X1758000Y-1570486D01*
Y-1569999D01*
D02*
G37*
G36*
X1530000D02*
X1342000D01*
Y-1570486D01*
X1349993Y-1610671D01*
X1365673Y-1648525D01*
X1388436Y-1682592D01*
X1417408Y-1711564D01*
X1451475Y-1734327D01*
X1489329Y-1750006D01*
X1529514Y-1758000D01*
X1530000D01*
Y-1569999D01*
D02*
G37*
G36*
X1925500Y-1810559D02*
X1920000D01*
Y-1861500D01*
X1948441D01*
Y-1833500D01*
X1946694Y-1824721D01*
X1941722Y-1817279D01*
X1934279Y-1812306D01*
X1925500Y-1810559D01*
D02*
G37*
G36*
X1880000D02*
X1874500D01*
X1865721Y-1812306D01*
X1858278Y-1817279D01*
X1853306Y-1824721D01*
X1851559Y-1833500D01*
Y-1861500D01*
X1880000D01*
Y-1810559D01*
D02*
G37*
G36*
X1027459Y-1882500D02*
X1012541D01*
X998758Y-1888209D01*
X988209Y-1898758D01*
X982500Y-1912541D01*
Y-1927459D01*
X988209Y-1941242D01*
X998758Y-1951791D01*
X1012541Y-1957500D01*
X1027459D01*
X1041242Y-1951791D01*
X1051791Y-1941242D01*
X1057500Y-1927459D01*
Y-1912541D01*
X1051791Y-1898758D01*
X1041242Y-1888209D01*
X1027459Y-1882500D01*
D02*
G37*
G36*
X187459Y-2022500D02*
X172541D01*
X158758Y-2028209D01*
X148209Y-2038758D01*
X142500Y-2052541D01*
Y-2067459D01*
X148209Y-2081242D01*
X158758Y-2091791D01*
X172541Y-2097500D01*
X187459D01*
X201242Y-2091791D01*
X211791Y-2081242D01*
X217500Y-2067459D01*
Y-2052541D01*
X211791Y-2038758D01*
X201242Y-2028209D01*
X187459Y-2022500D01*
D02*
G37*
G36*
X1948441Y-1901500D02*
X1900000D01*
X1851559D01*
Y-1929500D01*
X1845839Y-1936470D01*
X1820000D01*
X1810433Y-1940433D01*
X1806470Y-1950000D01*
Y-1966479D01*
X1797459Y-1972500D01*
X1782541D01*
X1768758Y-1978209D01*
X1758209Y-1988758D01*
X1752500Y-2002541D01*
Y-2017459D01*
X1758209Y-2031242D01*
X1764315Y-2037348D01*
X1766535Y-2053191D01*
X1764853Y-2061821D01*
X1763486Y-2063867D01*
X1762167Y-2070500D01*
Y-2151390D01*
X1756779Y-2156778D01*
X1751806Y-2164221D01*
X1750059Y-2173000D01*
Y-2187500D01*
X1675500D01*
Y-2412500D01*
X1870500D01*
Y-2187500D01*
X1860968D01*
X1856694Y-2183251D01*
X1847634Y-2167500D01*
X1847833Y-2166500D01*
Y-2070500D01*
X1866839Y-2063530D01*
X1933161D01*
X1952167Y-2070500D01*
Y-2166500D01*
X1953486Y-2173133D01*
X1957244Y-2178756D01*
X1962867Y-2182514D01*
X1967579Y-2183451D01*
X1970412Y-2189684D01*
X1972618Y-2203833D01*
X1957462Y-2215462D01*
X1941834Y-2235829D01*
X1932010Y-2259547D01*
X1928659Y-2285000D01*
Y-2315000D01*
X1932010Y-2340453D01*
X1941834Y-2364171D01*
X1957462Y-2384538D01*
X1977830Y-2400166D01*
X2001548Y-2409991D01*
X2027000Y-2413341D01*
X2052453Y-2409991D01*
X2076171Y-2400166D01*
X2096538Y-2384538D01*
X2112166Y-2364171D01*
X2121991Y-2340453D01*
X2125341Y-2315000D01*
Y-2285000D01*
X2121991Y-2259547D01*
X2112166Y-2235829D01*
X2096538Y-2215462D01*
X2076171Y-2199834D01*
X2052453Y-2190009D01*
X2049941Y-2189679D01*
Y-2173000D01*
X2048195Y-2164221D01*
X2043222Y-2156778D01*
X2037833Y-2151389D01*
Y-2070500D01*
X2036514Y-2063867D01*
X2035147Y-2061822D01*
X2033465Y-2053191D01*
X2035686Y-2037348D01*
X2041791Y-2031242D01*
X2047501Y-2017459D01*
Y-2002541D01*
X2041791Y-1988758D01*
X2031243Y-1978209D01*
X2017460Y-1972500D01*
X2002542D01*
X1993530Y-1966479D01*
Y-1950000D01*
X1989567Y-1940433D01*
X1980000Y-1936470D01*
X1954161D01*
X1948441Y-1929500D01*
Y-1901500D01*
D02*
G37*
G36*
X187459Y-2402500D02*
X172541D01*
X158758Y-2408209D01*
X148209Y-2418758D01*
X142500Y-2432541D01*
Y-2447459D01*
X148209Y-2461242D01*
X158758Y-2471791D01*
X172541Y-2477500D01*
X187459D01*
X201242Y-2471791D01*
X211791Y-2461242D01*
X217500Y-2447459D01*
Y-2432541D01*
X211791Y-2418758D01*
X201242Y-2408209D01*
X187459Y-2402500D01*
D02*
G37*
G36*
X1327459Y-2562500D02*
X1312541D01*
X1298758Y-2568209D01*
X1288209Y-2578758D01*
X1282500Y-2592541D01*
Y-2607459D01*
X1288209Y-2621242D01*
X1298758Y-2631791D01*
X1312541Y-2637500D01*
X1327459D01*
X1341242Y-2631791D01*
X1351791Y-2621242D01*
X1357500Y-2607459D01*
Y-2592541D01*
X1351791Y-2578758D01*
X1341242Y-2568209D01*
X1327459Y-2562500D01*
D02*
G37*
G36*
X420486Y-2792000D02*
X420000D01*
Y-2980001D01*
X608000D01*
Y-2979514D01*
X600006Y-2939329D01*
X584327Y-2901475D01*
X561564Y-2867408D01*
X532592Y-2838436D01*
X498525Y-2815673D01*
X460671Y-2799994D01*
X420486Y-2792000D01*
D02*
G37*
G36*
X380000D02*
X379514D01*
X339329Y-2799994D01*
X301475Y-2815673D01*
X267408Y-2838436D01*
X238436Y-2867408D01*
X215673Y-2901475D01*
X199994Y-2939329D01*
X192000Y-2979514D01*
Y-2980001D01*
X380000D01*
Y-2792000D01*
D02*
G37*
G36*
X608000Y-3020001D02*
X420000D01*
Y-3208000D01*
X420486D01*
X460671Y-3200007D01*
X498525Y-3184327D01*
X532592Y-3161564D01*
X561564Y-3132592D01*
X584327Y-3098525D01*
X600006Y-3060671D01*
X608000Y-3020486D01*
Y-3020001D01*
D02*
G37*
G36*
X380000D02*
X192000D01*
Y-3020486D01*
X199994Y-3060671D01*
X215673Y-3098525D01*
X238436Y-3132592D01*
X267408Y-3161564D01*
X301475Y-3184327D01*
X339329Y-3200007D01*
X379514Y-3208000D01*
X380000D01*
Y-3020001D01*
D02*
G37*
G36*
X-1529514Y1758000D02*
X-1529999D01*
Y1570000D01*
X-1342000D01*
Y1570486D01*
X-1349993Y1610671D01*
X-1365673Y1648525D01*
X-1388436Y1682592D01*
X-1417408Y1711564D01*
X-1451475Y1734327D01*
X-1489329Y1750006D01*
X-1529514Y1758000D01*
D02*
G37*
G36*
X-1569999D02*
X-1570486D01*
X-1610671Y1750006D01*
X-1648525Y1734327D01*
X-1682592Y1711564D01*
X-1711564Y1682592D01*
X-1734327Y1648525D01*
X-1750006Y1610671D01*
X-1758000Y1570486D01*
Y1570000D01*
X-1569999D01*
Y1758000D01*
D02*
G37*
G36*
X1570486D02*
X1570000D01*
Y1570000D01*
X1758000D01*
Y1570486D01*
X1750006Y1610671D01*
X1734327Y1648525D01*
X1711564Y1682592D01*
X1682592Y1711564D01*
X1648525Y1734327D01*
X1610671Y1750006D01*
X1570486Y1758000D01*
D02*
G37*
G36*
X1530000D02*
X1529514D01*
X1489329Y1750006D01*
X1451475Y1734327D01*
X1417408Y1711564D01*
X1388436Y1682592D01*
X1365673Y1648525D01*
X1349993Y1610671D01*
X1342000Y1570486D01*
Y1570000D01*
X1530000D01*
Y1758000D01*
D02*
G37*
G36*
X1364811Y-787500D02*
X1335189D01*
X1306577Y-795167D01*
X1280923Y-809978D01*
X1259978Y-830923D01*
X1245167Y-856577D01*
X1237500Y-885189D01*
Y-914811D01*
X1245167Y-943423D01*
X1259978Y-969077D01*
X1280923Y-990022D01*
X1306577Y-1004833D01*
X1335189Y-1012500D01*
X1364811D01*
X1393423Y-1004833D01*
X1419077Y-990022D01*
X1440023Y-969077D01*
X1454834Y-943423D01*
X1462500Y-914811D01*
Y-885189D01*
X1454834Y-856577D01*
X1440023Y-830923D01*
X1419077Y-809978D01*
X1393423Y-795167D01*
X1364811Y-787500D01*
D02*
G37*
G36*
X264811D02*
X235189D01*
X206577Y-795167D01*
X180923Y-809978D01*
X159978Y-830923D01*
X145167Y-856577D01*
X137500Y-885189D01*
Y-914811D01*
X145167Y-943423D01*
X159978Y-969077D01*
X180923Y-990022D01*
X206577Y-1004833D01*
X235189Y-1012500D01*
X264811D01*
X293423Y-1004833D01*
X319077Y-990022D01*
X340022Y-969077D01*
X354833Y-943423D01*
X362500Y-914811D01*
Y-885189D01*
X354833Y-856577D01*
X340022Y-830923D01*
X319077Y-809978D01*
X293423Y-795167D01*
X264811Y-787500D01*
D02*
G37*
G36*
X-835189D02*
X-864811D01*
X-893423Y-795167D01*
X-919077Y-809978D01*
X-940023Y-830923D01*
X-954833Y-856577D01*
X-962500Y-885189D01*
Y-914811D01*
X-954833Y-943423D01*
X-940023Y-969077D01*
X-919077Y-990022D01*
X-893423Y-1004833D01*
X-864811Y-1012500D01*
X-835189D01*
X-806577Y-1004833D01*
X-780923Y-990022D01*
X-759978Y-969077D01*
X-745167Y-943423D01*
X-737500Y-914811D01*
Y-885189D01*
X-745167Y-856577D01*
X-759978Y-830923D01*
X-780923Y-809978D01*
X-806577Y-795167D01*
X-835189Y-787500D01*
D02*
G37*
G36*
X814811Y-1687500D02*
X785189D01*
X756577Y-1695167D01*
X730923Y-1709978D01*
X709977Y-1730923D01*
X695167Y-1756577D01*
X687500Y-1785189D01*
Y-1814811D01*
X695167Y-1843423D01*
X709977Y-1869077D01*
X730923Y-1890022D01*
X756577Y-1904833D01*
X785189Y-1912500D01*
X814811D01*
X843423Y-1904833D01*
X869077Y-1890022D01*
X890022Y-1869077D01*
X904833Y-1843423D01*
X912500Y-1814811D01*
Y-1785189D01*
X904833Y-1756577D01*
X890022Y-1730923D01*
X869077Y-1709978D01*
X843423Y-1695167D01*
X814811Y-1687500D01*
D02*
G37*
G36*
X-285189D02*
X-314811D01*
X-343423Y-1695167D01*
X-369077Y-1709978D01*
X-390022Y-1730923D01*
X-404833Y-1756577D01*
X-412500Y-1785189D01*
Y-1814811D01*
X-404833Y-1843423D01*
X-390022Y-1869077D01*
X-369077Y-1890022D01*
X-343423Y-1904833D01*
X-314811Y-1912500D01*
X-285189D01*
X-256577Y-1904833D01*
X-230923Y-1890022D01*
X-209977Y-1869077D01*
X-195166Y-1843423D01*
X-187500Y-1814811D01*
Y-1785189D01*
X-195166Y-1756577D01*
X-209977Y-1730923D01*
X-230923Y-1709978D01*
X-256577Y-1695167D01*
X-285189Y-1687500D01*
D02*
G37*
G36*
X-2044500Y-1452167D02*
X-2145500D01*
X-2152133Y-1453486D01*
X-2157756Y-1457243D01*
X-2161514Y-1462867D01*
X-2162833Y-1469500D01*
Y-1520500D01*
X-2161514Y-1527133D01*
X-2157756Y-1532756D01*
X-2152133Y-1536514D01*
X-2145500Y-1537833D01*
X-2044500D01*
X-2037867Y-1536514D01*
X-2032711Y-1533069D01*
X-2021205D01*
X-2017512Y-1532334D01*
X-2013746D01*
X-2010267Y-1530893D01*
X-2006574Y-1530158D01*
X-2003442Y-1528066D01*
X-1999963Y-1526625D01*
X-1997301Y-1523962D01*
X-1994169Y-1521870D01*
X-1992077Y-1518738D01*
X-1989414Y-1516076D01*
X-1987973Y-1512597D01*
X-1985881Y-1509466D01*
X-1985146Y-1505772D01*
X-1983705Y-1502293D01*
Y-1498527D01*
X-1982971Y-1494834D01*
X-1983705Y-1491141D01*
Y-1487375D01*
X-1985146Y-1483896D01*
X-1985881Y-1480202D01*
X-1987973Y-1477071D01*
X-1989414Y-1473592D01*
X-1992077Y-1470929D01*
X-1994169Y-1467798D01*
X-1997301Y-1465705D01*
X-1999963Y-1463043D01*
X-2003442Y-1461602D01*
X-2006574Y-1459510D01*
X-2010267Y-1458775D01*
X-2013746Y-1457334D01*
X-2017512D01*
X-2021205Y-1456599D01*
X-2033208D01*
X-2037867Y-1453486D01*
X-2044500Y-1452167D01*
D02*
G37*
G36*
X-2313177Y-3895000D02*
X-2340824D01*
X-2367529Y-3902156D01*
X-2391471Y-3915979D01*
X-2411021Y-3935529D01*
X-2424844Y-3959471D01*
X-2432000Y-3986176D01*
Y-4013823D01*
X-2424844Y-4040528D01*
X-2411021Y-4064471D01*
X-2391471Y-4084021D01*
X-2367529Y-4097844D01*
X-2340824Y-4105000D01*
X-2313177D01*
X-2286472Y-4097844D01*
X-2262529Y-4084021D01*
X-2242980Y-4064471D01*
X-2229156Y-4040528D01*
X-2222000Y-4013823D01*
Y-3986176D01*
X-2229156Y-3959471D01*
X-2242980Y-3935529D01*
X-2262529Y-3915979D01*
X-2286472Y-3902156D01*
X-2313177Y-3895000D01*
D02*
G37*
G36*
X2227000Y-3869008D02*
X2196979Y-3872960D01*
X2169004Y-3884547D01*
X2144981Y-3902981D01*
X2126548Y-3927004D01*
X2114960Y-3954979D01*
X2111008Y-3985000D01*
Y-4015000D01*
X2114960Y-4045021D01*
X2126548Y-4072996D01*
X2144981Y-4097019D01*
X2169004Y-4115452D01*
X2176667Y-4118627D01*
Y-4461903D01*
X2163967Y-4465306D01*
X2157239Y-4453651D01*
X2139849Y-4436262D01*
X2125832Y-4428169D01*
Y-4277500D01*
X2122534Y-4260917D01*
X2113141Y-4246859D01*
X2016333Y-4150052D01*
Y-4130000D01*
X2088000D01*
Y-3870000D01*
X1858001D01*
Y-4130000D01*
X1929668D01*
Y-4168000D01*
X1932966Y-4184583D01*
X1942360Y-4198641D01*
X2039168Y-4295449D01*
Y-4428169D01*
X2025151Y-4436262D01*
X2007762Y-4453651D01*
X1999669Y-4467668D01*
X1889000D01*
X1872417Y-4470966D01*
X1858360Y-4480359D01*
X1809359Y-4529360D01*
X1799966Y-4543418D01*
X1796667Y-4560000D01*
Y-4860000D01*
X1799966Y-4876582D01*
X1809359Y-4890640D01*
X1859360Y-4940641D01*
X1873418Y-4950034D01*
X1890000Y-4953332D01*
X2002052D01*
X2162311Y-5113592D01*
Y-5826408D01*
X2069551Y-5919167D01*
X-1716518D01*
X-2674168Y-4961518D01*
Y-4831380D01*
X-2661468Y-4826120D01*
X-2647849Y-4839739D01*
X-2626551Y-4852035D01*
X-2602796Y-4858400D01*
X-2578204D01*
X-2554449Y-4852035D01*
X-2533151Y-4839739D01*
X-2515762Y-4822349D01*
X-2503465Y-4801051D01*
X-2497100Y-4777297D01*
Y-4752704D01*
X-2503465Y-4728949D01*
X-2515762Y-4707651D01*
X-2533151Y-4690262D01*
X-2554449Y-4677965D01*
X-2578204Y-4671600D01*
X-2602796D01*
X-2626551Y-4677965D01*
X-2647849Y-4690262D01*
X-2661468Y-4703880D01*
X-2674168Y-4698620D01*
Y-4593831D01*
X-2660151Y-4585739D01*
X-2642762Y-4568349D01*
X-2630465Y-4547051D01*
X-2624100Y-4523297D01*
Y-4498704D01*
X-2630465Y-4474949D01*
X-2642762Y-4453651D01*
X-2660151Y-4436262D01*
X-2681449Y-4423965D01*
X-2705204Y-4417600D01*
X-2729796D01*
X-2753551Y-4423965D01*
X-2774849Y-4436262D01*
X-2792239Y-4453651D01*
X-2804535Y-4474949D01*
X-2810900Y-4498704D01*
Y-4523297D01*
X-2804535Y-4547051D01*
X-2792239Y-4568349D01*
X-2774849Y-4585739D01*
X-2760832Y-4593831D01*
Y-4671600D01*
X-2937900D01*
Y-4858400D01*
X-2887832D01*
Y-4905500D01*
X-2884534Y-4922083D01*
X-2875141Y-4936140D01*
X-1780641Y-6030640D01*
X-1766583Y-6040034D01*
X-1750000Y-6043332D01*
X2103033D01*
X2119616Y-6040034D01*
X2133673Y-6030640D01*
X2273784Y-5890530D01*
X2283177Y-5876472D01*
X2286476Y-5859889D01*
Y-5052643D01*
X2283177Y-5036061D01*
X2273784Y-5022003D01*
X2048900Y-4797119D01*
Y-4757432D01*
X2065900D01*
X2082483Y-4754134D01*
X2096541Y-4744741D01*
X2108213Y-4733068D01*
X2119600Y-4739642D01*
X2116100Y-4752704D01*
Y-4777297D01*
X2122465Y-4801051D01*
X2134762Y-4822349D01*
X2152151Y-4839739D01*
X2173449Y-4852035D01*
X2197204Y-4858400D01*
X2221796D01*
X2245551Y-4852035D01*
X2266849Y-4839739D01*
X2284239Y-4822349D01*
X2296535Y-4801051D01*
X2302900Y-4777297D01*
Y-4752704D01*
X2296535Y-4728949D01*
X2284239Y-4707651D01*
X2266849Y-4690262D01*
X2245551Y-4677965D01*
X2221796Y-4671600D01*
X2197204D01*
X2184141Y-4675100D01*
X2177567Y-4663714D01*
X2250641Y-4590641D01*
X2256830Y-4581378D01*
X2270070Y-4578589D01*
X2272483Y-4579071D01*
X2279151Y-4585739D01*
X2300449Y-4598035D01*
X2324204Y-4604400D01*
X2348796D01*
X2372551Y-4598035D01*
X2393849Y-4585739D01*
X2411239Y-4568349D01*
X2423535Y-4547051D01*
X2429900Y-4523297D01*
Y-4498704D01*
X2423535Y-4474949D01*
X2411239Y-4453651D01*
X2393849Y-4436262D01*
X2372551Y-4423965D01*
X2348796Y-4417600D01*
X2324204D01*
X2300449Y-4423965D01*
X2279151Y-4436262D01*
X2275066Y-4440347D01*
X2263332Y-4435487D01*
Y-4124426D01*
X2284996Y-4115452D01*
X2309019Y-4097019D01*
X2327453Y-4072996D01*
X2339040Y-4045021D01*
X2342993Y-4015000D01*
Y-3985000D01*
X2339040Y-3954979D01*
X2327453Y-3927004D01*
X2309019Y-3902981D01*
X2284996Y-3884547D01*
X2257021Y-3872960D01*
X2227000Y-3869008D01*
D02*
G37*
G36*
X-2451204Y-4417600D02*
X-2475796D01*
X-2499551Y-4423965D01*
X-2520849Y-4436262D01*
X-2538239Y-4453651D01*
X-2550535Y-4474949D01*
X-2556900Y-4498704D01*
Y-4523297D01*
X-2550535Y-4547051D01*
X-2538239Y-4568349D01*
X-2520849Y-4585739D01*
X-2499551Y-4598035D01*
X-2475796Y-4604400D01*
X-2451204D01*
X-2427449Y-4598035D01*
X-2406151Y-4585739D01*
X-2388762Y-4568349D01*
X-2376465Y-4547051D01*
X-2370100Y-4523297D01*
Y-4498704D01*
X-2376465Y-4474949D01*
X-2388762Y-4453651D01*
X-2406151Y-4436262D01*
X-2427449Y-4423965D01*
X-2451204Y-4417600D01*
D02*
G37*
G36*
X2729796Y-4671600D02*
X2705204D01*
X2681449Y-4677965D01*
X2660151Y-4690262D01*
X2642762Y-4707651D01*
X2630465Y-4728949D01*
X2624100Y-4752704D01*
Y-4777297D01*
X2630465Y-4801051D01*
X2642762Y-4822349D01*
X2660151Y-4839739D01*
X2681449Y-4852035D01*
X2705204Y-4858400D01*
X2729796D01*
X2753551Y-4852035D01*
X2774849Y-4839739D01*
X2792239Y-4822349D01*
X2804535Y-4801051D01*
X2810900Y-4777297D01*
Y-4752704D01*
X2804535Y-4728949D01*
X2792239Y-4707651D01*
X2774849Y-4690262D01*
X2753551Y-4677965D01*
X2729796Y-4671600D01*
D02*
G37*
G36*
X2475796D02*
X2451204D01*
X2427449Y-4677965D01*
X2406151Y-4690262D01*
X2388762Y-4707651D01*
X2376465Y-4728949D01*
X2370100Y-4752704D01*
Y-4777297D01*
X2376465Y-4801051D01*
X2388762Y-4822349D01*
X2406151Y-4839739D01*
X2427449Y-4852035D01*
X2451204Y-4858400D01*
X2475796D01*
X2499551Y-4852035D01*
X2520849Y-4839739D01*
X2538239Y-4822349D01*
X2550535Y-4801051D01*
X2556900Y-4777297D01*
Y-4752704D01*
X2550535Y-4728949D01*
X2538239Y-4707651D01*
X2520849Y-4690262D01*
X2499551Y-4677965D01*
X2475796Y-4671600D01*
D02*
G37*
G36*
X-2070204D02*
X-2094796D01*
X-2118551Y-4677965D01*
X-2139849Y-4690262D01*
X-2157239Y-4707651D01*
X-2169535Y-4728949D01*
X-2175900Y-4752704D01*
Y-4777297D01*
X-2169535Y-4801051D01*
X-2157239Y-4822349D01*
X-2139849Y-4839739D01*
X-2118551Y-4852035D01*
X-2094796Y-4858400D01*
X-2070204D01*
X-2046449Y-4852035D01*
X-2025151Y-4839739D01*
X-2007762Y-4822349D01*
X-1995465Y-4801051D01*
X-1989100Y-4777297D01*
Y-4752704D01*
X-1995465Y-4728949D01*
X-2007762Y-4707651D01*
X-2025151Y-4690262D01*
X-2046449Y-4677965D01*
X-2070204Y-4671600D01*
D02*
G37*
G36*
X-2324204D02*
X-2348796D01*
X-2372551Y-4677965D01*
X-2393849Y-4690262D01*
X-2411239Y-4707651D01*
X-2423535Y-4728949D01*
X-2429900Y-4752704D01*
Y-4777297D01*
X-2423535Y-4801051D01*
X-2411239Y-4822349D01*
X-2393849Y-4839739D01*
X-2372551Y-4852035D01*
X-2348796Y-4858400D01*
X-2324204D01*
X-2300449Y-4852035D01*
X-2279151Y-4839739D01*
X-2261762Y-4822349D01*
X-2249465Y-4801051D01*
X-2243100Y-4777297D01*
Y-4752704D01*
X-2249465Y-4728949D01*
X-2261762Y-4707651D01*
X-2279151Y-4690262D01*
X-2300449Y-4677965D01*
X-2324204Y-4671600D01*
D02*
G37*
G36*
X2990213Y-5210000D02*
X2952787D01*
X2916079Y-5217302D01*
X2881501Y-5231625D01*
X2850382Y-5252418D01*
X2823918Y-5278882D01*
X2803124Y-5310002D01*
X2788802Y-5344579D01*
X2781500Y-5381287D01*
Y-5418714D01*
X2788802Y-5455421D01*
X2803124Y-5489999D01*
X2823918Y-5521118D01*
X2850382Y-5547583D01*
X2881501Y-5568376D01*
X2916079Y-5582698D01*
X2952787Y-5590000D01*
X2990213D01*
X3026921Y-5582698D01*
X3061499Y-5568376D01*
X3092618Y-5547583D01*
X3119082Y-5521118D01*
X3139876Y-5489999D01*
X3154198Y-5455421D01*
X3161500Y-5418714D01*
Y-5381287D01*
X3154198Y-5344579D01*
X3139876Y-5310002D01*
X3119082Y-5278882D01*
X3092618Y-5252418D01*
X3061499Y-5231625D01*
X3026921Y-5217302D01*
X2990213Y-5210000D01*
D02*
G37*
G36*
X1847213D02*
X1809787D01*
X1773079Y-5217302D01*
X1738501Y-5231625D01*
X1707382Y-5252418D01*
X1680918Y-5278882D01*
X1660124Y-5310002D01*
X1645802Y-5344579D01*
X1638500Y-5381287D01*
Y-5418714D01*
X1645802Y-5455421D01*
X1660124Y-5489999D01*
X1680918Y-5521118D01*
X1707382Y-5547583D01*
X1738501Y-5568376D01*
X1773079Y-5582698D01*
X1809787Y-5590000D01*
X1847213D01*
X1883921Y-5582698D01*
X1918499Y-5568376D01*
X1949618Y-5547583D01*
X1976082Y-5521118D01*
X1996876Y-5489999D01*
X2011198Y-5455421D01*
X2018500Y-5418714D01*
Y-5381287D01*
X2011198Y-5344579D01*
X1996876Y-5310002D01*
X1976082Y-5278882D01*
X1949618Y-5252418D01*
X1918499Y-5231625D01*
X1883921Y-5217302D01*
X1847213Y-5210000D01*
D02*
G37*
G36*
X-1809787D02*
X-1847213D01*
X-1883921Y-5217302D01*
X-1918499Y-5231625D01*
X-1949618Y-5252418D01*
X-1976082Y-5278882D01*
X-1996876Y-5310002D01*
X-2011198Y-5344579D01*
X-2018500Y-5381287D01*
Y-5418714D01*
X-2011198Y-5455421D01*
X-1996876Y-5489999D01*
X-1976082Y-5521118D01*
X-1949618Y-5547583D01*
X-1918499Y-5568376D01*
X-1883921Y-5582698D01*
X-1847213Y-5590000D01*
X-1809787D01*
X-1773079Y-5582698D01*
X-1738501Y-5568376D01*
X-1707382Y-5547583D01*
X-1680918Y-5521118D01*
X-1660124Y-5489999D01*
X-1645802Y-5455421D01*
X-1638500Y-5418714D01*
Y-5381287D01*
X-1645802Y-5344579D01*
X-1660124Y-5310002D01*
X-1680918Y-5278882D01*
X-1707382Y-5252418D01*
X-1738501Y-5231625D01*
X-1773079Y-5217302D01*
X-1809787Y-5210000D01*
D02*
G37*
G36*
X-2952787D02*
X-2990213D01*
X-3026921Y-5217302D01*
X-3061499Y-5231625D01*
X-3092618Y-5252418D01*
X-3119082Y-5278882D01*
X-3139876Y-5310002D01*
X-3154198Y-5344579D01*
X-3161500Y-5381287D01*
Y-5418714D01*
X-3154198Y-5455421D01*
X-3139876Y-5489999D01*
X-3119082Y-5521118D01*
X-3092618Y-5547583D01*
X-3061499Y-5568376D01*
X-3026921Y-5582698D01*
X-2990213Y-5590000D01*
X-2952787D01*
X-2916079Y-5582698D01*
X-2881501Y-5568376D01*
X-2850382Y-5547583D01*
X-2823918Y-5521118D01*
X-2803124Y-5489999D01*
X-2788802Y-5455421D01*
X-2781500Y-5418714D01*
Y-5381287D01*
X-2788802Y-5344579D01*
X-2803124Y-5310002D01*
X-2823918Y-5278882D01*
X-2850382Y-5252418D01*
X-2881501Y-5231625D01*
X-2916079Y-5217302D01*
X-2952787Y-5210000D01*
D02*
G37*
G36*
X1363876Y-5694600D02*
X1336124D01*
X1309317Y-5701783D01*
X1285283Y-5715659D01*
X1265659Y-5735283D01*
X1251783Y-5759317D01*
X1244600Y-5786124D01*
Y-5813876D01*
X1251783Y-5840683D01*
X1265659Y-5864717D01*
X1285283Y-5884341D01*
X1309317Y-5898217D01*
X1336124Y-5905400D01*
X1363876D01*
X1390683Y-5898217D01*
X1414717Y-5884341D01*
X1434341Y-5864717D01*
X1448217Y-5840683D01*
X1455400Y-5813876D01*
Y-5786124D01*
X1448217Y-5759317D01*
X1434341Y-5735283D01*
X1414717Y-5715659D01*
X1390683Y-5701783D01*
X1363876Y-5694600D01*
D02*
G37*
G36*
X263876D02*
X236124D01*
X209317Y-5701783D01*
X185283Y-5715659D01*
X165659Y-5735283D01*
X151783Y-5759317D01*
X144600Y-5786124D01*
Y-5813876D01*
X151783Y-5840683D01*
X165659Y-5864717D01*
X185283Y-5884341D01*
X209317Y-5898217D01*
X236124Y-5905400D01*
X263876D01*
X290683Y-5898217D01*
X314717Y-5884341D01*
X334341Y-5864717D01*
X348217Y-5840683D01*
X355400Y-5813876D01*
Y-5786124D01*
X348217Y-5759317D01*
X334341Y-5735283D01*
X314717Y-5715659D01*
X290683Y-5701783D01*
X263876Y-5694600D01*
D02*
G37*
G36*
X565759Y-4640000D02*
X534241D01*
X503330Y-4646149D01*
X474211Y-4658210D01*
X448006Y-4675720D01*
X425720Y-4698006D01*
X408210Y-4724212D01*
X396149Y-4753330D01*
X390000Y-4784241D01*
Y-4815759D01*
X396149Y-4846670D01*
X408210Y-4875789D01*
X425720Y-4901994D01*
X448006Y-4924280D01*
X474211Y-4941790D01*
X503330Y-4953851D01*
X534241Y-4960000D01*
X565759D01*
X596670Y-4953851D01*
X625788Y-4941790D01*
X651994Y-4924280D01*
X674280Y-4901994D01*
X691790Y-4875789D01*
X703851Y-4846670D01*
X710000Y-4815759D01*
Y-4784241D01*
X703851Y-4753330D01*
X691790Y-4724212D01*
X674280Y-4698006D01*
X651994Y-4675720D01*
X625788Y-4658210D01*
X596670Y-4646149D01*
X565759Y-4640000D01*
D02*
G37*
G36*
X-125000Y-4949224D02*
X-148495Y-4952317D01*
X-170388Y-4961386D01*
X-189189Y-4975811D01*
X-203615Y-4994612D01*
X-212683Y-5016505D01*
X-215776Y-5040000D01*
Y-5160000D01*
X-212683Y-5183495D01*
X-203615Y-5205389D01*
X-189189Y-5224189D01*
X-170388Y-5238615D01*
X-148495Y-5247683D01*
X-125000Y-5250777D01*
X-101505Y-5247683D01*
X-79612Y-5238615D01*
X-60811Y-5224189D01*
X-46385Y-5205389D01*
X-37317Y-5183495D01*
X-34224Y-5160000D01*
Y-5040000D01*
X-37317Y-5016505D01*
X-46385Y-4994612D01*
X-60811Y-4975811D01*
X-79612Y-4961386D01*
X-101505Y-4952317D01*
X-125000Y-4949224D01*
D02*
G37*
%LPD*%
G36*
X587748Y-4675561D02*
X611299Y-4685316D01*
X632496Y-4699479D01*
X650521Y-4717505D01*
X664684Y-4738700D01*
X674439Y-4762252D01*
X679412Y-4787254D01*
Y-4812746D01*
X674439Y-4837749D01*
X664684Y-4861299D01*
X650521Y-4882496D01*
X632495Y-4900522D01*
X611300Y-4914684D01*
X587748Y-4924439D01*
X562746Y-4929412D01*
X537254D01*
X512251Y-4924439D01*
X488701Y-4914684D01*
X467504Y-4900521D01*
X449478Y-4882495D01*
X435316Y-4861300D01*
X425561Y-4837748D01*
X420588Y-4812746D01*
Y-4787254D01*
X425561Y-4762252D01*
X435316Y-4738701D01*
X449479Y-4717504D01*
X467505Y-4699479D01*
X488700Y-4685316D01*
X512252Y-4675561D01*
X537254Y-4670588D01*
X562746D01*
X587748Y-4675561D01*
D02*
G37*
D10*
X2752759Y-1152911D02*
G03*
X2754130Y-1153380I4789J11764D01*
G01*
X2859548Y-1251581D02*
G03*
X2850242Y-1251478I-4785J-11765D01*
G01*
X2745585Y-1210276D02*
G03*
X2751848Y-1211165I4860J11734D01*
G01*
X2860473Y-1200112D02*
G03*
X2854221Y-1199262I-4785J-11765D01*
G01*
X-2115841Y1652926D02*
X-1742947Y2025819D01*
X-1555169D01*
X-1552045Y2028943D01*
X-1536217D02*
X-1529080Y2036080D01*
X-1552045Y2028943D02*
X-1536217D01*
X-1726096Y1985137D02*
X-1550729D01*
X-1539173Y1973580D02*
X-1529080D01*
X-1550729Y1985137D02*
X-1539173Y1973580D01*
X-2087074Y1624159D02*
X-1726096Y1985137D01*
X2754130Y-1153380D02*
X2771140Y-1158240D01*
X2752688Y-1152882D02*
X2752759Y-1152911D01*
X2514553Y-1132793D02*
X2516052Y-1134292D01*
X2719790Y-1139256D02*
X2752688Y-1152882D01*
X2672371Y-1120074D02*
X2719790Y-1139256D01*
X2859548Y-1251581D02*
X2859624Y-1251612D01*
X2880424Y-1260227D01*
X2801620Y-1270000D02*
X2850242Y-1251478D01*
X2880424Y-1260227D02*
X2927629Y-1279925D01*
X2698458Y-1190756D02*
X2745585Y-1210276D01*
X2751848Y-1211165D02*
X2751911Y-1211158D01*
X2860473Y-1200112D02*
X2860549Y-1200143D01*
X2751911Y-1211158D02*
X2854221Y-1199262D01*
X2653237Y-1166268D02*
X2698458Y-1190756D01*
X2860549Y-1200143D02*
X2898756Y-1215969D01*
X2946763Y-1233731D01*
X2165000Y-1132793D02*
X2514553D01*
X2515818Y-1134292D02*
X2516052D01*
X2165000Y-1043882D02*
X2187918Y-1066800D01*
X2530759D02*
X2630227Y-1166268D01*
X2187918Y-1066800D02*
X2530759D01*
X2630227Y-1166268D02*
X2653237D01*
X2165000Y-1235000D02*
Y-1132793D01*
X2140885Y-1108679D02*
X2165000Y-1132793D01*
Y-1043882D02*
Y-965000D01*
X2140885Y-1067996D02*
X2165000Y-1043882D01*
X2054488Y-1108679D02*
X2140885D01*
X2071339Y-1067996D02*
X2140885D01*
X1991403Y-988060D02*
X2071339Y-1067996D01*
X1950720Y-1004911D02*
X2054488Y-1108679D01*
X1991403Y-932862D02*
X2002311Y-921953D01*
X1950720Y-1004911D02*
Y-972761D01*
X1991403Y-955910D02*
Y-932862D01*
X2002311Y-921953D02*
Y-911860D01*
X1991403Y-955910D02*
X1991403Y-955910D01*
Y-988060D02*
Y-955910D01*
X1939811Y-921953D02*
X1950720Y-932861D01*
Y-972761D02*
X1950720Y-972761D01*
X1950720Y-972761D02*
Y-932861D01*
X1939811Y-921953D02*
Y-911860D01*
X-2144645Y1655355D02*
X-2142216Y1652926D01*
X-2115841D01*
X-2087074Y1597784D02*
X-2084645Y1595355D01*
X-2087074Y1597784D02*
Y1624159D01*
D11*
X3046433Y-1218618D02*
G03*
X3053384Y-1220000I6950J16781D01*
G01*
X3068023D02*
G03*
X3084683Y-1209073I0J18163D01*
G01*
X3107279Y-1156348D02*
G03*
X3107832Y-1143497I-16694J7155D01*
G01*
X3102519Y-1127559D02*
G03*
X3092818Y-1116774I-17231J-5744D01*
G01*
X-2383681Y1370877D02*
X-2290000Y1464558D01*
Y1510000D01*
X-2215355Y1584645D01*
X-2210000Y1590000D01*
X3011436Y-1204122D02*
X3046433Y-1218618D01*
X3053384Y-1220000D02*
X3068023D01*
X3084683Y-1209073D02*
X3084717Y-1208993D01*
X3107279Y-1156348D01*
X3107816Y-1143449D02*
X3107831Y-1143497D01*
X3092732Y-1116735D02*
X3092818Y-1116774D01*
X2965898Y-1187537D02*
X3011436Y-1204122D01*
X3102519Y-1127559D02*
X3107816Y-1143449D01*
X2755000Y-965000D02*
X3092732Y-1116735D01*
X2355000Y-965000D02*
X2755000D01*
X2355000D02*
Y-810000D01*
X2345000Y-800000D02*
X2355000Y-810000D01*
X-2240000Y1440000D02*
X-2155355Y1524645D01*
X-2355397Y1342593D02*
X-2257990Y1440000D01*
X-2240000D01*
D12*
X1900000Y-400000D02*
D03*
Y-300000D02*
D03*
Y-100000D02*
D03*
Y-200000D02*
D03*
X-2700000Y380000D02*
D03*
Y280000D02*
D03*
X-3010000D02*
D03*
Y380000D02*
D03*
X-2600000Y280000D02*
D03*
Y380000D02*
D03*
D13*
X1925000Y48000D02*
D03*
X1975000D02*
D03*
X2025000D02*
D03*
X1925000Y252000D02*
D03*
X2075000Y48000D02*
D03*
X1975000Y252000D02*
D03*
X2075000D02*
D03*
X2025000D02*
D03*
X1925000Y1502000D02*
D03*
X2075000Y1298000D02*
D03*
X1925000D02*
D03*
X1975000Y1502000D02*
D03*
X2025000D02*
D03*
X2075000D02*
D03*
X2025000Y1298000D02*
D03*
X1975000D02*
D03*
D14*
X2000000Y150000D02*
D03*
Y1400000D02*
D03*
D15*
X1915000Y400000D02*
D03*
X2085000D02*
D03*
X1915000Y1000000D02*
D03*
X2085000D02*
D03*
Y550000D02*
D03*
X1915000D02*
D03*
Y700000D02*
D03*
X2085000D02*
D03*
Y850000D02*
D03*
X1915000D02*
D03*
X1915000Y1150000D02*
D03*
X2085000D02*
D03*
X1915000Y1650000D02*
D03*
X2085000D02*
D03*
Y1800000D02*
D03*
X1915000D02*
D03*
X2175000Y-1390000D02*
D03*
X2345000D02*
D03*
X2175000Y-800000D02*
D03*
X2345000D02*
D03*
X1915000Y1950000D02*
D03*
X2085000D02*
D03*
X-2435000Y-780000D02*
D03*
X-2605000D02*
D03*
X-1865000D02*
D03*
X-2035000D02*
D03*
X-2715000Y-930000D02*
D03*
X-2885000D02*
D03*
X-2715000Y-1050000D02*
D03*
X-2885000D02*
D03*
X-2715000Y-1170000D02*
D03*
X-2885000D02*
D03*
X-2715000Y-1300000D02*
D03*
X-2885000D02*
D03*
Y-1600000D02*
D03*
X-2715000D02*
D03*
D16*
X819000Y-107000D02*
D03*
X1581000D02*
D03*
X1454000D02*
D03*
X1327000D02*
D03*
X1200000D02*
D03*
X946000D02*
D03*
X1073000D02*
D03*
X-127000D02*
D03*
X0D02*
D03*
X-254000D02*
D03*
X127000D02*
D03*
X254000D02*
D03*
X381000D02*
D03*
X-381000D02*
D03*
X-1327000D02*
D03*
X-1200000D02*
D03*
X-1454000D02*
D03*
X-1073000D02*
D03*
X-946000D02*
D03*
X-819000D02*
D03*
X-1581000D02*
D03*
D17*
X1200000Y889000D02*
D03*
X0D02*
D03*
X-1200000D02*
D03*
D18*
X-2700000Y1715000D02*
D03*
Y1885000D02*
D03*
X-2500000Y1715000D02*
D03*
Y1885000D02*
D03*
X-1850000Y215000D02*
D03*
Y385000D02*
D03*
X-2000000Y215000D02*
D03*
Y385000D02*
D03*
X-2150000Y215000D02*
D03*
Y385000D02*
D03*
X-2300000Y215000D02*
D03*
Y385000D02*
D03*
X-2450000D02*
D03*
Y215000D02*
D03*
D19*
X-2095000Y-1685000D02*
D03*
X-2365000D02*
D03*
Y-1590000D02*
D03*
Y-1495000D02*
D03*
X-2095000D02*
D03*
Y-1590000D02*
D03*
D20*
X-2335000Y-1890000D02*
D03*
X-2125000D02*
D03*
X-2335000Y-2090000D02*
D03*
X-2125000D02*
D03*
D21*
X1995000Y-2118500D02*
D03*
X1900000Y-1881500D02*
D03*
X1805000Y-2118500D02*
D03*
D22*
X2260000Y-965000D02*
D03*
Y-1235000D02*
D03*
X2165000Y-965000D02*
D03*
Y-1235000D02*
D03*
X2355000Y-965000D02*
D03*
Y-1235000D02*
D03*
D23*
X-900000Y1590000D02*
D03*
Y2410000D02*
D03*
X900000Y1590000D02*
D03*
Y2410000D02*
D03*
D24*
X-2927446Y1059750D02*
D03*
X-2899162Y1088035D02*
D03*
X-2870877Y1116319D02*
D03*
X-2842593Y1144603D02*
D03*
X-2814309Y1172888D02*
D03*
X-2786025Y1201172D02*
D03*
X-2757740Y1229456D02*
D03*
X-2729456Y1257740D02*
D03*
X-2701172Y1286025D02*
D03*
X-2672888Y1314309D02*
D03*
X-2644603Y1342593D02*
D03*
X-2616319Y1370877D02*
D03*
X-2588035Y1399162D02*
D03*
X-2072554Y940250D02*
D03*
X-2157407Y855397D02*
D03*
X-2185691Y827112D02*
D03*
X-2213976Y798828D02*
D03*
X-2242260Y770544D02*
D03*
X-2270544Y742260D02*
D03*
X-2298828Y713975D02*
D03*
X-2440250Y572554D02*
D03*
X-2100838Y911965D02*
D03*
X-2129123Y883681D02*
D03*
X-2559751Y1427446D02*
D03*
X-2355397Y657407D02*
D03*
X-2327112Y685691D02*
D03*
X-2383681Y629123D02*
D03*
X-2411965Y600838D02*
D03*
D25*
X-2786025Y798828D02*
D03*
X-2814309Y827112D02*
D03*
X-2870877Y883681D02*
D03*
X-2899162Y911965D02*
D03*
X-2927446Y940250D02*
D03*
X-2440250Y1427446D02*
D03*
X-2411965Y1399162D02*
D03*
X-2327112Y1314309D02*
D03*
X-2270544Y1257740D02*
D03*
X-2242260Y1229456D02*
D03*
X-2072554Y1059750D02*
D03*
X-2129123Y1116319D02*
D03*
X-2100838Y1088035D02*
D03*
X-2157407Y1144603D02*
D03*
X-2185691Y1172888D02*
D03*
X-2298828Y1286025D02*
D03*
X-2213976Y1201172D02*
D03*
X-2588035Y600838D02*
D03*
X-2559751Y572554D02*
D03*
X-2842593Y855397D02*
D03*
X-2729456Y742260D02*
D03*
X-2757740Y770544D02*
D03*
X-2383681Y1370877D02*
D03*
X-2616319Y629123D02*
D03*
X-2644603Y657407D02*
D03*
X-2672888Y685691D02*
D03*
X-2701172Y713975D02*
D03*
X-2355397Y1342593D02*
D03*
D26*
X-2500000Y1000000D02*
D03*
D27*
X-2910000Y260000D02*
D03*
X-2800000Y400000D02*
D03*
Y260000D02*
D03*
X-2910000Y400000D02*
D03*
D28*
X-3236348Y413001D02*
D03*
X-3212115Y537668D02*
D03*
X-3187883Y662335D02*
D03*
D29*
X-3163652Y786999D02*
D03*
D30*
X2741076Y1766435D02*
D03*
X2664645Y1867862D02*
D03*
X2588215Y1969289D02*
D03*
X2511784Y2070715D02*
D03*
D31*
X2435355Y2172138D02*
D03*
D32*
X2557566Y-1397238D02*
D03*
X2831958Y-1510895D02*
D03*
X2614968Y-1258656D02*
D03*
X2634102Y-1212462D02*
D03*
X2653237Y-1166268D02*
D03*
X2672371Y-1120074D02*
D03*
X2691505Y-1073880D02*
D03*
X2710639Y-1027687D02*
D03*
X2768042Y-889105D02*
D03*
X2889361Y-1372313D02*
D03*
X2908495Y-1326120D02*
D03*
X2927629Y-1279925D02*
D03*
X2946763Y-1233731D02*
D03*
X2965898Y-1187537D02*
D03*
X2985032Y-1141343D02*
D03*
X3042434Y-1002762D02*
D03*
D33*
X-2875000Y-780000D02*
D03*
X-2725000D02*
D03*
X-2155000D02*
D03*
X-2305000D02*
D03*
D34*
X-2380000Y-1110000D02*
D03*
X-2080000D02*
D03*
D35*
X-2800000Y-1491000D02*
D03*
X-2760000Y-1400000D02*
D03*
X-2800000D02*
D03*
X-2840000D02*
D03*
Y-1491000D02*
D03*
X-2760000D02*
D03*
D36*
X-2800000Y-1445500D02*
D03*
D37*
X-2155355Y1524645D02*
D03*
X-2215355Y1584645D02*
D03*
X-2144645Y1655355D02*
D03*
X-2084645Y1595355D02*
D03*
D38*
X-2110000Y-2520000D02*
D03*
X-3170000Y-460000D02*
D03*
D39*
X-2192500Y25000D02*
D03*
X-2907500D02*
D03*
X-2407500D02*
D03*
X-2692500D02*
D03*
Y-425000D02*
D03*
X-2907500D02*
D03*
X-2192500D02*
D03*
X-2407500D02*
D03*
D40*
X2077000Y50000D02*
X2110000D01*
X1890000Y1500000D02*
X1923000D01*
X1900000Y-100000D02*
Y-70000D01*
X-2890000Y-1600000D02*
X-2885000D01*
X-2910000Y-1580000D02*
X-2890000Y-1600000D01*
X-2910000Y-1580000D02*
Y-1575000D01*
X-2920000Y-1565000D02*
X-2910000Y-1575000D01*
X-2920000Y-1565000D02*
Y-1450000D01*
X-1880501Y-780000D02*
X-1865000D01*
X-1890000Y-770501D02*
X-1880501Y-780000D01*
X-1916674Y-770501D02*
X-1890000D01*
X-1918587Y-768587D02*
X-1916674Y-770501D01*
X-2150000Y215000D02*
X-2000000D01*
Y385000D02*
X-1850000D01*
X-2000000Y215000D02*
X-1850000D01*
X-2450000Y215000D02*
X-2300000D01*
X1900000Y-1881500D02*
Y-1820000D01*
X-2745000Y385000D02*
X-2705000D01*
X-2785000D02*
X-2745000D01*
X-3013087Y276913D02*
X-3010000Y280000D01*
X-3036608Y276913D02*
X-3013087D01*
X-3038521Y275000D02*
X-3036608Y276913D01*
X-3005000Y275000D02*
X-2925000D01*
X-3010000Y280000D02*
X-3005000Y275000D01*
X-2700000Y1885000D02*
X-2500000D01*
X-2700000Y1715000D02*
X-2500000D01*
X-2550000Y1440000D02*
X-2500000Y1490000D01*
Y1715000D01*
X-3170000Y-460000D02*
X-3050000D01*
X1890000Y250000D02*
X1923000D01*
X-3236348Y413001D02*
X-3222016Y398670D01*
X-3158670D01*
X-3150000Y390000D01*
X2085000Y850000D02*
X2140000D01*
X-2300000Y385000D02*
X-2150000D01*
X-2300000Y385000D02*
X-2300000Y385000D01*
X-2300000Y385000D02*
Y520000D01*
X-2390000Y610000D02*
X-2300000Y520000D01*
X-2450500Y385500D02*
X-2450000Y385000D01*
X-2559751Y572554D02*
X-2450500Y463303D01*
Y385500D02*
Y463303D01*
X2175000Y-1390000D02*
X2180000D01*
X2260000Y-1310000D01*
Y-1310000D01*
Y-1235000D01*
X-2700000Y280000D02*
X-2600000D01*
X-2705000Y275000D02*
X-2700000Y280000D01*
X-2785000Y275000D02*
X-2705000D01*
X-2800000Y260000D02*
X-2785000Y275000D01*
X-2925000D02*
X-2910000Y260000D01*
X-2705000Y385000D02*
X-2700000Y380000D01*
X-2800000Y400000D02*
X-2785000Y385000D01*
X-3010000Y380000D02*
X-3005000Y385000D01*
X-2925000D01*
X-2910000Y400000D01*
X-2401913Y-38087D02*
X-2400000Y-40000D01*
X-2401913Y-38087D02*
Y19413D01*
X-2407500Y25000D02*
X-2401913Y19413D01*
X-2907500Y25000D02*
X-2901913Y19413D01*
Y-38087D02*
Y19413D01*
Y-38087D02*
X-2900000Y-40000D01*
X-2435000Y-780000D02*
Y-725000D01*
D41*
X1906870Y858130D02*
X1915000Y850000D01*
X1906870Y858130D02*
Y930000D01*
X1878925Y-790000D02*
X2570604Y-98321D01*
Y101272D02*
X2669332Y200000D01*
X2570604Y-98321D02*
Y101272D01*
X1915000Y930000D02*
Y1000000D01*
X1830000Y-790000D02*
X1878925D01*
X-2802250Y-1447750D02*
X-2800000Y-1445500D01*
X-2917750Y-1447750D02*
X-2802250D01*
X-2920000Y-1450000D02*
X-2917750Y-1447750D01*
X-2900000Y1258579D02*
Y1335000D01*
X-2954260Y1256270D02*
Y1281760D01*
X-2960000Y1287500D02*
X-2954260Y1281760D01*
X2449487Y578752D02*
X2670735Y800000D01*
X2449487Y-69723D02*
Y578752D01*
X2670735Y800000D02*
X2700000D01*
X2400000Y-43834D02*
Y700000D01*
X1830000Y-550000D02*
X1893834D01*
X2400000Y-43834D01*
X1889210Y-630000D02*
X2449487Y-69723D01*
X2669332Y200000D02*
X2700000D01*
X2497893Y217893D02*
X2680000Y400000D01*
X1883219Y-710000D02*
X2497893Y-95326D01*
Y217893D01*
X1830000Y-710000D02*
X1883219D01*
X1830000Y-630000D02*
X1889210D01*
X2680000Y400000D02*
X2700000D01*
X2400000Y700000D02*
X2700000Y1000000D01*
X-1975147Y560000D02*
X-1900000D01*
X-2213976Y798828D02*
X-1975147Y560000D01*
X-2185691Y827112D02*
X-1988579Y630000D01*
X-1830000D01*
X-1760000Y457990D02*
X-1732010Y430000D01*
X-1820000Y720000D02*
X-1760000Y660000D01*
Y457990D02*
Y660000D01*
X-2157407Y855397D02*
X-2022010Y720000D01*
X-1820000D01*
X-2129123Y883681D02*
X-2035442Y790000D01*
X-1800000D01*
X-2981955Y885740D02*
X-2927446Y940250D01*
X-3004260Y885740D02*
X-2981955D01*
X-3010000Y880000D02*
X-3004260Y885740D01*
X-3000000Y990000D02*
X-2929555Y1060445D01*
X-2928141D02*
X-2927446Y1059750D01*
X-2929555Y1060445D02*
X-2928141D01*
X-3060000Y1180000D02*
X-2991127D01*
X-2899162Y1088035D01*
X-3010000Y1240000D02*
X-3004260Y1234260D01*
X-2988818D01*
X-2870877Y1116319D01*
X-2900000Y1258579D02*
X-2814309Y1172888D01*
X-2954260Y1256270D02*
X-2842593Y1144603D01*
X-1326716Y410000D02*
X-1320000D01*
X-1346716Y430000D02*
X-1326716Y410000D01*
X-1732010Y430000D02*
X-1346716D01*
X-1328500Y-105500D02*
X-1327000Y-107000D01*
X-1330000Y270000D02*
X-1328500Y268500D01*
Y-105500D02*
Y268500D01*
X-2900000Y800000D02*
X-2897990D01*
X-2910000Y790000D02*
X-2900000Y800000D01*
X-2897990D02*
X-2842593Y855397D01*
X-2560445Y1429555D02*
X-2550000Y1440000D01*
X-2560445Y1428140D02*
X-2559751Y1427446D01*
X-2560445Y1428140D02*
Y1429555D01*
X1770000Y1230000D02*
X1810000Y1270000D01*
Y1700000D01*
X1770000Y620000D02*
Y1230000D01*
Y620000D02*
X1840000Y550000D01*
X1570000Y1940000D02*
X1810000Y1700000D01*
X590000Y1850000D02*
X680000Y1940000D01*
X1570000D01*
X1840000Y550000D02*
X1915000D01*
X-570000Y1930000D02*
X-490000Y1850000D01*
X-1200000Y1930000D02*
X-570000D01*
X-1300000Y1830000D02*
X-1200000Y1930000D01*
X-2154082Y1375919D02*
X-1700000Y1830000D01*
X-1300000D01*
X-2298828Y1286025D02*
X-2208934Y1375919D01*
X-2154082D01*
X-2233003Y1408419D02*
X-2181581D01*
X-1690000Y1900000D01*
X-1430000D01*
X-2327112Y1314309D02*
X-2233003Y1408419D01*
X1720000Y2070000D02*
X1728076D01*
X1770000Y2028076D01*
Y1850000D02*
Y2028076D01*
X1820000Y1800000D02*
X1915000D01*
X1770000Y1850000D02*
X1820000Y1800000D01*
X-2350000Y1540000D02*
X-1800000Y2090000D01*
X-1430000D01*
X-2350000Y1461127D02*
Y1540000D01*
X-2411965Y1399162D02*
X-2350000Y1461127D01*
X1923000Y1500000D02*
X1925000Y1502000D01*
X-2085147Y1330000D02*
X-2080000D01*
X-2213976Y1201172D02*
X-2085147Y1330000D01*
X-2184277Y1172888D02*
X-2076867Y1280298D01*
X-2185691Y1172888D02*
X-2184277D01*
X-2076867Y1280298D02*
X-2060298D01*
X-2060000Y1280000D01*
X-1860000D01*
X1923000Y250000D02*
X1925000Y252000D01*
X2000000Y618025D02*
X2050000Y668024D01*
Y720000D01*
X1975000Y317315D02*
X2000000Y342315D01*
Y618025D01*
X1975000Y252000D02*
Y317315D01*
X2075000Y390000D02*
X2085000Y400000D01*
X2075000Y252000D02*
Y390000D01*
X2025000Y252000D02*
X2075000D01*
X1915000Y400000D02*
Y550000D01*
X2657756Y1867862D02*
X2664645D01*
X2300000Y1510106D02*
X2657756Y1867862D01*
X2300000Y750000D02*
Y1510106D01*
X2250000Y700000D02*
X2300000Y750000D01*
X2085000Y700000D02*
X2250000D01*
X2192691Y772691D02*
X2230000Y810000D01*
X1820000Y800000D02*
X1847309Y772691D01*
X2192691D01*
X1820000Y800000D02*
Y1060000D01*
X1910000Y1150000D02*
Y1155000D01*
X1820000Y1060000D02*
X1910000Y1150000D01*
X2581326Y1969289D02*
X2588215D01*
X2230000Y1617962D02*
X2581326Y1969289D01*
X2230000Y810000D02*
Y1617962D01*
X2030000Y1050000D02*
Y1050000D01*
X2000000Y1080000D02*
Y1298000D01*
Y1080000D02*
X2030000Y1050000D01*
Y1050000D02*
X2080000Y1000000D01*
X2000000Y1298000D02*
X2025000D01*
X1975000D02*
X2000000D01*
X2080000Y1000000D02*
X2085000D01*
X1910000Y1155000D02*
X1915000Y1150000D01*
X1910000Y1155000D02*
Y1210000D01*
X1925000Y1225000D02*
Y1298000D01*
X1910000Y1210000D02*
X1925000Y1225000D01*
X1975000Y1502000D02*
Y1567315D01*
X2000000Y1592315D02*
Y1868025D01*
X1975000Y1567315D02*
X2000000Y1592315D01*
X2075000Y1640000D02*
X2085000Y1650000D01*
X2075000Y1502000D02*
Y1640000D01*
X2025000Y1502000D02*
X2075000D01*
X2090574Y1955574D02*
X2389754D01*
X2085000Y1950000D02*
X2090574Y1955574D01*
X2389754D02*
X2504896Y2070715D01*
X2050000Y1918024D02*
Y1970000D01*
X2000000Y1868025D02*
X2050000Y1918024D01*
X1915000Y1650000D02*
Y1800000D01*
X2504896Y2070715D02*
X2511784D01*
X-2327112Y685148D02*
X-2076831Y434867D01*
Y322292D02*
Y434867D01*
X-2099538Y299585D02*
X-2076831Y322292D01*
X-2210415Y299585D02*
X-2099538D01*
X-2224097Y285902D02*
X-2210415Y299585D01*
X-2224097Y134097D02*
X-2192500Y102500D01*
X-2224097Y134097D02*
Y285902D01*
X-2355397Y657407D02*
X-2230000Y532010D01*
Y510000D02*
Y532010D01*
X-2192500Y25000D02*
Y102500D01*
X-2588035Y600838D02*
X-2559751Y572554D01*
X2360000Y-1205000D02*
X2375000Y-1190000D01*
X2583017D01*
X2340000Y-1400000D02*
X2355000Y-1385000D01*
Y-1235000D01*
X-3080000Y600000D02*
X-2871716D01*
X-3212115Y537668D02*
X-3207313Y542470D01*
X-3137530D01*
X-3080000Y600000D01*
X-2871716D02*
X-2729456Y742260D01*
X-3187883Y662335D02*
X-2865950D01*
X-2757740Y770544D01*
X-2823873Y520000D02*
X-2782010D01*
X-2910000Y400000D02*
X-2883223Y426777D01*
Y460650D02*
X-2823873Y520000D01*
X-2883223Y426777D02*
Y460650D01*
X-2603284Y383284D02*
Y423284D01*
Y383284D02*
X-2600000Y380000D01*
X-2670000Y490000D02*
X-2603284Y423284D01*
X-2670000Y490000D02*
Y575442D01*
X-2616319Y629123D01*
X-2782010Y520000D02*
X-2644603Y657407D01*
X-2210000Y-200000D02*
Y7500D01*
X-2192500Y25000D01*
X-2710000Y7500D02*
X-2692500Y25000D01*
X-2710000Y-200000D02*
Y7500D01*
X1995001Y-2141000D02*
X2027000Y-2173000D01*
Y-2300000D02*
Y-2173000D01*
X1995001Y-2025000D02*
X2010001Y-2010000D01*
X1995001Y-2141000D02*
Y-2025000D01*
X1805000Y-2118500D02*
Y-2025000D01*
X1790000Y-2010000D02*
X1805000Y-2025000D01*
X1773000Y-2300000D02*
Y-2173000D01*
X1805000Y-2141000D01*
Y-2118500D01*
X-2755000Y-900000D02*
X-2630000D01*
X-2875000Y-785000D02*
Y-780000D01*
Y-785000D02*
X-2845000Y-815000D01*
X-2840000D01*
X-2755000Y-900000D01*
X-2067459Y1120000D02*
X-1950000D01*
X-1900000Y1070000D02*
X-1800000D01*
X-1950000Y1120000D02*
X-1900000Y1070000D01*
X-2129123Y1116319D02*
X-2085442Y1160000D01*
X-1886716D02*
X-1866716Y1140000D01*
X-2085442Y1160000D02*
X-1886716D01*
X-1866716Y1140000D02*
X-1860000D01*
X-2100838Y1088035D02*
X-2099424D01*
X-2067459Y1120000D01*
X-2157407Y1144603D02*
X-2092010Y1210000D01*
X-1800000D01*
X-2012804Y1000000D02*
X-1860000D01*
X-2072554Y1059750D02*
X-2012804Y1000000D01*
X-2072554Y940250D02*
X-2051695Y919390D01*
X-2050280D01*
X-2039670Y930000D01*
X-1800000D01*
X-2048873Y860000D02*
X-1860000D01*
X-2100838Y911965D02*
X-2048873Y860000D01*
X1454000Y364000D02*
X1460000Y370000D01*
X1454000Y-107000D02*
Y364000D01*
X254000D02*
X260000Y370000D01*
X254000Y-107000D02*
Y364000D01*
X-946000Y-107000D02*
Y364000D01*
X-940000Y370000D01*
X1327000Y357000D02*
X1330000Y360000D01*
X1327000Y-107000D02*
Y357000D01*
X127000D02*
X130000Y360000D01*
X127000Y-107000D02*
Y357000D01*
X-1073000Y-107000D02*
Y357000D01*
X-1070000Y360000D01*
X1070000Y370000D02*
X1073000Y367000D01*
Y-107000D02*
Y367000D01*
X-130000Y370000D02*
X-127000Y367000D01*
Y-107000D02*
Y367000D01*
X948000Y368000D02*
X950000Y370000D01*
X948000Y-105000D02*
Y368000D01*
X946000Y-107000D02*
X948000Y-105000D01*
X-252000Y368000D02*
X-250000Y370000D01*
X-252000Y-105000D02*
Y368000D01*
X-254000Y-107000D02*
X-252000Y-105000D01*
X-1454000Y-107000D02*
X-1452000Y-105000D01*
Y368000D01*
X-1450000Y370000D01*
D42*
X1906870Y691870D02*
X1915000Y700000D01*
X1906870Y650000D02*
Y691870D01*
X1900000Y-430000D02*
Y-400000D01*
Y-300000D02*
Y-250000D01*
X-2123394Y-2506606D02*
X-2110000Y-2520000D01*
X-2193394Y-2506606D02*
X-2123394D01*
X-2220000Y-2480000D02*
X-2193394Y-2506606D01*
X1900000Y-250000D02*
Y-200000D01*
X-3163652Y786999D02*
X-3150000Y800651D01*
Y850000D01*
X2085000Y550000D02*
X2140000D01*
X2741076Y1758924D02*
Y1766435D01*
Y1758924D02*
X2770000Y1730000D01*
X2085000Y1800000D02*
X2130000D01*
X2175000Y-800000D02*
X2180000Y-795000D01*
Y-750000D01*
X2427862Y2172138D02*
X2435355D01*
X2400000Y2200000D02*
X2427862Y2172138D01*
X-2094834Y-1494834D02*
X-2021205D01*
X-2095000Y-1495000D02*
X-2094834Y-1494834D01*
D43*
X-800000Y-2210000D02*
Y-1800000D01*
X-970000Y-2380000D02*
X-800000Y-2210000D01*
X-2168089Y-2380000D02*
X-970000D01*
X-2330000Y-2218089D02*
X-2168089Y-2380000D01*
X-2335000Y-2090000D02*
X-2330000Y-2095000D01*
Y-2218089D02*
Y-2095000D01*
X-1200000Y-4540000D02*
X-1160000Y-4500000D01*
X-1630000Y-4540000D02*
X-1200000D01*
X-1730000Y-4440000D02*
Y-4090000D01*
Y-4440000D02*
X-1630000Y-4540000D01*
X-1820000Y-4000000D02*
X-1730000Y-4090000D01*
X-2073000Y-4000000D02*
X-1820000D01*
D44*
X-1200000Y-107000D02*
Y889000D01*
X0Y-107000D02*
Y889000D01*
X1200000Y-107000D02*
Y889000D01*
D45*
X814783Y1869783D02*
X839800D01*
X840000Y1869984D01*
X890000Y1819984D01*
X810000Y1865000D02*
X814783Y1869783D01*
X-985217D02*
X-960200D01*
X-960000Y1869984D02*
X-910000Y1819984D01*
X-960200Y1869783D02*
X-960000Y1869984D01*
X-990000Y1865000D02*
X-985217Y1869783D01*
X-910000Y1599984D02*
X-900000Y1589984D01*
X-910000Y1599984D02*
Y1819984D01*
X-990000Y2130000D02*
X-960000D01*
X810000D02*
X840000D01*
X2075000Y48000D02*
X2077000Y50000D01*
X2075000Y1298000D02*
X2077500Y1295500D01*
Y1235000D02*
Y1295500D01*
Y1235000D02*
X2085000Y1227500D01*
Y1150000D02*
Y1227500D01*
X1860000Y1950000D02*
X1915000D01*
X-910000Y2400000D02*
X-900000Y2410000D01*
X-910000Y2180000D02*
Y2400000D01*
X-960000Y2130000D02*
X-910000Y2180000D01*
X2260000Y-965000D02*
Y-900000D01*
X2614968Y-1258656D02*
X2657320Y-1274003D01*
X2848560Y-1353224D01*
X2890000Y-1370000D01*
X2710639Y-1027687D02*
X2751990Y-1045447D01*
X2943230Y-1124669D01*
X2980000Y-1140000D01*
X-2155000Y-780000D02*
X-2035000D01*
X-2305000Y-885355D02*
Y-780000D01*
X-2430000Y-900000D02*
X-2319645D01*
X-2305000Y-885355D01*
X-2725000Y-780000D02*
X-2605000D01*
X2140000Y-4640000D02*
X2220000Y-4560000D01*
Y-4007000D01*
X2227000Y-4000000D01*
X1973000Y-4168000D02*
Y-4000000D01*
Y-4168000D02*
X2082500Y-4277500D01*
Y-4511000D02*
Y-4277500D01*
X2140000Y-4640000D02*
Y-4640000D01*
X1955500Y-4765000D02*
X2006400Y-4714100D01*
X2065900D01*
X2140000Y-4640000D01*
X1840000Y-4860000D02*
Y-4560000D01*
X1890000Y-4910000D02*
X2020001D01*
X1840000Y-4860000D02*
X1890000Y-4910000D01*
X2205643Y-5844357D02*
Y-5095643D01*
X2020001Y-4910000D02*
X2205643Y-5095643D01*
X1840000Y-4560000D02*
X1889000Y-4511000D01*
X1955500Y-4765000D02*
X2243143Y-5052643D01*
X2103033Y-6000000D02*
X2243143Y-5859889D01*
Y-5052643D01*
X-2844500Y-4905500D02*
X-1750000Y-6000000D01*
X2103033D01*
X2087500Y-5962500D02*
X2205643Y-5844357D01*
X-2717500Y-4979467D02*
X-1734467Y-5962500D01*
X2087500D01*
X-2844500Y-4905500D02*
Y-4765000D01*
X-2717500Y-4979467D02*
Y-4511000D01*
X1889000D02*
X2082500D01*
X840000Y2130000D02*
X890000Y2180000D01*
Y2400000D01*
X900000Y2410000D01*
X890000Y1599984D02*
X900000Y1589984D01*
X890000Y1599984D02*
Y1819984D01*
D46*
X-850000Y-900000D02*
D03*
X250000D02*
D03*
X1350000D02*
D03*
X-300000Y-1800000D02*
D03*
X800000D02*
D03*
D47*
X-1350000Y-900000D02*
D03*
X-250000D02*
D03*
X850000D02*
D03*
X-800000Y-1800000D02*
D03*
X300000D02*
D03*
D48*
X400000Y-3000000D02*
D03*
X-400000D02*
D03*
X-1200000Y-3900000D02*
D03*
X1200000D02*
D03*
X1550000Y1550000D02*
D03*
Y-1550000D02*
D03*
X-1550000D02*
D03*
Y1550000D02*
D03*
D49*
X1773000Y-2300000D02*
D03*
X1973000Y-4000000D02*
D03*
D50*
X2027000Y-2300000D02*
D03*
X2227000Y-4000000D02*
D03*
D51*
X-2327000D02*
D03*
D52*
X-2073000D02*
D03*
D53*
X2700000Y1000000D02*
D03*
Y800000D02*
D03*
Y200000D02*
D03*
Y400000D02*
D03*
Y600000D02*
D03*
D54*
Y0D02*
D03*
D55*
X1955500Y-4765000D02*
D03*
X-2844500D02*
D03*
D56*
X2082500Y-4511000D02*
D03*
X2209500Y-4765000D02*
D03*
X2336500Y-4511000D02*
D03*
X2463500Y-4765000D02*
D03*
X2590500Y-4511000D02*
D03*
X2717500Y-4765000D02*
D03*
X2844500Y-4511000D02*
D03*
X-2717500D02*
D03*
X-2590500Y-4765000D02*
D03*
X-2463500Y-4511000D02*
D03*
X-2336500Y-4765000D02*
D03*
X-2209500Y-4511000D02*
D03*
X-2082500Y-4765000D02*
D03*
X-1955500Y-4511000D02*
D03*
D57*
X1828500Y-5400000D02*
D03*
X2971500D02*
D03*
X-2971500D02*
D03*
X-1828500D02*
D03*
D58*
X1350000Y-5800000D02*
D03*
X250000D02*
D03*
D59*
X550000Y-4800000D02*
D03*
D60*
X1050000D02*
D03*
D61*
X-1475000Y-5100000D02*
D03*
X-125000D02*
D03*
D62*
X-1160000Y-4500000D02*
D03*
D63*
X-440000D02*
D03*
D64*
X-2900000Y-3900000D02*
D03*
X2900000D02*
D03*
D65*
X2646927Y-1569552D02*
D03*
X2953073Y-830448D02*
D03*
D66*
X2514812Y-1514828D02*
D03*
X2820959Y-775724D02*
D03*
X2779041Y-1624275D02*
D03*
X3085188Y-885172D02*
D03*
D67*
X-496000Y-3730000D02*
D03*
Y-4070000D02*
D03*
X496000Y-3730000D02*
D03*
Y-4070000D02*
D03*
D68*
X-900000Y2900000D02*
D03*
X0D02*
D03*
X900000D02*
D03*
D69*
X2771140Y-1158240D02*
D03*
X2801620Y-1270000D02*
D03*
X2515818Y-1134292D02*
D03*
X2002311Y-911860D02*
D03*
X1939811D02*
D03*
X2110000Y50000D02*
D03*
X1906870Y930000D02*
D03*
Y650000D02*
D03*
X1890000Y1500000D02*
D03*
X-1529080Y2036080D02*
D03*
Y1973580D02*
D03*
X-260000Y-350000D02*
D03*
X1900000Y-250000D02*
D03*
Y-430000D02*
D03*
Y-70000D02*
D03*
X-1930000Y0D02*
D03*
X1830000Y-790000D02*
D03*
X-2900000Y1335000D02*
D03*
X-2960000Y1287500D02*
D03*
X-2220000Y-2480000D02*
D03*
X1830000Y-710000D02*
D03*
Y-630000D02*
D03*
Y-550000D02*
D03*
X-1640000Y-850000D02*
D03*
Y-770000D02*
D03*
X-1918587Y-768587D02*
D03*
X-1640000Y-690000D02*
D03*
Y-610000D02*
D03*
X-1925000Y385000D02*
D03*
X-1900000Y560000D02*
D03*
X-1830000Y630000D02*
D03*
X-2375000Y215000D02*
D03*
X-1570000Y-2150000D02*
D03*
X40000Y-490000D02*
D03*
X1900000Y-1820000D02*
D03*
X-3038521Y275000D02*
D03*
X-2940000Y-300000D02*
D03*
X-3150000Y850000D02*
D03*
X-1570000Y-2060000D02*
D03*
X180000Y-2440000D02*
D03*
Y-2060000D02*
D03*
X-3000000Y990000D02*
D03*
X-3010000Y880000D02*
D03*
X-2500000Y1240000D02*
D03*
X-3060000Y1180000D02*
D03*
X-3010000Y1240000D02*
D03*
X-2505125Y517929D02*
D03*
X-1170000Y-440000D02*
D03*
X-1070000D02*
D03*
X-90000Y-450000D02*
D03*
X-260000D02*
D03*
X-1320000Y410000D02*
D03*
X-1330000Y270000D02*
D03*
X-1000000Y410000D02*
D03*
X-2910000Y790000D02*
D03*
X-2600000Y1885000D02*
D03*
X-2500000Y1550000D02*
D03*
X-2600000Y1715000D02*
D03*
X1820000Y1150000D02*
D03*
X1063508Y1882500D02*
D03*
X810000Y1865000D02*
D03*
X936508Y1882500D02*
D03*
X590000Y1850000D02*
D03*
X-490000D02*
D03*
X-863492Y1882500D02*
D03*
X-990000Y1865000D02*
D03*
X-736492Y1882500D02*
D03*
X-1430000Y1900000D02*
D03*
X1720000Y2070000D02*
D03*
X-863256Y2113203D02*
D03*
X-736256D02*
D03*
X-990000Y2130000D02*
D03*
X1390000Y2410000D02*
D03*
X1330810Y2173592D02*
D03*
X810000Y2130000D02*
D03*
X-1430000Y2090000D02*
D03*
X-2080000Y1330000D02*
D03*
X-3050000Y-460000D02*
D03*
X1890000Y250000D02*
D03*
X2140000Y550000D02*
D03*
X2770000Y1730000D02*
D03*
X2130000Y1800000D02*
D03*
X2180000Y-750000D02*
D03*
X-3150000Y390000D02*
D03*
X230000Y-390000D02*
D03*
X190000Y280000D02*
D03*
X2400000Y2200000D02*
D03*
X2085000Y1227500D02*
D03*
X2140000Y850000D02*
D03*
X1860000Y1950000D02*
D03*
X-2230000Y510000D02*
D03*
X-1925000Y215000D02*
D03*
X2260000Y-1310000D02*
D03*
Y-900000D02*
D03*
X2750000Y-1320000D02*
D03*
X2850000Y-1080000D02*
D03*
X-2745000Y385000D02*
D03*
X-2440000Y-300000D02*
D03*
X-2400000Y-40000D02*
D03*
X-2210000Y-200000D02*
D03*
X-2900000Y-40000D02*
D03*
X-2710000Y-200000D02*
D03*
X1020000Y-1920000D02*
D03*
X1320000D02*
D03*
X1020000Y-2600000D02*
D03*
X1320000D02*
D03*
X2010001Y-2010000D02*
D03*
X1790000D02*
D03*
X-2435000Y-725000D02*
D03*
X936744Y2113203D02*
D03*
X-1860000Y1280000D02*
D03*
X-1800000Y1210000D02*
D03*
X-1860000Y1140000D02*
D03*
X-1800000Y1070000D02*
D03*
X-1860000Y1000000D02*
D03*
X-1800000Y930000D02*
D03*
Y790000D02*
D03*
X-1860000Y860000D02*
D03*
X1460000Y370000D02*
D03*
X260000D02*
D03*
X-940000D02*
D03*
X1330000D02*
D03*
X130000D02*
D03*
X-1070000D02*
D03*
X1070000D02*
D03*
X-130000D02*
D03*
X950000D02*
D03*
X-250000D02*
D03*
X-1450000D02*
D03*
X465000Y2460000D02*
D03*
X465000Y2660000D02*
D03*
X-435000Y2460000D02*
D03*
X-435000Y2660000D02*
D03*
X-1335000Y2460000D02*
D03*
X-1335000Y2660000D02*
D03*
X-2920000Y-1450000D02*
D03*
X-2970000Y-900000D02*
D03*
Y-1000000D02*
D03*
Y-1100000D02*
D03*
Y-1200000D02*
D03*
Y-1300000D02*
D03*
X-2630000D02*
D03*
Y-1200000D02*
D03*
Y-1100000D02*
D03*
Y-1000000D02*
D03*
Y-900000D02*
D03*
X-2430000D02*
D03*
Y-1000000D02*
D03*
Y-1100000D02*
D03*
Y-1200000D02*
D03*
Y-1300000D02*
D03*
X-1900000Y-1200000D02*
D03*
X-2021205Y-1494834D02*
D03*
X-2430000Y-1400000D02*
D03*
X-2430000Y-1500000D02*
D03*
D70*
X-1560806Y-360806D02*
D03*
X-1700000Y-425000D02*
D03*
X-800000Y-400000D02*
D03*
X-700000Y-300000D02*
D03*
X500000Y-400000D02*
D03*
X-700000D02*
D03*
X400000D02*
D03*
X500000Y-300000D02*
D03*
X-700000Y100000D02*
D03*
Y-100000D02*
D03*
Y0D02*
D03*
X-800000Y300000D02*
D03*
X-700000Y200000D02*
D03*
Y300000D02*
D03*
Y-200000D02*
D03*
X500000Y0D02*
D03*
Y-200000D02*
D03*
Y-100000D02*
D03*
X400000Y300000D02*
D03*
X500000Y100000D02*
D03*
Y300000D02*
D03*
X1600000Y-400000D02*
D03*
X1700000Y100000D02*
D03*
X500000Y200000D02*
D03*
X1600000Y300000D02*
D03*
X1700000Y200000D02*
D03*
Y300000D02*
D03*
Y-400000D02*
D03*
Y-100000D02*
D03*
Y0D02*
D03*
Y-300000D02*
D03*
Y-200000D02*
D03*
X-1700000D02*
D03*
Y-300000D02*
D03*
X-500000Y-400000D02*
D03*
X-400000D02*
D03*
X-500000Y-200000D02*
D03*
Y-300000D02*
D03*
X700000Y-400000D02*
D03*
X800000D02*
D03*
X700000Y-300000D02*
D03*
Y-200000D02*
D03*
X-1700000Y300000D02*
D03*
Y200000D02*
D03*
Y0D02*
D03*
Y-100000D02*
D03*
Y100000D02*
D03*
X-500000Y200000D02*
D03*
X-1600000Y300000D02*
D03*
X-500000Y-100000D02*
D03*
Y100000D02*
D03*
Y0D02*
D03*
X700000D02*
D03*
Y-100000D02*
D03*
Y200000D02*
D03*
Y100000D02*
D03*
X800000Y300000D02*
D03*
X-500000D02*
D03*
X-400000D02*
D03*
X700000D02*
D03*
D71*
X-600000Y-3400000D02*
D03*
X-500000D02*
D03*
X-400000D02*
D03*
X-300000D02*
D03*
X-200000D02*
D03*
X-100000D02*
D03*
X0D02*
D03*
X100000D02*
D03*
X200000D02*
D03*
X300000D02*
D03*
X400000D02*
D03*
X500000D02*
D03*
X600000D02*
D03*
%TF.MD5,06cc361a105e9ceb746241b4174e0267*%
M02*
