%TF.GenerationSoftware,Altium Limited,Altium Designer,23.4.1 (23)*%
G04 Layer_Physical_Order=4*
G04 Layer_Color=16711680*
%FSLAX45Y45*%
%MOMM*%
%TF.SameCoordinates,71FFD784-3963-444D-9D63-9DA0FBDCC313*%
%TF.FilePolarity,Positive*%
%TF.FileFunction,Copper,L4,Bot,Signal*%
%TF.Part,Single*%
G01*
G75*
%TA.AperFunction,Conductor*%
%ADD10C,0.12700*%
%TA.AperFunction,SMDPad,CuDef*%
G04:AMPARAMS|DCode=15|XSize=0.9mm|YSize=0.8mm|CornerRadius=0.06mm|HoleSize=0mm|Usage=FLASHONLY|Rotation=180.000|XOffset=0mm|YOffset=0mm|HoleType=Round|Shape=RoundedRectangle|*
%AMROUNDEDRECTD15*
21,1,0.90000,0.68000,0,0,180.0*
21,1,0.78000,0.80000,0,0,180.0*
1,1,0.12000,-0.39000,0.34000*
1,1,0.12000,0.39000,0.34000*
1,1,0.12000,0.39000,-0.34000*
1,1,0.12000,-0.39000,-0.34000*
%
%ADD15ROUNDEDRECTD15*%
G04:AMPARAMS|DCode=18|XSize=0.9mm|YSize=0.8mm|CornerRadius=0.06mm|HoleSize=0mm|Usage=FLASHONLY|Rotation=270.000|XOffset=0mm|YOffset=0mm|HoleType=Round|Shape=RoundedRectangle|*
%AMROUNDEDRECTD18*
21,1,0.90000,0.68000,0,0,270.0*
21,1,0.78000,0.80000,0,0,270.0*
1,1,0.12000,-0.34000,-0.39000*
1,1,0.12000,-0.34000,0.39000*
1,1,0.12000,0.34000,0.39000*
1,1,0.12000,0.34000,-0.39000*
%
%ADD18ROUNDEDRECTD18*%
G04:AMPARAMS|DCode=20|XSize=0.9mm|YSize=1.4mm|CornerRadius=0.0675mm|HoleSize=0mm|Usage=FLASHONLY|Rotation=180.000|XOffset=0mm|YOffset=0mm|HoleType=Round|Shape=RoundedRectangle|*
%AMROUNDEDRECTD20*
21,1,0.90000,1.26500,0,0,180.0*
21,1,0.76500,1.40000,0,0,180.0*
1,1,0.13500,-0.38250,0.63250*
1,1,0.13500,0.38250,0.63250*
1,1,0.13500,0.38250,-0.63250*
1,1,0.13500,-0.38250,-0.63250*
%
%ADD20ROUNDEDRECTD20*%
%TA.AperFunction,Conductor*%
%ADD40C,0.40000*%
%ADD41C,0.20000*%
%ADD42C,0.50000*%
%ADD44C,0.80000*%
%TA.AperFunction,ComponentPad*%
%ADD46C,2.00000*%
%ADD47R,2.00000X2.00000*%
%ADD48C,3.80000*%
%ADD49R,1.70000X2.00000*%
%ADD50O,1.70000X2.00000*%
%ADD51C,1.50000*%
%ADD52R,1.50000X1.50000*%
%ADD53C,1.60000*%
%ADD54R,1.60000X1.60000*%
%ADD55R,1.26800X1.26800*%
%ADD56C,1.26800*%
%ADD57C,3.20000*%
%ADD58C,1.50800*%
%ADD59C,2.60000*%
%ADD60R,2.60000X2.60000*%
%ADD61O,1.20000X2.40000*%
%ADD62R,3.70000X3.70000*%
%ADD63C,3.70000*%
%ADD64C,6.00000*%
%ADD65C,0.71000*%
G04:AMPARAMS|DCode=66|XSize=1.6mm|YSize=1.1mm|CornerRadius=0mm|HoleSize=0mm|Usage=FLASHONLY|Rotation=67.500|XOffset=0mm|YOffset=0mm|HoleType=Round|Shape=Round|*
%AMOVALD66*
21,1,0.50000,1.10000,0.00000,0.00000,67.5*
1,1,1.10000,-0.09567,-0.23097*
1,1,1.10000,0.09567,0.23097*
%
%ADD66OVALD66*%

%ADD67C,2.40000*%
%ADD68O,5.00000X6.00000*%
%TA.AperFunction,ViaPad*%
%ADD69C,0.50000*%
%ADD70C,0.80000*%
%ADD71C,0.60000*%
%TA.AperFunction,SMDPad,CuDef*%
G04:AMPARAMS|DCode=72|XSize=0.5334mm|YSize=1.9812mm|CornerRadius=0.06668mm|HoleSize=0mm|Usage=FLASHONLY|Rotation=0.000|XOffset=0mm|YOffset=0mm|HoleType=Round|Shape=RoundedRectangle|*
%AMROUNDEDRECTD72*
21,1,0.53340,1.84785,0,0,0.0*
21,1,0.40005,1.98120,0,0,0.0*
1,1,0.13335,0.20002,-0.92392*
1,1,0.13335,-0.20002,-0.92392*
1,1,0.13335,-0.20002,0.92392*
1,1,0.13335,0.20002,0.92392*
%
%ADD72ROUNDEDRECTD72*%
%ADD73R,0.62500X0.25000*%
%ADD74R,0.70000X0.45000*%
%ADD75R,0.57500X0.45000*%
G04:AMPARAMS|DCode=76|XSize=0.5334mm|YSize=1.9812mm|CornerRadius=0.06668mm|HoleSize=0mm|Usage=FLASHONLY|Rotation=90.000|XOffset=0mm|YOffset=0mm|HoleType=Round|Shape=RoundedRectangle|*
%AMROUNDEDRECTD76*
21,1,0.53340,1.84785,0,0,90.0*
21,1,0.40005,1.98120,0,0,90.0*
1,1,0.13335,0.92392,0.20002*
1,1,0.13335,0.92392,-0.20002*
1,1,0.13335,-0.92392,-0.20002*
1,1,0.13335,-0.92392,0.20002*
%
%ADD76ROUNDEDRECTD76*%
%ADD77R,1.60300X0.55880*%
G36*
X357833Y3360436D02*
X713120Y3303349D01*
X827871Y3272060D01*
X827555Y3251416D01*
X803908Y3245739D01*
X758828Y3227066D01*
X717223Y3201571D01*
X680119Y3169881D01*
X648429Y3132777D01*
X622934Y3091172D01*
X604261Y3046091D01*
X592870Y2998644D01*
X589041Y2950000D01*
Y2850000D01*
X592870Y2801356D01*
X604261Y2753909D01*
X622934Y2708828D01*
X632830Y2692679D01*
X610856Y2670705D01*
X596000D01*
X581953Y2667911D01*
X570045Y2659954D01*
X562089Y2648046D01*
X559295Y2634000D01*
X552302Y2627007D01*
X528457Y2627635D01*
X524381Y2632272D01*
X522303Y2636812D01*
X521426Y2641218D01*
X517338Y2647338D01*
X511218Y2651426D01*
X504000Y2652862D01*
X503234D01*
Y2660000D01*
X502500Y2663693D01*
Y2667459D01*
X501059Y2670938D01*
X500324Y2674632D01*
X498232Y2677763D01*
X496791Y2681242D01*
X494128Y2683904D01*
X492036Y2687036D01*
X488904Y2689128D01*
X486242Y2691791D01*
X482763Y2693232D01*
X479632Y2695324D01*
X475938Y2696059D01*
X472459Y2697500D01*
X468693D01*
X465000Y2698235D01*
X461307Y2697500D01*
X457541D01*
X454062Y2696059D01*
X450368Y2695324D01*
X447237Y2693232D01*
X443758Y2691791D01*
X441095Y2689128D01*
X437964Y2687036D01*
X435871Y2683904D01*
X433209Y2681242D01*
X431768Y2677763D01*
X429676Y2674632D01*
X428941Y2670938D01*
X427500Y2667459D01*
Y2663693D01*
X426765Y2660000D01*
Y2652862D01*
X426000D01*
X418781Y2651426D01*
X412662Y2647338D01*
X408573Y2641218D01*
X407137Y2634000D01*
Y2566000D01*
X408573Y2558782D01*
X412662Y2552662D01*
X418781Y2548573D01*
X426000Y2547137D01*
X504000D01*
X511218Y2548573D01*
X517338Y2552662D01*
X521426Y2558782D01*
X522303Y2563188D01*
X524381Y2567728D01*
X528457Y2572364D01*
X552302Y2572993D01*
X559295Y2566000D01*
X562089Y2551953D01*
X564396Y2548500D01*
Y2451500D01*
X562089Y2448046D01*
X559295Y2434000D01*
X555808Y2430513D01*
X531130Y2430975D01*
X528470Y2434000D01*
X526608Y2443364D01*
X521303Y2451303D01*
X513364Y2456607D01*
X504000Y2458470D01*
X485000D01*
Y2400000D01*
Y2341530D01*
X504000D01*
X513364Y2343393D01*
X521303Y2348697D01*
X526608Y2356636D01*
X528470Y2366000D01*
X531130Y2369025D01*
X555808Y2369487D01*
X559295Y2366000D01*
X562089Y2351954D01*
X570046Y2340046D01*
X581954Y2332089D01*
X596000Y2329295D01*
X674000D01*
X688046Y2332089D01*
X699954Y2340046D01*
X707911Y2351954D01*
X710705Y2366000D01*
Y2434000D01*
X707911Y2448046D01*
X705604Y2451500D01*
Y2548501D01*
X707911Y2551953D01*
X710705Y2566000D01*
Y2570856D01*
X730278Y2590429D01*
X758828Y2572934D01*
X803908Y2554261D01*
X851355Y2542870D01*
X900000Y2539042D01*
X948645Y2542870D01*
X996091Y2554261D01*
X1041172Y2572934D01*
X1082777Y2598429D01*
X1119881Y2630119D01*
X1151571Y2667223D01*
X1177066Y2708828D01*
X1195739Y2753909D01*
X1207130Y2801356D01*
X1210958Y2850000D01*
Y2950000D01*
X1207130Y2998644D01*
X1195739Y3046091D01*
X1177066Y3091172D01*
X1151571Y3132777D01*
X1127357Y3161127D01*
X1139317Y3177919D01*
X1386129Y3081103D01*
X1357013Y2980888D01*
X1356512Y2975102D01*
X1355949Y2969328D01*
X1367538Y2852777D01*
X1369189Y2847352D01*
X1370736Y2841888D01*
X1424021Y2737585D01*
X1427619Y2733031D01*
X1431169Y2728436D01*
X1522521Y2648857D01*
X1527606Y2645944D01*
X1532685Y2642989D01*
X1647278Y2603666D01*
X1653028Y2602889D01*
X1658774Y2602050D01*
X1775746Y2608055D01*
X1781250Y2609446D01*
X1786776Y2610729D01*
X1893507Y2658969D01*
X1898232Y2662348D01*
X1902987Y2665671D01*
X1975218Y2740995D01*
X2246377Y2524751D01*
X2503430Y2270115D01*
X2730630Y1991016D01*
X2926362Y1690207D01*
X3089124Y1370310D01*
X3217325Y1034079D01*
X3309438Y684149D01*
X3361346Y340147D01*
X3259999Y315255D01*
X3254742Y312798D01*
X3249455Y310396D01*
X3154314Y242084D01*
X3150439Y237939D01*
X3146483Y233870D01*
X3082796Y135572D01*
X3080651Y130179D01*
X3078447Y124808D01*
X3055206Y5905D01*
X3055226Y37D01*
X3055206Y-5831D01*
X3078447Y-124734D01*
X3080647Y-130095D01*
X3082796Y-135498D01*
X3146483Y-233796D01*
X3150436Y-237862D01*
X3154314Y-242010D01*
X3249455Y-310322D01*
X3254742Y-312724D01*
X3259999Y-315180D01*
X3361348Y-340073D01*
X3309655Y-683024D01*
X3217654Y-1032981D01*
X3089556Y-1369258D01*
X2926901Y-1689201D01*
X2731264Y-1990070D01*
X2504161Y-2269237D01*
X2247192Y-2523948D01*
X1975216Y-2740919D01*
X1902987Y-2665597D01*
X1898226Y-2662270D01*
X1893507Y-2658895D01*
X1786776Y-2610655D01*
X1781249Y-2609372D01*
X1775746Y-2607981D01*
X1658774Y-2601975D01*
X1653026Y-2602815D01*
X1647278Y-2603591D01*
X1532685Y-2642915D01*
X1527592Y-2645878D01*
X1522522Y-2648783D01*
X1431169Y-2728362D01*
X1427624Y-2732951D01*
X1424021Y-2737510D01*
X1370736Y-2841813D01*
X1369191Y-2847271D01*
X1367538Y-2852702D01*
X1355949Y-2969254D01*
X1356513Y-2975039D01*
X1357013Y-2980814D01*
X1386130Y-3081031D01*
X1063309Y-3207726D01*
X742537Y-3295313D01*
X742507Y-3295328D01*
X742473Y-3295330D01*
X740202Y-3296470D01*
X-101204D01*
X-108858Y-3277992D01*
X-90433Y-3259567D01*
X-86470Y-3250000D01*
Y-2157596D01*
X75882Y-1983530D01*
X840000D01*
X849568Y-1979567D01*
X1327068Y-1502066D01*
X1345500Y-1511918D01*
X1342000Y-1529514D01*
Y-1529999D01*
X1530000D01*
Y-1342000D01*
X1529514D01*
X1511918Y-1345500D01*
X1502066Y-1327068D01*
X1789567Y-1039567D01*
X1793530Y-1029999D01*
Y-834847D01*
X1798768Y-830356D01*
X1813530Y-823768D01*
X1822541Y-827500D01*
X1837459D01*
X1851242Y-821791D01*
X1861791Y-811242D01*
X1867500Y-797459D01*
Y-782541D01*
X1861791Y-768758D01*
X1854940Y-761907D01*
X1852751Y-750000D01*
X1854940Y-738093D01*
X1861791Y-731242D01*
X1867500Y-717459D01*
Y-702541D01*
X1861791Y-688758D01*
X1854940Y-681907D01*
X1852751Y-670000D01*
X1854940Y-658093D01*
X1861791Y-651242D01*
X1867500Y-637459D01*
Y-622541D01*
X1861791Y-608758D01*
X1854940Y-601907D01*
X1852751Y-590000D01*
X1854940Y-578093D01*
X1861791Y-571242D01*
X1867500Y-557459D01*
Y-542541D01*
X1861791Y-528758D01*
X1851242Y-518209D01*
X1837459Y-512500D01*
X1822541D01*
X1813530Y-516232D01*
X1798768Y-509643D01*
X1793530Y-505152D01*
Y340000D01*
X1789567Y349567D01*
X1769567Y369567D01*
X1760000Y373530D01*
X1530000D01*
X1513123Y388187D01*
X1512709Y390267D01*
X1616222Y493779D01*
X1621194Y501221D01*
X1622941Y510000D01*
Y557138D01*
X1634000D01*
X1641218Y558573D01*
X1647338Y562662D01*
X1651427Y568782D01*
X1652863Y576000D01*
Y592059D01*
X1747137D01*
Y576000D01*
X1748573Y568782D01*
X1752662Y562662D01*
X1758782Y558573D01*
X1766000Y557138D01*
X1834000D01*
X1841218Y558573D01*
X1847338Y562662D01*
X1851427Y568782D01*
X1852862Y576000D01*
Y630131D01*
X1872862Y634110D01*
X1875079Y628758D01*
X1885628Y618209D01*
X1899411Y612500D01*
X1914329D01*
X1931501Y597965D01*
Y-202336D01*
X1911501Y-214174D01*
X1907459Y-212500D01*
X1892541D01*
X1878758Y-218209D01*
X1868209Y-228758D01*
X1862500Y-242541D01*
Y-257459D01*
X1868209Y-271242D01*
X1878758Y-281791D01*
X1892541Y-287500D01*
X1907459D01*
X1911501Y-285826D01*
X1931501Y-297664D01*
Y-382336D01*
X1911501Y-394174D01*
X1907459Y-392500D01*
X1892541D01*
X1878758Y-398209D01*
X1868209Y-408758D01*
X1862500Y-422541D01*
Y-437459D01*
X1868209Y-451242D01*
X1878758Y-461791D01*
X1892541Y-467500D01*
X1907459D01*
X1911501Y-465826D01*
X1931501Y-477664D01*
Y-874712D01*
X1918569Y-880069D01*
X1908021Y-890618D01*
X1902311Y-904401D01*
Y-919319D01*
X1908021Y-933102D01*
X1918569Y-943651D01*
X1932352Y-949360D01*
X1947271D01*
X1961053Y-943651D01*
X1971062Y-933643D01*
X1981069Y-943651D01*
X1994852Y-949360D01*
X2009771D01*
X2023553Y-943651D01*
X2034102Y-933102D01*
X2039812Y-919319D01*
Y-904401D01*
X2034102Y-890618D01*
X2023553Y-880069D01*
X2010622Y-874713D01*
Y1713570D01*
X2010623Y1713571D01*
X2009160Y1720926D01*
X2004993Y1727161D01*
X2004992Y1727162D01*
X1833356Y1898799D01*
X1844685Y1915754D01*
X1852541Y1912500D01*
X1867459D01*
X1881242Y1918209D01*
X1891791Y1928758D01*
X1897500Y1942541D01*
Y1957459D01*
X1891791Y1971242D01*
X1881242Y1981791D01*
X1867459Y1987500D01*
X1852541D01*
X1838758Y1981791D01*
X1828209Y1971242D01*
X1822500Y1957459D01*
Y1948283D01*
X1810314Y1935221D01*
X1805165Y1932129D01*
X1798324Y1933831D01*
X1798324Y1933831D01*
X1719655Y2012500D01*
X1727460Y2032500D01*
X1741242Y2038209D01*
X1751791Y2048758D01*
X1757500Y2062541D01*
Y2077459D01*
X1751791Y2091242D01*
X1741242Y2101791D01*
X1727459Y2107500D01*
X1712541D01*
X1698758Y2101791D01*
X1688209Y2091242D01*
X1686842Y2087941D01*
X872110D01*
X871504Y2088368D01*
X865450Y2095757D01*
X861408Y2107941D01*
X861809Y2108540D01*
X862886Y2113957D01*
X865000Y2119060D01*
Y2124583D01*
X866077Y2130000D01*
Y2149861D01*
X866896Y2153979D01*
Y2338764D01*
X864051Y2353071D01*
X855946Y2365200D01*
X843817Y2373304D01*
X829511Y2376150D01*
X789506D01*
X775199Y2373304D01*
X763070Y2365200D01*
X754966Y2353071D01*
X752120Y2338764D01*
Y2153979D01*
X753923Y2144917D01*
Y2130000D01*
X755000Y2124583D01*
Y2119060D01*
X757114Y2113957D01*
X758191Y2108540D01*
X758592Y2107941D01*
X754550Y2095757D01*
X748496Y2088368D01*
X747890Y2087941D01*
X-684482D01*
X-698756Y2105744D01*
Y2120662D01*
X-703355Y2131765D01*
Y2139703D01*
X-702670Y2140160D01*
X-698434Y2146501D01*
X-696946Y2153979D01*
Y2338764D01*
X-698434Y2346243D01*
X-699833Y2348337D01*
X-691753Y2364877D01*
X-689989Y2366863D01*
X-655995D01*
X-654541Y2365226D01*
X-647135Y2346863D01*
X-647550Y2346243D01*
X-649037Y2338764D01*
Y2153979D01*
X-647550Y2146501D01*
X-643313Y2140160D01*
X-636973Y2135924D01*
X-629494Y2134436D01*
X-589489D01*
X-582011Y2135924D01*
X-575670Y2140160D01*
X-571434Y2146501D01*
X-569946Y2153979D01*
Y2285380D01*
X-563509Y2289741D01*
X-549946Y2293084D01*
X-482863Y2226000D01*
Y2186000D01*
X-481427Y2178782D01*
X-477338Y2172662D01*
X-471219Y2168573D01*
X-464000Y2167137D01*
X-386000D01*
X-378782Y2168573D01*
X-372662Y2172662D01*
X-368574Y2178782D01*
X-367697Y2183188D01*
X-365619Y2187728D01*
X-354831Y2200000D01*
X-347137Y2200000D01*
X-330777Y2200000D01*
X-318471Y2186000D01*
X-316608Y2176636D01*
X-311303Y2168697D01*
X-303364Y2163392D01*
X-294000Y2161530D01*
X-275000D01*
Y2219999D01*
Y2278470D01*
X-294000D01*
X-303364Y2276607D01*
X-311303Y2271303D01*
X-316608Y2263364D01*
X-318471Y2254000D01*
X-330777Y2240000D01*
X-338470Y2240000D01*
X-354831Y2240000D01*
X-365619Y2252272D01*
X-367697Y2256812D01*
X-368574Y2261218D01*
X-372662Y2267338D01*
X-378782Y2271426D01*
X-386000Y2272862D01*
X-436000D01*
X-486827Y2323690D01*
X-477023Y2342032D01*
X-476863Y2342099D01*
X-474000Y2341530D01*
X-455000D01*
Y2400000D01*
Y2458470D01*
X-474000D01*
X-483364Y2456607D01*
X-491303Y2451303D01*
X-496607Y2443364D01*
X-498470Y2434000D01*
Y2403617D01*
X-518470Y2395333D01*
X-546569Y2423431D01*
X-557319Y2430614D01*
X-570000Y2433137D01*
X-710000D01*
X-722681Y2430614D01*
X-733431Y2423431D01*
X-763431Y2393431D01*
X-770614Y2382681D01*
X-773137Y2370000D01*
Y2348358D01*
X-774550Y2346243D01*
X-776037Y2338764D01*
Y2153979D01*
X-774550Y2146501D01*
X-770313Y2140160D01*
X-769629Y2139703D01*
Y2130626D01*
X-773756Y2120662D01*
Y2105744D01*
X-788030Y2087941D01*
X-927890D01*
X-928496Y2088368D01*
X-934550Y2095757D01*
X-938592Y2107941D01*
X-938191Y2108540D01*
X-937114Y2113957D01*
X-935000Y2119060D01*
Y2124583D01*
X-933923Y2130000D01*
Y2149861D01*
X-933104Y2153979D01*
Y2338764D01*
X-935949Y2353071D01*
X-944053Y2365200D01*
X-956182Y2373304D01*
X-970489Y2376150D01*
X-1010494D01*
X-1024801Y2373304D01*
X-1036930Y2365200D01*
X-1045034Y2353071D01*
X-1047880Y2338764D01*
Y2153979D01*
X-1046077Y2144917D01*
Y2130000D01*
X-1045000Y2124583D01*
Y2119060D01*
X-1042886Y2113957D01*
X-1041809Y2108540D01*
X-1041408Y2107941D01*
X-1045450Y2095757D01*
X-1051504Y2088368D01*
X-1052110Y2087941D01*
X-1345498D01*
X-1363778Y2106221D01*
X-1371221Y2111194D01*
X-1380000Y2112941D01*
X-1399908D01*
X-1408758Y2121791D01*
X-1422541Y2127500D01*
X-1437459D01*
X-1451242Y2121791D01*
X-1461791Y2111242D01*
X-1467500Y2097459D01*
Y2082541D01*
X-1461791Y2068758D01*
X-1457424Y2064391D01*
X-1465708Y2044391D01*
X-1491932D01*
X-1497289Y2057322D01*
X-1507838Y2067871D01*
X-1521621Y2073580D01*
X-1536539D01*
X-1550322Y2067871D01*
X-1560871Y2057322D01*
X-1566580Y2043539D01*
Y2028621D01*
X-1560871Y2014838D01*
X-1550863Y2004830D01*
X-1560871Y1994822D01*
X-1566580Y1981039D01*
Y1966121D01*
X-1560871Y1952338D01*
X-1550322Y1941789D01*
X-1536539Y1936080D01*
X-1521621D01*
X-1507838Y1941789D01*
X-1497289Y1952338D01*
X-1491933Y1965269D01*
X-1373714D01*
X-1367448Y1949339D01*
X-1367174Y1945269D01*
X-1382718Y1929725D01*
X-1406692D01*
X-1408758Y1931791D01*
X-1422541Y1937500D01*
X-1437459D01*
X-1451242Y1931791D01*
X-1461791Y1921242D01*
X-1467500Y1907459D01*
Y1892541D01*
X-1461791Y1878758D01*
X-1451242Y1868209D01*
X-1437459Y1862500D01*
X-1422541D01*
X-1408758Y1868209D01*
X-1399908Y1877059D01*
X-1380000D01*
X-1371221Y1878805D01*
X-1363779Y1883779D01*
X-1340498Y1907059D01*
X-1052110D01*
X-1051504Y1906632D01*
X-1045450Y1899243D01*
X-1041408Y1887059D01*
X-1041809Y1886460D01*
X-1042886Y1881043D01*
X-1045000Y1875940D01*
Y1870417D01*
X-1046077Y1865000D01*
Y1855067D01*
X-1047880Y1846004D01*
Y1661219D01*
X-1045034Y1646913D01*
X-1036930Y1634784D01*
X-1024801Y1626679D01*
X-1010494Y1623834D01*
X-970489D01*
X-956182Y1626679D01*
X-944053Y1634784D01*
X-935949Y1646913D01*
X-933104Y1661219D01*
Y1846004D01*
X-933923Y1850123D01*
Y1865000D01*
X-935000Y1870417D01*
Y1875940D01*
X-937114Y1881043D01*
X-938191Y1886460D01*
X-938592Y1887059D01*
X-934550Y1899243D01*
X-928496Y1906632D01*
X-927890Y1907059D01*
X-788557D01*
X-773992Y1889959D01*
Y1875041D01*
X-769629Y1864507D01*
Y1860281D01*
X-770313Y1859824D01*
X-774550Y1853483D01*
X-776037Y1846004D01*
Y1661219D01*
X-774550Y1653741D01*
X-770313Y1647400D01*
X-763973Y1643164D01*
X-756494Y1641676D01*
X-716489D01*
X-709011Y1643164D01*
X-702670Y1647400D01*
X-698434Y1653741D01*
X-696946Y1661219D01*
Y1846004D01*
X-698434Y1853483D01*
X-702670Y1859824D01*
X-703355Y1860281D01*
Y1864507D01*
X-698992Y1875041D01*
Y1889959D01*
X-684427Y1907059D01*
X-498524D01*
X-497460Y1887500D01*
X-511242Y1881791D01*
X-521791Y1871242D01*
X-527500Y1857459D01*
Y1842541D01*
X-521791Y1828758D01*
X-511242Y1818209D01*
X-497459Y1812500D01*
X-482541D01*
X-468758Y1818209D01*
X-459908Y1827059D01*
X559908D01*
X568758Y1818209D01*
X582541Y1812500D01*
X597459D01*
X611242Y1818209D01*
X621791Y1828758D01*
X627500Y1842541D01*
Y1857459D01*
X621791Y1871242D01*
X611242Y1881791D01*
X597460Y1887500D01*
X598524Y1907059D01*
X747890D01*
X748496Y1906632D01*
X754550Y1899243D01*
X758592Y1887059D01*
X758191Y1886460D01*
X757114Y1881043D01*
X755000Y1875940D01*
Y1870417D01*
X753923Y1865000D01*
Y1855067D01*
X752120Y1846004D01*
Y1661219D01*
X754966Y1646913D01*
X763070Y1634784D01*
X775199Y1626679D01*
X789506Y1623834D01*
X829511D01*
X843817Y1626679D01*
X855946Y1634784D01*
X864051Y1646913D01*
X866896Y1661219D01*
Y1846004D01*
X866077Y1850123D01*
Y1865000D01*
X865000Y1870417D01*
Y1875940D01*
X862886Y1881043D01*
X861809Y1886460D01*
X861408Y1887059D01*
X865450Y1899243D01*
X871504Y1906632D01*
X872110Y1907059D01*
X1011443D01*
X1026008Y1889959D01*
Y1875041D01*
X1030371Y1864507D01*
Y1860281D01*
X1029687Y1859824D01*
X1025450Y1853483D01*
X1023963Y1846004D01*
Y1661219D01*
X1025450Y1653741D01*
X1029687Y1647400D01*
X1036027Y1643164D01*
X1043506Y1641676D01*
X1083511D01*
X1090989Y1643164D01*
X1097330Y1647400D01*
X1101566Y1653741D01*
X1103054Y1661219D01*
Y1846004D01*
X1101566Y1853483D01*
X1097330Y1859824D01*
X1096645Y1860281D01*
Y1864507D01*
X1101008Y1875041D01*
Y1889959D01*
X1115573Y1907059D01*
X1595833D01*
X1807059Y1695833D01*
Y1260000D01*
X1808805Y1251221D01*
X1813778Y1243779D01*
X1887059Y1170498D01*
Y962384D01*
X1885628Y961791D01*
X1875079Y951242D01*
X1869370Y937459D01*
Y922541D01*
X1875079Y908758D01*
X1885628Y898209D01*
X1899411Y892500D01*
X1914329D01*
X1931501Y877965D01*
Y702035D01*
X1914329Y687500D01*
X1899411D01*
X1885628Y681791D01*
X1875079Y671242D01*
X1871529Y662672D01*
X1855875Y661540D01*
X1850893Y662017D01*
X1847338Y667338D01*
X1841218Y671427D01*
X1836812Y672303D01*
X1832272Y674382D01*
X1820000Y685169D01*
X1820000Y692863D01*
X1820000Y709224D01*
X1834000Y721530D01*
X1843364Y723393D01*
X1851303Y728697D01*
X1856607Y736636D01*
X1858470Y746000D01*
Y765000D01*
X1800000D01*
X1741530D01*
Y746000D01*
X1743392Y736636D01*
X1748697Y728697D01*
X1756636Y723393D01*
X1766000Y721530D01*
X1780000Y709224D01*
X1780000Y701530D01*
X1780000Y685169D01*
X1767728Y674382D01*
X1763188Y672303D01*
X1758782Y671427D01*
X1752662Y667338D01*
X1748573Y661218D01*
X1747137Y654000D01*
Y637941D01*
X1652863D01*
Y654000D01*
X1651427Y661218D01*
X1647338Y667338D01*
X1641219Y671427D01*
X1633517Y680001D01*
Y720000D01*
X1643365Y723393D01*
X1651303Y728697D01*
X1656608Y736636D01*
X1658470Y746000D01*
Y764999D01*
X1600000D01*
X1541530D01*
Y746000D01*
X1543393Y736636D01*
X1548697Y728697D01*
X1556636Y723393D01*
X1566457Y720000D01*
Y680001D01*
X1558781Y671427D01*
X1552662Y667338D01*
X1548573Y661218D01*
X1547138Y654000D01*
Y576000D01*
X1548573Y568782D01*
X1552662Y562662D01*
X1558782Y558573D01*
X1566000Y557138D01*
X1577059D01*
Y519502D01*
X1465057Y407500D01*
X1452541D01*
X1438758Y401791D01*
X1428209Y391242D01*
X1422500Y377459D01*
Y362541D01*
X1428209Y348758D01*
X1438758Y338209D01*
X1452541Y332500D01*
X1467459D01*
X1476470Y336232D01*
X1491232Y329644D01*
X1496470Y325153D01*
Y-484396D01*
X1454396Y-526470D01*
X635604D01*
X593530Y-484396D01*
Y340000D01*
X589567Y349567D01*
X569567Y369567D01*
X560000Y373530D01*
X330000D01*
X313123Y388187D01*
X312710Y390267D01*
X416222Y493779D01*
X421194Y501221D01*
X422941Y510000D01*
Y557138D01*
X434000D01*
X441218Y558573D01*
X447338Y562662D01*
X451427Y568782D01*
X452862Y576000D01*
Y592059D01*
X547138D01*
Y576000D01*
X548573Y568782D01*
X552662Y562662D01*
X558782Y558573D01*
X566000Y557138D01*
X634000D01*
X641218Y558573D01*
X647338Y562662D01*
X651427Y568782D01*
X652863Y576000D01*
Y654000D01*
X651427Y661218D01*
X647338Y667338D01*
X641218Y671427D01*
X636812Y672303D01*
X632272Y674382D01*
X620000Y685169D01*
X620000Y692863D01*
X620000Y709224D01*
X634000Y721530D01*
X643364Y723393D01*
X651303Y728697D01*
X656608Y736636D01*
X658470Y746000D01*
Y764999D01*
X600000D01*
X541530D01*
Y746000D01*
X543393Y736636D01*
X548697Y728697D01*
X556636Y723393D01*
X566000Y721530D01*
X580000Y709224D01*
X580000Y701530D01*
X580000Y685169D01*
X567728Y674382D01*
X563188Y672303D01*
X558782Y671427D01*
X552662Y667338D01*
X548573Y661218D01*
X547138Y654000D01*
Y637941D01*
X452862D01*
Y654000D01*
X451427Y661218D01*
X447338Y667338D01*
X441219Y671427D01*
X433515Y680001D01*
Y720000D01*
X443364Y723393D01*
X451303Y728697D01*
X456607Y736636D01*
X458470Y746000D01*
Y765000D01*
X400000D01*
X341530D01*
Y746000D01*
X343393Y736636D01*
X348697Y728697D01*
X356636Y723393D01*
X366455Y720000D01*
Y680001D01*
X358781Y671427D01*
X352662Y667338D01*
X348573Y661218D01*
X347137Y654000D01*
Y576000D01*
X348573Y568782D01*
X352662Y562662D01*
X358782Y558573D01*
X366000Y557138D01*
X377059D01*
Y519502D01*
X265057Y407500D01*
X252541D01*
X238758Y401791D01*
X228209Y391242D01*
X222500Y377459D01*
Y362541D01*
X228209Y348758D01*
X238758Y338209D01*
X252541Y332500D01*
X267459D01*
X276470Y336232D01*
X291232Y329644D01*
X296470Y325153D01*
Y230940D01*
X252927D01*
Y247503D01*
X250405Y260184D01*
X243222Y270934D01*
X227500Y286656D01*
Y287459D01*
X221791Y301242D01*
X211242Y311791D01*
X197459Y317500D01*
X182541D01*
X168758Y311791D01*
X158209Y301242D01*
X152500Y287459D01*
Y272541D01*
X158209Y258758D01*
X168758Y248209D01*
X172622Y246608D01*
X183080Y230940D01*
Y150060D01*
X242593D01*
Y103940D01*
X183080D01*
Y23060D01*
X296470D01*
Y-23060D01*
X183080D01*
Y-40559D01*
X143003D01*
X-213778Y316221D01*
X-220274Y320562D01*
X-221843Y323825D01*
X-224691Y342276D01*
X-218209Y348758D01*
X-212500Y362541D01*
Y377459D01*
X-218209Y391242D01*
X-228758Y401791D01*
X-242541Y407500D01*
X-255057D01*
X-377059Y529502D01*
Y557138D01*
X-366000D01*
X-358782Y558573D01*
X-352662Y562662D01*
X-348573Y568782D01*
X-347137Y576000D01*
Y654000D01*
X-348573Y661218D01*
X-352662Y667338D01*
X-358781Y671427D01*
X-366480Y680000D01*
Y720000D01*
X-358781Y728573D01*
X-352662Y732662D01*
X-348573Y738782D01*
X-347137Y746000D01*
Y824000D01*
X-348573Y831218D01*
X-352662Y837338D01*
X-358782Y841427D01*
X-366000Y842862D01*
X-377059D01*
Y890000D01*
X-378805Y898779D01*
X-383779Y906222D01*
X-423778Y946221D01*
X-431221Y951194D01*
X-440000Y952941D01*
X-1754314D01*
X-1757279Y957059D01*
X-1747034Y977059D01*
X-249502D01*
X-222941Y950498D01*
Y842862D01*
X-234000D01*
X-241218Y841427D01*
X-247338Y837338D01*
X-251427Y831218D01*
X-252863Y824000D01*
Y746000D01*
X-251427Y738782D01*
X-247338Y732662D01*
X-241219Y728573D01*
X-233526Y720000D01*
Y680000D01*
X-241219Y671427D01*
X-247338Y667338D01*
X-251427Y661218D01*
X-252863Y654000D01*
Y576000D01*
X-251427Y568782D01*
X-247338Y562662D01*
X-241218Y558573D01*
X-234000Y557138D01*
X-222941D01*
Y510000D01*
X-221195Y501221D01*
X-216222Y493779D01*
X-152941Y430497D01*
Y400092D01*
X-161791Y391242D01*
X-167500Y377459D01*
Y362541D01*
X-161791Y348758D01*
X-151242Y338209D01*
X-137459Y332500D01*
X-122541D01*
X-108758Y338209D01*
X-98209Y348758D01*
X-92500Y362541D01*
Y377459D01*
X-98209Y391242D01*
X-107059Y400092D01*
Y440000D01*
X-108805Y448779D01*
X-113778Y456221D01*
X-177059Y519502D01*
Y557138D01*
X-166000D01*
X-158782Y558573D01*
X-152662Y562662D01*
X-148573Y568782D01*
X-147138Y576000D01*
Y654000D01*
X-148573Y661218D01*
X-152662Y667338D01*
X-158781Y671427D01*
X-166466Y680000D01*
Y720000D01*
X-158781Y728573D01*
X-152662Y732662D01*
X-148573Y738782D01*
X-147138Y746000D01*
Y824000D01*
X-148573Y831218D01*
X-152662Y837338D01*
X-158782Y841427D01*
X-166000Y842862D01*
X-177059D01*
Y960000D01*
X-178806Y968779D01*
X-183778Y976222D01*
X-223778Y1016221D01*
X-231221Y1021195D01*
X-240000Y1022941D01*
X-1747033D01*
X-1757279Y1042941D01*
X-1754314Y1047059D01*
X750498D01*
X777059Y1020498D01*
Y842862D01*
X766000D01*
X758782Y841427D01*
X752662Y837338D01*
X748573Y831218D01*
X747137Y824000D01*
Y746000D01*
X748573Y738782D01*
X752662Y732662D01*
X758781Y728573D01*
X766465Y720000D01*
Y680001D01*
X758781Y671427D01*
X752662Y667338D01*
X748573Y661218D01*
X747137Y654000D01*
Y576000D01*
X748573Y568782D01*
X752662Y562662D01*
X758782Y558573D01*
X766000Y557138D01*
X777059D01*
Y520000D01*
X778805Y511221D01*
X783778Y503779D01*
X912500Y375057D01*
Y362541D01*
X918209Y348758D01*
X928758Y338209D01*
X942541Y332500D01*
X957459D01*
X971242Y338209D01*
X981791Y348758D01*
X987500Y362541D01*
Y377459D01*
X981791Y391242D01*
X971242Y401791D01*
X957459Y407500D01*
X944943D01*
X822940Y529502D01*
Y557138D01*
X834000D01*
X841218Y558573D01*
X847338Y562662D01*
X851427Y568782D01*
X852862Y576000D01*
Y654000D01*
X851427Y661218D01*
X847338Y667338D01*
X841219Y671427D01*
X833525Y680001D01*
Y720000D01*
X841219Y728573D01*
X847338Y732662D01*
X851427Y738782D01*
X852862Y746000D01*
Y824000D01*
X851427Y831218D01*
X847338Y837338D01*
X841218Y841427D01*
X834000Y842862D01*
X822941D01*
Y1030000D01*
X821194Y1038779D01*
X816221Y1046222D01*
X776221Y1086221D01*
X768779Y1091194D01*
X760000Y1092941D01*
X-1754314D01*
X-1757279Y1097059D01*
X-1747034Y1117059D01*
X940498D01*
X976943Y1080614D01*
Y842862D01*
X966000D01*
X958782Y841427D01*
X952662Y837338D01*
X948573Y831218D01*
X947138Y824000D01*
Y746000D01*
X948573Y738782D01*
X952662Y732662D01*
X958781Y728573D01*
X966462Y720000D01*
Y680001D01*
X958781Y671427D01*
X952662Y667338D01*
X948573Y661218D01*
X947138Y654000D01*
Y576000D01*
X948573Y568782D01*
X952662Y562662D01*
X958782Y558573D01*
X966000Y557138D01*
X977059D01*
Y510000D01*
X978805Y501221D01*
X983778Y493779D01*
X1047059Y430497D01*
Y400092D01*
X1038209Y391242D01*
X1032500Y377459D01*
Y362541D01*
X1038209Y348758D01*
X1048758Y338209D01*
X1062541Y332500D01*
X1077459D01*
X1091242Y338209D01*
X1101791Y348758D01*
X1107500Y362541D01*
Y377459D01*
X1101791Y391242D01*
X1092941Y400092D01*
Y440000D01*
X1091194Y448779D01*
X1086222Y456221D01*
X1022941Y519502D01*
Y557138D01*
X1034000D01*
X1041218Y558573D01*
X1047338Y562662D01*
X1051427Y568782D01*
X1052863Y576000D01*
Y654000D01*
X1051427Y661218D01*
X1047338Y667338D01*
X1041219Y671427D01*
X1033522Y680001D01*
Y720000D01*
X1041219Y728573D01*
X1047338Y732662D01*
X1051427Y738782D01*
X1052863Y746000D01*
Y824000D01*
X1051427Y831218D01*
X1047338Y837338D01*
X1041218Y841427D01*
X1034000Y842862D01*
X1022825D01*
Y1090116D01*
X1021078Y1098896D01*
X1016105Y1106338D01*
X966222Y1156221D01*
X958779Y1161195D01*
X950000Y1162941D01*
X-1747034D01*
X-1757279Y1182941D01*
X-1754314Y1187059D01*
X1140000D01*
X1148779Y1188806D01*
X1156221Y1193779D01*
X1204940Y1242497D01*
X1209913Y1249940D01*
X1211660Y1258719D01*
Y1641905D01*
X1217989Y1643164D01*
X1224330Y1647400D01*
X1228566Y1653741D01*
X1230054Y1661219D01*
Y1846004D01*
X1228566Y1853483D01*
X1224330Y1859824D01*
X1217989Y1864060D01*
X1210511Y1865547D01*
X1170506D01*
X1163027Y1864060D01*
X1156687Y1859824D01*
X1152450Y1853483D01*
X1150963Y1846004D01*
Y1661219D01*
X1152450Y1653741D01*
X1156687Y1647400D01*
X1163027Y1643164D01*
X1165778Y1642617D01*
Y1268221D01*
X1130498Y1232941D01*
X-1754314D01*
X-1757279Y1237059D01*
X-1747033Y1257059D01*
X-650000D01*
X-641221Y1258805D01*
X-633779Y1263779D01*
X-593270Y1304286D01*
X-588297Y1311729D01*
X-586551Y1320508D01*
Y1642261D01*
X-582011Y1643164D01*
X-575670Y1647400D01*
X-571434Y1653741D01*
X-569946Y1661219D01*
Y1846004D01*
X-571434Y1853483D01*
X-575670Y1859824D01*
X-582011Y1864060D01*
X-589489Y1865547D01*
X-629494D01*
X-636973Y1864060D01*
X-643313Y1859824D01*
X-647550Y1853483D01*
X-649037Y1846004D01*
Y1661219D01*
X-647550Y1653741D01*
X-643313Y1647400D01*
X-636973Y1643164D01*
X-632433Y1642261D01*
Y1330011D01*
X-659502Y1302941D01*
X-1829908D01*
X-1838758Y1311791D01*
X-1852541Y1317500D01*
X-1867459D01*
X-1881242Y1311791D01*
X-1891791Y1301242D01*
X-1897500Y1287459D01*
Y1272541D01*
X-1891791Y1258758D01*
X-1881242Y1248209D01*
X-1867459Y1242500D01*
X-1852541D01*
X-1846007Y1245207D01*
X-1836462Y1235830D01*
X-1832688Y1229075D01*
X-1837500Y1217459D01*
Y1202541D01*
X-1832688Y1190925D01*
X-1836461Y1184171D01*
X-1846006Y1174793D01*
X-1852541Y1177500D01*
X-1867459D01*
X-1881242Y1171791D01*
X-1891791Y1161242D01*
X-1897500Y1147459D01*
Y1132541D01*
X-1891791Y1118758D01*
X-1881242Y1108209D01*
X-1867459Y1102500D01*
X-1852541D01*
X-1846006Y1105207D01*
X-1836461Y1095829D01*
X-1832688Y1089075D01*
X-1837500Y1077459D01*
Y1062541D01*
X-1832688Y1050925D01*
X-1836462Y1044170D01*
X-1846007Y1034793D01*
X-1852541Y1037500D01*
X-1867459D01*
X-1881242Y1031791D01*
X-1891791Y1021242D01*
X-1897500Y1007459D01*
Y992541D01*
X-1891791Y978758D01*
X-1881242Y968209D01*
X-1867459Y962500D01*
X-1852541D01*
X-1846006Y965207D01*
X-1836461Y955829D01*
X-1832688Y949075D01*
X-1837500Y937459D01*
Y922541D01*
X-1832688Y910925D01*
X-1836462Y904170D01*
X-1846007Y894793D01*
X-1852541Y897500D01*
X-1867459D01*
X-1881242Y891791D01*
X-1891791Y881242D01*
X-1897500Y867459D01*
Y852541D01*
X-1891791Y838758D01*
X-1881242Y828209D01*
X-1867459Y822500D01*
X-1852541D01*
X-1846006Y825207D01*
X-1836461Y815829D01*
X-1832688Y809075D01*
X-1837500Y797459D01*
Y782541D01*
X-1831791Y768758D01*
X-1821242Y758209D01*
X-1807459Y752500D01*
X-1792541D01*
X-1778758Y758209D01*
X-1769908Y767059D01*
X-1652863D01*
Y746000D01*
X-1651427Y738782D01*
X-1647338Y732662D01*
X-1641219Y728573D01*
X-1633546Y720000D01*
Y680001D01*
X-1641219Y671427D01*
X-1647338Y667338D01*
X-1651427Y661218D01*
X-1652863Y654000D01*
Y576000D01*
X-1651427Y568782D01*
X-1647338Y562662D01*
X-1641218Y558573D01*
X-1634000Y557138D01*
X-1622941D01*
Y520000D01*
X-1621195Y511221D01*
X-1616222Y503779D01*
X-1487500Y375057D01*
Y362541D01*
X-1481791Y348758D01*
X-1471242Y338209D01*
X-1457459Y332500D01*
X-1442541D01*
X-1428758Y338209D01*
X-1418209Y348758D01*
X-1412500Y362541D01*
X-1392500Y370057D01*
X-1352941Y330497D01*
Y300092D01*
X-1361791Y291242D01*
X-1367500Y277459D01*
Y262541D01*
X-1361791Y248758D01*
X-1351242Y238209D01*
X-1337459Y232500D01*
X-1322541D01*
X-1308758Y238209D01*
X-1298209Y248758D01*
X-1292500Y262541D01*
Y277459D01*
X-1298209Y291242D01*
X-1307059Y300092D01*
Y340000D01*
X-1308805Y348779D01*
X-1311562Y352905D01*
X-1311746Y356581D01*
X-1310000Y364514D01*
X-1304927Y375654D01*
X-1298758Y378209D01*
X-1288209Y388758D01*
X-1282500Y402541D01*
Y417459D01*
X-1288209Y431242D01*
X-1297059Y440092D01*
Y780498D01*
X-1276948Y800610D01*
X-1258470Y792956D01*
Y746000D01*
X-1256607Y736636D01*
X-1251303Y728697D01*
X-1243364Y723393D01*
X-1234000Y721530D01*
X-1220000Y709224D01*
X-1220000Y701530D01*
X-1220000Y685169D01*
X-1232272Y674382D01*
X-1236812Y672303D01*
X-1241218Y671427D01*
X-1247338Y667338D01*
X-1251427Y661218D01*
X-1252862Y654000D01*
Y576000D01*
X-1251427Y568782D01*
X-1247338Y562662D01*
X-1241218Y558573D01*
X-1234000Y557138D01*
X-1166000D01*
X-1158782Y558573D01*
X-1152662Y562662D01*
X-1148573Y568782D01*
X-1147137Y576000D01*
Y592059D01*
X-1081515D01*
X-1073861Y573582D01*
X-1086221Y561222D01*
X-1091194Y553779D01*
X-1092941Y545000D01*
Y400092D01*
X-1101791Y391242D01*
X-1107500Y377459D01*
Y362541D01*
X-1101791Y348758D01*
X-1091242Y338209D01*
X-1077459Y332500D01*
X-1062541D01*
X-1048758Y338209D01*
X-1038209Y348758D01*
X-1032500Y362541D01*
Y377459D01*
X-1038209Y391242D01*
X-1047059Y400092D01*
Y535498D01*
X-1025420Y557138D01*
X-966000D01*
X-958782Y558573D01*
X-952662Y562662D01*
X-948573Y568782D01*
X-947138Y576000D01*
Y654000D01*
X-948573Y661218D01*
X-952662Y667338D01*
X-958781Y671427D01*
X-966468Y680000D01*
Y720000D01*
X-956636Y723393D01*
X-948697Y728697D01*
X-943393Y736636D01*
X-941530Y746000D01*
Y765000D01*
X-1000000D01*
X-1058470D01*
Y746000D01*
X-1056607Y736636D01*
X-1051303Y728697D01*
X-1043364Y723393D01*
X-1033528Y720000D01*
Y680000D01*
X-1041219Y671427D01*
X-1047338Y667338D01*
X-1051427Y661218D01*
X-1052863Y654000D01*
Y637941D01*
X-1147137D01*
Y654000D01*
X-1148573Y661218D01*
X-1152662Y667338D01*
X-1158782Y671427D01*
X-1163188Y672303D01*
X-1167728Y674382D01*
X-1180000Y685169D01*
X-1180000Y692863D01*
X-1180000Y709224D01*
X-1166000Y721530D01*
X-1156636Y723393D01*
X-1148697Y728697D01*
X-1143392Y736636D01*
X-1141530Y746000D01*
Y765000D01*
X-1200000D01*
Y805000D01*
X-1141530D01*
Y824000D01*
X-1142138Y827059D01*
X-1132496Y843377D01*
X-1128489Y847059D01*
X-1071510D01*
X-1067504Y843377D01*
X-1057861Y827059D01*
X-1058470Y824000D01*
Y805000D01*
X-1000000D01*
X-941530D01*
Y824000D01*
X-942139Y827059D01*
X-932496Y843377D01*
X-928490Y847059D01*
X-871510D01*
X-867504Y843377D01*
X-857861Y827059D01*
X-858470Y824000D01*
Y805000D01*
X-800000D01*
X-741530D01*
Y824000D01*
X-742138Y827059D01*
X-732496Y843377D01*
X-728490Y847059D01*
X-671510D01*
X-667504Y843377D01*
X-657862Y827059D01*
X-658470Y824000D01*
Y805000D01*
X-600000D01*
Y765000D01*
X-658470D01*
Y746000D01*
X-656608Y736636D01*
X-651303Y728697D01*
X-643364Y723393D01*
X-634000Y721530D01*
X-620000Y709224D01*
X-620000Y701530D01*
X-620000Y685169D01*
X-632272Y674382D01*
X-636812Y672303D01*
X-641218Y671427D01*
X-647338Y667338D01*
X-651427Y661218D01*
X-652863Y654000D01*
Y637941D01*
X-747137D01*
Y654000D01*
X-748573Y661218D01*
X-752662Y667338D01*
X-758781Y671427D01*
X-766468Y680001D01*
Y720000D01*
X-756636Y723393D01*
X-748697Y728697D01*
X-743392Y736636D01*
X-741530Y746000D01*
Y765000D01*
X-800000D01*
X-858470D01*
Y746000D01*
X-856607Y736636D01*
X-851303Y728697D01*
X-843364Y723393D01*
X-833528Y720000D01*
Y680001D01*
X-841219Y671427D01*
X-847338Y667338D01*
X-851427Y661218D01*
X-852862Y654000D01*
Y576000D01*
X-851427Y568782D01*
X-847338Y562662D01*
X-841218Y558573D01*
X-834000Y557138D01*
X-822941D01*
Y519502D01*
X-934943Y407500D01*
X-947459D01*
X-961242Y401791D01*
X-971791Y391242D01*
X-977500Y377459D01*
Y362541D01*
X-971791Y348758D01*
X-961242Y338209D01*
X-947459Y332500D01*
X-932541D01*
X-923530Y336232D01*
X-908768Y329643D01*
X-903530Y325153D01*
Y-464396D01*
X-945604Y-506470D01*
X-1425743D01*
X-1433667Y-494259D01*
X-1435549Y-487992D01*
X-1410498Y-462941D01*
X-1200092D01*
X-1191242Y-471791D01*
X-1177459Y-477500D01*
X-1162541D01*
X-1148758Y-471791D01*
X-1138209Y-461242D01*
X-1135245Y-454087D01*
X-1117320Y-445027D01*
X-1112500Y-444254D01*
X-1107500Y-447192D01*
Y-447459D01*
X-1101791Y-461242D01*
X-1091242Y-471791D01*
X-1077459Y-477500D01*
X-1062541D01*
X-1048758Y-471791D01*
X-1038209Y-461242D01*
X-1032500Y-447459D01*
Y-432541D01*
X-1038209Y-418758D01*
X-1048758Y-408209D01*
X-1062541Y-402500D01*
X-1075057D01*
X-1103778Y-373779D01*
X-1111221Y-368805D01*
X-1120000Y-367059D01*
X-1460000D01*
X-1468779Y-368805D01*
X-1476222Y-373779D01*
X-1569502Y-467059D01*
X-1768574D01*
X-1788447Y-447186D01*
Y603284D01*
X-1790194Y612063D01*
X-1794296Y618204D01*
X-1792500Y622541D01*
Y637459D01*
X-1798209Y651242D01*
X-1808758Y661791D01*
X-1822541Y667500D01*
X-1837459D01*
X-1851242Y661791D01*
X-1861791Y651242D01*
X-1867500Y637459D01*
Y622541D01*
X-1861791Y608758D01*
X-1851242Y598209D01*
X-1837459Y592500D01*
X-1834329D01*
Y568635D01*
X-1854329Y558620D01*
X-1862500Y564732D01*
Y567459D01*
X-1868209Y581242D01*
X-1878758Y591791D01*
X-1892541Y597500D01*
X-1907459D01*
X-1921242Y591791D01*
X-1931791Y581242D01*
X-1937500Y567459D01*
Y552541D01*
X-1931791Y538758D01*
X-1921242Y528209D01*
X-1907459Y522500D01*
X-1894943D01*
X-1882941Y510498D01*
Y254258D01*
X-1902941Y245974D01*
X-1903758Y246791D01*
X-1917541Y252500D01*
X-1932459D01*
X-1946242Y246791D01*
X-1947059Y245974D01*
X-1967059Y254258D01*
Y550000D01*
X-1968805Y558779D01*
X-1973778Y566221D01*
X-2758779Y1351222D01*
X-2766221Y1356195D01*
X-2775000Y1357941D01*
X-2869908D01*
X-2878758Y1366791D01*
X-2892541Y1372500D01*
X-2907459D01*
X-2921242Y1366791D01*
X-2931791Y1356242D01*
X-2937500Y1342459D01*
Y1340418D01*
X-2952008Y1325546D01*
X-2955978Y1325000D01*
X-2967459D01*
X-2981242Y1319291D01*
X-2991791Y1308742D01*
X-2997500Y1294959D01*
X-3001986Y1279424D01*
X-3015978Y1277500D01*
X-3017459D01*
X-3031242Y1271791D01*
X-3041791Y1261242D01*
X-3047500Y1247459D01*
Y1235978D01*
X-3048778Y1231295D01*
X-3062918Y1217500D01*
X-3067459D01*
X-3081242Y1211791D01*
X-3091791Y1201242D01*
X-3097500Y1187459D01*
Y1172541D01*
X-3091791Y1158758D01*
X-3081242Y1148209D01*
X-3067459Y1142500D01*
X-3052541D01*
X-3038758Y1148209D01*
X-3029908Y1157059D01*
X-2779502D01*
X-2132941Y510498D01*
Y-510000D01*
X-2131195Y-518779D01*
X-2126222Y-526221D01*
X-1786221Y-866222D01*
X-1778779Y-871195D01*
X-1770000Y-872941D01*
X-1670092D01*
X-1661242Y-881791D01*
X-1647459Y-887500D01*
X-1632541D01*
X-1618758Y-881791D01*
X-1608209Y-871242D01*
X-1602500Y-857459D01*
Y-842541D01*
X-1608209Y-828758D01*
X-1615060Y-821907D01*
X-1617249Y-810000D01*
X-1615060Y-798093D01*
X-1608209Y-791242D01*
X-1602500Y-777459D01*
Y-762541D01*
X-1608209Y-748758D01*
X-1615060Y-741907D01*
X-1617249Y-730000D01*
X-1615060Y-718093D01*
X-1608209Y-711242D01*
X-1602500Y-697459D01*
Y-682541D01*
X-1608209Y-668758D01*
X-1615060Y-661907D01*
X-1617249Y-650000D01*
X-1615060Y-638093D01*
X-1608209Y-631242D01*
X-1602500Y-617459D01*
Y-602541D01*
X-1608209Y-588758D01*
X-1614026Y-582941D01*
X-1607335Y-562941D01*
X-1520000D01*
X-1511221Y-561194D01*
X-1503252Y-565161D01*
X-1493530Y-573428D01*
Y-1333395D01*
X-1508990Y-1346082D01*
X-1529514Y-1342000D01*
X-1529999D01*
Y-1549999D01*
Y-1758000D01*
X-1529514D01*
X-1508990Y-1753917D01*
X-1493530Y-1766605D01*
Y-2649896D01*
X-1511734Y-2658181D01*
X-1522522Y-2648783D01*
X-1527607Y-2645869D01*
X-1532686Y-2642915D01*
X-1647278Y-2603591D01*
X-1653029Y-2602815D01*
X-1658775Y-2601975D01*
X-1775747Y-2607981D01*
X-1781251Y-2609372D01*
X-1786776Y-2610655D01*
X-1893508Y-2658895D01*
X-1898232Y-2662274D01*
X-1902987Y-2665597D01*
X-1975219Y-2740921D01*
X-2232206Y-2535978D01*
X-2230836Y-2530648D01*
X-2223298Y-2517500D01*
X-2212541D01*
X-2198758Y-2511791D01*
X-2188209Y-2501242D01*
X-2182500Y-2487459D01*
Y-2472541D01*
X-2188209Y-2458758D01*
X-2198758Y-2448209D01*
X-2212541Y-2442500D01*
X-2227459D01*
X-2241242Y-2448209D01*
X-2251791Y-2458758D01*
X-2257500Y-2472541D01*
Y-2485506D01*
X-2262590Y-2489701D01*
X-2275808Y-2495522D01*
X-2503431Y-2270041D01*
X-2719885Y-2004142D01*
X-2719652Y-2001075D01*
X-2699015Y-1993428D01*
X-2638721Y-2053722D01*
X-2631279Y-2058695D01*
X-2622500Y-2060441D01*
X-1852002D01*
X-1746221Y-2166222D01*
X-1738779Y-2171195D01*
X-1730000Y-2172941D01*
X-1600092D01*
X-1591242Y-2181791D01*
X-1577459Y-2187500D01*
X-1562541D01*
X-1548758Y-2181791D01*
X-1538209Y-2171242D01*
X-1532500Y-2157459D01*
Y-2142541D01*
X-1538209Y-2128758D01*
X-1548758Y-2118209D01*
X-1554516Y-2115824D01*
Y-2094176D01*
X-1548758Y-2091791D01*
X-1538209Y-2081242D01*
X-1532500Y-2067459D01*
Y-2052541D01*
X-1538209Y-2038758D01*
X-1548758Y-2028209D01*
X-1562541Y-2022500D01*
X-1575057D01*
X-1747059Y-1850497D01*
Y-1665469D01*
X-1727059Y-1659402D01*
X-1711564Y-1682592D01*
X-1682592Y-1711564D01*
X-1648525Y-1734327D01*
X-1610671Y-1750006D01*
X-1570486Y-1758000D01*
X-1569999D01*
Y-1549999D01*
Y-1342000D01*
X-1570486D01*
X-1610671Y-1349993D01*
X-1648525Y-1365673D01*
X-1682592Y-1388436D01*
X-1711564Y-1417408D01*
X-1727059Y-1440598D01*
X-1747059Y-1434531D01*
Y-993137D01*
X-1748805Y-984358D01*
X-1753779Y-976915D01*
X-2343003Y-387691D01*
X-2350446Y-382718D01*
X-2359225Y-380972D01*
X-2946585D01*
X-2963399Y-364158D01*
X-2960250Y-343510D01*
X-2956636Y-343070D01*
X-2938697Y-345304D01*
X-2937338Y-347338D01*
X-2931218Y-351427D01*
X-2924000Y-352862D01*
X-2846000D01*
X-2838782Y-351427D01*
X-2832662Y-347338D01*
X-2828573Y-341219D01*
X-2820000Y-333530D01*
X-2780000D01*
X-2771427Y-341219D01*
X-2767338Y-347338D01*
X-2761219Y-351427D01*
X-2754000Y-352862D01*
X-2676000D01*
X-2668782Y-351427D01*
X-2662662Y-347338D01*
X-2658574Y-341218D01*
X-2657138Y-334000D01*
Y-266000D01*
X-2658574Y-258782D01*
X-2662662Y-252662D01*
X-2668782Y-248573D01*
X-2671765Y-247980D01*
Y-152020D01*
X-2668782Y-151427D01*
X-2662662Y-147338D01*
X-2658573Y-141218D01*
X-2657137Y-134000D01*
Y-66000D01*
X-2658573Y-58782D01*
X-2662662Y-52662D01*
X-2668782Y-48573D01*
X-2676000Y-47138D01*
X-2692059D01*
Y15498D01*
X-2235057Y472500D01*
X-2222541D01*
X-2208758Y478209D01*
X-2198209Y488758D01*
X-2192500Y502541D01*
Y517459D01*
X-2198209Y531242D01*
X-2208758Y541791D01*
X-2222541Y547500D01*
X-2237459D01*
X-2251242Y541791D01*
X-2261791Y531242D01*
X-2267500Y517459D01*
Y504943D01*
X-2731221Y41222D01*
X-2736194Y33779D01*
X-2737941Y25000D01*
Y-47138D01*
X-2754000D01*
X-2761218Y-48573D01*
X-2767338Y-52662D01*
X-2771427Y-58782D01*
X-2772303Y-63188D01*
X-2774382Y-67728D01*
X-2785169Y-80000D01*
X-2792863Y-80000D01*
X-2809223Y-80000D01*
X-2821530Y-66000D01*
X-2823392Y-56636D01*
X-2828697Y-48697D01*
X-2836636Y-43393D01*
X-2846000Y-41530D01*
X-2865000D01*
Y-100000D01*
Y-158470D01*
X-2846000D01*
X-2836636Y-156608D01*
X-2828697Y-151303D01*
X-2823392Y-143364D01*
X-2821530Y-134000D01*
X-2809223Y-120000D01*
X-2801530Y-120000D01*
X-2785169Y-120000D01*
X-2774382Y-132272D01*
X-2772303Y-136812D01*
X-2771427Y-141218D01*
X-2767338Y-147338D01*
X-2761218Y-151427D01*
X-2754000Y-152863D01*
X-2748235D01*
Y-247137D01*
X-2754000D01*
X-2761219Y-248573D01*
X-2767338Y-252662D01*
X-2771427Y-258781D01*
X-2780000Y-266470D01*
X-2820000D01*
X-2828573Y-258781D01*
X-2832662Y-252662D01*
X-2838782Y-248573D01*
X-2846000Y-247137D01*
X-2924000D01*
X-2931218Y-248573D01*
X-2937338Y-252662D01*
X-2938697Y-254696D01*
X-2950906Y-256216D01*
X-2968080Y-242179D01*
Y-137929D01*
X-2948080Y-135959D01*
X-2946607Y-143364D01*
X-2941303Y-151303D01*
X-2933364Y-156608D01*
X-2924000Y-158470D01*
X-2905000D01*
Y-100000D01*
Y-41530D01*
X-2924000D01*
X-2933364Y-43393D01*
X-2941303Y-48697D01*
X-2946607Y-56636D01*
X-2948080Y-64041D01*
X-2968080Y-62071D01*
Y853284D01*
X-2969826Y862064D01*
X-2974156Y868543D01*
X-2972500Y872541D01*
Y887459D01*
X-2978209Y901242D01*
X-2988758Y911791D01*
X-3002541Y917500D01*
X-3011773D01*
X-3021253Y934513D01*
X-3021579Y935978D01*
X-3005057Y952500D01*
X-2992541D01*
X-2978758Y958209D01*
X-2968209Y968758D01*
X-2962500Y982541D01*
Y997459D01*
X-2968209Y1011242D01*
X-2978758Y1021791D01*
X-2992541Y1027500D01*
X-3007459D01*
X-3021242Y1021791D01*
X-3031791Y1011242D01*
X-3037500Y997459D01*
Y984943D01*
X-3102242Y920201D01*
X-3107216Y912758D01*
X-3108962Y903979D01*
Y430279D01*
X-3128758Y421791D01*
X-3142541Y427500D01*
X-3157459D01*
X-3171242Y421791D01*
X-3181791Y411242D01*
X-3187500Y397459D01*
Y382541D01*
X-3181791Y368758D01*
X-3171242Y358209D01*
X-3157459Y352500D01*
X-3142541D01*
X-3128758Y358209D01*
X-3108962Y349721D01*
Y216021D01*
X-3108020Y211284D01*
X-3126888Y203625D01*
X-3146483Y233870D01*
X-3150437Y237937D01*
X-3154314Y242084D01*
X-3249456Y310396D01*
X-3254743Y312798D01*
X-3260000Y315255D01*
X-3361349Y340147D01*
X-3309655Y683098D01*
X-3217655Y1033056D01*
X-3089557Y1369333D01*
X-2926902Y1689276D01*
X-2731264Y1990144D01*
X-2504161Y2269311D01*
X-2247193Y2524023D01*
X-1975217Y2740993D01*
X-1902987Y2665671D01*
X-1898226Y2662344D01*
X-1893508Y2658969D01*
X-1786776Y2610729D01*
X-1781249Y2609446D01*
X-1775747Y2608055D01*
X-1658774Y2602050D01*
X-1653027Y2602889D01*
X-1647278Y2603666D01*
X-1532685Y2642989D01*
X-1527601Y2645947D01*
X-1522522Y2648857D01*
X-1431169Y2728437D01*
X-1427624Y2733025D01*
X-1424022Y2737585D01*
X-1370737Y2841887D01*
X-1369191Y2847346D01*
X-1367538Y2852776D01*
X-1355949Y2969328D01*
X-1356512Y2975103D01*
X-1357014Y2980888D01*
X-1386131Y3081105D01*
X-1139251Y3177996D01*
X-1127290Y3161206D01*
X-1151571Y3132777D01*
X-1177066Y3091172D01*
X-1195739Y3046091D01*
X-1207130Y2998644D01*
X-1210958Y2950000D01*
Y2850000D01*
X-1207130Y2801356D01*
X-1195739Y2753909D01*
X-1177066Y2708828D01*
X-1167170Y2692679D01*
X-1189144Y2670705D01*
X-1204000D01*
X-1218047Y2667911D01*
X-1229955Y2659954D01*
X-1237911Y2648046D01*
X-1240705Y2634000D01*
X-1247698Y2627007D01*
X-1271543Y2627635D01*
X-1275618Y2632272D01*
X-1277697Y2636812D01*
X-1278574Y2641218D01*
X-1282662Y2647338D01*
X-1288782Y2651426D01*
X-1296000Y2652862D01*
X-1296766D01*
Y2660000D01*
X-1297500Y2663693D01*
Y2667459D01*
X-1298941Y2670938D01*
X-1299676Y2674632D01*
X-1301768Y2677763D01*
X-1303209Y2681242D01*
X-1305872Y2683904D01*
X-1307964Y2687036D01*
X-1311096Y2689128D01*
X-1313758Y2691791D01*
X-1317237Y2693232D01*
X-1320368Y2695324D01*
X-1324062Y2696059D01*
X-1327541Y2697500D01*
X-1331307D01*
X-1335000Y2698235D01*
X-1338693Y2697500D01*
X-1342459D01*
X-1345938Y2696059D01*
X-1349632Y2695324D01*
X-1352763Y2693232D01*
X-1356242Y2691791D01*
X-1358905Y2689128D01*
X-1362036Y2687036D01*
X-1364129Y2683904D01*
X-1366791Y2681242D01*
X-1368232Y2677763D01*
X-1370324Y2674632D01*
X-1371059Y2670938D01*
X-1372500Y2667459D01*
Y2663693D01*
X-1373235Y2660000D01*
Y2652862D01*
X-1374000D01*
X-1381218Y2651426D01*
X-1387338Y2647338D01*
X-1391427Y2641218D01*
X-1392863Y2634000D01*
Y2566000D01*
X-1391427Y2558782D01*
X-1387338Y2552662D01*
X-1381218Y2548573D01*
X-1374000Y2547137D01*
X-1296000D01*
X-1288782Y2548573D01*
X-1282662Y2552662D01*
X-1278574Y2558782D01*
X-1277697Y2563188D01*
X-1275618Y2567728D01*
X-1271543Y2572364D01*
X-1247698Y2572993D01*
X-1240705Y2566000D01*
X-1237911Y2551953D01*
X-1235604Y2548500D01*
Y2451500D01*
X-1237911Y2448046D01*
X-1240705Y2434000D01*
X-1244192Y2430513D01*
X-1268870Y2430975D01*
X-1271530Y2434000D01*
X-1273392Y2443364D01*
X-1278697Y2451303D01*
X-1286636Y2456607D01*
X-1296000Y2458470D01*
X-1315000D01*
Y2400000D01*
Y2341530D01*
X-1296000D01*
X-1286636Y2343393D01*
X-1278697Y2348697D01*
X-1273392Y2356636D01*
X-1271530Y2366000D01*
X-1268870Y2369025D01*
X-1244192Y2369487D01*
X-1240705Y2366000D01*
X-1237911Y2351954D01*
X-1229954Y2340046D01*
X-1218046Y2332089D01*
X-1204000Y2329295D01*
X-1126000D01*
X-1111954Y2332089D01*
X-1100046Y2340046D01*
X-1092089Y2351954D01*
X-1089295Y2366000D01*
Y2434000D01*
X-1092089Y2448046D01*
X-1094396Y2451500D01*
Y2548501D01*
X-1092089Y2551953D01*
X-1089295Y2566000D01*
Y2570856D01*
X-1069722Y2590429D01*
X-1041172Y2572934D01*
X-996091Y2554261D01*
X-948645Y2542870D01*
X-900000Y2539042D01*
X-851355Y2542870D01*
X-803908Y2554261D01*
X-758828Y2572934D01*
X-717223Y2598429D01*
X-680119Y2630119D01*
X-648429Y2667223D01*
X-622934Y2708828D01*
X-604261Y2753909D01*
X-592870Y2801356D01*
X-589041Y2850000D01*
Y2950000D01*
X-592870Y2998644D01*
X-604261Y3046091D01*
X-622934Y3091172D01*
X-648429Y3132777D01*
X-680119Y3169881D01*
X-717223Y3201571D01*
X-758828Y3227066D01*
X-803908Y3245739D01*
X-827596Y3251426D01*
X-827915Y3272071D01*
X-714238Y3303108D01*
X-358970Y3360314D01*
X-565Y3379425D01*
X357833Y3360436D01*
D02*
G37*
G36*
X1713610Y1906650D02*
X1931501Y1688759D01*
Y1219227D01*
X1911501Y1210942D01*
X1852941Y1269502D01*
Y1705335D01*
X1851194Y1714114D01*
X1846222Y1721557D01*
X1622508Y1945270D01*
X1622782Y1949337D01*
X1629048Y1965270D01*
X1654990D01*
X1713610Y1906650D01*
D02*
G37*
G36*
X-522941Y736938D02*
Y520000D01*
X-521195Y511221D01*
X-516221Y503779D01*
X-296221Y283778D01*
X-288779Y278805D01*
X-280000Y277059D01*
X-239502D01*
X-211861Y249418D01*
X-219514Y230940D01*
X-368380D01*
Y150060D01*
X-183080D01*
X-183080Y150060D01*
Y150059D01*
X-183080Y150060D01*
X-165840Y143397D01*
X-124325Y101882D01*
X-134314Y85716D01*
X-135596Y84869D01*
X-143500Y86441D01*
X-183080D01*
Y103940D01*
X-368380D01*
Y23060D01*
X-183080D01*
Y40559D01*
X-153002D01*
X-132941Y20498D01*
Y-43332D01*
X-152941Y-51616D01*
X-157279Y-47279D01*
X-164721Y-42305D01*
X-173500Y-40559D01*
X-183080D01*
Y-23060D01*
X-368380D01*
Y-103940D01*
X-183080D01*
X-172941Y-119740D01*
Y-134260D01*
X-183080Y-150060D01*
X-192941Y-150060D01*
X-368380D01*
Y-230940D01*
X-191667D01*
X-183383Y-250940D01*
X-247168Y-314725D01*
X-252541Y-312500D01*
X-267459D01*
X-281242Y-318209D01*
X-291791Y-328758D01*
X-297500Y-342541D01*
Y-357459D01*
X-291791Y-371242D01*
X-281242Y-381791D01*
X-274087Y-384755D01*
X-265027Y-402680D01*
X-264254Y-407500D01*
X-267192Y-412500D01*
X-267459D01*
X-281242Y-418209D01*
X-291791Y-428758D01*
X-297500Y-442541D01*
Y-457459D01*
X-291791Y-471242D01*
X-281242Y-481791D01*
X-267459Y-487500D01*
X-252541D01*
X-238758Y-481791D01*
X-228209Y-471242D01*
X-222500Y-457459D01*
Y-444943D01*
X-162863Y-385306D01*
X-142863Y-393590D01*
Y-434000D01*
X-141427Y-441218D01*
X-137338Y-447338D01*
X-131218Y-451427D01*
X-127500Y-452166D01*
Y-457459D01*
X-121791Y-471242D01*
X-111242Y-481791D01*
X-97459Y-487500D01*
X-82541D01*
X-68758Y-481791D01*
X-58209Y-471242D01*
X-52500Y-457460D01*
X-32500Y-454958D01*
X-25204Y-457103D01*
X-22263Y-458333D01*
X-19640Y-461106D01*
X-16221Y-466222D01*
X2500Y-484943D01*
Y-497459D01*
X-11274Y-516470D01*
X-564396D01*
X-606470Y-474396D01*
Y340000D01*
X-610433Y349567D01*
X-630433Y369567D01*
X-640000Y373530D01*
X-870000D01*
X-886877Y388187D01*
X-887290Y390267D01*
X-783778Y493779D01*
X-778805Y501221D01*
X-777059Y510000D01*
Y557138D01*
X-766000D01*
X-758782Y558573D01*
X-752662Y562662D01*
X-748573Y568782D01*
X-747137Y576000D01*
Y592059D01*
X-652863D01*
Y576000D01*
X-651427Y568782D01*
X-647338Y562662D01*
X-641218Y558573D01*
X-634000Y557138D01*
X-566000D01*
X-558782Y558573D01*
X-552662Y562662D01*
X-548573Y568782D01*
X-547138Y576000D01*
Y654000D01*
X-548573Y661218D01*
X-552662Y667338D01*
X-558782Y671427D01*
X-563188Y672303D01*
X-567728Y674382D01*
X-580000Y685169D01*
X-580000Y692863D01*
X-580000Y709224D01*
X-566000Y721530D01*
X-556636Y723393D01*
X-548697Y728697D01*
X-543393Y736636D01*
X-542941Y738907D01*
X-522941Y736938D01*
D02*
G37*
G36*
X-3041791Y858758D02*
X-3031242Y848209D01*
X-3017459Y842500D01*
X-3013962D01*
Y204689D01*
X-3033962Y196405D01*
X-3063080Y225523D01*
Y857892D01*
X-3043080Y861871D01*
X-3041791Y858758D01*
D02*
G37*
G36*
X-1946242Y183209D02*
X-1932459Y177500D01*
X-1917541D01*
X-1903758Y183209D01*
X-1902941Y184026D01*
X-1882941Y175742D01*
Y-436332D01*
X-1902941Y-444616D01*
X-1967059Y-380498D01*
Y175742D01*
X-1947059Y184026D01*
X-1946242Y183209D01*
D02*
G37*
G36*
X117279Y-79722D02*
X124721Y-84695D01*
X133500Y-86441D01*
X183080D01*
Y-103940D01*
X296470D01*
Y-144560D01*
X295730D01*
Y-190501D01*
Y-236440D01*
X296470D01*
Y-476002D01*
X256002Y-516470D01*
X91273D01*
X77500Y-497459D01*
Y-482541D01*
X75814Y-478470D01*
X87634Y-458470D01*
X124000D01*
X133364Y-456607D01*
X141303Y-451303D01*
X146607Y-443364D01*
X148470Y-434000D01*
Y-420000D01*
X84999D01*
Y-400000D01*
X64999D01*
Y-341530D01*
X46000D01*
X42941Y-342138D01*
X26623Y-332496D01*
X22941Y-328489D01*
Y-13668D01*
X42941Y-5384D01*
X117279Y-79722D01*
D02*
G37*
G36*
X1780000Y340000D02*
Y-1029999D01*
X840000Y-1970000D01*
X70000D01*
X-100000Y-2152266D01*
Y-3250000D01*
X-146470Y-3296470D01*
X-740221D01*
X-742542Y-3295312D01*
X-1062228Y-3208085D01*
X-1386130Y-3081028D01*
X-1357014Y-2980814D01*
X-1356513Y-2975029D01*
X-1355949Y-2969254D01*
X-1367538Y-2852702D01*
X-1369191Y-2847271D01*
X-1370737Y-2841813D01*
X-1424022Y-2737510D01*
X-1427620Y-2732957D01*
X-1431169Y-2728362D01*
X-1480000Y-2685824D01*
Y-1740190D01*
X-1454080Y-1729453D01*
X-1420914Y-1707292D01*
X-1392708Y-1679086D01*
X-1370547Y-1645920D01*
X-1355282Y-1609067D01*
X-1347500Y-1569945D01*
Y-1530055D01*
X-1355282Y-1490933D01*
X-1370547Y-1454080D01*
X-1392708Y-1420914D01*
X-1420914Y-1392708D01*
X-1454080Y-1370547D01*
X-1480000Y-1359810D01*
Y-570000D01*
X-1430000Y-520000D01*
X-940000D01*
X-890000Y-470000D01*
Y340000D01*
X-870000Y360000D01*
X-640000D01*
X-620000Y340000D01*
Y-480000D01*
X-570000Y-530000D01*
X261606D01*
X310000Y-481606D01*
Y-230940D01*
X368380D01*
Y-150060D01*
X310000D01*
Y-103940D01*
X368380D01*
Y-23060D01*
X310000D01*
Y23060D01*
X368380D01*
Y103940D01*
X310000D01*
Y150060D01*
X368380D01*
Y230940D01*
X310000D01*
Y340000D01*
X330000Y360000D01*
X560000D01*
X580000Y340000D01*
Y-490000D01*
X630000Y-540000D01*
X1460000D01*
X1510000Y-490000D01*
Y340000D01*
X1530000Y360000D01*
X1760000D01*
X1780000Y340000D01*
D02*
G37*
G36*
X-1792941Y-1002639D02*
Y-1144683D01*
X-1812704Y-1160275D01*
X-1818573Y-1158781D01*
X-1822662Y-1152662D01*
X-1828782Y-1148573D01*
X-1836000Y-1147137D01*
X-1904000D01*
X-1911218Y-1148573D01*
X-1917338Y-1152662D01*
X-1921427Y-1158782D01*
X-1922863Y-1166000D01*
Y-1169829D01*
X-1923905Y-1170871D01*
X-1927036Y-1172964D01*
X-1929129Y-1176095D01*
X-1931791Y-1178758D01*
X-1933232Y-1182237D01*
X-1935325Y-1185368D01*
X-1936059Y-1189062D01*
X-1937500Y-1192541D01*
Y-1196307D01*
X-1938235Y-1200000D01*
X-1937500Y-1203693D01*
Y-1207459D01*
X-1936059Y-1210938D01*
X-1935325Y-1214632D01*
X-1933232Y-1217763D01*
X-1931791Y-1221242D01*
X-1929129Y-1223904D01*
X-1927036Y-1227036D01*
X-1923905Y-1229128D01*
X-1922863Y-1230171D01*
Y-1244000D01*
X-1921427Y-1251218D01*
X-1917338Y-1257338D01*
X-1911218Y-1261426D01*
X-1906812Y-1262303D01*
X-1902272Y-1264382D01*
X-1890000Y-1275169D01*
X-1890000Y-1282863D01*
X-1890000Y-1304831D01*
X-1902272Y-1315618D01*
X-1906812Y-1317697D01*
X-1911218Y-1318573D01*
X-1917338Y-1322662D01*
X-1921427Y-1328781D01*
X-1922863Y-1336000D01*
Y-1414000D01*
X-1921427Y-1421218D01*
X-1917338Y-1427338D01*
X-1911218Y-1431426D01*
X-1904000Y-1432862D01*
X-1897626D01*
X-1888043Y-1452862D01*
X-1891048Y-1456599D01*
X-2021205D01*
X-2024898Y-1457334D01*
X-2028664D01*
X-2032144Y-1458775D01*
X-2035837Y-1459510D01*
X-2038968Y-1461602D01*
X-2042447Y-1463043D01*
X-2054491Y-1459244D01*
X-2061515Y-1454405D01*
Y-1426750D01*
X-2063436Y-1417093D01*
X-2068906Y-1408906D01*
X-2077093Y-1403436D01*
X-2086750Y-1401515D01*
X-2105000D01*
Y-1490000D01*
Y-1578484D01*
X-2086750D01*
X-2077093Y-1576563D01*
X-2068906Y-1571093D01*
X-2063436Y-1562906D01*
X-2061515Y-1553249D01*
Y-1535263D01*
X-2054491Y-1530424D01*
X-2042447Y-1526625D01*
X-2038968Y-1528066D01*
X-2035837Y-1530158D01*
X-2032144Y-1530893D01*
X-2028664Y-1532334D01*
X-2024898D01*
X-2021205Y-1533069D01*
X-1859290D01*
X-1844658Y-1530158D01*
X-1832254Y-1521870D01*
X-1812941Y-1502557D01*
X-1792941Y-1510842D01*
Y-1860000D01*
X-1791195Y-1868779D01*
X-1786221Y-1876221D01*
X-1607500Y-2054943D01*
Y-2067459D01*
X-1601791Y-2081242D01*
X-1591242Y-2091791D01*
X-1585484Y-2094176D01*
Y-2114042D01*
X-1589589Y-2117525D01*
X-1591242Y-2118209D01*
X-1595968Y-2122935D01*
X-1600830Y-2127059D01*
X-1720497D01*
X-1826278Y-2021279D01*
X-1833721Y-2016306D01*
X-1842500Y-2014559D01*
X-2268343D01*
X-2275425Y-1994559D01*
X-2260433Y-1979567D01*
X-2256470Y-1970000D01*
Y-1120000D01*
Y-1010000D01*
X-2260433Y-1000433D01*
X-2270000Y-996470D01*
X-2392500D01*
Y-992541D01*
X-2398209Y-978758D01*
X-2408758Y-968209D01*
X-2422541Y-962500D01*
X-2437459D01*
X-2451242Y-968209D01*
X-2461791Y-978758D01*
X-2467500Y-992541D01*
Y-1007459D01*
X-2467235Y-1008100D01*
X-2479567Y-1020433D01*
X-2483530Y-1030000D01*
Y-1970000D01*
X-2479567Y-1979568D01*
X-2464575Y-1994559D01*
X-2471656Y-2014559D01*
X-2612998D01*
X-2717059Y-1910498D01*
Y-695962D01*
X-2718806Y-687183D01*
X-2723778Y-679740D01*
X-2957074Y-446444D01*
X-2948381Y-426853D01*
X-2368727D01*
X-1792941Y-1002639D01*
D02*
G37*
G36*
X-3053170Y-99669D02*
Y-405732D01*
X-3056376Y-418265D01*
X-3067391Y-426614D01*
X-3071242Y-428209D01*
X-3081791Y-438758D01*
X-3087500Y-452541D01*
Y-467459D01*
X-3081791Y-481242D01*
X-3071242Y-491791D01*
X-3057459Y-497500D01*
X-3042541D01*
X-3028758Y-491791D01*
X-3018209Y-481242D01*
X-3017400Y-479289D01*
X-2994022Y-474382D01*
X-2762941Y-705464D01*
Y-1904615D01*
X-2782941Y-1910549D01*
X-2926363Y-1690132D01*
X-3089125Y-1370236D01*
X-3217326Y-1034004D01*
X-3309438Y-684074D01*
X-3361346Y-340072D01*
X-3260000Y-315180D01*
X-3254743Y-312724D01*
X-3249456Y-310322D01*
X-3154314Y-242010D01*
X-3150439Y-237865D01*
X-3146483Y-233796D01*
X-3082797Y-135498D01*
X-3080652Y-130105D01*
X-3078448Y-124734D01*
X-3073170Y-97732D01*
X-3053170Y-99669D01*
D02*
G37*
G36*
X-2270000Y-1120000D02*
Y-1970000D01*
X-2290000Y-1990000D01*
X-2450001Y-1989999D01*
X-2470000Y-1970000D01*
Y-1030000D01*
X-2450000Y-1010000D01*
X-2270000D01*
Y-1120000D01*
D02*
G37*
G36*
X-250000Y-3600000D02*
Y-4200000D01*
X-300000Y-4250000D01*
X-1450000D01*
X-1500000Y-4200000D01*
X-1500000D01*
Y-3600000D01*
X-1450000Y-3550000D01*
X-300000D01*
X-250000Y-3600000D01*
D02*
G37*
G36*
X-363875Y-4283618D02*
X-359400Y-4293288D01*
X-362595Y-4303820D01*
X-362744Y-4305331D01*
X-363325Y-4306733D01*
Y-4311226D01*
X-363765Y-4315698D01*
X-363325Y-4317150D01*
Y-4318668D01*
X-361606Y-4322817D01*
X-360301Y-4327119D01*
X-359338Y-4328293D01*
X-358757Y-4329694D01*
X-355581Y-4332870D01*
X-352730Y-4336344D01*
X-351391Y-4337060D01*
X-350318Y-4338133D01*
X-322444Y-4356758D01*
X-296757Y-4382445D01*
X-276576Y-4412649D01*
X-262674Y-4446209D01*
X-255588Y-4481837D01*
Y-4518164D01*
X-262674Y-4553791D01*
X-276576Y-4587352D01*
X-296758Y-4617556D01*
X-322444Y-4643243D01*
X-352648Y-4663424D01*
X-386209Y-4677326D01*
X-421836Y-4684412D01*
X-458163D01*
X-493791Y-4677326D01*
X-527351Y-4663424D01*
X-557556Y-4643242D01*
X-583243Y-4617556D01*
X-603424Y-4587352D01*
X-617325Y-4553791D01*
X-624412Y-4518164D01*
Y-4481837D01*
X-617325Y-4446209D01*
X-603424Y-4412649D01*
X-583242Y-4382444D01*
X-557555Y-4356757D01*
X-529681Y-4338133D01*
X-528608Y-4337060D01*
X-527270Y-4336344D01*
X-524419Y-4332870D01*
X-521243Y-4329694D01*
X-520662Y-4328292D01*
X-519699Y-4327119D01*
X-518394Y-4322819D01*
X-516675Y-4318668D01*
Y-4317149D01*
X-516235Y-4315698D01*
X-516675Y-4311227D01*
Y-4306733D01*
X-517256Y-4305330D01*
X-517405Y-4303820D01*
X-520600Y-4293288D01*
X-516125Y-4283618D01*
X-512144Y-4280588D01*
X-367856D01*
X-363875Y-4283618D01*
D02*
G37*
G36*
X850000Y-3600000D02*
X850000Y-4150000D01*
X1250000Y-4550000D01*
Y-5550000D01*
X1200000Y-5600000D01*
X-1450000D01*
X-1500000Y-5550000D01*
Y-5260295D01*
X-1487300Y-5249157D01*
X-1475000Y-5250777D01*
X-1451505Y-5247683D01*
X-1429612Y-5238615D01*
X-1410811Y-5224189D01*
X-1396385Y-5205389D01*
X-1387317Y-5183495D01*
X-1384224Y-5160000D01*
Y-5040000D01*
X-1387317Y-5016505D01*
X-1396385Y-4994612D01*
X-1410811Y-4975811D01*
X-1429612Y-4961386D01*
X-1451505Y-4952317D01*
X-1475000Y-4949224D01*
X-1487300Y-4950843D01*
X-1500000Y-4939705D01*
Y-4350000D01*
X-1450000Y-4300000D01*
X-550528D01*
X-546675Y-4312700D01*
X-577054Y-4332999D01*
X-607001Y-4362946D01*
X-630530Y-4398160D01*
X-646738Y-4437287D01*
X-655000Y-4478824D01*
Y-4521176D01*
X-646738Y-4562713D01*
X-630530Y-4601841D01*
X-607001Y-4637054D01*
X-577054Y-4667002D01*
X-541840Y-4690531D01*
X-502713Y-4706738D01*
X-461176Y-4715000D01*
X-418824D01*
X-377287Y-4706738D01*
X-338159Y-4690531D01*
X-302946Y-4667002D01*
X-272998Y-4637054D01*
X-249469Y-4601841D01*
X-233262Y-4562713D01*
X-225000Y-4521176D01*
Y-4478824D01*
X-233262Y-4437287D01*
X-249469Y-4398160D01*
X-272998Y-4362946D01*
X-302946Y-4332999D01*
X-333325Y-4312700D01*
X-329472Y-4300000D01*
X-250000D01*
X-200000Y-4250000D01*
Y-3600000D01*
X-150000Y-3550000D01*
X800000D01*
X850000Y-3600000D01*
D02*
G37*
G36*
X3204050Y-3524639D02*
X3223423Y-3532664D01*
X3240858Y-3544313D01*
X3255687Y-3559142D01*
X3267336Y-3576577D01*
X3275361Y-3595950D01*
X3279452Y-3616516D01*
Y-3627000D01*
Y-6100000D01*
Y-6107825D01*
X3276398Y-6123176D01*
X3270409Y-6137634D01*
X3261714Y-6150647D01*
X3250647Y-6161715D01*
X3237634Y-6170410D01*
X3223175Y-6176399D01*
X3207825Y-6179452D01*
X-3207826D01*
X-3223175Y-6176399D01*
X-3237634Y-6170410D01*
X-3250647Y-6161715D01*
X-3261715Y-6150647D01*
X-3270409Y-6137635D01*
X-3276399Y-6123175D01*
X-3279452Y-6107826D01*
Y-6100000D01*
Y-3627000D01*
Y-3616515D01*
X-3275361Y-3595950D01*
X-3267336Y-3576577D01*
X-3255687Y-3559142D01*
X-3240858Y-3544313D01*
X-3223424Y-3532664D01*
X-3204051Y-3524639D01*
X-3183485Y-3520548D01*
X-1481767D01*
X-1476506Y-3533248D01*
X-1521629Y-3578371D01*
X-1528259Y-3588295D01*
X-1530588Y-3600000D01*
X-1530588Y-3600001D01*
Y-4200000D01*
X-1528259Y-4211705D01*
X-1521629Y-4221629D01*
X-1521628Y-4221629D01*
X-1476743Y-4266514D01*
X-1475841Y-4268606D01*
X-1475841Y-4281395D01*
X-1476743Y-4283486D01*
X-1521628Y-4328371D01*
X-1521629Y-4328371D01*
X-1528259Y-4338294D01*
X-1530588Y-4350000D01*
X-1530588Y-4350001D01*
Y-4939705D01*
X-1530390Y-4940701D01*
X-1530522Y-4941706D01*
X-1529232Y-4946521D01*
X-1528259Y-4951411D01*
X-1527696Y-4952255D01*
X-1527433Y-4953234D01*
X-1529064Y-4968043D01*
X-1539188Y-4975811D01*
X-1553614Y-4994612D01*
X-1562683Y-5016505D01*
X-1565776Y-5040000D01*
Y-5160000D01*
X-1562683Y-5183495D01*
X-1553614Y-5205389D01*
X-1539188Y-5224189D01*
X-1529064Y-5231958D01*
X-1527433Y-5246766D01*
X-1527696Y-5247746D01*
X-1528259Y-5248590D01*
X-1529232Y-5253477D01*
X-1530522Y-5258294D01*
X-1530390Y-5259301D01*
X-1530588Y-5260295D01*
Y-5549999D01*
X-1530588Y-5550000D01*
X-1528259Y-5561706D01*
X-1521629Y-5571629D01*
X-1521628Y-5571630D01*
X-1471629Y-5621629D01*
X-1461706Y-5628259D01*
X-1450000Y-5630588D01*
X-1449999Y-5630588D01*
X1199999D01*
X1200000Y-5630588D01*
X1211705Y-5628259D01*
X1221629Y-5621629D01*
X1271629Y-5571629D01*
X1278259Y-5561705D01*
X1280588Y-5550000D01*
X1280588Y-5549999D01*
Y-4550001D01*
X1280588Y-4550000D01*
X1278259Y-4538295D01*
X1271629Y-4528371D01*
X1271628Y-4528371D01*
X880588Y-4137330D01*
X880588Y-3600001D01*
X880588Y-3600000D01*
X878259Y-3588295D01*
X871629Y-3578371D01*
X826506Y-3533248D01*
X831767Y-3520548D01*
X3183484D01*
X3204050Y-3524639D01*
D02*
G37*
%LPC*%
G36*
X0Y3260958D02*
X-48645Y3257130D01*
X-96092Y3245739D01*
X-141172Y3227066D01*
X-182777Y3201571D01*
X-219881Y3169881D01*
X-251571Y3132777D01*
X-277066Y3091172D01*
X-295739Y3046091D01*
X-307130Y2998644D01*
X-310958Y2950000D01*
Y2850000D01*
X-307130Y2801356D01*
X-295739Y2753909D01*
X-277066Y2708828D01*
X-267170Y2692679D01*
X-289144Y2670705D01*
X-304000D01*
X-318047Y2667911D01*
X-329955Y2659954D01*
X-337911Y2648046D01*
X-340705Y2634000D01*
X-347698Y2627007D01*
X-371543Y2627635D01*
X-375619Y2632272D01*
X-377697Y2636812D01*
X-378574Y2641218D01*
X-382662Y2647338D01*
X-388782Y2651426D01*
X-396000Y2652862D01*
X-396766D01*
Y2660000D01*
X-397500Y2663693D01*
Y2667459D01*
X-398941Y2670938D01*
X-399676Y2674632D01*
X-401768Y2677763D01*
X-403209Y2681242D01*
X-405872Y2683904D01*
X-407964Y2687036D01*
X-411096Y2689128D01*
X-413758Y2691791D01*
X-417237Y2693232D01*
X-420368Y2695324D01*
X-424062Y2696059D01*
X-427541Y2697500D01*
X-431307D01*
X-435000Y2698235D01*
X-438693Y2697500D01*
X-442459D01*
X-445938Y2696059D01*
X-449632Y2695324D01*
X-452763Y2693232D01*
X-456242Y2691791D01*
X-458905Y2689128D01*
X-462036Y2687036D01*
X-464129Y2683904D01*
X-466791Y2681242D01*
X-468232Y2677763D01*
X-470324Y2674632D01*
X-471059Y2670938D01*
X-472500Y2667459D01*
Y2663693D01*
X-473235Y2660000D01*
Y2652862D01*
X-474000D01*
X-481218Y2651426D01*
X-487338Y2647338D01*
X-491427Y2641218D01*
X-492863Y2634000D01*
Y2566000D01*
X-491427Y2558782D01*
X-487338Y2552662D01*
X-481218Y2548573D01*
X-474000Y2547137D01*
X-396000D01*
X-388782Y2548573D01*
X-382662Y2552662D01*
X-378574Y2558782D01*
X-377697Y2563188D01*
X-375619Y2567728D01*
X-371543Y2572364D01*
X-347698Y2572993D01*
X-340705Y2566000D01*
X-337911Y2551953D01*
X-335604Y2548500D01*
Y2451500D01*
X-337911Y2448046D01*
X-340705Y2434000D01*
X-344192Y2430513D01*
X-368870Y2430975D01*
X-371530Y2434000D01*
X-373392Y2443364D01*
X-378697Y2451303D01*
X-386636Y2456607D01*
X-396000Y2458470D01*
X-415000D01*
Y2400000D01*
Y2341530D01*
X-396000D01*
X-386636Y2343393D01*
X-378697Y2348697D01*
X-373392Y2356636D01*
X-371530Y2366000D01*
X-368870Y2369025D01*
X-344192Y2369487D01*
X-340705Y2366000D01*
X-337911Y2351954D01*
X-329954Y2340046D01*
X-318046Y2332089D01*
X-304000Y2329295D01*
X-226000D01*
X-211954Y2332089D01*
X-200046Y2340046D01*
X-192089Y2351954D01*
X-189295Y2366000D01*
Y2434000D01*
X-192089Y2448046D01*
X-194396Y2451500D01*
Y2548501D01*
X-192089Y2551953D01*
X-189295Y2566000D01*
Y2570856D01*
X-169722Y2590429D01*
X-141172Y2572934D01*
X-96092Y2554261D01*
X-48645Y2542870D01*
X0Y2539042D01*
X48645Y2542870D01*
X96092Y2554261D01*
X141172Y2572934D01*
X182777Y2598429D01*
X219881Y2630119D01*
X251571Y2667223D01*
X277066Y2708828D01*
X295739Y2753909D01*
X307130Y2801356D01*
X310958Y2850000D01*
Y2950000D01*
X307130Y2998644D01*
X295739Y3046091D01*
X277066Y3091172D01*
X251571Y3132777D01*
X219881Y3169881D01*
X182777Y3201571D01*
X141172Y3227066D01*
X96092Y3245739D01*
X48645Y3257130D01*
X0Y3260958D01*
D02*
G37*
G36*
X445000Y2458470D02*
X426000D01*
X416636Y2456607D01*
X408697Y2451303D01*
X403393Y2443364D01*
X401530Y2434000D01*
Y2420000D01*
X445000D01*
Y2458470D01*
D02*
G37*
G36*
X-1355000D02*
X-1374000D01*
X-1383364Y2456607D01*
X-1391303Y2451303D01*
X-1396607Y2443364D01*
X-1398470Y2434000D01*
Y2420000D01*
X-1355000D01*
Y2458470D01*
D02*
G37*
G36*
X445000Y2380000D02*
X401530D01*
Y2366000D01*
X403393Y2356636D01*
X408697Y2348697D01*
X416636Y2343393D01*
X426000Y2341530D01*
X445000D01*
Y2380000D01*
D02*
G37*
G36*
X-1355000D02*
X-1398470D01*
Y2366000D01*
X-1396607Y2356636D01*
X-1391303Y2348697D01*
X-1383364Y2343393D01*
X-1374000Y2341530D01*
X-1355000D01*
Y2380000D01*
D02*
G37*
G36*
X956511Y2363915D02*
X956508D01*
Y2266372D01*
X981661D01*
Y2338764D01*
X979747Y2348389D01*
X974295Y2356549D01*
X966135Y2362001D01*
X956511Y2363915D01*
D02*
G37*
G36*
X916508D02*
X916506D01*
X906881Y2362001D01*
X898721Y2356549D01*
X893269Y2348389D01*
X891355Y2338764D01*
Y2266372D01*
X916508D01*
Y2363915D01*
D02*
G37*
G36*
X-843489D02*
X-843492D01*
Y2266372D01*
X-818338D01*
Y2338764D01*
X-820253Y2348389D01*
X-825705Y2356549D01*
X-833864Y2362001D01*
X-843489Y2363915D01*
D02*
G37*
G36*
X-883492D02*
X-883494D01*
X-893119Y2362001D01*
X-901279Y2356549D01*
X-906731Y2348389D01*
X-908645Y2338764D01*
Y2266372D01*
X-883492D01*
Y2363915D01*
D02*
G37*
G36*
X1364000Y2462862D02*
X1296000D01*
X1288782Y2461427D01*
X1282662Y2457338D01*
X1279855Y2453137D01*
X1100000D01*
X1087319Y2450614D01*
X1076569Y2443431D01*
X1040077Y2406940D01*
X1032894Y2396189D01*
X1030371Y2383508D01*
Y2353041D01*
X1029687Y2352584D01*
X1025450Y2346243D01*
X1023963Y2338764D01*
Y2153979D01*
X1025450Y2146501D01*
X1029687Y2140160D01*
X1036027Y2135924D01*
X1043506Y2134436D01*
X1083511D01*
X1090989Y2135924D01*
X1097330Y2140160D01*
X1101566Y2146501D01*
X1103054Y2153979D01*
Y2338764D01*
X1101566Y2346243D01*
X1097330Y2352583D01*
X1098395Y2371533D01*
X1113725Y2386863D01*
X1277137D01*
Y2366000D01*
X1278573Y2358782D01*
X1282662Y2352662D01*
X1288782Y2348573D01*
X1293188Y2347697D01*
X1297728Y2345618D01*
X1310000Y2334831D01*
X1310000Y2327137D01*
X1310000Y2310776D01*
X1296000Y2298470D01*
X1286636Y2296608D01*
X1278697Y2291303D01*
X1273392Y2283364D01*
X1271530Y2274000D01*
Y2255000D01*
X1329999D01*
X1388470D01*
Y2274000D01*
X1386607Y2283364D01*
X1381303Y2291303D01*
X1373364Y2296608D01*
X1364000Y2298470D01*
X1350000Y2310776D01*
X1350000Y2318470D01*
X1350000Y2334831D01*
X1362272Y2345618D01*
X1366812Y2347697D01*
X1371218Y2348573D01*
X1377338Y2352662D01*
X1381426Y2358782D01*
X1382862Y2366000D01*
Y2372500D01*
X1397459D01*
X1411242Y2378209D01*
X1421791Y2388758D01*
X1427500Y2402541D01*
Y2417459D01*
X1421791Y2431242D01*
X1411242Y2441791D01*
X1397459Y2447500D01*
X1382541D01*
X1382121Y2447724D01*
X1381426Y2451218D01*
X1377338Y2457338D01*
X1371218Y2461427D01*
X1364000Y2462862D01*
D02*
G37*
G36*
X-216000Y2278470D02*
X-235000D01*
Y2239999D01*
X-191530D01*
Y2254000D01*
X-193393Y2263364D01*
X-198697Y2271303D01*
X-206636Y2276607D01*
X-216000Y2278470D01*
D02*
G37*
G36*
X1388470Y2215000D02*
X1349999D01*
Y2171530D01*
X1364000D01*
X1373364Y2173393D01*
X1381303Y2178697D01*
X1386607Y2186636D01*
X1388470Y2196000D01*
Y2215000D01*
D02*
G37*
G36*
X1309999D02*
X1271530D01*
Y2196000D01*
X1273392Y2186636D01*
X1278697Y2178697D01*
X1286636Y2173393D01*
X1296000Y2171530D01*
X1309999D01*
Y2215000D01*
D02*
G37*
G36*
X2407459Y2237500D02*
X2392541D01*
X2378758Y2231791D01*
X2368209Y2221242D01*
X2362500Y2207459D01*
Y2192541D01*
X2368209Y2178758D01*
X2378758Y2168209D01*
X2392541Y2162500D01*
X2407459D01*
X2421242Y2168209D01*
X2431791Y2178758D01*
X2437500Y2192541D01*
Y2207459D01*
X2431791Y2221242D01*
X2421242Y2231791D01*
X2407459Y2237500D01*
D02*
G37*
G36*
X-191530Y2199999D02*
X-235000D01*
Y2161530D01*
X-216000D01*
X-206636Y2163392D01*
X-198697Y2168697D01*
X-193393Y2176636D01*
X-191530Y2186000D01*
Y2199999D01*
D02*
G37*
G36*
X1210511Y2358307D02*
X1170506D01*
X1163027Y2356820D01*
X1156687Y2352584D01*
X1152450Y2346243D01*
X1150963Y2338764D01*
Y2153979D01*
X1152450Y2146501D01*
X1156687Y2140160D01*
X1163027Y2135924D01*
X1170506Y2134436D01*
X1210511D01*
X1217989Y2135924D01*
X1224330Y2140160D01*
X1228566Y2146501D01*
X1230054Y2153979D01*
Y2338764D01*
X1228566Y2346243D01*
X1224330Y2352584D01*
X1217989Y2356820D01*
X1210511Y2358307D01*
D02*
G37*
G36*
X981661Y2226372D02*
X956508D01*
Y2128829D01*
X956511D01*
X966135Y2130743D01*
X974295Y2136195D01*
X979747Y2144355D01*
X981661Y2153979D01*
Y2226372D01*
D02*
G37*
G36*
X916508D02*
X891355D01*
Y2153979D01*
X893269Y2144355D01*
X898721Y2136195D01*
X906881Y2130743D01*
X916506Y2128829D01*
X916508D01*
Y2226372D01*
D02*
G37*
G36*
X-818338D02*
X-843492D01*
Y2128829D01*
X-843489D01*
X-833864Y2130743D01*
X-825705Y2136195D01*
X-820253Y2144355D01*
X-818338Y2153979D01*
Y2226372D01*
D02*
G37*
G36*
X-883492D02*
X-908645D01*
Y2153979D01*
X-906731Y2144355D01*
X-901279Y2136195D01*
X-893119Y2130743D01*
X-883494Y2128829D01*
X-883492D01*
Y2226372D01*
D02*
G37*
G36*
X956511Y1871155D02*
X956508D01*
Y1773612D01*
X981661D01*
Y1846004D01*
X979747Y1855629D01*
X974295Y1863789D01*
X966135Y1869241D01*
X956511Y1871155D01*
D02*
G37*
G36*
X916508D02*
X916506D01*
X906881Y1869241D01*
X898721Y1863789D01*
X893269Y1855629D01*
X891355Y1846004D01*
Y1773612D01*
X916508D01*
Y1871155D01*
D02*
G37*
G36*
X-843489D02*
X-843492D01*
Y1773612D01*
X-818338D01*
Y1846004D01*
X-820253Y1855629D01*
X-825705Y1863789D01*
X-833864Y1869241D01*
X-843489Y1871155D01*
D02*
G37*
G36*
X-883492D02*
X-883494D01*
X-893119Y1869241D01*
X-901279Y1863789D01*
X-906731Y1855629D01*
X-908645Y1846004D01*
Y1773612D01*
X-883492D01*
Y1871155D01*
D02*
G37*
G36*
X-2592541Y1752500D02*
X-2607459D01*
X-2621242Y1746791D01*
X-2631791Y1736242D01*
X-2637500Y1722459D01*
Y1707541D01*
X-2631791Y1693758D01*
X-2621242Y1683209D01*
X-2607459Y1677500D01*
X-2592541D01*
X-2578758Y1683209D01*
X-2568209Y1693758D01*
X-2562500Y1707541D01*
Y1722459D01*
X-2568209Y1736242D01*
X-2578758Y1746791D01*
X-2592541Y1752500D01*
D02*
G37*
G36*
X981661Y1733612D02*
X956508D01*
Y1636069D01*
X956511D01*
X966135Y1637983D01*
X974295Y1643435D01*
X979747Y1651595D01*
X981661Y1661219D01*
Y1733612D01*
D02*
G37*
G36*
X916508D02*
X891355D01*
Y1661219D01*
X893269Y1651595D01*
X898721Y1643435D01*
X906881Y1637983D01*
X916506Y1636069D01*
X916508D01*
Y1733612D01*
D02*
G37*
G36*
X-818338D02*
X-843492D01*
Y1636069D01*
X-843489D01*
X-833864Y1637983D01*
X-825705Y1643435D01*
X-820253Y1651595D01*
X-818338Y1661219D01*
Y1733612D01*
D02*
G37*
G36*
X-883492D02*
X-908645D01*
Y1661219D01*
X-906731Y1651595D01*
X-901279Y1643435D01*
X-893119Y1637983D01*
X-883494Y1636069D01*
X-883492D01*
Y1733612D01*
D02*
G37*
G36*
X1570486Y1758000D02*
X1570000D01*
Y1570000D01*
X1758000D01*
Y1570486D01*
X1750006Y1610671D01*
X1734327Y1648525D01*
X1711564Y1682592D01*
X1682592Y1711564D01*
X1648525Y1734327D01*
X1610671Y1750006D01*
X1570486Y1758000D01*
D02*
G37*
G36*
X-1529514D02*
X-1529999D01*
Y1570000D01*
X-1342000D01*
Y1570486D01*
X-1349993Y1610671D01*
X-1365673Y1648525D01*
X-1388436Y1682592D01*
X-1417408Y1711564D01*
X-1451475Y1734327D01*
X-1489329Y1750006D01*
X-1529514Y1758000D01*
D02*
G37*
G36*
X1530000D02*
X1529514D01*
X1489329Y1750006D01*
X1451475Y1734327D01*
X1417408Y1711564D01*
X1388436Y1682592D01*
X1365673Y1648525D01*
X1349993Y1610671D01*
X1342000Y1570486D01*
Y1570000D01*
X1530000D01*
Y1758000D01*
D02*
G37*
G36*
X-1569999D02*
X-1570486D01*
X-1610671Y1750006D01*
X-1648525Y1734327D01*
X-1682592Y1711564D01*
X-1711564Y1682592D01*
X-1734327Y1648525D01*
X-1750006Y1610671D01*
X-1758000Y1570486D01*
Y1570000D01*
X-1569999D01*
Y1758000D01*
D02*
G37*
G36*
X-2492541Y1587500D02*
X-2507459D01*
X-2521242Y1581791D01*
X-2531791Y1571242D01*
X-2537500Y1557459D01*
Y1542541D01*
X-2531791Y1528758D01*
X-2521242Y1518209D01*
X-2507459Y1512500D01*
X-2492541D01*
X-2478758Y1518209D01*
X-2468209Y1528758D01*
X-2462500Y1542541D01*
Y1557459D01*
X-2468209Y1571242D01*
X-2478758Y1581791D01*
X-2492541Y1587500D01*
D02*
G37*
G36*
X1758000Y1530000D02*
X1570000D01*
Y1342000D01*
X1570486D01*
X1610671Y1349993D01*
X1648525Y1365673D01*
X1682592Y1388436D01*
X1711564Y1417408D01*
X1734327Y1451475D01*
X1750006Y1489329D01*
X1758000Y1529514D01*
Y1530000D01*
D02*
G37*
G36*
X1530000D02*
X1342000D01*
Y1529514D01*
X1349993Y1489329D01*
X1365673Y1451475D01*
X1388436Y1417408D01*
X1417408Y1388436D01*
X1451475Y1365673D01*
X1489329Y1349993D01*
X1529514Y1342000D01*
X1530000D01*
Y1530000D01*
D02*
G37*
G36*
X-1342000D02*
X-1529999D01*
Y1342000D01*
X-1529514D01*
X-1489329Y1349993D01*
X-1451475Y1365673D01*
X-1417408Y1388436D01*
X-1388436Y1417408D01*
X-1365673Y1451475D01*
X-1349993Y1489329D01*
X-1342000Y1529514D01*
Y1530000D01*
D02*
G37*
G36*
X-1569999D02*
X-1758000D01*
Y1529514D01*
X-1750006Y1489329D01*
X-1734327Y1451475D01*
X-1711564Y1417408D01*
X-1682592Y1388436D01*
X-1648525Y1365673D01*
X-1610671Y1349993D01*
X-1570486Y1342000D01*
X-1569999D01*
Y1530000D01*
D02*
G37*
G36*
X-2072541Y1367500D02*
X-2087459D01*
X-2101242Y1361791D01*
X-2111791Y1351242D01*
X-2117500Y1337459D01*
Y1322541D01*
X-2111791Y1308758D01*
X-2101242Y1298209D01*
X-2087459Y1292500D01*
X-2072541D01*
X-2058758Y1298209D01*
X-2048209Y1308758D01*
X-2042500Y1322541D01*
Y1337459D01*
X-2048209Y1351242D01*
X-2058758Y1361791D01*
X-2072541Y1367500D01*
D02*
G37*
G36*
X2092459Y1265000D02*
X2077541D01*
X2063758Y1259291D01*
X2053209Y1248742D01*
X2047500Y1234959D01*
Y1220041D01*
X2053209Y1206258D01*
X2063758Y1195709D01*
X2077541Y1190000D01*
X2092459D01*
X2106242Y1195709D01*
X2116791Y1206258D01*
X2122500Y1220041D01*
Y1234959D01*
X2116791Y1248742D01*
X2106242Y1259291D01*
X2092459Y1265000D01*
D02*
G37*
G36*
X1234000Y848470D02*
X1220000D01*
Y805000D01*
X1258470D01*
Y824000D01*
X1256607Y833364D01*
X1251303Y841303D01*
X1243364Y846607D01*
X1234000Y848470D01*
D02*
G37*
G36*
X1180000D02*
X1166000D01*
X1156636Y846607D01*
X1148697Y841303D01*
X1143392Y833364D01*
X1141530Y824000D01*
Y805000D01*
X1180000D01*
Y848470D01*
D02*
G37*
G36*
X1834000D02*
X1820000D01*
Y805000D01*
X1858470D01*
Y824000D01*
X1856607Y833364D01*
X1851303Y841303D01*
X1843364Y846607D01*
X1834000Y848470D01*
D02*
G37*
G36*
X234000D02*
X220000D01*
Y805000D01*
X258470D01*
Y824000D01*
X256608Y833364D01*
X251303Y841303D01*
X243364Y846607D01*
X234000Y848470D01*
D02*
G37*
G36*
X1780000D02*
X1766000D01*
X1756636Y846607D01*
X1748697Y841303D01*
X1743392Y833364D01*
X1741530Y824000D01*
Y805000D01*
X1780000D01*
Y848470D01*
D02*
G37*
G36*
X180000D02*
X166000D01*
X156636Y846607D01*
X148697Y841303D01*
X143393Y833364D01*
X141530Y824000D01*
Y805000D01*
X180000D01*
Y848470D01*
D02*
G37*
G36*
X1434000D02*
X1420000D01*
Y805000D01*
X1458470D01*
Y824000D01*
X1456607Y833364D01*
X1451303Y841303D01*
X1443364Y846607D01*
X1434000Y848470D01*
D02*
G37*
G36*
X434000D02*
X420000D01*
Y805000D01*
X458470D01*
Y824000D01*
X456607Y833364D01*
X451303Y841303D01*
X443364Y846607D01*
X434000Y848470D01*
D02*
G37*
G36*
X1380000D02*
X1366000D01*
X1356636Y846607D01*
X1348697Y841303D01*
X1343393Y833364D01*
X1341530Y824000D01*
Y805000D01*
X1380000D01*
Y848470D01*
D02*
G37*
G36*
X380000D02*
X366000D01*
X356636Y846607D01*
X348697Y841303D01*
X343393Y833364D01*
X341530Y824000D01*
Y805000D01*
X380000D01*
Y848470D01*
D02*
G37*
G36*
X34000D02*
X20000D01*
Y805000D01*
X58470D01*
Y824000D01*
X56607Y833364D01*
X51303Y841303D01*
X43364Y846607D01*
X34000Y848470D01*
D02*
G37*
G36*
X-20000D02*
X-34000D01*
X-43364Y846607D01*
X-51303Y841303D01*
X-56607Y833364D01*
X-58470Y824000D01*
Y805000D01*
X-20000D01*
Y848470D01*
D02*
G37*
G36*
X1634000D02*
X1620000D01*
Y804999D01*
X1658470D01*
Y824000D01*
X1656608Y833364D01*
X1651303Y841303D01*
X1643364Y846607D01*
X1634000Y848470D01*
D02*
G37*
G36*
X634000D02*
X620000D01*
Y804999D01*
X658470D01*
Y824000D01*
X656608Y833364D01*
X651303Y841303D01*
X643364Y846607D01*
X634000Y848470D01*
D02*
G37*
G36*
X1580000D02*
X1566000D01*
X1556636Y846607D01*
X1548697Y841303D01*
X1543393Y833364D01*
X1541530Y824000D01*
Y804999D01*
X1580000D01*
Y848470D01*
D02*
G37*
G36*
X580000D02*
X566000D01*
X556636Y846607D01*
X548697Y841303D01*
X543393Y833364D01*
X541530Y824000D01*
Y804999D01*
X580000D01*
Y848470D01*
D02*
G37*
G36*
X258470Y765000D02*
X200000D01*
X141530D01*
Y746000D01*
X143393Y736636D01*
X148697Y728697D01*
X156636Y723393D01*
X166000Y721530D01*
X180000Y709224D01*
X180000Y701530D01*
X180000Y685169D01*
X167728Y674382D01*
X163188Y672303D01*
X158782Y671427D01*
X152662Y667338D01*
X148573Y661218D01*
X147138Y654000D01*
Y637941D01*
X52862D01*
Y654000D01*
X51427Y661218D01*
X47338Y667338D01*
X41219Y671427D01*
X33527Y680001D01*
Y720001D01*
X43364Y723393D01*
X51303Y728697D01*
X56607Y736636D01*
X58470Y746000D01*
Y765000D01*
X-0D01*
X-58470D01*
Y746000D01*
X-56607Y736636D01*
X-51303Y728697D01*
X-43364Y723393D01*
X-33533Y720001D01*
Y680001D01*
X-41219Y671427D01*
X-47338Y667338D01*
X-51427Y661218D01*
X-52862Y654000D01*
Y576000D01*
X-51427Y568782D01*
X-47338Y562662D01*
X-41218Y558573D01*
X-34000Y557138D01*
X34000D01*
X41218Y558573D01*
X47338Y562662D01*
X51427Y568782D01*
X52862Y576000D01*
Y592059D01*
X147138D01*
Y576000D01*
X148573Y568782D01*
X152662Y562662D01*
X158782Y558573D01*
X166000Y557138D01*
X177059D01*
Y449502D01*
X135057Y407500D01*
X122541D01*
X108758Y401791D01*
X98209Y391242D01*
X92500Y377459D01*
Y362541D01*
X98209Y348758D01*
X108758Y338209D01*
X122541Y332500D01*
X137459D01*
X151242Y338209D01*
X161791Y348758D01*
X167500Y362541D01*
Y375057D01*
X216221Y423778D01*
X221194Y431221D01*
X222941Y440000D01*
Y557138D01*
X234000D01*
X241218Y558573D01*
X247338Y562662D01*
X251427Y568782D01*
X252863Y576000D01*
Y654000D01*
X251427Y661218D01*
X247338Y667338D01*
X241218Y671427D01*
X236812Y672303D01*
X232272Y674382D01*
X220000Y685169D01*
X220000Y692863D01*
X220000Y709224D01*
X234000Y721530D01*
X243364Y723393D01*
X251303Y728697D01*
X256608Y736636D01*
X258470Y746000D01*
Y765000D01*
D02*
G37*
G36*
X-2870000Y828235D02*
X-2910000D01*
X-2913693Y827500D01*
X-2917459D01*
X-2920938Y826059D01*
X-2924632Y825324D01*
X-2927763Y823232D01*
X-2931242Y821791D01*
X-2933904Y819128D01*
X-2937036Y817036D01*
X-2939128Y813904D01*
X-2941791Y811242D01*
X-2943232Y807763D01*
X-2945324Y804632D01*
X-2946059Y800938D01*
X-2947500Y797459D01*
Y793693D01*
X-2948235Y790000D01*
X-2947500Y786307D01*
Y782541D01*
X-2946059Y779062D01*
X-2945324Y775368D01*
X-2943232Y772237D01*
X-2941791Y768758D01*
X-2939128Y766095D01*
X-2937036Y762964D01*
X-2933904Y760871D01*
X-2931242Y758209D01*
X-2927763Y756768D01*
X-2924632Y754676D01*
X-2920938Y753941D01*
X-2917459Y752500D01*
X-2913693D01*
X-2910000Y751765D01*
X-2909921D01*
X-2908238Y749836D01*
X-2901061Y731765D01*
X-2901427Y731219D01*
X-2902862Y724000D01*
Y646000D01*
X-2901427Y638782D01*
X-2897338Y632662D01*
X-2891218Y628574D01*
X-2886812Y627697D01*
X-2882272Y625619D01*
X-2870000Y614831D01*
X-2870000Y607137D01*
X-2870000Y590777D01*
X-2884000Y578471D01*
X-2893364Y576608D01*
X-2901303Y571303D01*
X-2906607Y563364D01*
X-2908470Y554000D01*
Y535000D01*
X-2850000D01*
X-2791530D01*
Y554000D01*
X-2793392Y563364D01*
X-2798697Y571303D01*
X-2806636Y576608D01*
X-2816000Y578471D01*
X-2830000Y590777D01*
X-2830000Y598470D01*
X-2830000Y614831D01*
X-2817728Y625619D01*
X-2813188Y627697D01*
X-2808782Y628574D01*
X-2802662Y632662D01*
X-2798573Y638782D01*
X-2797137Y646000D01*
Y724000D01*
X-2798573Y731219D01*
X-2802662Y737338D01*
X-2808782Y741427D01*
X-2811765Y742020D01*
Y770000D01*
X-2814676Y784632D01*
X-2822964Y797036D01*
X-2842964Y817036D01*
X-2855368Y825324D01*
X-2870000Y828235D01*
D02*
G37*
G36*
X-2497666Y555429D02*
X-2512584D01*
X-2526367Y549720D01*
X-2536916Y539171D01*
X-2542625Y525388D01*
Y510470D01*
X-2536916Y496687D01*
X-2526367Y486138D01*
X-2512584Y480429D01*
X-2497666D01*
X-2483883Y486138D01*
X-2473334Y496687D01*
X-2467625Y510470D01*
Y525388D01*
X-2473334Y539171D01*
X-2483883Y549720D01*
X-2497666Y555429D01*
D02*
G37*
G36*
X-2791530Y495000D02*
X-2830000D01*
Y451530D01*
X-2816000D01*
X-2806636Y453393D01*
X-2798697Y458697D01*
X-2793392Y466636D01*
X-2791530Y476000D01*
Y495000D01*
D02*
G37*
G36*
X-2870000D02*
X-2908470D01*
Y476000D01*
X-2906607Y466636D01*
X-2901303Y458697D01*
X-2893364Y453393D01*
X-2884000Y451530D01*
X-2870000D01*
Y495000D01*
D02*
G37*
G36*
X1258470Y765001D02*
X1200000D01*
X1141530D01*
Y746000D01*
X1143392Y736636D01*
X1148697Y728697D01*
X1156636Y723393D01*
X1166000Y721530D01*
X1180000Y709224D01*
X1180000Y701530D01*
X1180000Y685169D01*
X1167728Y674382D01*
X1163188Y672303D01*
X1158782Y671427D01*
X1152662Y667338D01*
X1148573Y661218D01*
X1147137Y654000D01*
Y576000D01*
X1148573Y568782D01*
X1152662Y562662D01*
X1158782Y558573D01*
X1166000Y557138D01*
X1234000D01*
X1241218Y558573D01*
X1247338Y562662D01*
X1251427Y568782D01*
X1252862Y576000D01*
Y592059D01*
X1347138D01*
Y576000D01*
X1348573Y568782D01*
X1352662Y562662D01*
X1358782Y558573D01*
X1366000Y557138D01*
X1377059D01*
Y449502D01*
X1335057Y407500D01*
X1322541D01*
X1308758Y401791D01*
X1298209Y391242D01*
X1292500Y377459D01*
Y362541D01*
X1298209Y348758D01*
X1308758Y338209D01*
X1322541Y332500D01*
X1337459D01*
X1351242Y338209D01*
X1361791Y348758D01*
X1367500Y362541D01*
Y375057D01*
X1416221Y423778D01*
X1421194Y431221D01*
X1422941Y440000D01*
Y557138D01*
X1434000D01*
X1441218Y558573D01*
X1447338Y562662D01*
X1451427Y568782D01*
X1452862Y576000D01*
Y654000D01*
X1451427Y661218D01*
X1447338Y667338D01*
X1441219Y671427D01*
X1433512Y680011D01*
Y720011D01*
X1443364Y723393D01*
X1451303Y728697D01*
X1456607Y736636D01*
X1458470Y746000D01*
Y765000D01*
X1400000D01*
X1341530D01*
Y746000D01*
X1343393Y736636D01*
X1348697Y728697D01*
X1356636Y723393D01*
X1366452Y720011D01*
Y680011D01*
X1358781Y671427D01*
X1352662Y667338D01*
X1348573Y661218D01*
X1347138Y654000D01*
Y637941D01*
X1252862D01*
Y654000D01*
X1251427Y661218D01*
X1247338Y667338D01*
X1241218Y671427D01*
X1236812Y672303D01*
X1232272Y674382D01*
X1220000Y685169D01*
X1220000Y692863D01*
X1220000Y709224D01*
X1234000Y721530D01*
X1243364Y723393D01*
X1251303Y728697D01*
X1256607Y736636D01*
X1258470Y746000D01*
Y765001D01*
D02*
G37*
G36*
X2117459Y87500D02*
X2102541D01*
X2088758Y81791D01*
X2078209Y71242D01*
X2072500Y57459D01*
Y42541D01*
X2078209Y28758D01*
X2088758Y18209D01*
X2102541Y12500D01*
X2117459D01*
X2131242Y18209D01*
X2141791Y28758D01*
X2147500Y42541D01*
Y57459D01*
X2141791Y71242D01*
X2131242Y81791D01*
X2117459Y87500D01*
D02*
G37*
G36*
X-2405000Y-41530D02*
X-2424000D01*
X-2433364Y-43393D01*
X-2441303Y-48697D01*
X-2446607Y-56636D01*
X-2448470Y-66000D01*
Y-80000D01*
X-2405000D01*
Y-41530D01*
D02*
G37*
G36*
X2712178Y1092500D02*
X2687822D01*
X2664296Y1086196D01*
X2643204Y1074018D01*
X2625982Y1056796D01*
X2613804Y1035704D01*
X2607500Y1012178D01*
Y987822D01*
X2613804Y964297D01*
X2620410Y952854D01*
X2482528Y814971D01*
X2477555Y807529D01*
X2475809Y798750D01*
Y715000D01*
X2377500D01*
Y665000D01*
X2377500D01*
X2377500Y636000D01*
X2372000Y630500D01*
X2372000D01*
Y610000D01*
X2418749D01*
Y570000D01*
X2372000D01*
Y549500D01*
X2372000D01*
X2377500Y544000D01*
X2377500Y515000D01*
X2377500Y495000D01*
Y465000D01*
X2475809D01*
Y401250D01*
X2477555Y392471D01*
X2482528Y385029D01*
X2620410Y247147D01*
X2613804Y235704D01*
X2607500Y212178D01*
Y187822D01*
X2613804Y164297D01*
X2625982Y143204D01*
X2643204Y125982D01*
X2664296Y113804D01*
X2669163Y112500D01*
X2666530Y92500D01*
X2607500D01*
Y-92500D01*
X2792500D01*
Y92500D01*
X2733470D01*
X2730837Y112500D01*
X2735703Y113804D01*
X2756796Y125982D01*
X2774018Y143204D01*
X2786196Y164297D01*
X2792500Y187822D01*
Y212178D01*
X2786196Y235704D01*
X2774018Y256796D01*
X2756796Y274019D01*
X2735703Y286196D01*
X2722824Y289647D01*
Y310353D01*
X2735703Y313804D01*
X2756796Y325982D01*
X2774018Y343204D01*
X2786196Y364296D01*
X2792500Y387822D01*
Y412178D01*
X2786196Y435703D01*
X2774018Y456796D01*
X2756796Y474018D01*
X2735703Y486196D01*
X2733449Y486800D01*
Y507506D01*
X2737826Y508679D01*
X2760173Y521581D01*
X2778419Y539827D01*
X2791321Y562174D01*
X2796098Y580000D01*
X2700000D01*
Y620000D01*
X2796098D01*
X2791321Y637827D01*
X2778419Y660173D01*
X2760173Y678419D01*
X2737826Y691321D01*
X2733449Y692494D01*
Y713200D01*
X2735703Y713804D01*
X2756796Y725982D01*
X2774018Y743204D01*
X2786196Y764296D01*
X2792500Y787822D01*
Y812178D01*
X2786196Y835703D01*
X2774018Y856796D01*
X2756796Y874018D01*
X2735703Y886196D01*
X2722824Y889647D01*
Y910353D01*
X2735703Y913804D01*
X2756796Y925982D01*
X2774018Y943204D01*
X2786196Y964297D01*
X2792500Y987822D01*
Y1012178D01*
X2786196Y1035704D01*
X2774018Y1056796D01*
X2756796Y1074018D01*
X2735703Y1086196D01*
X2712178Y1092500D01*
D02*
G37*
G36*
X-2405000Y-120000D02*
X-2448470D01*
Y-134000D01*
X-2446607Y-143364D01*
X-2441303Y-151303D01*
X-2433364Y-156608D01*
X-2424000Y-158470D01*
X-2405000D01*
Y-120000D01*
D02*
G37*
G36*
X-2346000Y-41530D02*
X-2365000D01*
Y-100000D01*
Y-158470D01*
X-2346000D01*
X-2336636Y-156608D01*
X-2328697Y-151303D01*
X-2323392Y-143364D01*
X-2321530Y-134000D01*
X-2309223Y-120000D01*
X-2301530Y-120000D01*
X-2285169Y-120000D01*
X-2274382Y-132272D01*
X-2272303Y-136812D01*
X-2271426Y-141218D01*
X-2267338Y-147338D01*
X-2261218Y-151427D01*
X-2254000Y-152863D01*
X-2248235D01*
Y-247137D01*
X-2254000D01*
X-2261218Y-248573D01*
X-2267338Y-252662D01*
X-2271427Y-258781D01*
X-2280000Y-266470D01*
X-2320000D01*
X-2328573Y-258781D01*
X-2332662Y-252662D01*
X-2338782Y-248573D01*
X-2346000Y-247137D01*
X-2424000D01*
X-2431218Y-248573D01*
X-2437338Y-252662D01*
X-2441427Y-258782D01*
X-2442103Y-262184D01*
X-2443693Y-262500D01*
X-2447459D01*
X-2450938Y-263941D01*
X-2454632Y-264676D01*
X-2457763Y-266768D01*
X-2461242Y-268209D01*
X-2463904Y-270871D01*
X-2467036Y-272964D01*
X-2469128Y-276095D01*
X-2471791Y-278758D01*
X-2473232Y-282237D01*
X-2475324Y-285368D01*
X-2476059Y-289062D01*
X-2477500Y-292541D01*
Y-296307D01*
X-2478235Y-300000D01*
X-2477500Y-303693D01*
Y-307459D01*
X-2476059Y-310938D01*
X-2475324Y-314632D01*
X-2473232Y-317763D01*
X-2471791Y-321242D01*
X-2469128Y-323904D01*
X-2467036Y-327036D01*
X-2463904Y-329128D01*
X-2461242Y-331791D01*
X-2457763Y-333232D01*
X-2454632Y-335324D01*
X-2450938Y-336059D01*
X-2447459Y-337500D01*
X-2443693D01*
X-2442103Y-337816D01*
X-2441427Y-341218D01*
X-2437338Y-347338D01*
X-2431218Y-351427D01*
X-2424000Y-352862D01*
X-2346000D01*
X-2338782Y-351427D01*
X-2332662Y-347338D01*
X-2328573Y-341219D01*
X-2320000Y-333530D01*
X-2280000D01*
X-2271427Y-341219D01*
X-2267338Y-347338D01*
X-2261218Y-351427D01*
X-2254000Y-352862D01*
X-2176000D01*
X-2168782Y-351427D01*
X-2162662Y-347338D01*
X-2158574Y-341218D01*
X-2157138Y-334000D01*
Y-266000D01*
X-2158574Y-258782D01*
X-2162662Y-252662D01*
X-2168782Y-248573D01*
X-2171765Y-247980D01*
Y-152020D01*
X-2168782Y-151427D01*
X-2162662Y-147338D01*
X-2158573Y-141218D01*
X-2157137Y-134000D01*
Y-66000D01*
X-2158573Y-58782D01*
X-2162662Y-52662D01*
X-2168782Y-48573D01*
X-2176000Y-47138D01*
X-2254000D01*
X-2261218Y-48573D01*
X-2267338Y-52662D01*
X-2271426Y-58782D01*
X-2272303Y-63188D01*
X-2274382Y-67728D01*
X-2285169Y-80000D01*
X-2292863Y-80000D01*
X-2309223Y-80000D01*
X-2321530Y-66000D01*
X-2323392Y-56636D01*
X-2328697Y-48697D01*
X-2336636Y-43393D01*
X-2346000Y-41530D01*
D02*
G37*
G36*
X2839115Y-679628D02*
X2820915Y-679628D01*
X2802349Y-684602D01*
X2785703Y-694213D01*
X2772111Y-707804D01*
X2762500Y-724451D01*
X2760587Y-729070D01*
X2810135Y-749593D01*
X2839115Y-679628D01*
D02*
G37*
G36*
X2876070Y-694935D02*
X2847090Y-764900D01*
X2896637Y-785424D01*
X2898551Y-780804D01*
X2903526Y-762238D01*
X2903525Y-743017D01*
X2898551Y-724450D01*
X2888940Y-707805D01*
X2876070Y-694935D01*
D02*
G37*
G36*
X2745280Y-766025D02*
X2743366Y-770644D01*
X2738392Y-789211D01*
X2738392Y-808432D01*
X2743366Y-826998D01*
X2752977Y-843644D01*
X2765846Y-856514D01*
X2794827Y-786548D01*
X2745280Y-766025D01*
D02*
G37*
G36*
X3103345Y-789075D02*
X3085144D01*
X3066578Y-794050D01*
X3049932Y-803661D01*
X3036341Y-817252D01*
X3026730Y-833898D01*
X3024817Y-838518D01*
X3074364Y-859041D01*
X3103345Y-789075D01*
D02*
G37*
G36*
X2831782Y-801855D02*
X2802802Y-871821D01*
X2821002Y-871821D01*
X2839568Y-866846D01*
X2856215Y-857236D01*
X2869806Y-843644D01*
X2879417Y-826998D01*
X2881330Y-822379D01*
X2831782Y-801855D01*
D02*
G37*
G36*
X2962621Y-782448D02*
X2943525D01*
X2925883Y-789756D01*
X2912381Y-803258D01*
X2905073Y-820900D01*
Y-839996D01*
X2912381Y-857638D01*
X2925883Y-871141D01*
X2943525Y-878448D01*
X2962621D01*
X2980263Y-871141D01*
X2993766Y-857638D01*
X3001073Y-839996D01*
Y-820900D01*
X2993766Y-803258D01*
X2980263Y-789756D01*
X2962621Y-782448D01*
D02*
G37*
G36*
X3140300Y-804382D02*
X3111319Y-874348D01*
X3160867Y-894871D01*
X3162780Y-890252D01*
X3167755Y-871685D01*
X3167755Y-852464D01*
X3162780Y-833898D01*
X3153170Y-817252D01*
X3140300Y-804382D01*
D02*
G37*
G36*
X2267459Y-862500D02*
X2252541D01*
X2238758Y-868209D01*
X2228209Y-878758D01*
X2222500Y-892541D01*
Y-907459D01*
X2228209Y-921242D01*
X2238758Y-931791D01*
X2252541Y-937500D01*
X2267459D01*
X2281242Y-931791D01*
X2291791Y-921242D01*
X2297500Y-907459D01*
Y-892541D01*
X2291791Y-878758D01*
X2281242Y-868209D01*
X2267459Y-862500D01*
D02*
G37*
G36*
X3009509Y-875473D02*
X3007596Y-880092D01*
X3002621Y-898658D01*
X3002621Y-917879D01*
X3007596Y-936446D01*
X3017207Y-953092D01*
X3030076Y-965961D01*
X3059057Y-895996D01*
X3009509Y-875473D01*
D02*
G37*
G36*
X3096012Y-911303D02*
X3067031Y-981269D01*
X3085232D01*
X3103798Y-976294D01*
X3120444Y-966683D01*
X3134036Y-953092D01*
X3143646Y-936445D01*
X3145559Y-931826D01*
X3096012Y-911303D01*
D02*
G37*
G36*
X2857459Y-1042500D02*
X2842541D01*
X2828758Y-1048209D01*
X2818209Y-1058758D01*
X2812500Y-1072541D01*
Y-1087459D01*
X2818209Y-1101242D01*
X2828758Y-1111791D01*
X2842541Y-1117500D01*
X2857459D01*
X2871242Y-1111791D01*
X2881791Y-1101242D01*
X2887500Y-1087459D01*
Y-1072541D01*
X2881791Y-1058758D01*
X2871242Y-1048209D01*
X2857459Y-1042500D01*
D02*
G37*
G36*
X2523277Y-1096792D02*
X2508359D01*
X2494576Y-1102501D01*
X2484027Y-1113050D01*
X2478318Y-1126833D01*
Y-1141751D01*
X2484027Y-1155534D01*
X2494576Y-1166083D01*
X2508359Y-1171792D01*
X2523277D01*
X2532859Y-1167823D01*
X2543710Y-1174690D01*
X2544213Y-1175010D01*
X2544222Y-1175012D01*
X2545745Y-1175600D01*
X2548973Y-1177758D01*
X2549073Y-1177777D01*
X2561284Y-1180207D01*
X2561525Y-1180158D01*
X2581206Y-1179722D01*
X2738672Y-1177848D01*
X2739349Y-1179482D01*
X2749898Y-1190031D01*
X2763681Y-1195740D01*
X2768430D01*
X2770985Y-1200839D01*
X2778642Y-1217668D01*
X2779474Y-1237101D01*
X2779426Y-1239161D01*
X2769829Y-1248758D01*
X2764120Y-1262541D01*
Y-1264022D01*
X2758748Y-1278925D01*
X2745642Y-1282500D01*
X2742541D01*
X2728758Y-1288209D01*
X2718209Y-1298758D01*
X2712500Y-1312541D01*
Y-1327459D01*
X2718209Y-1341242D01*
X2728758Y-1351791D01*
X2742541Y-1357500D01*
X2757459D01*
X2771242Y-1351791D01*
X2781791Y-1341242D01*
X2787500Y-1327459D01*
Y-1325978D01*
X2792872Y-1311075D01*
X2805978Y-1307500D01*
X2809079D01*
X2822862Y-1301791D01*
X2833411Y-1291242D01*
X2839120Y-1277459D01*
Y-1262541D01*
X2833411Y-1248758D01*
X2822862Y-1238209D01*
X2819348Y-1236753D01*
X2818397Y-1215824D01*
X2818383Y-1215769D01*
X2818391Y-1215712D01*
X2818388Y-1215653D01*
X2818236Y-1215049D01*
X2816230Y-1204963D01*
X2815150Y-1203347D01*
X2815048Y-1202976D01*
X2803088Y-1179102D01*
X2808640Y-1165699D01*
Y-1150781D01*
X2802931Y-1136998D01*
X2792382Y-1126449D01*
X2778599Y-1120740D01*
X2763681D01*
X2749898Y-1126449D01*
X2739349Y-1136998D01*
X2738350Y-1139409D01*
X2570782Y-1141404D01*
X2554327Y-1127674D01*
X2551844Y-1123273D01*
X2547609Y-1113050D01*
X2537060Y-1102501D01*
X2523277Y-1096792D01*
D02*
G37*
G36*
X2532969Y-1418731D02*
X2514768D01*
X2496202Y-1423706D01*
X2479556Y-1433317D01*
X2465964Y-1446908D01*
X2456354Y-1463554D01*
X2454440Y-1468174D01*
X2503988Y-1488697D01*
X2532969Y-1418731D01*
D02*
G37*
G36*
X2569924Y-1434039D02*
X2540943Y-1504004D01*
X2590491Y-1524527D01*
X2592404Y-1519908D01*
X2597379Y-1501342D01*
X2597379Y-1482120D01*
X2592404Y-1463554D01*
X2582793Y-1446908D01*
X2569924Y-1434039D01*
D02*
G37*
G36*
X1570486Y-1342000D02*
X1570000D01*
Y-1529999D01*
X1758000D01*
Y-1529514D01*
X1750006Y-1489329D01*
X1734327Y-1451475D01*
X1711564Y-1417408D01*
X1682592Y-1388436D01*
X1648525Y-1365673D01*
X1610671Y-1349993D01*
X1570486Y-1342000D01*
D02*
G37*
G36*
X2439133Y-1505129D02*
X2437220Y-1509748D01*
X2432245Y-1528314D01*
X2432245Y-1547536D01*
X2437220Y-1566102D01*
X2446830Y-1582748D01*
X2459700Y-1595618D01*
X2488681Y-1525652D01*
X2439133Y-1505129D01*
D02*
G37*
G36*
X2797198Y-1528179D02*
X2778998Y-1528179D01*
X2760432Y-1533153D01*
X2743785Y-1542764D01*
X2730194Y-1556355D01*
X2720583Y-1573002D01*
X2718670Y-1577621D01*
X2768217Y-1598144D01*
X2797198Y-1528179D01*
D02*
G37*
G36*
X2525636Y-1540959D02*
X2496655Y-1610925D01*
X2514856D01*
X2533422Y-1605950D01*
X2550068Y-1596339D01*
X2563659Y-1582748D01*
X2573270Y-1566102D01*
X2575183Y-1561483D01*
X2525636Y-1540959D01*
D02*
G37*
G36*
X2656474Y-1521551D02*
X2637379D01*
X2619737Y-1528859D01*
X2606234Y-1542362D01*
X2598926Y-1560004D01*
Y-1579099D01*
X2606234Y-1596742D01*
X2619737Y-1610244D01*
X2637379Y-1617552D01*
X2656474D01*
X2674117Y-1610244D01*
X2687619Y-1596742D01*
X2694927Y-1579099D01*
Y-1560004D01*
X2687619Y-1542362D01*
X2674117Y-1528859D01*
X2656474Y-1521551D01*
D02*
G37*
G36*
X2834153Y-1543486D02*
X2805172Y-1613451D01*
X2854720Y-1633975D01*
X2856634Y-1629355D01*
X2861608Y-1610789D01*
X2861608Y-1591568D01*
X2856634Y-1573001D01*
X2847023Y-1556356D01*
X2834153Y-1543486D01*
D02*
G37*
G36*
X2703363Y-1614576D02*
X2701449Y-1619195D01*
X2696474Y-1637762D01*
X2696475Y-1656983D01*
X2701449Y-1675549D01*
X2711060Y-1692195D01*
X2723929Y-1705065D01*
X2752910Y-1635099D01*
X2703363Y-1614576D01*
D02*
G37*
G36*
X2789865Y-1650406D02*
X2760884Y-1720372D01*
X2779085Y-1720372D01*
X2797651Y-1715397D01*
X2814297Y-1705787D01*
X2827889Y-1692195D01*
X2837500Y-1675549D01*
X2839413Y-1670930D01*
X2789865Y-1650406D01*
D02*
G37*
G36*
X1758000Y-1569999D02*
X1570000D01*
Y-1758000D01*
X1570486D01*
X1610671Y-1750006D01*
X1648525Y-1734327D01*
X1682592Y-1711564D01*
X1711564Y-1682592D01*
X1734327Y-1648525D01*
X1750006Y-1610671D01*
X1758000Y-1570486D01*
Y-1569999D01*
D02*
G37*
G36*
X1530000D02*
X1342000D01*
Y-1570486D01*
X1349993Y-1610671D01*
X1365673Y-1648525D01*
X1388436Y-1682592D01*
X1417408Y-1711564D01*
X1451475Y-1734327D01*
X1489329Y-1750006D01*
X1529514Y-1758000D01*
X1530000D01*
Y-1569999D01*
D02*
G37*
G36*
X1294000Y-1861530D02*
X1274999D01*
Y-1900000D01*
X1318470D01*
Y-1886000D01*
X1316607Y-1876636D01*
X1311303Y-1868697D01*
X1303364Y-1863393D01*
X1294000Y-1861530D01*
D02*
G37*
G36*
X1234999D02*
X1216000D01*
X1206636Y-1863393D01*
X1198697Y-1868697D01*
X1193392Y-1876636D01*
X1191529Y-1886000D01*
X1179223Y-1900000D01*
X1171530Y-1900000D01*
X1155169Y-1900000D01*
X1144382Y-1887728D01*
X1142303Y-1883188D01*
X1141426Y-1878782D01*
X1137338Y-1872662D01*
X1131218Y-1868573D01*
X1124000Y-1867137D01*
X1046000D01*
X1038782Y-1868573D01*
X1032662Y-1872662D01*
X1028573Y-1878782D01*
X1027980Y-1881765D01*
X1020000D01*
X1016307Y-1882500D01*
X1012541D01*
X1009062Y-1883941D01*
X1005368Y-1884676D01*
X1002237Y-1886768D01*
X998758Y-1888209D01*
X996096Y-1890872D01*
X992964Y-1892964D01*
X990872Y-1896096D01*
X988209Y-1898758D01*
X986768Y-1902237D01*
X984676Y-1905368D01*
X983941Y-1909062D01*
X982500Y-1912541D01*
Y-1916307D01*
X981765Y-1920000D01*
X982500Y-1923693D01*
Y-1927459D01*
X983941Y-1930938D01*
X984676Y-1934632D01*
X986768Y-1937763D01*
X988209Y-1941242D01*
X990872Y-1943904D01*
X992964Y-1947036D01*
X996096Y-1949128D01*
X998758Y-1951791D01*
X1002237Y-1953232D01*
X1005368Y-1955324D01*
X1009062Y-1956059D01*
X1012541Y-1957500D01*
X1016307D01*
X1020000Y-1958235D01*
X1027980D01*
X1028573Y-1961218D01*
X1032662Y-1967338D01*
X1038782Y-1971427D01*
X1046000Y-1972862D01*
X1061765D01*
Y-2141365D01*
X1054873Y-2148257D01*
X1022611D01*
X1016021Y-2146946D01*
X831236D01*
X823757Y-2148434D01*
X817416Y-2152670D01*
X813180Y-2159011D01*
X811693Y-2166489D01*
Y-2206494D01*
X813180Y-2213973D01*
X817416Y-2220314D01*
X823757Y-2224550D01*
X831236Y-2226037D01*
X1016021D01*
X1022611Y-2224727D01*
X1070711D01*
X1085343Y-2221816D01*
X1097747Y-2213528D01*
X1100000Y-2211274D01*
X1216765Y-2328040D01*
Y-2547137D01*
X1216000D01*
X1208782Y-2548573D01*
X1202662Y-2552662D01*
X1198573Y-2558782D01*
X1197697Y-2563188D01*
X1195618Y-2567728D01*
X1184831Y-2580000D01*
X1177137Y-2580000D01*
X1160776Y-2580000D01*
X1148470Y-2566000D01*
X1146608Y-2556636D01*
X1141303Y-2548697D01*
X1133364Y-2543392D01*
X1124000Y-2541530D01*
X1105000D01*
Y-2600000D01*
Y-2658470D01*
X1124000D01*
X1133364Y-2656607D01*
X1141303Y-2651303D01*
X1146608Y-2643364D01*
X1148470Y-2634000D01*
X1160776Y-2620000D01*
X1168470Y-2620000D01*
X1184831Y-2620000D01*
X1195618Y-2632272D01*
X1197697Y-2636812D01*
X1198573Y-2641218D01*
X1202662Y-2647338D01*
X1208782Y-2651426D01*
X1216000Y-2652862D01*
X1294000D01*
X1301218Y-2651426D01*
X1307338Y-2647338D01*
X1311427Y-2641218D01*
X1312020Y-2638235D01*
X1320000D01*
X1323693Y-2637500D01*
X1327459D01*
X1330938Y-2636059D01*
X1334632Y-2635324D01*
X1337763Y-2633232D01*
X1341242Y-2631791D01*
X1343904Y-2629128D01*
X1347036Y-2627036D01*
X1349128Y-2623904D01*
X1351791Y-2621242D01*
X1353232Y-2617763D01*
X1355324Y-2614632D01*
X1356059Y-2610938D01*
X1357500Y-2607459D01*
Y-2603693D01*
X1358235Y-2600000D01*
X1357500Y-2596307D01*
Y-2592541D01*
X1356059Y-2589062D01*
X1355324Y-2585368D01*
X1353232Y-2582237D01*
X1351791Y-2578758D01*
X1349128Y-2576095D01*
X1347036Y-2572964D01*
X1343904Y-2570871D01*
X1341242Y-2568209D01*
X1337763Y-2566768D01*
X1334632Y-2564676D01*
X1330938Y-2563941D01*
X1327459Y-2562500D01*
X1323693D01*
X1320000Y-2561765D01*
X1312020D01*
X1311427Y-2558782D01*
X1307338Y-2552662D01*
X1301218Y-2548573D01*
X1294000Y-2547137D01*
X1293235D01*
Y-2484957D01*
X1301408Y-2479822D01*
X1313235Y-2476357D01*
X1316517Y-2478550D01*
X1323996Y-2480037D01*
X1508781D01*
X1516259Y-2478550D01*
X1522600Y-2474314D01*
X1526836Y-2467973D01*
X1528324Y-2460494D01*
Y-2420489D01*
X1526836Y-2413011D01*
X1522600Y-2406670D01*
X1516259Y-2402434D01*
X1508781Y-2400946D01*
X1323996D01*
X1316517Y-2402434D01*
X1313235Y-2404627D01*
X1301408Y-2401162D01*
X1293235Y-2396026D01*
Y-2357957D01*
X1301408Y-2352822D01*
X1313235Y-2349357D01*
X1316517Y-2351550D01*
X1323996Y-2353037D01*
X1508781D01*
X1516259Y-2351550D01*
X1522600Y-2347314D01*
X1526836Y-2340973D01*
X1528324Y-2333494D01*
Y-2329367D01*
X1533573D01*
X1542352Y-2327621D01*
X1549795Y-2322648D01*
X1657023Y-2215420D01*
X1675500Y-2223074D01*
Y-2412500D01*
X1870500D01*
Y-2187500D01*
X1711074D01*
X1703421Y-2169022D01*
X1739502Y-2132941D01*
X1910000D01*
X1918779Y-2131195D01*
X1926222Y-2126222D01*
X2004944Y-2047500D01*
X2017460D01*
X2031243Y-2041791D01*
X2041791Y-2031242D01*
X2047501Y-2017459D01*
Y-2002541D01*
X2041791Y-1988758D01*
X2031243Y-1978209D01*
X2017460Y-1972500D01*
X2002541D01*
X1988759Y-1978209D01*
X1978210Y-1988758D01*
X1972500Y-2002541D01*
Y-2015057D01*
X1900498Y-2087059D01*
X1730000D01*
X1722096Y-2088632D01*
X1720814Y-2087784D01*
X1710827Y-2071616D01*
X1742718Y-2039725D01*
X1766692D01*
X1768758Y-2041791D01*
X1782541Y-2047500D01*
X1797459D01*
X1811242Y-2041791D01*
X1821791Y-2031242D01*
X1827500Y-2017459D01*
Y-2002541D01*
X1821791Y-1988758D01*
X1811242Y-1978209D01*
X1797459Y-1972500D01*
X1782541D01*
X1768758Y-1978209D01*
X1759908Y-1987059D01*
X1740000D01*
X1731221Y-1988806D01*
X1723779Y-1993779D01*
X1550498Y-2167059D01*
X1528324D01*
Y-2166489D01*
X1526836Y-2159011D01*
X1522600Y-2152670D01*
X1516259Y-2148434D01*
X1508781Y-2146946D01*
X1323996D01*
X1316517Y-2148434D01*
X1310176Y-2152670D01*
X1305940Y-2159011D01*
X1304453Y-2166489D01*
Y-2206494D01*
X1305940Y-2213973D01*
X1310176Y-2220314D01*
X1316517Y-2224550D01*
X1323996Y-2226037D01*
X1508781D01*
X1516259Y-2224550D01*
X1522600Y-2220314D01*
X1526836Y-2213973D01*
X1527041Y-2212941D01*
X1560000D01*
X1567904Y-2211368D01*
X1569186Y-2212216D01*
X1579173Y-2228384D01*
X1527413Y-2280144D01*
X1522599Y-2279670D01*
X1516259Y-2275434D01*
X1508781Y-2273946D01*
X1323996D01*
X1316517Y-2275434D01*
X1310176Y-2279670D01*
X1305940Y-2286010D01*
X1284872Y-2289411D01*
X1282036Y-2285166D01*
X1138235Y-2141365D01*
Y-1965995D01*
X1141426Y-1961218D01*
X1142303Y-1956812D01*
X1144382Y-1952272D01*
X1155169Y-1940000D01*
X1162863Y-1940000D01*
X1179223Y-1940000D01*
X1191529Y-1954000D01*
X1193392Y-1963364D01*
X1198697Y-1971303D01*
X1206636Y-1976607D01*
X1216000Y-1978470D01*
X1234999D01*
Y-1920000D01*
Y-1861530D01*
D02*
G37*
G36*
X1318470Y-1940000D02*
X1274999D01*
Y-1978470D01*
X1294000D01*
X1303364Y-1976607D01*
X1311303Y-1971303D01*
X1316607Y-1963364D01*
X1318470Y-1954000D01*
Y-1940000D01*
D02*
G37*
G36*
X1016021Y-2019946D02*
X831236D01*
X823757Y-2021434D01*
X817416Y-2025670D01*
X813180Y-2032011D01*
X812277Y-2036551D01*
X209584D01*
X201242Y-2028209D01*
X187459Y-2022500D01*
X172541D01*
X158758Y-2028209D01*
X148209Y-2038758D01*
X142500Y-2052541D01*
Y-2067459D01*
X148209Y-2081242D01*
X158758Y-2091791D01*
X172541Y-2097500D01*
X187459D01*
X201242Y-2091791D01*
X210600Y-2082433D01*
X812277D01*
X813180Y-2086973D01*
X817416Y-2093314D01*
X823757Y-2097550D01*
X831236Y-2099037D01*
X1016021D01*
X1023499Y-2097550D01*
X1029840Y-2093314D01*
X1034076Y-2086973D01*
X1035564Y-2079494D01*
Y-2039489D01*
X1034076Y-2032011D01*
X1029840Y-2025670D01*
X1023499Y-2021434D01*
X1016021Y-2019946D01*
D02*
G37*
G36*
X1508781D02*
X1323996D01*
X1316517Y-2021434D01*
X1310176Y-2025670D01*
X1305940Y-2032011D01*
X1304453Y-2039489D01*
Y-2079494D01*
X1305940Y-2086973D01*
X1310176Y-2093314D01*
X1316517Y-2097550D01*
X1323996Y-2099037D01*
X1508781D01*
X1516259Y-2097550D01*
X1522600Y-2093314D01*
X1526836Y-2086973D01*
X1528324Y-2079494D01*
Y-2039489D01*
X1526836Y-2032011D01*
X1522600Y-2025670D01*
X1516259Y-2021434D01*
X1508781Y-2019946D01*
D02*
G37*
G36*
X1016021Y-2268339D02*
X943628D01*
Y-2293492D01*
X1041171D01*
Y-2293489D01*
X1039257Y-2283865D01*
X1033805Y-2275705D01*
X1025645Y-2270253D01*
X1016021Y-2268339D01*
D02*
G37*
G36*
X903628D02*
X831236D01*
X821611Y-2270253D01*
X813451Y-2275705D01*
X807999Y-2283865D01*
X806085Y-2293489D01*
Y-2293492D01*
X903628D01*
Y-2268339D01*
D02*
G37*
G36*
X1041171Y-2333492D02*
X943628D01*
Y-2358645D01*
X1016021D01*
X1025645Y-2356731D01*
X1033805Y-2351279D01*
X1039257Y-2343119D01*
X1041171Y-2333494D01*
Y-2333492D01*
D02*
G37*
G36*
X903628D02*
X806085D01*
Y-2333494D01*
X807999Y-2343119D01*
X813451Y-2351279D01*
X821611Y-2356731D01*
X831236Y-2358645D01*
X903628D01*
Y-2333492D01*
D02*
G37*
G36*
X2027000Y-2186659D02*
X2001548Y-2190009D01*
X1977830Y-2199834D01*
X1957462Y-2215462D01*
X1941834Y-2235829D01*
X1932010Y-2259547D01*
X1928659Y-2285000D01*
Y-2315000D01*
X1932010Y-2340453D01*
X1941834Y-2364171D01*
X1957462Y-2384538D01*
X1977830Y-2400166D01*
X2001548Y-2409991D01*
X2027000Y-2413341D01*
X2052453Y-2409991D01*
X2076171Y-2400166D01*
X2096538Y-2384538D01*
X2112166Y-2364171D01*
X2121991Y-2340453D01*
X2125341Y-2315000D01*
Y-2285000D01*
X2121991Y-2259547D01*
X2112166Y-2235829D01*
X2096538Y-2215462D01*
X2076171Y-2199834D01*
X2052453Y-2190009D01*
X2027000Y-2186659D01*
D02*
G37*
G36*
X1016021Y-2400946D02*
X831236D01*
X823757Y-2402434D01*
X817416Y-2406670D01*
X813180Y-2413011D01*
X812277Y-2417551D01*
X210584D01*
X201242Y-2408209D01*
X187459Y-2402500D01*
X172541D01*
X158758Y-2408209D01*
X148209Y-2418758D01*
X142500Y-2432541D01*
Y-2447459D01*
X148209Y-2461242D01*
X158758Y-2471791D01*
X172541Y-2477500D01*
X187459D01*
X201242Y-2471791D01*
X209600Y-2463433D01*
X812277D01*
X813180Y-2467973D01*
X817416Y-2474314D01*
X823757Y-2478550D01*
X831236Y-2480037D01*
X1016021D01*
X1023499Y-2478550D01*
X1029840Y-2474314D01*
X1034076Y-2467973D01*
X1035564Y-2460494D01*
Y-2420489D01*
X1034076Y-2413011D01*
X1029840Y-2406670D01*
X1023499Y-2402434D01*
X1016021Y-2400946D01*
D02*
G37*
G36*
X1065000Y-2541530D02*
X1046000D01*
X1036636Y-2543392D01*
X1028697Y-2548697D01*
X1023393Y-2556636D01*
X1021530Y-2566000D01*
Y-2580000D01*
X1065000D01*
Y-2541530D01*
D02*
G37*
G36*
Y-2620000D02*
X1021530D01*
Y-2634000D01*
X1023393Y-2643364D01*
X1028697Y-2651303D01*
X1036636Y-2656607D01*
X1046000Y-2658470D01*
X1065000D01*
Y-2620000D01*
D02*
G37*
G36*
X420486Y-2792000D02*
X420000D01*
Y-2980001D01*
X608000D01*
Y-2979514D01*
X600006Y-2939329D01*
X584327Y-2901475D01*
X561564Y-2867408D01*
X532592Y-2838436D01*
X498525Y-2815673D01*
X460671Y-2799994D01*
X420486Y-2792000D01*
D02*
G37*
G36*
X380000D02*
X379514D01*
X339329Y-2799994D01*
X301475Y-2815673D01*
X267408Y-2838436D01*
X238436Y-2867408D01*
X215673Y-2901475D01*
X199994Y-2939329D01*
X192000Y-2979514D01*
Y-2980001D01*
X380000D01*
Y-2792000D01*
D02*
G37*
G36*
X608000Y-3020001D02*
X420000D01*
Y-3208000D01*
X420486D01*
X460671Y-3200007D01*
X498525Y-3184327D01*
X532592Y-3161564D01*
X561564Y-3132592D01*
X584327Y-3098525D01*
X600006Y-3060671D01*
X608000Y-3020486D01*
Y-3020001D01*
D02*
G37*
G36*
X380000D02*
X192000D01*
Y-3020486D01*
X199994Y-3060671D01*
X215673Y-3098525D01*
X238436Y-3132592D01*
X267408Y-3161564D01*
X301475Y-3184327D01*
X339329Y-3200007D01*
X379514Y-3208000D01*
X380000D01*
Y-3020001D01*
D02*
G37*
G36*
X255730Y-144560D02*
X177580D01*
Y-170501D01*
X255730D01*
Y-144560D01*
D02*
G37*
G36*
Y-210500D02*
X177580D01*
Y-236440D01*
X255730D01*
Y-210500D01*
D02*
G37*
G36*
X124000Y-341530D02*
X104999D01*
Y-380000D01*
X148470D01*
Y-366000D01*
X146607Y-356636D01*
X141303Y-348697D01*
X133364Y-343393D01*
X124000Y-341530D01*
D02*
G37*
G36*
X1364811Y-787500D02*
X1335189D01*
X1306577Y-795167D01*
X1280923Y-809978D01*
X1259978Y-830923D01*
X1245167Y-856577D01*
X1237500Y-885189D01*
Y-914811D01*
X1245167Y-943423D01*
X1259978Y-969077D01*
X1280923Y-990022D01*
X1306577Y-1004833D01*
X1335189Y-1012500D01*
X1364811D01*
X1393423Y-1004833D01*
X1419077Y-990022D01*
X1440023Y-969077D01*
X1454834Y-943423D01*
X1462500Y-914811D01*
Y-885189D01*
X1454834Y-856577D01*
X1440023Y-830923D01*
X1419077Y-809978D01*
X1393423Y-795167D01*
X1364811Y-787500D01*
D02*
G37*
G36*
X264811D02*
X235189D01*
X206577Y-795167D01*
X180923Y-809978D01*
X159978Y-830923D01*
X145167Y-856577D01*
X137500Y-885189D01*
Y-914811D01*
X145167Y-943423D01*
X159978Y-969077D01*
X180923Y-990022D01*
X206577Y-1004833D01*
X235189Y-1012500D01*
X264811D01*
X293423Y-1004833D01*
X319077Y-990022D01*
X340022Y-969077D01*
X354833Y-943423D01*
X362500Y-914811D01*
Y-885189D01*
X354833Y-856577D01*
X340022Y-830923D01*
X319077Y-809978D01*
X293423Y-795167D01*
X264811Y-787500D01*
D02*
G37*
G36*
X-835189D02*
X-864811D01*
X-893423Y-795167D01*
X-919077Y-809978D01*
X-940023Y-830923D01*
X-954833Y-856577D01*
X-962500Y-885189D01*
Y-914811D01*
X-954833Y-943423D01*
X-940023Y-969077D01*
X-919077Y-990022D01*
X-893423Y-1004833D01*
X-864811Y-1012500D01*
X-835189D01*
X-806577Y-1004833D01*
X-780923Y-990022D01*
X-759978Y-969077D01*
X-745167Y-943423D01*
X-737500Y-914811D01*
Y-885189D01*
X-745167Y-856577D01*
X-759978Y-830923D01*
X-780923Y-809978D01*
X-806577Y-795167D01*
X-835189Y-787500D01*
D02*
G37*
G36*
X814811Y-1687500D02*
X785189D01*
X756577Y-1695167D01*
X730923Y-1709978D01*
X709977Y-1730923D01*
X695167Y-1756577D01*
X687500Y-1785189D01*
Y-1814811D01*
X695167Y-1843423D01*
X709977Y-1869077D01*
X730923Y-1890022D01*
X756577Y-1904833D01*
X785189Y-1912500D01*
X814811D01*
X843423Y-1904833D01*
X869077Y-1890022D01*
X890022Y-1869077D01*
X904833Y-1843423D01*
X912500Y-1814811D01*
Y-1785189D01*
X904833Y-1756577D01*
X890022Y-1730923D01*
X869077Y-1709978D01*
X843423Y-1695167D01*
X814811Y-1687500D01*
D02*
G37*
G36*
X-285189D02*
X-314811D01*
X-343423Y-1695167D01*
X-369077Y-1709978D01*
X-390022Y-1730923D01*
X-404833Y-1756577D01*
X-412500Y-1785189D01*
Y-1814811D01*
X-404833Y-1843423D01*
X-390022Y-1869077D01*
X-369077Y-1890022D01*
X-343423Y-1904833D01*
X-314811Y-1912500D01*
X-285189D01*
X-256577Y-1904833D01*
X-230923Y-1890022D01*
X-209977Y-1869077D01*
X-195166Y-1843423D01*
X-187500Y-1814811D01*
Y-1785189D01*
X-195166Y-1756577D01*
X-209977Y-1730923D01*
X-230923Y-1709978D01*
X-256577Y-1695167D01*
X-285189Y-1687500D01*
D02*
G37*
G36*
X-2422541Y-862500D02*
X-2437459D01*
X-2451242Y-868209D01*
X-2461791Y-878758D01*
X-2467500Y-892541D01*
Y-907459D01*
X-2461791Y-921242D01*
X-2451242Y-931791D01*
X-2437459Y-937500D01*
X-2422541D01*
X-2408758Y-931791D01*
X-2398209Y-921242D01*
X-2392500Y-907459D01*
Y-892541D01*
X-2398209Y-878758D01*
X-2408758Y-868209D01*
X-2422541Y-862500D01*
D02*
G37*
G36*
X-2622541D02*
X-2637459D01*
X-2651242Y-868209D01*
X-2661791Y-878758D01*
X-2667500Y-892541D01*
Y-907459D01*
X-2661791Y-921242D01*
X-2651242Y-931791D01*
X-2637459Y-937500D01*
X-2622541D01*
X-2608758Y-931791D01*
X-2598209Y-921242D01*
X-2592500Y-907459D01*
Y-892541D01*
X-2598209Y-878758D01*
X-2608758Y-868209D01*
X-2622541Y-862500D01*
D02*
G37*
G36*
Y-962500D02*
X-2637459D01*
X-2651242Y-968209D01*
X-2661791Y-978758D01*
X-2667500Y-992541D01*
Y-1007459D01*
X-2661791Y-1021242D01*
X-2651242Y-1031791D01*
X-2637459Y-1037500D01*
X-2622541D01*
X-2608758Y-1031791D01*
X-2598209Y-1021242D01*
X-2592500Y-1007459D01*
Y-992541D01*
X-2598209Y-978758D01*
X-2608758Y-968209D01*
X-2622541Y-962500D01*
D02*
G37*
G36*
Y-1062500D02*
X-2637459D01*
X-2651242Y-1068209D01*
X-2661791Y-1078758D01*
X-2667500Y-1092541D01*
Y-1107459D01*
X-2661791Y-1121242D01*
X-2651242Y-1131791D01*
X-2637459Y-1137500D01*
X-2622541D01*
X-2608758Y-1131791D01*
X-2598209Y-1121242D01*
X-2592500Y-1107459D01*
Y-1092541D01*
X-2598209Y-1078758D01*
X-2608758Y-1068209D01*
X-2622541Y-1062500D01*
D02*
G37*
G36*
Y-1162500D02*
X-2637459D01*
X-2651242Y-1168209D01*
X-2661791Y-1178758D01*
X-2667500Y-1192541D01*
Y-1207459D01*
X-2661791Y-1221242D01*
X-2651242Y-1231791D01*
X-2637459Y-1237500D01*
X-2622541D01*
X-2608758Y-1231791D01*
X-2598209Y-1221242D01*
X-2592500Y-1207459D01*
Y-1192541D01*
X-2598209Y-1178758D01*
X-2608758Y-1168209D01*
X-2622541Y-1162500D01*
D02*
G37*
G36*
X-2086750Y-1201515D02*
X-2105000D01*
Y-1270000D01*
X-2061515D01*
Y-1226750D01*
X-2063436Y-1217093D01*
X-2068906Y-1208906D01*
X-2077093Y-1203436D01*
X-2086750Y-1201515D01*
D02*
G37*
G36*
X-2145000D02*
X-2163250D01*
X-2172907Y-1203436D01*
X-2181094Y-1208906D01*
X-2186564Y-1217093D01*
X-2188485Y-1226750D01*
Y-1270000D01*
X-2145000D01*
Y-1201515D01*
D02*
G37*
G36*
X-2622541Y-1262500D02*
X-2637459D01*
X-2651242Y-1268209D01*
X-2661791Y-1278758D01*
X-2667500Y-1292541D01*
Y-1307459D01*
X-2661791Y-1321242D01*
X-2651242Y-1331791D01*
X-2637459Y-1337500D01*
X-2622541D01*
X-2608758Y-1331791D01*
X-2598209Y-1321242D01*
X-2592500Y-1307459D01*
Y-1292541D01*
X-2598209Y-1278758D01*
X-2608758Y-1268209D01*
X-2622541Y-1262500D01*
D02*
G37*
G36*
X-2061515Y-1310000D02*
X-2105000D01*
Y-1378484D01*
X-2086750D01*
X-2077093Y-1376563D01*
X-2068906Y-1371093D01*
X-2063436Y-1362907D01*
X-2061515Y-1353250D01*
Y-1310000D01*
D02*
G37*
G36*
X-2145000D02*
X-2188485D01*
Y-1353250D01*
X-2186564Y-1362907D01*
X-2181094Y-1371093D01*
X-2172907Y-1376563D01*
X-2163250Y-1378484D01*
X-2145000D01*
Y-1310000D01*
D02*
G37*
G36*
Y-1401515D02*
X-2163250D01*
X-2172907Y-1403436D01*
X-2181094Y-1408906D01*
X-2186564Y-1417093D01*
X-2188485Y-1426750D01*
Y-1470000D01*
X-2145000D01*
Y-1401515D01*
D02*
G37*
G36*
Y-1510000D02*
X-2188485D01*
Y-1553249D01*
X-2186564Y-1562906D01*
X-2181094Y-1571093D01*
X-2172907Y-1576563D01*
X-2163250Y-1578484D01*
X-2145000D01*
Y-1510000D01*
D02*
G37*
G36*
X-2086750Y-1601515D02*
X-2105000D01*
Y-1669999D01*
X-2061515D01*
Y-1626750D01*
X-2063436Y-1617093D01*
X-2068906Y-1608906D01*
X-2077093Y-1603436D01*
X-2086750Y-1601515D01*
D02*
G37*
G36*
X-2145000D02*
X-2163250D01*
X-2172907Y-1603436D01*
X-2181094Y-1608906D01*
X-2186564Y-1617093D01*
X-2188485Y-1626750D01*
Y-1669999D01*
X-2145000D01*
Y-1601515D01*
D02*
G37*
G36*
X-2061515Y-1709999D02*
X-2105000D01*
Y-1778484D01*
X-2086750D01*
X-2077093Y-1776563D01*
X-2068906Y-1771093D01*
X-2063436Y-1762907D01*
X-2061515Y-1753249D01*
Y-1709999D01*
D02*
G37*
G36*
X-2145000D02*
X-2188485D01*
Y-1753249D01*
X-2186564Y-1762907D01*
X-2181094Y-1771093D01*
X-2172907Y-1776563D01*
X-2163250Y-1778484D01*
X-2145000D01*
Y-1709999D01*
D02*
G37*
G36*
X-2086750Y-1801515D02*
X-2105000D01*
Y-1870000D01*
X-2061515D01*
Y-1826750D01*
X-2063436Y-1817093D01*
X-2068906Y-1808906D01*
X-2077093Y-1803436D01*
X-2086750Y-1801515D01*
D02*
G37*
G36*
X-2145000D02*
X-2163250D01*
X-2172907Y-1803436D01*
X-2181094Y-1808906D01*
X-2186564Y-1817093D01*
X-2188485Y-1826750D01*
Y-1870000D01*
X-2145000D01*
Y-1801515D01*
D02*
G37*
G36*
X-2061515Y-1910000D02*
X-2105000D01*
Y-1978484D01*
X-2086750D01*
X-2077093Y-1976563D01*
X-2068906Y-1971093D01*
X-2063436Y-1962907D01*
X-2061515Y-1953250D01*
Y-1910000D01*
D02*
G37*
G36*
X-2145000D02*
X-2188485D01*
Y-1953250D01*
X-2186564Y-1962907D01*
X-2181094Y-1971093D01*
X-2172907Y-1976563D01*
X-2163250Y-1978484D01*
X-2145000D01*
Y-1910000D01*
D02*
G37*
G36*
X565759Y-4640000D02*
X534241D01*
X503330Y-4646149D01*
X474211Y-4658210D01*
X448006Y-4675720D01*
X425720Y-4698006D01*
X408210Y-4724212D01*
X396149Y-4753330D01*
X390000Y-4784241D01*
Y-4815759D01*
X396149Y-4846670D01*
X408210Y-4875789D01*
X425720Y-4901994D01*
X448006Y-4924280D01*
X474211Y-4941790D01*
X503330Y-4953851D01*
X534241Y-4960000D01*
X565759D01*
X596670Y-4953851D01*
X625788Y-4941790D01*
X651994Y-4924280D01*
X674280Y-4901994D01*
X691790Y-4875789D01*
X703851Y-4846670D01*
X710000Y-4815759D01*
Y-4784241D01*
X703851Y-4753330D01*
X691790Y-4724212D01*
X674280Y-4698006D01*
X651994Y-4675720D01*
X625788Y-4658210D01*
X596670Y-4646149D01*
X565759Y-4640000D01*
D02*
G37*
G36*
X-125000Y-4949224D02*
X-148495Y-4952317D01*
X-170388Y-4961386D01*
X-189189Y-4975811D01*
X-203615Y-4994612D01*
X-212683Y-5016505D01*
X-215776Y-5040000D01*
Y-5160000D01*
X-212683Y-5183495D01*
X-203615Y-5205389D01*
X-189189Y-5224189D01*
X-170388Y-5238615D01*
X-148495Y-5247683D01*
X-125000Y-5250777D01*
X-101505Y-5247683D01*
X-79612Y-5238615D01*
X-60811Y-5224189D01*
X-46385Y-5205389D01*
X-37317Y-5183495D01*
X-34224Y-5160000D01*
Y-5040000D01*
X-37317Y-5016505D01*
X-46385Y-4994612D01*
X-60811Y-4975811D01*
X-79612Y-4961386D01*
X-101505Y-4952317D01*
X-125000Y-4949224D01*
D02*
G37*
%LPD*%
G36*
X587748Y-4675561D02*
X611299Y-4685316D01*
X632496Y-4699479D01*
X650521Y-4717505D01*
X664684Y-4738700D01*
X674439Y-4762252D01*
X679412Y-4787254D01*
Y-4812746D01*
X674439Y-4837749D01*
X664684Y-4861299D01*
X650521Y-4882496D01*
X632495Y-4900522D01*
X611300Y-4914684D01*
X587748Y-4924439D01*
X562746Y-4929412D01*
X537254D01*
X512251Y-4924439D01*
X488701Y-4914684D01*
X467504Y-4900521D01*
X449478Y-4882495D01*
X435316Y-4861300D01*
X425561Y-4837748D01*
X420588Y-4812746D01*
Y-4787254D01*
X425561Y-4762252D01*
X435316Y-4738701D01*
X449479Y-4717504D01*
X467505Y-4699479D01*
X488700Y-4685316D01*
X512252Y-4675561D01*
X537254Y-4670588D01*
X562746D01*
X587748Y-4675561D01*
D02*
G37*
%LPC*%
G36*
X-1968000Y-3895000D02*
X-2178000D01*
Y-4105000D01*
X-1968000D01*
Y-3895000D01*
D02*
G37*
G36*
X-2313177D02*
X-2340824D01*
X-2367529Y-3902156D01*
X-2391471Y-3915979D01*
X-2411021Y-3935529D01*
X-2424844Y-3959471D01*
X-2432000Y-3986176D01*
Y-4013823D01*
X-2424844Y-4040528D01*
X-2411021Y-4064471D01*
X-2391471Y-4084021D01*
X-2367529Y-4097844D01*
X-2340824Y-4105000D01*
X-2313177D01*
X-2286472Y-4097844D01*
X-2262529Y-4084021D01*
X-2242980Y-4064471D01*
X-2229156Y-4040528D01*
X-2222000Y-4013823D01*
Y-3986176D01*
X-2229156Y-3959471D01*
X-2242980Y-3935529D01*
X-2262529Y-3915979D01*
X-2286472Y-3902156D01*
X-2313177Y-3895000D01*
D02*
G37*
G36*
X2088000Y-3870000D02*
X1858001D01*
Y-4130000D01*
X2088000D01*
Y-3870000D01*
D02*
G37*
G36*
X2227000Y-3869008D02*
X2196979Y-3872960D01*
X2169004Y-3884547D01*
X2144981Y-3902981D01*
X2126548Y-3927004D01*
X2114960Y-3954979D01*
X2111008Y-3985000D01*
Y-4015000D01*
X2114960Y-4045021D01*
X2126548Y-4072996D01*
X2144981Y-4097019D01*
X2169004Y-4115452D01*
X2196979Y-4127040D01*
X2227000Y-4130992D01*
X2257021Y-4127040D01*
X2284996Y-4115452D01*
X2309019Y-4097019D01*
X2327453Y-4072996D01*
X2339040Y-4045021D01*
X2342993Y-4015000D01*
Y-3985000D01*
X2339040Y-3954979D01*
X2327453Y-3927004D01*
X2309019Y-3902981D01*
X2284996Y-3884547D01*
X2257021Y-3872960D01*
X2227000Y-3869008D01*
D02*
G37*
G36*
X2348796Y-4417600D02*
X2324204D01*
X2300449Y-4423965D01*
X2279151Y-4436262D01*
X2261762Y-4453651D01*
X2249465Y-4474949D01*
X2243100Y-4498704D01*
Y-4523297D01*
X2249465Y-4547051D01*
X2261762Y-4568349D01*
X2279151Y-4585739D01*
X2300449Y-4598035D01*
X2324204Y-4604400D01*
X2348796D01*
X2372551Y-4598035D01*
X2393849Y-4585739D01*
X2411239Y-4568349D01*
X2423535Y-4547051D01*
X2429900Y-4523297D01*
Y-4498704D01*
X2423535Y-4474949D01*
X2411239Y-4453651D01*
X2393849Y-4436262D01*
X2372551Y-4423965D01*
X2348796Y-4417600D01*
D02*
G37*
G36*
X2094796D02*
X2070204D01*
X2046449Y-4423965D01*
X2025151Y-4436262D01*
X2007762Y-4453651D01*
X1995465Y-4474949D01*
X1989100Y-4498704D01*
Y-4523297D01*
X1995465Y-4547051D01*
X2007762Y-4568349D01*
X2025151Y-4585739D01*
X2046449Y-4598035D01*
X2070204Y-4604400D01*
X2094796D01*
X2118551Y-4598035D01*
X2139849Y-4585739D01*
X2157239Y-4568349D01*
X2169535Y-4547051D01*
X2175900Y-4523297D01*
Y-4498704D01*
X2169535Y-4474949D01*
X2157239Y-4453651D01*
X2139849Y-4436262D01*
X2118551Y-4423965D01*
X2094796Y-4417600D01*
D02*
G37*
G36*
X-2451204D02*
X-2475796D01*
X-2499551Y-4423965D01*
X-2520849Y-4436262D01*
X-2538239Y-4453651D01*
X-2550535Y-4474949D01*
X-2556900Y-4498704D01*
Y-4523297D01*
X-2550535Y-4547051D01*
X-2538239Y-4568349D01*
X-2520849Y-4585739D01*
X-2499551Y-4598035D01*
X-2475796Y-4604400D01*
X-2451204D01*
X-2427449Y-4598035D01*
X-2406151Y-4585739D01*
X-2388762Y-4568349D01*
X-2376465Y-4547051D01*
X-2370100Y-4523297D01*
Y-4498704D01*
X-2376465Y-4474949D01*
X-2388762Y-4453651D01*
X-2406151Y-4436262D01*
X-2427449Y-4423965D01*
X-2451204Y-4417600D01*
D02*
G37*
G36*
X-2705204D02*
X-2729796D01*
X-2753551Y-4423965D01*
X-2774849Y-4436262D01*
X-2792239Y-4453651D01*
X-2804535Y-4474949D01*
X-2810900Y-4498704D01*
Y-4523297D01*
X-2804535Y-4547051D01*
X-2792239Y-4568349D01*
X-2774849Y-4585739D01*
X-2753551Y-4598035D01*
X-2729796Y-4604400D01*
X-2705204D01*
X-2681449Y-4598035D01*
X-2660151Y-4585739D01*
X-2642762Y-4568349D01*
X-2630465Y-4547051D01*
X-2624100Y-4523297D01*
Y-4498704D01*
X-2630465Y-4474949D01*
X-2642762Y-4453651D01*
X-2660151Y-4436262D01*
X-2681449Y-4423965D01*
X-2705204Y-4417600D01*
D02*
G37*
G36*
X2729796Y-4671600D02*
X2705204D01*
X2681449Y-4677965D01*
X2660151Y-4690262D01*
X2642762Y-4707651D01*
X2630465Y-4728949D01*
X2624100Y-4752704D01*
Y-4777297D01*
X2630465Y-4801051D01*
X2642762Y-4822349D01*
X2660151Y-4839739D01*
X2681449Y-4852035D01*
X2705204Y-4858400D01*
X2729796D01*
X2753551Y-4852035D01*
X2774849Y-4839739D01*
X2792239Y-4822349D01*
X2804535Y-4801051D01*
X2810900Y-4777297D01*
Y-4752704D01*
X2804535Y-4728949D01*
X2792239Y-4707651D01*
X2774849Y-4690262D01*
X2753551Y-4677965D01*
X2729796Y-4671600D01*
D02*
G37*
G36*
X2475796D02*
X2451204D01*
X2427449Y-4677965D01*
X2406151Y-4690262D01*
X2388762Y-4707651D01*
X2376465Y-4728949D01*
X2370100Y-4752704D01*
Y-4777297D01*
X2376465Y-4801051D01*
X2388762Y-4822349D01*
X2406151Y-4839739D01*
X2427449Y-4852035D01*
X2451204Y-4858400D01*
X2475796D01*
X2499551Y-4852035D01*
X2520849Y-4839739D01*
X2538239Y-4822349D01*
X2550535Y-4801051D01*
X2556900Y-4777297D01*
Y-4752704D01*
X2550535Y-4728949D01*
X2538239Y-4707651D01*
X2520849Y-4690262D01*
X2499551Y-4677965D01*
X2475796Y-4671600D01*
D02*
G37*
G36*
X2221796D02*
X2197204D01*
X2173449Y-4677965D01*
X2152151Y-4690262D01*
X2134762Y-4707651D01*
X2122465Y-4728949D01*
X2116100Y-4752704D01*
Y-4777297D01*
X2122465Y-4801051D01*
X2134762Y-4822349D01*
X2152151Y-4839739D01*
X2173449Y-4852035D01*
X2197204Y-4858400D01*
X2221796D01*
X2245551Y-4852035D01*
X2266849Y-4839739D01*
X2284239Y-4822349D01*
X2296535Y-4801051D01*
X2302900Y-4777297D01*
Y-4752704D01*
X2296535Y-4728949D01*
X2284239Y-4707651D01*
X2266849Y-4690262D01*
X2245551Y-4677965D01*
X2221796Y-4671600D01*
D02*
G37*
G36*
X2048900D02*
X1862100D01*
Y-4858400D01*
X2048900D01*
Y-4671600D01*
D02*
G37*
G36*
X-2070204D02*
X-2094796D01*
X-2118551Y-4677965D01*
X-2139849Y-4690262D01*
X-2157239Y-4707651D01*
X-2169535Y-4728949D01*
X-2175900Y-4752704D01*
Y-4777297D01*
X-2169535Y-4801051D01*
X-2157239Y-4822349D01*
X-2139849Y-4839739D01*
X-2118551Y-4852035D01*
X-2094796Y-4858400D01*
X-2070204D01*
X-2046449Y-4852035D01*
X-2025151Y-4839739D01*
X-2007762Y-4822349D01*
X-1995465Y-4801051D01*
X-1989100Y-4777297D01*
Y-4752704D01*
X-1995465Y-4728949D01*
X-2007762Y-4707651D01*
X-2025151Y-4690262D01*
X-2046449Y-4677965D01*
X-2070204Y-4671600D01*
D02*
G37*
G36*
X-2324204D02*
X-2348796D01*
X-2372551Y-4677965D01*
X-2393849Y-4690262D01*
X-2411239Y-4707651D01*
X-2423535Y-4728949D01*
X-2429900Y-4752704D01*
Y-4777297D01*
X-2423535Y-4801051D01*
X-2411239Y-4822349D01*
X-2393849Y-4839739D01*
X-2372551Y-4852035D01*
X-2348796Y-4858400D01*
X-2324204D01*
X-2300449Y-4852035D01*
X-2279151Y-4839739D01*
X-2261762Y-4822349D01*
X-2249465Y-4801051D01*
X-2243100Y-4777297D01*
Y-4752704D01*
X-2249465Y-4728949D01*
X-2261762Y-4707651D01*
X-2279151Y-4690262D01*
X-2300449Y-4677965D01*
X-2324204Y-4671600D01*
D02*
G37*
G36*
X-2578204D02*
X-2602796D01*
X-2626551Y-4677965D01*
X-2647849Y-4690262D01*
X-2665239Y-4707651D01*
X-2677535Y-4728949D01*
X-2683900Y-4752704D01*
Y-4777297D01*
X-2677535Y-4801051D01*
X-2665239Y-4822349D01*
X-2647849Y-4839739D01*
X-2626551Y-4852035D01*
X-2602796Y-4858400D01*
X-2578204D01*
X-2554449Y-4852035D01*
X-2533151Y-4839739D01*
X-2515762Y-4822349D01*
X-2503465Y-4801051D01*
X-2497100Y-4777297D01*
Y-4752704D01*
X-2503465Y-4728949D01*
X-2515762Y-4707651D01*
X-2533151Y-4690262D01*
X-2554449Y-4677965D01*
X-2578204Y-4671600D01*
D02*
G37*
G36*
X-2751100D02*
X-2937900D01*
Y-4858400D01*
X-2751100D01*
Y-4671600D01*
D02*
G37*
G36*
X2990213Y-5210000D02*
X2952787D01*
X2916079Y-5217302D01*
X2881501Y-5231625D01*
X2850382Y-5252418D01*
X2823918Y-5278882D01*
X2803124Y-5310002D01*
X2788802Y-5344579D01*
X2781500Y-5381287D01*
Y-5418714D01*
X2788802Y-5455421D01*
X2803124Y-5489999D01*
X2823918Y-5521118D01*
X2850382Y-5547583D01*
X2881501Y-5568376D01*
X2916079Y-5582698D01*
X2952787Y-5590000D01*
X2990213D01*
X3026921Y-5582698D01*
X3061499Y-5568376D01*
X3092618Y-5547583D01*
X3119082Y-5521118D01*
X3139876Y-5489999D01*
X3154198Y-5455421D01*
X3161500Y-5418714D01*
Y-5381287D01*
X3154198Y-5344579D01*
X3139876Y-5310002D01*
X3119082Y-5278882D01*
X3092618Y-5252418D01*
X3061499Y-5231625D01*
X3026921Y-5217302D01*
X2990213Y-5210000D01*
D02*
G37*
G36*
X1847213D02*
X1809787D01*
X1773079Y-5217302D01*
X1738501Y-5231625D01*
X1707382Y-5252418D01*
X1680918Y-5278882D01*
X1660124Y-5310002D01*
X1645802Y-5344579D01*
X1638500Y-5381287D01*
Y-5418714D01*
X1645802Y-5455421D01*
X1660124Y-5489999D01*
X1680918Y-5521118D01*
X1707382Y-5547583D01*
X1738501Y-5568376D01*
X1773079Y-5582698D01*
X1809787Y-5590000D01*
X1847213D01*
X1883921Y-5582698D01*
X1918499Y-5568376D01*
X1949618Y-5547583D01*
X1976082Y-5521118D01*
X1996876Y-5489999D01*
X2011198Y-5455421D01*
X2018500Y-5418714D01*
Y-5381287D01*
X2011198Y-5344579D01*
X1996876Y-5310002D01*
X1976082Y-5278882D01*
X1949618Y-5252418D01*
X1918499Y-5231625D01*
X1883921Y-5217302D01*
X1847213Y-5210000D01*
D02*
G37*
G36*
X-1809787D02*
X-1847213D01*
X-1883921Y-5217302D01*
X-1918499Y-5231625D01*
X-1949618Y-5252418D01*
X-1976082Y-5278882D01*
X-1996876Y-5310002D01*
X-2011198Y-5344579D01*
X-2018500Y-5381287D01*
Y-5418714D01*
X-2011198Y-5455421D01*
X-1996876Y-5489999D01*
X-1976082Y-5521118D01*
X-1949618Y-5547583D01*
X-1918499Y-5568376D01*
X-1883921Y-5582698D01*
X-1847213Y-5590000D01*
X-1809787D01*
X-1773079Y-5582698D01*
X-1738501Y-5568376D01*
X-1707382Y-5547583D01*
X-1680918Y-5521118D01*
X-1660124Y-5489999D01*
X-1645802Y-5455421D01*
X-1638500Y-5418714D01*
Y-5381287D01*
X-1645802Y-5344579D01*
X-1660124Y-5310002D01*
X-1680918Y-5278882D01*
X-1707382Y-5252418D01*
X-1738501Y-5231625D01*
X-1773079Y-5217302D01*
X-1809787Y-5210000D01*
D02*
G37*
G36*
X-2952787D02*
X-2990213D01*
X-3026921Y-5217302D01*
X-3061499Y-5231625D01*
X-3092618Y-5252418D01*
X-3119082Y-5278882D01*
X-3139876Y-5310002D01*
X-3154198Y-5344579D01*
X-3161500Y-5381287D01*
Y-5418714D01*
X-3154198Y-5455421D01*
X-3139876Y-5489999D01*
X-3119082Y-5521118D01*
X-3092618Y-5547583D01*
X-3061499Y-5568376D01*
X-3026921Y-5582698D01*
X-2990213Y-5590000D01*
X-2952787D01*
X-2916079Y-5582698D01*
X-2881501Y-5568376D01*
X-2850382Y-5547583D01*
X-2823918Y-5521118D01*
X-2803124Y-5489999D01*
X-2788802Y-5455421D01*
X-2781500Y-5418714D01*
Y-5381287D01*
X-2788802Y-5344579D01*
X-2803124Y-5310002D01*
X-2823918Y-5278882D01*
X-2850382Y-5252418D01*
X-2881501Y-5231625D01*
X-2916079Y-5217302D01*
X-2952787Y-5210000D01*
D02*
G37*
G36*
X1363876Y-5694600D02*
X1336124D01*
X1309317Y-5701783D01*
X1285283Y-5715659D01*
X1265659Y-5735283D01*
X1251783Y-5759317D01*
X1244600Y-5786124D01*
Y-5813876D01*
X1251783Y-5840683D01*
X1265659Y-5864717D01*
X1285283Y-5884341D01*
X1309317Y-5898217D01*
X1336124Y-5905400D01*
X1363876D01*
X1390683Y-5898217D01*
X1414717Y-5884341D01*
X1434341Y-5864717D01*
X1448217Y-5840683D01*
X1455400Y-5813876D01*
Y-5786124D01*
X1448217Y-5759317D01*
X1434341Y-5735283D01*
X1414717Y-5715659D01*
X1390683Y-5701783D01*
X1363876Y-5694600D01*
D02*
G37*
G36*
X263876D02*
X236124D01*
X209317Y-5701783D01*
X185283Y-5715659D01*
X165659Y-5735283D01*
X151783Y-5759317D01*
X144600Y-5786124D01*
Y-5813876D01*
X151783Y-5840683D01*
X165659Y-5864717D01*
X185283Y-5884341D01*
X209317Y-5898217D01*
X236124Y-5905400D01*
X263876D01*
X290683Y-5898217D01*
X314717Y-5884341D01*
X334341Y-5864717D01*
X348217Y-5840683D01*
X355400Y-5813876D01*
Y-5786124D01*
X348217Y-5759317D01*
X334341Y-5735283D01*
X314717Y-5715659D01*
X290683Y-5701783D01*
X263876Y-5694600D01*
D02*
G37*
%LPD*%
D10*
X2554491Y-1158769D02*
G03*
X2561379Y-1160737I6792J10732D01*
G01*
X2799194Y-1216637D02*
G03*
X2797865Y-1211584I-12685J-636D01*
G01*
X2515818Y-1134292D02*
X2554491Y-1158769D01*
X2561379Y-1160737D02*
X2561435Y-1160737D01*
X2771140Y-1158240D01*
X2512060Y-1132840D02*
X2515818Y-1134292D01*
X2799194Y-1216637D02*
X2799197Y-1216697D01*
X2801620Y-1270000D01*
X2771140Y-1158240D02*
Y-1155700D01*
Y-1158240D02*
X2797865Y-1211584D01*
X1991403Y-899160D02*
X2002311Y-910068D01*
Y-911860D02*
Y-910068D01*
X1939811Y-911860D02*
X1950720Y-900951D01*
Y1696720D01*
X1991403Y-899160D02*
Y1713571D01*
X1662951Y1984489D02*
X1727200Y1920240D01*
X1784734Y1920240D02*
Y1920240D01*
Y1920240D02*
X1991403Y1713571D01*
X1727200Y1920240D02*
X1950720Y1696720D01*
X1679803Y2025172D02*
X1784734Y1920240D01*
X-1529080Y2036080D02*
X-1518987D01*
X-1508078Y2025171D01*
X-1187471D02*
X-1187471Y2025172D01*
X1679803D01*
X-1508078Y2025171D02*
X-1187471D01*
X-1170620Y1984489D02*
X1662951D01*
X-1170620Y1984489D02*
X-1170620Y1984489D01*
X-1508078Y1984489D02*
X-1170620D01*
X-1518987Y1973580D02*
X-1508078Y1984489D01*
X-1529080Y1973580D02*
X-1518987D01*
D15*
X85000Y-400000D02*
D03*
X-85000D02*
D03*
X-2215000Y-100000D02*
D03*
X-2385000D02*
D03*
X-2215000Y-300000D02*
D03*
X-2385000D02*
D03*
X-2715000D02*
D03*
X-2885000D02*
D03*
X-2885000Y-100000D02*
D03*
X-2715000D02*
D03*
X-1165000Y2600000D02*
D03*
X-1335000D02*
D03*
X-1165000Y2400000D02*
D03*
X-1335000D02*
D03*
X-265000D02*
D03*
X-435000D02*
D03*
X-265000Y2600000D02*
D03*
X-435000D02*
D03*
X-425000Y2220000D02*
D03*
X-255000D02*
D03*
X635000Y2400000D02*
D03*
X465000D02*
D03*
X635000Y2600000D02*
D03*
X465000D02*
D03*
X1255000Y-1920000D02*
D03*
X1085000D02*
D03*
X1085000Y-2600000D02*
D03*
X1255000D02*
D03*
D18*
X-1870000Y-1375000D02*
D03*
Y-1205000D02*
D03*
X-2850000Y685000D02*
D03*
Y515000D02*
D03*
X1330000Y2405000D02*
D03*
Y2235000D02*
D03*
X-1600000Y615000D02*
D03*
Y785000D02*
D03*
X-1400000Y615000D02*
D03*
Y785000D02*
D03*
X-1200000Y615000D02*
D03*
Y785000D02*
D03*
X-1000000Y615000D02*
D03*
Y785000D02*
D03*
X-800000Y615000D02*
D03*
Y785000D02*
D03*
X-600000Y615000D02*
D03*
Y785000D02*
D03*
X-400000Y615000D02*
D03*
Y785000D02*
D03*
X-200000Y615000D02*
D03*
Y785000D02*
D03*
X0Y615000D02*
D03*
Y785000D02*
D03*
X200000Y615000D02*
D03*
Y785000D02*
D03*
X400000Y615000D02*
D03*
Y785000D02*
D03*
X600000Y615000D02*
D03*
Y785000D02*
D03*
X800000Y615000D02*
D03*
Y785000D02*
D03*
X1000000Y615000D02*
D03*
Y785000D02*
D03*
X1200000Y615000D02*
D03*
Y785000D02*
D03*
X1400000Y615000D02*
D03*
Y785000D02*
D03*
X1600000Y615000D02*
D03*
Y785000D02*
D03*
X1800000Y615000D02*
D03*
Y785000D02*
D03*
D20*
X-2125000Y-1290000D02*
D03*
X-2335000D02*
D03*
X-2125000Y-1490000D02*
D03*
X-2335000D02*
D03*
X-2125000Y-1690000D02*
D03*
X-2335000D02*
D03*
Y-1890000D02*
D03*
X-2125000D02*
D03*
D40*
X-2850000Y430000D02*
Y515000D01*
X-2746913Y386913D02*
X-2745000Y385000D01*
X-2806913Y386913D02*
X-2746913D01*
X-2850000Y430000D02*
X-2806913Y386913D01*
X-88087Y-403087D02*
X-85000Y-400000D01*
X-88087Y-448087D02*
Y-403087D01*
X-90000Y-450000D02*
X-88087Y-448087D01*
X936508Y1753612D02*
Y1882500D01*
X1063508Y1753612D02*
Y1882500D01*
X-863492Y1753612D02*
Y1882500D01*
X-736492Y1753612D02*
Y1882500D01*
Y2113438D02*
Y2246372D01*
Y2113438D02*
X-736256Y2113203D01*
X-863492Y2113438D02*
Y2246372D01*
Y2113438D02*
X-863256Y2113203D01*
X-736256D02*
X-733550D01*
X1330000Y2405000D02*
X1335000Y2410000D01*
X1390000D01*
X1315000Y2420000D02*
X1330000Y2405000D01*
X1100000Y2420000D02*
X1315000D01*
X1063508Y2383508D02*
X1100000Y2420000D01*
X1063508Y2246372D02*
Y2383508D01*
X1330000Y2172781D02*
Y2235000D01*
Y2172781D02*
X1330810Y2173592D01*
X-740000Y2249880D02*
X-736492Y2246372D01*
X-740000Y2249880D02*
Y2370000D01*
X-710000Y2400000D01*
X-570000D01*
X-530000Y2360000D01*
X-430000Y2220000D02*
X-425000D01*
X-530000Y2320000D02*
X-430000Y2220000D01*
X-530000Y2320000D02*
Y2360000D01*
X-435000Y2400000D02*
X-430000D01*
X-280000Y2250001D01*
Y2240000D02*
Y2250001D01*
Y2240000D02*
X-260000Y2220000D01*
X-255000D01*
X227731Y190500D02*
X275730D01*
X219791Y198440D02*
X227731Y190500D01*
X190000Y277294D02*
X219791Y247503D01*
Y198440D02*
Y247503D01*
X190000Y277294D02*
Y280000D01*
X275730Y63500D02*
Y190500D01*
X-435000Y2400000D02*
X-430000Y2395000D01*
X2418750Y590000D02*
X2495000D01*
X2497500Y592500D01*
X2692500D01*
X2700000Y600000D01*
X-2398087Y-86913D02*
X-2385000Y-100000D01*
X-2898087Y-86913D02*
X-2885000Y-100000D01*
X936508Y2113438D02*
Y2246372D01*
Y2113438D02*
X936744Y2113203D01*
D41*
X1910000Y933130D02*
Y1180000D01*
X1906870Y930000D02*
X1910000Y933130D01*
X1605335Y1930000D02*
X1830000Y1705335D01*
Y1260000D02*
Y1705335D01*
X-1350000Y1930000D02*
X1605335D01*
X-1380000Y1900000D02*
X-1350000Y1930000D01*
X-260000Y-350000D02*
X-251882D01*
X-237991Y-336109D01*
X-236109D01*
X-150000Y-250000D01*
Y-87000D01*
X1830000Y1260000D02*
X1910000Y1180000D01*
X-2960000Y1287500D02*
X-2773462D01*
X-2900000Y1335000D02*
X-2775000D01*
X-2773462Y1287500D02*
X-2027500Y541538D01*
X-2775000Y1335000D02*
X-1990000Y550000D01*
X-2771924Y1240000D02*
X-2070000Y538076D01*
X-3010000Y1240000D02*
X-2771924D01*
X-2770000Y1180000D02*
X-2110000Y520000D01*
X-3060000Y1180000D02*
X-2770000D01*
X-2110000Y-510000D02*
X-1770000Y-850000D01*
X-1640000D01*
X-2070000Y-460000D02*
X-1760000Y-770000D01*
X-1640000D01*
X-2070000Y-460000D02*
Y538076D01*
X-2110000Y-510000D02*
Y520000D01*
X-2359225Y-403912D02*
X-1770000Y-993137D01*
Y-1860000D02*
Y-993137D01*
X-2956088Y-403912D02*
X-2359225D01*
X-1760000Y-690000D02*
X-1640000D01*
X-1770000Y-610000D02*
X-1640000D01*
X-1990000Y-390000D02*
X-1770000Y-610000D01*
X-2030000Y-120000D02*
X-2027500Y-117500D01*
X-2030000Y-420000D02*
Y-120000D01*
Y-420000D02*
X-1760000Y-690000D01*
X-2027500Y-117500D02*
Y541538D01*
X-1990000Y-390000D02*
Y550000D01*
X-1811388Y-456688D02*
Y603284D01*
X-1830000Y621896D02*
Y630000D01*
Y621896D02*
X-1811388Y603284D01*
Y-456688D02*
X-1778076Y-490000D01*
X-1860000Y-454038D02*
Y520000D01*
X-1900000Y560000D02*
X-1860000Y520000D01*
Y-454038D02*
X-1774038Y-540000D01*
X-1520000D01*
X-1778076Y-490000D02*
X-1560000D01*
X-2715000Y25000D02*
X-2230000Y510000D01*
X-2715000Y-100000D02*
Y25000D01*
X-1730000Y-2150000D02*
X-1570000D01*
X-1842500Y-2037500D02*
X-1730000Y-2150000D01*
X-2622500Y-2037500D02*
X-1842500D01*
X0Y-450000D02*
Y10000D01*
Y-450000D02*
X40000Y-490000D01*
X-165580Y175580D02*
X0Y10000D01*
X-275730Y190500D02*
X-260810Y175580D01*
X-165580D01*
X-3030229Y-405732D02*
X-2740000Y-695962D01*
X-3086021Y216021D02*
X-3030229Y160229D01*
Y-405732D02*
Y160229D01*
X-3086021Y216021D02*
Y903979D01*
X-3010000Y872263D02*
X-2991021Y853284D01*
X-3010000Y872263D02*
Y880000D01*
X-2991021Y-368979D02*
X-2956088Y-403912D01*
X-2991021Y-368979D02*
Y853284D01*
X-3086021Y903979D02*
X-3000000Y990000D01*
X-2740000Y-1920000D02*
Y-695962D01*
Y-1920000D02*
X-2622500Y-2037500D01*
X-1770000Y-1860000D02*
X-1570000Y-2060000D01*
X180492Y-2440492D02*
X923628D01*
X180000Y-2440000D02*
X180492Y-2440492D01*
X180508Y-2059492D02*
X923628D01*
X180000Y-2060000D02*
X180508Y-2059492D01*
X-1120000Y-390000D02*
X-1070000Y-440000D01*
X-1560000Y-490000D02*
X-1460000Y-390000D01*
X-1120000D01*
X-1420000Y-440000D02*
X-1170000D01*
X-1520000Y-540000D02*
X-1420000Y-440000D01*
X-110000Y-300000D02*
Y30000D01*
X-260000Y-450000D02*
X-110000Y-300000D01*
X-143500Y63500D02*
X-110000Y30000D01*
X-275730Y63500D02*
X-143500D01*
X-173500Y-63500D02*
X-150000Y-87000D01*
X-275730Y-63500D02*
X-173500D01*
X-1320000Y410000D02*
Y790000D01*
X-1240000Y870000D01*
X-1330000Y270000D02*
Y340000D01*
X-1400000Y410000D02*
Y615000D01*
Y410000D02*
X-1330000Y340000D01*
X-1240000Y870000D02*
X-540000D01*
X-500000Y830000D01*
Y520000D02*
X-280000Y300000D01*
X-500000Y520000D02*
Y830000D01*
X-280000Y300000D02*
X-230000D01*
X133500Y-63500D01*
X275730D01*
X-1070000Y545000D02*
X-1000000Y615000D01*
X-1070000Y370000D02*
Y545000D01*
X-490000Y1850000D02*
X590000D01*
X-1430000Y1900000D02*
X-1380000D01*
X-1430000Y2090000D02*
X-1380000D01*
X-1355000Y2065000D02*
X1715000D01*
X-1380000Y2090000D02*
X-1355000Y2065000D01*
X1715000D02*
X1720000Y2070000D01*
X2498750Y690000D02*
Y798750D01*
X2700000Y1000000D01*
X2498750Y401250D02*
Y490000D01*
Y401250D02*
X2700000Y200000D01*
X2690000Y400000D02*
X2700000D01*
X2550000Y540000D02*
X2690000Y400000D01*
X2498750Y540000D02*
X2550000D01*
X2498750Y640000D02*
X2501250Y642500D01*
X2542500D01*
X2700000Y800000D01*
X1730000Y-2110000D02*
X1910000D01*
X1416388Y-2313492D02*
X1423453Y-2306427D01*
X1533573D01*
X1730000Y-2110000D01*
X1420434Y-2190000D02*
X1560000D01*
X1740000Y-2010000D02*
X1790000D01*
X1560000Y-2190000D02*
X1740000Y-2010000D01*
X1910000Y-2110000D02*
X2010001Y-2010000D01*
X-1860000Y1280000D02*
X-650000D01*
X-609492Y1320508D02*
Y1753612D01*
X-650000Y1280000D02*
X-609492Y1320508D01*
X-1800000Y1210000D02*
X1140000D01*
X1188719Y1258719D01*
Y1738719D01*
X-1860000Y1140000D02*
X950000D01*
X999884Y785116D02*
Y1090116D01*
X950000Y1140000D02*
X999884Y1090116D01*
X800000Y785000D02*
Y1030000D01*
X760000Y1070000D02*
X800000Y1030000D01*
X-1800000Y1070000D02*
X760000D01*
X-1860000Y1000000D02*
X-240000D01*
X-200000Y785000D02*
Y960000D01*
X-240000Y1000000D02*
X-200000Y960000D01*
X-440000Y930000D02*
X-400000Y890000D01*
X-1800000Y930000D02*
X-440000D01*
X-400000Y785000D02*
Y890000D01*
X-1800000Y790000D02*
X-1605000D01*
X-1600000Y785000D01*
X-1400000D02*
Y848284D01*
X-1411716Y860000D02*
X-1400000Y848284D01*
X-1860000Y860000D02*
X-1411716D01*
X1460000Y370000D02*
X1600000Y510000D01*
Y615000D01*
X1800000D01*
X260000Y370000D02*
X400000Y510000D01*
Y615000D01*
X600000D01*
X-800000D02*
X-600000D01*
X-800000Y510000D02*
Y615000D01*
X-940000Y370000D02*
X-800000Y510000D01*
X1330000Y370000D02*
X1400000Y440000D01*
Y615000D01*
X1200000D02*
X1400000D01*
X130000Y370000D02*
X200000Y440000D01*
Y615000D01*
X0D02*
X200000D01*
X-1200000D02*
X-1000000D01*
X1000000Y510000D02*
X1070000Y440000D01*
Y370000D02*
Y440000D01*
X1000000Y510000D02*
Y615000D01*
X-200000Y510000D02*
X-130000Y440000D01*
Y370000D02*
Y440000D01*
X-200000Y510000D02*
Y615000D01*
X800000Y520000D02*
Y615000D01*
Y520000D02*
X950000Y370000D01*
X-400000Y520000D02*
Y615000D01*
Y520000D02*
X-250000Y370000D01*
X-1600000Y520000D02*
X-1450000Y370000D01*
X-1600000Y520000D02*
Y615000D01*
D42*
X1255000Y-2600000D02*
Y-2312202D01*
X1100000Y-2157202D02*
X1255000Y-2312202D01*
X-2850000Y685000D02*
Y770000D01*
X-2910000Y790000D02*
X-2870000D01*
X-2850000Y770000D01*
X-2940000Y-300000D02*
X-2885000D01*
X-900000Y785000D02*
X-800000D01*
X-1000000D02*
X-900000D01*
Y510000D02*
Y785000D01*
X-1000000Y410000D02*
X-900000Y510000D01*
X1800000Y1130000D02*
X1820000Y1150000D01*
X1800000Y785000D02*
Y1130000D01*
X810000Y1754104D02*
Y1865000D01*
X-990492Y1753612D02*
X-990000Y1754104D01*
Y1865000D01*
Y2130000D02*
Y2245880D01*
X810000Y2130000D02*
Y2245880D01*
X-2710000Y-200000D02*
Y-105000D01*
Y-295000D02*
Y-200000D01*
X85000Y-400000D02*
X215757D01*
X247987Y-190500D02*
X275730D01*
X245047Y-193440D02*
X247987Y-190500D01*
X245047Y-370710D02*
Y-193440D01*
X215757Y-400000D02*
X245047Y-370710D01*
X1600000Y785000D02*
X1800000D01*
X1400000D02*
X1600000D01*
X1200000D02*
X1400000D01*
X0D02*
X400000D01*
X600000D01*
Y783160D02*
X615000Y768160D01*
X600000Y783160D02*
Y785000D01*
X605000Y780000D01*
X670000D01*
X700000Y750000D01*
Y300000D02*
Y750000D01*
X-600000Y785000D02*
X-595000Y780000D01*
X-600000Y783160D02*
Y785000D01*
Y783160D02*
X-585000Y768160D01*
X-800000Y785000D02*
X-600000D01*
X-1200000D02*
X-1000000D01*
X-2440000Y-300000D02*
X-2385000D01*
X-2400000Y-85000D02*
X-2398087Y-86913D01*
X-2400000Y-85000D02*
Y-40000D01*
X-2215000Y-100000D02*
X-2210000Y-105000D01*
Y-295000D02*
Y-105000D01*
X-2215000Y-300000D02*
X-2210000Y-295000D01*
X-2715000Y-300000D02*
X-2710000Y-295000D01*
X-2715000Y-100000D02*
X-2710000Y-105000D01*
X-2900000Y-85000D02*
Y-40000D01*
Y-85000D02*
X-2898087Y-86913D01*
X923628Y-2313492D02*
X1061569D01*
X1085000Y-2600000D02*
Y-2336923D01*
X1061569Y-2313492D02*
X1085000Y-2336923D01*
X923628Y-2186492D02*
X1070711D01*
X1085000Y-1920000D02*
X1100000Y-1935000D01*
Y-2157202D02*
Y-1935000D01*
X1070711Y-2186492D02*
X1100000Y-2157202D01*
X1020000Y-1920000D02*
X1085000D01*
X1255000D02*
X1320000D01*
X1020000Y-2600000D02*
X1085000D01*
X1255000D02*
X1320000D01*
X465000Y2400000D02*
Y2460000D01*
X465000Y2600000D02*
Y2660000D01*
X-435000Y2400000D02*
Y2460000D01*
X-435000Y2600000D02*
Y2660000D01*
X-1335000Y2400000D02*
Y2460000D01*
X-1335000Y2600000D02*
Y2660000D01*
X-1900000Y-1200000D02*
X-1835000D01*
X-1830000Y-1205000D01*
X-990492Y2246372D02*
X-990000Y2245880D01*
X809508Y2246372D02*
X810000Y2245880D01*
X809508Y1753612D02*
X810000Y1754104D01*
X-1859290Y-1494834D02*
X-1830000Y-1465544D01*
Y-1375000D01*
X-2021205Y-1494834D02*
X-1859290D01*
D44*
X635000Y2600000D02*
X640000D01*
X635000D02*
X635000D01*
X640000D02*
X900000Y2860000D01*
Y2900000D01*
X635000Y2400000D02*
Y2600000D01*
X-1165000D02*
X-1160000D01*
X-1165000D02*
X-1165000D01*
X-1160000D02*
X-900000Y2860000D01*
Y2900000D01*
X-1165000Y2400000D02*
Y2600000D01*
X-265000D02*
X-260000D01*
X-265000D02*
X-265000D01*
X-260000D02*
X0Y2860000D01*
Y2900000D01*
X-265000Y2400000D02*
Y2600000D01*
D46*
X-850000Y-900000D02*
D03*
X250000D02*
D03*
X1350000D02*
D03*
X-300000Y-1800000D02*
D03*
X800000D02*
D03*
D47*
X-1350000Y-900000D02*
D03*
X-250000D02*
D03*
X850000D02*
D03*
X-800000Y-1800000D02*
D03*
X300000D02*
D03*
D48*
X400000Y-3000000D02*
D03*
X-400000D02*
D03*
X-1200000Y-3900000D02*
D03*
X1200000D02*
D03*
X1550000Y1550000D02*
D03*
Y-1550000D02*
D03*
X-1550000D02*
D03*
Y1550000D02*
D03*
D49*
X1773000Y-2300000D02*
D03*
X1973000Y-4000000D02*
D03*
D50*
X2027000Y-2300000D02*
D03*
X2227000Y-4000000D02*
D03*
D51*
X-2327000D02*
D03*
D52*
X-2073000D02*
D03*
D53*
X2700000Y1000000D02*
D03*
Y800000D02*
D03*
Y200000D02*
D03*
Y400000D02*
D03*
Y600000D02*
D03*
D54*
Y0D02*
D03*
D55*
X1955500Y-4765000D02*
D03*
X-2844500D02*
D03*
D56*
X2082500Y-4511000D02*
D03*
X2209500Y-4765000D02*
D03*
X2336500Y-4511000D02*
D03*
X2463500Y-4765000D02*
D03*
X2590500Y-4511000D02*
D03*
X2717500Y-4765000D02*
D03*
X2844500Y-4511000D02*
D03*
X-2717500D02*
D03*
X-2590500Y-4765000D02*
D03*
X-2463500Y-4511000D02*
D03*
X-2336500Y-4765000D02*
D03*
X-2209500Y-4511000D02*
D03*
X-2082500Y-4765000D02*
D03*
X-1955500Y-4511000D02*
D03*
D57*
X1828500Y-5400000D02*
D03*
X2971500D02*
D03*
X-2971500D02*
D03*
X-1828500D02*
D03*
D58*
X1350000Y-5800000D02*
D03*
X250000D02*
D03*
D59*
X550000Y-4800000D02*
D03*
D60*
X1050000D02*
D03*
D61*
X-1475000Y-5100000D02*
D03*
X-125000D02*
D03*
D62*
X-1160000Y-4500000D02*
D03*
D63*
X-440000D02*
D03*
D64*
X-2900000Y-3900000D02*
D03*
X2900000D02*
D03*
D65*
X2646927Y-1569552D02*
D03*
X2953073Y-830448D02*
D03*
D66*
X2514812Y-1514828D02*
D03*
X2820959Y-775724D02*
D03*
X2779041Y-1624275D02*
D03*
X3085188Y-885172D02*
D03*
D67*
X-496000Y-3730000D02*
D03*
Y-4070000D02*
D03*
X496000Y-3730000D02*
D03*
Y-4070000D02*
D03*
D68*
X-900000Y2900000D02*
D03*
X0D02*
D03*
X900000D02*
D03*
D69*
X2771140Y-1158240D02*
D03*
X2801620Y-1270000D02*
D03*
X2515818Y-1134292D02*
D03*
X2002311Y-911860D02*
D03*
X1939811D02*
D03*
X2110000Y50000D02*
D03*
X1906870Y930000D02*
D03*
Y650000D02*
D03*
X1890000Y1500000D02*
D03*
X-1529080Y2036080D02*
D03*
Y1973580D02*
D03*
X-260000Y-350000D02*
D03*
X1900000Y-250000D02*
D03*
Y-430000D02*
D03*
Y-70000D02*
D03*
X-1930000Y0D02*
D03*
X1830000Y-790000D02*
D03*
X-2900000Y1335000D02*
D03*
X-2960000Y1287500D02*
D03*
X-2220000Y-2480000D02*
D03*
X1830000Y-710000D02*
D03*
Y-630000D02*
D03*
Y-550000D02*
D03*
X-1640000Y-850000D02*
D03*
Y-770000D02*
D03*
X-1918587Y-768587D02*
D03*
X-1640000Y-690000D02*
D03*
Y-610000D02*
D03*
X-1925000Y385000D02*
D03*
X-1900000Y560000D02*
D03*
X-1830000Y630000D02*
D03*
X-2375000Y215000D02*
D03*
X-1570000Y-2150000D02*
D03*
X40000Y-490000D02*
D03*
X1900000Y-1820000D02*
D03*
X-3038521Y275000D02*
D03*
X-2940000Y-300000D02*
D03*
X-3150000Y850000D02*
D03*
X-1570000Y-2060000D02*
D03*
X180000Y-2440000D02*
D03*
Y-2060000D02*
D03*
X-3000000Y990000D02*
D03*
X-3010000Y880000D02*
D03*
X-2500000Y1240000D02*
D03*
X-3060000Y1180000D02*
D03*
X-3010000Y1240000D02*
D03*
X-2505125Y517929D02*
D03*
X-1170000Y-440000D02*
D03*
X-1070000D02*
D03*
X-90000Y-450000D02*
D03*
X-260000D02*
D03*
X-1320000Y410000D02*
D03*
X-1330000Y270000D02*
D03*
X-1000000Y410000D02*
D03*
X-2910000Y790000D02*
D03*
X-2600000Y1885000D02*
D03*
X-2500000Y1550000D02*
D03*
X-2600000Y1715000D02*
D03*
X1820000Y1150000D02*
D03*
X1063508Y1882500D02*
D03*
X810000Y1865000D02*
D03*
X936508Y1882500D02*
D03*
X590000Y1850000D02*
D03*
X-490000D02*
D03*
X-863492Y1882500D02*
D03*
X-990000Y1865000D02*
D03*
X-736492Y1882500D02*
D03*
X-1430000Y1900000D02*
D03*
X1720000Y2070000D02*
D03*
X-863256Y2113203D02*
D03*
X-736256D02*
D03*
X-990000Y2130000D02*
D03*
X1390000Y2410000D02*
D03*
X1330810Y2173592D02*
D03*
X810000Y2130000D02*
D03*
X-1430000Y2090000D02*
D03*
X-2080000Y1330000D02*
D03*
X-3050000Y-460000D02*
D03*
X1890000Y250000D02*
D03*
X2140000Y550000D02*
D03*
X2770000Y1730000D02*
D03*
X2130000Y1800000D02*
D03*
X2180000Y-750000D02*
D03*
X-3150000Y390000D02*
D03*
X230000Y-390000D02*
D03*
X190000Y280000D02*
D03*
X2400000Y2200000D02*
D03*
X2085000Y1227500D02*
D03*
X2140000Y850000D02*
D03*
X1860000Y1950000D02*
D03*
X-2230000Y510000D02*
D03*
X-1925000Y215000D02*
D03*
X2260000Y-1310000D02*
D03*
Y-900000D02*
D03*
X2750000Y-1320000D02*
D03*
X2850000Y-1080000D02*
D03*
X-2745000Y385000D02*
D03*
X-2440000Y-300000D02*
D03*
X-2400000Y-40000D02*
D03*
X-2210000Y-200000D02*
D03*
X-2900000Y-40000D02*
D03*
X-2710000Y-200000D02*
D03*
X1020000Y-1920000D02*
D03*
X1320000D02*
D03*
X1020000Y-2600000D02*
D03*
X1320000D02*
D03*
X2010001Y-2010000D02*
D03*
X1790000D02*
D03*
X-2435000Y-725000D02*
D03*
X936744Y2113203D02*
D03*
X-1860000Y1280000D02*
D03*
X-1800000Y1210000D02*
D03*
X-1860000Y1140000D02*
D03*
X-1800000Y1070000D02*
D03*
X-1860000Y1000000D02*
D03*
X-1800000Y930000D02*
D03*
Y790000D02*
D03*
X-1860000Y860000D02*
D03*
X1460000Y370000D02*
D03*
X260000D02*
D03*
X-940000D02*
D03*
X1330000D02*
D03*
X130000D02*
D03*
X-1070000D02*
D03*
X1070000D02*
D03*
X-130000D02*
D03*
X950000D02*
D03*
X-250000D02*
D03*
X-1450000D02*
D03*
X465000Y2460000D02*
D03*
X465000Y2660000D02*
D03*
X-435000Y2460000D02*
D03*
X-435000Y2660000D02*
D03*
X-1335000Y2460000D02*
D03*
X-1335000Y2660000D02*
D03*
X-2920000Y-1450000D02*
D03*
X-2970000Y-900000D02*
D03*
Y-1000000D02*
D03*
Y-1100000D02*
D03*
Y-1200000D02*
D03*
Y-1300000D02*
D03*
X-2630000D02*
D03*
Y-1200000D02*
D03*
Y-1100000D02*
D03*
Y-1000000D02*
D03*
Y-900000D02*
D03*
X-2430000D02*
D03*
Y-1000000D02*
D03*
Y-1100000D02*
D03*
Y-1200000D02*
D03*
Y-1300000D02*
D03*
X-1900000Y-1200000D02*
D03*
X-2021205Y-1494834D02*
D03*
X-2430000Y-1400000D02*
D03*
X-2430000Y-1500000D02*
D03*
D70*
X-1560806Y-360806D02*
D03*
X-1700000Y-425000D02*
D03*
X-800000Y-400000D02*
D03*
X-700000Y-300000D02*
D03*
X500000Y-400000D02*
D03*
X-700000D02*
D03*
X400000D02*
D03*
X500000Y-300000D02*
D03*
X-700000Y100000D02*
D03*
Y-100000D02*
D03*
Y0D02*
D03*
X-800000Y300000D02*
D03*
X-700000Y200000D02*
D03*
Y300000D02*
D03*
Y-200000D02*
D03*
X500000Y0D02*
D03*
Y-200000D02*
D03*
Y-100000D02*
D03*
X400000Y300000D02*
D03*
X500000Y100000D02*
D03*
Y300000D02*
D03*
X1600000Y-400000D02*
D03*
X1700000Y100000D02*
D03*
X500000Y200000D02*
D03*
X1600000Y300000D02*
D03*
X1700000Y200000D02*
D03*
Y300000D02*
D03*
Y-400000D02*
D03*
Y-100000D02*
D03*
Y0D02*
D03*
Y-300000D02*
D03*
Y-200000D02*
D03*
X-1700000D02*
D03*
Y-300000D02*
D03*
X-500000Y-400000D02*
D03*
X-400000D02*
D03*
X-500000Y-200000D02*
D03*
Y-300000D02*
D03*
X700000Y-400000D02*
D03*
X800000D02*
D03*
X700000Y-300000D02*
D03*
Y-200000D02*
D03*
X-1700000Y300000D02*
D03*
Y200000D02*
D03*
Y0D02*
D03*
Y-100000D02*
D03*
Y100000D02*
D03*
X-500000Y200000D02*
D03*
X-1600000Y300000D02*
D03*
X-500000Y-100000D02*
D03*
Y100000D02*
D03*
Y0D02*
D03*
X700000D02*
D03*
Y-100000D02*
D03*
Y200000D02*
D03*
Y100000D02*
D03*
X800000Y300000D02*
D03*
X-500000D02*
D03*
X-400000D02*
D03*
X700000D02*
D03*
D71*
X-600000Y-3400000D02*
D03*
X-500000D02*
D03*
X-400000D02*
D03*
X-300000D02*
D03*
X-200000D02*
D03*
X-100000D02*
D03*
X0D02*
D03*
X100000D02*
D03*
X200000D02*
D03*
X300000D02*
D03*
X400000D02*
D03*
X500000D02*
D03*
X600000D02*
D03*
D72*
X-609492Y2246372D02*
D03*
X-736492Y1753612D02*
D03*
Y2246372D02*
D03*
X-863492D02*
D03*
Y1753612D02*
D03*
X-609492D02*
D03*
X-990492Y2246372D02*
D03*
Y1753612D02*
D03*
X1190508Y2246372D02*
D03*
X1063508Y1753612D02*
D03*
Y2246372D02*
D03*
X936508D02*
D03*
Y1753612D02*
D03*
X1190508D02*
D03*
X809508D02*
D03*
Y2246372D02*
D03*
D73*
X2498750Y690000D02*
D03*
Y640000D02*
D03*
Y540000D02*
D03*
Y490000D02*
D03*
X2421250D02*
D03*
Y540000D02*
D03*
Y640000D02*
D03*
Y690000D02*
D03*
D74*
X2495000Y590000D02*
D03*
D75*
X2418750D02*
D03*
D76*
X1416388Y-2186492D02*
D03*
X923628Y-2313492D02*
D03*
Y-2440492D02*
D03*
Y-2059492D02*
D03*
X1416388Y-2313492D02*
D03*
X923628Y-2186492D02*
D03*
X1416388Y-2059492D02*
D03*
Y-2440492D02*
D03*
D77*
X-275730Y-63500D02*
D03*
Y63500D02*
D03*
Y190500D02*
D03*
X275730Y-190500D02*
D03*
Y63500D02*
D03*
Y190500D02*
D03*
X-275730Y-190500D02*
D03*
X275730Y-63500D02*
D03*
%TF.MD5,762b928bbdfa7f8df133879e2758212a*%
M02*
