%TF.GenerationSoftware,Altium Limited,Altium Designer,23.4.1 (23)*%
G04 Layer_Color=16711935*
%FSLAX45Y45*%
%MOMM*%
%TF.SameCoordinates,71FFD784-3963-444D-9D63-9DA0FBDCC313*%
%TF.FilePolarity,Negative*%
%TF.FileFunction,Soldermask,Bot*%
%TF.Part,Single*%
G01*
G75*
%TA.AperFunction,ComponentPad*%
%ADD48C,3.80000*%
%TA.AperFunction,SMDPad,CuDef*%
%ADD77R,1.60300X0.55880*%
G04:AMPARAMS|DCode=115|XSize=1.1032mm|YSize=1.0032mm|CornerRadius=0.1616mm|HoleSize=0mm|Usage=FLASHONLY|Rotation=180.000|XOffset=0mm|YOffset=0mm|HoleType=Round|Shape=RoundedRectangle|*
%AMROUNDEDRECTD115*
21,1,1.10320,0.68000,0,0,180.0*
21,1,0.78000,1.00320,0,0,180.0*
1,1,0.32320,-0.39000,0.34000*
1,1,0.32320,0.39000,0.34000*
1,1,0.32320,0.39000,-0.34000*
1,1,0.32320,-0.39000,-0.34000*
%
%ADD115ROUNDEDRECTD115*%
G04:AMPARAMS|DCode=118|XSize=1.1032mm|YSize=1.0032mm|CornerRadius=0.1616mm|HoleSize=0mm|Usage=FLASHONLY|Rotation=270.000|XOffset=0mm|YOffset=0mm|HoleType=Round|Shape=RoundedRectangle|*
%AMROUNDEDRECTD118*
21,1,1.10320,0.68000,0,0,270.0*
21,1,0.78000,1.00320,0,0,270.0*
1,1,0.32320,-0.34000,-0.39000*
1,1,0.32320,-0.34000,0.39000*
1,1,0.32320,0.34000,0.39000*
1,1,0.32320,0.34000,-0.39000*
%
%ADD118ROUNDEDRECTD118*%
G04:AMPARAMS|DCode=120|XSize=1.1032mm|YSize=1.6032mm|CornerRadius=0.1691mm|HoleSize=0mm|Usage=FLASHONLY|Rotation=180.000|XOffset=0mm|YOffset=0mm|HoleType=Round|Shape=RoundedRectangle|*
%AMROUNDEDRECTD120*
21,1,1.10320,1.26500,0,0,180.0*
21,1,0.76500,1.60320,0,0,180.0*
1,1,0.33820,-0.38250,0.63250*
1,1,0.33820,0.38250,0.63250*
1,1,0.33820,0.38250,-0.63250*
1,1,0.33820,-0.38250,-0.63250*
%
%ADD120ROUNDEDRECTD120*%
%TA.AperFunction,ComponentPad*%
%ADD140C,2.20320*%
%ADD141R,2.20320X2.20320*%
%ADD142C,4.00320*%
%ADD143R,1.90320X2.20320*%
%ADD144O,1.90320X2.20320*%
%ADD145C,1.70320*%
%ADD146R,1.70320X1.70320*%
%ADD147C,1.80320*%
%ADD148R,1.80320X1.80320*%
%ADD149R,1.47120X1.47120*%
%ADD150C,1.47120*%
%ADD151C,3.40320*%
%ADD152C,1.71120*%
%ADD153C,2.80320*%
%ADD154R,2.80320X2.80320*%
%ADD155O,1.40320X2.60320*%
%ADD156R,3.90320X3.90320*%
%ADD157C,3.90320*%
%ADD158C,0.91320*%
G04:AMPARAMS|DCode=159|XSize=1.8032mm|YSize=1.3032mm|CornerRadius=0mm|HoleSize=0mm|Usage=FLASHONLY|Rotation=67.500|XOffset=0mm|YOffset=0mm|HoleType=Round|Shape=Round|*
%AMOVALD159*
21,1,0.50000,1.30320,0.00000,0.00000,67.5*
1,1,1.30320,-0.09567,-0.23097*
1,1,1.30320,0.09567,0.23097*
%
%ADD159OVALD159*%

%ADD160C,2.60320*%
%ADD161O,5.20320X6.20320*%
%TA.AperFunction,SMDPad,CuDef*%
G04:AMPARAMS|DCode=162|XSize=0.7366mm|YSize=2.1844mm|CornerRadius=0.16828mm|HoleSize=0mm|Usage=FLASHONLY|Rotation=0.000|XOffset=0mm|YOffset=0mm|HoleType=Round|Shape=RoundedRectangle|*
%AMROUNDEDRECTD162*
21,1,0.73660,1.84785,0,0,0.0*
21,1,0.40005,2.18440,0,0,0.0*
1,1,0.33655,0.20002,-0.92392*
1,1,0.33655,-0.20002,-0.92392*
1,1,0.33655,-0.20002,0.92392*
1,1,0.33655,0.20002,0.92392*
%
%ADD162ROUNDEDRECTD162*%
%ADD163R,0.72500X0.35000*%
%ADD164R,0.80000X0.55000*%
%ADD165R,0.67500X0.55000*%
G04:AMPARAMS|DCode=166|XSize=0.7366mm|YSize=2.1844mm|CornerRadius=0.16828mm|HoleSize=0mm|Usage=FLASHONLY|Rotation=90.000|XOffset=0mm|YOffset=0mm|HoleType=Round|Shape=RoundedRectangle|*
%AMROUNDEDRECTD166*
21,1,0.73660,1.84785,0,0,90.0*
21,1,0.40005,2.18440,0,0,90.0*
1,1,0.33655,0.92392,0.20002*
1,1,0.33655,0.92392,-0.20002*
1,1,0.33655,-0.92392,-0.20002*
1,1,0.33655,-0.92392,0.20002*
%
%ADD166ROUNDEDRECTD166*%
G36*
X-2835904Y-3555241D02*
X-2814927Y-3560497D01*
X-2877800Y-3680400D01*
X-2923200D01*
X-2985956Y-3560719D01*
Y-3560719D01*
X-2985956D01*
X-2964994Y-3555408D01*
X-2922080Y-3550028D01*
X-2878831Y-3549972D01*
X-2835904Y-3555241D01*
D02*
G37*
G36*
X-2720872Y-3599312D02*
X-2702294Y-3610380D01*
X-2668146Y-3636920D01*
X-2637524Y-3667462D01*
X-2610895Y-3701541D01*
X-2599779Y-3720090D01*
X-2729021Y-3760417D01*
X-2761124Y-3728314D01*
X-2720872Y-3599312D01*
X-2720872Y-3599312D01*
Y-3599312D01*
D02*
G37*
G36*
X-3039583Y-3729021D02*
X-3071686Y-3761124D01*
X-3200688Y-3720872D01*
X-3200688Y-3720872D01*
X-3189621Y-3702294D01*
X-3163081Y-3668146D01*
X-3132538Y-3637524D01*
X-3098459Y-3610895D01*
X-3079910Y-3599779D01*
X-3039583Y-3729021D01*
D02*
G37*
G36*
X-2555408Y-3835007D02*
X-2550028Y-3877920D01*
X-2549972Y-3921169D01*
X-2555241Y-3964097D01*
X-2560497Y-3985073D01*
X-2680400Y-3922200D01*
Y-3876800D01*
X-2560719Y-3814044D01*
X-2560719D01*
X-2555408Y-3835007D01*
D02*
G37*
G36*
X-3119600Y-3877800D02*
Y-3923200D01*
X-3239281Y-3985956D01*
X-3239281D01*
X-3239281Y-3985956D01*
X-3244592Y-3964994D01*
X-3249972Y-3922080D01*
X-3250028Y-3878831D01*
X-3244760Y-3835904D01*
X-3239504Y-3814927D01*
X-3119600Y-3877800D01*
D02*
G37*
G36*
X-2599312Y-4079128D02*
X-2599312Y-4079128D01*
X-2599312Y-4079128D01*
X-2610380Y-4097706D01*
X-2636920Y-4131855D01*
X-2667462Y-4162476D01*
X-2701541Y-4189105D01*
X-2720090Y-4200221D01*
X-2760417Y-4070979D01*
X-2728314Y-4038876D01*
X-2599312Y-4079128D01*
D02*
G37*
G36*
X-3038876Y-4071686D02*
X-3079128Y-4200688D01*
X-3079128Y-4200688D01*
X-3079128D01*
X-3097706Y-4189621D01*
X-3131855Y-4163081D01*
X-3162476Y-4132538D01*
X-3189105Y-4098459D01*
X-3200221Y-4079910D01*
X-3070979Y-4039583D01*
X-3038876Y-4071686D01*
D02*
G37*
G36*
X-2814044Y-4239281D02*
Y-4239281D01*
Y-4239281D01*
X-2835007Y-4244592D01*
X-2877920Y-4249972D01*
X-2921169Y-4250028D01*
X-2964097Y-4244760D01*
X-2985073Y-4239504D01*
X-2922200Y-4119600D01*
X-2876800D01*
X-2814044Y-4239281D01*
D02*
G37*
G36*
X2964096Y-3555241D02*
X2985073Y-3560497D01*
X2922200Y-3680400D01*
X2876800D01*
X2814044Y-3560719D01*
Y-3560719D01*
X2814044D01*
X2835007Y-3555408D01*
X2877920Y-3550028D01*
X2921169Y-3549972D01*
X2964096Y-3555241D01*
D02*
G37*
G36*
X3079128Y-3599312D02*
X3097706Y-3610380D01*
X3131854Y-3636920D01*
X3162476Y-3667462D01*
X3189105Y-3701541D01*
X3200221Y-3720090D01*
X3070979Y-3760417D01*
X3038876Y-3728314D01*
X3079128Y-3599312D01*
X3079128Y-3599312D01*
Y-3599312D01*
D02*
G37*
G36*
X2760417Y-3729021D02*
X2728314Y-3761124D01*
X2599312Y-3720872D01*
X2599312Y-3720872D01*
X2610379Y-3702294D01*
X2636920Y-3668146D01*
X2667462Y-3637524D01*
X2701541Y-3610895D01*
X2720090Y-3599779D01*
X2760417Y-3729021D01*
D02*
G37*
G36*
X3244592Y-3835007D02*
X3249972Y-3877920D01*
X3250028Y-3921169D01*
X3244760Y-3964097D01*
X3239504Y-3985073D01*
X3119600Y-3922200D01*
Y-3876800D01*
X3239281Y-3814044D01*
X3239281D01*
X3244592Y-3835007D01*
D02*
G37*
G36*
X2680400Y-3877800D02*
Y-3923200D01*
X2560719Y-3985956D01*
X2560719D01*
X2560719Y-3985956D01*
X2555408Y-3964994D01*
X2550028Y-3922080D01*
X2549972Y-3878831D01*
X2555240Y-3835904D01*
X2560496Y-3814927D01*
X2680400Y-3877800D01*
D02*
G37*
G36*
X3200688Y-4079128D02*
X3200688Y-4079128D01*
X3200688Y-4079128D01*
X3189620Y-4097706D01*
X3163080Y-4131855D01*
X3132538Y-4162476D01*
X3098459Y-4189105D01*
X3079910Y-4200221D01*
X3039583Y-4070979D01*
X3071686Y-4038876D01*
X3200688Y-4079128D01*
D02*
G37*
G36*
X2761124Y-4071686D02*
X2720872Y-4200688D01*
X2720872Y-4200688D01*
X2720872D01*
X2702294Y-4189621D01*
X2668146Y-4163081D01*
X2637524Y-4132538D01*
X2610895Y-4098459D01*
X2599779Y-4079910D01*
X2729021Y-4039583D01*
X2761124Y-4071686D01*
D02*
G37*
G36*
X2985956Y-4239281D02*
Y-4239281D01*
Y-4239281D01*
X2964993Y-4244592D01*
X2922080Y-4249972D01*
X2878831Y-4250028D01*
X2835903Y-4244760D01*
X2814927Y-4239504D01*
X2877800Y-4119600D01*
X2923200D01*
X2985956Y-4239281D01*
D02*
G37*
D48*
X1550000Y1550000D02*
D03*
Y-1550000D02*
D03*
X-1550000D02*
D03*
Y1550000D02*
D03*
D77*
X-275730Y-63500D02*
D03*
Y63500D02*
D03*
Y190500D02*
D03*
X275730Y-190500D02*
D03*
Y63500D02*
D03*
Y190500D02*
D03*
X-275730Y-190500D02*
D03*
X275730Y-63500D02*
D03*
D115*
X85000Y-400000D02*
D03*
X-85000D02*
D03*
X-2215000Y-100000D02*
D03*
X-2385000D02*
D03*
X-2215000Y-300000D02*
D03*
X-2385000D02*
D03*
X-2715000D02*
D03*
X-2885000D02*
D03*
X-2885000Y-100000D02*
D03*
X-2715000D02*
D03*
X-1165000Y2600000D02*
D03*
X-1335000D02*
D03*
X-1165000Y2400000D02*
D03*
X-1335000D02*
D03*
X-265000D02*
D03*
X-435000D02*
D03*
X-265000Y2600000D02*
D03*
X-435000D02*
D03*
X-425000Y2220000D02*
D03*
X-255000D02*
D03*
X635000Y2400000D02*
D03*
X465000D02*
D03*
X635000Y2600000D02*
D03*
X465000D02*
D03*
X1255000Y-1920000D02*
D03*
X1085000D02*
D03*
X1085000Y-2600000D02*
D03*
X1255000D02*
D03*
D118*
X-1870000Y-1375000D02*
D03*
Y-1205000D02*
D03*
X-2850000Y685000D02*
D03*
Y515000D02*
D03*
X1330000Y2405000D02*
D03*
Y2235000D02*
D03*
X-1600000Y615000D02*
D03*
Y785000D02*
D03*
X-1400000Y615000D02*
D03*
Y785000D02*
D03*
X-1200000Y615000D02*
D03*
Y785000D02*
D03*
X-1000000Y615000D02*
D03*
Y785000D02*
D03*
X-800000Y615000D02*
D03*
Y785000D02*
D03*
X-600000Y615000D02*
D03*
Y785000D02*
D03*
X-400000Y615000D02*
D03*
Y785000D02*
D03*
X-200000Y615000D02*
D03*
Y785000D02*
D03*
X0Y615000D02*
D03*
Y785000D02*
D03*
X200000Y615000D02*
D03*
Y785000D02*
D03*
X400000Y615000D02*
D03*
Y785000D02*
D03*
X600000Y615000D02*
D03*
Y785000D02*
D03*
X800000Y615000D02*
D03*
Y785000D02*
D03*
X1000000Y615000D02*
D03*
Y785000D02*
D03*
X1200000Y615000D02*
D03*
Y785000D02*
D03*
X1400000Y615000D02*
D03*
Y785000D02*
D03*
X1600000Y615000D02*
D03*
Y785000D02*
D03*
X1800000Y615000D02*
D03*
Y785000D02*
D03*
D120*
X-2125000Y-1290000D02*
D03*
X-2335000D02*
D03*
X-2125000Y-1490000D02*
D03*
X-2335000D02*
D03*
X-2125000Y-1690000D02*
D03*
X-2335000D02*
D03*
Y-1890000D02*
D03*
X-2125000D02*
D03*
D140*
X-850000Y-900000D02*
D03*
X250000D02*
D03*
X1350000D02*
D03*
X-300000Y-1800000D02*
D03*
X800000D02*
D03*
D141*
X-1350000Y-900000D02*
D03*
X-250000D02*
D03*
X850000D02*
D03*
X-800000Y-1800000D02*
D03*
X300000D02*
D03*
D142*
X400000Y-3000000D02*
D03*
X-400000D02*
D03*
X-1200000Y-3900000D02*
D03*
X1200000D02*
D03*
D143*
X1773000Y-2300000D02*
D03*
X1973000Y-4000000D02*
D03*
D144*
X2027000Y-2300000D02*
D03*
X2227000Y-4000000D02*
D03*
D145*
X-2327000D02*
D03*
D146*
X-2073000D02*
D03*
D147*
X2700000Y1000000D02*
D03*
Y800000D02*
D03*
Y200000D02*
D03*
Y400000D02*
D03*
Y600000D02*
D03*
D148*
Y0D02*
D03*
D149*
X1955500Y-4765000D02*
D03*
X-2844500D02*
D03*
D150*
X2082500Y-4511000D02*
D03*
X2209500Y-4765000D02*
D03*
X2336500Y-4511000D02*
D03*
X2463500Y-4765000D02*
D03*
X2590500Y-4511000D02*
D03*
X2717500Y-4765000D02*
D03*
X2844500Y-4511000D02*
D03*
X-2717500D02*
D03*
X-2590500Y-4765000D02*
D03*
X-2463500Y-4511000D02*
D03*
X-2336500Y-4765000D02*
D03*
X-2209500Y-4511000D02*
D03*
X-2082500Y-4765000D02*
D03*
X-1955500Y-4511000D02*
D03*
D151*
X1828500Y-5400000D02*
D03*
X2971500D02*
D03*
X-2971500D02*
D03*
X-1828500D02*
D03*
D152*
X1350000Y-5800000D02*
D03*
X250000D02*
D03*
D153*
X550000Y-4800000D02*
D03*
D154*
X1050000D02*
D03*
D155*
X-1475000Y-5100000D02*
D03*
X-125000D02*
D03*
D156*
X-1160000Y-4500000D02*
D03*
D157*
X-440000D02*
D03*
D158*
X2646927Y-1569552D02*
D03*
X2953073Y-830448D02*
D03*
D159*
X2514812Y-1514828D02*
D03*
X2820959Y-775724D02*
D03*
X2779041Y-1624275D02*
D03*
X3085188Y-885172D02*
D03*
D160*
X-496000Y-3730000D02*
D03*
Y-4070000D02*
D03*
X496000Y-3730000D02*
D03*
Y-4070000D02*
D03*
D161*
X-900000Y2900000D02*
D03*
X0D02*
D03*
X900000D02*
D03*
D162*
X-609492Y2246372D02*
D03*
X-736492Y1753612D02*
D03*
Y2246372D02*
D03*
X-863492D02*
D03*
Y1753612D02*
D03*
X-609492D02*
D03*
X-990492Y2246372D02*
D03*
Y1753612D02*
D03*
X1190508Y2246372D02*
D03*
X1063508Y1753612D02*
D03*
Y2246372D02*
D03*
X936508D02*
D03*
Y1753612D02*
D03*
X1190508D02*
D03*
X809508D02*
D03*
Y2246372D02*
D03*
D163*
X2498750Y690000D02*
D03*
Y640000D02*
D03*
Y540000D02*
D03*
Y490000D02*
D03*
X2421250D02*
D03*
Y540000D02*
D03*
Y640000D02*
D03*
Y690000D02*
D03*
D164*
X2495000Y590000D02*
D03*
D165*
X2418750D02*
D03*
D166*
X1416388Y-2186492D02*
D03*
X923628Y-2313492D02*
D03*
Y-2440492D02*
D03*
Y-2059492D02*
D03*
X1416388Y-2313492D02*
D03*
X923628Y-2186492D02*
D03*
X1416388Y-2059492D02*
D03*
Y-2440492D02*
D03*
%TF.MD5,382bef556db4d181d5f687cfcfe2cf51*%
M02*
